<svg width="197" height="313" viewBox="0 0 197 313" fill="none" xmlns="http://www.w3.org/2000/svg">
<path d="M191.958 350.242H194.2V348V298.118V295.876H191.958H6.22712C7.44903 280.244 12.0433 267.697 20.3013 257.484C28.992 246.735 41.8972 238.376 59.7116 231.812C59.7123 231.812 59.7131 231.812 59.7139 231.811L110.525 213.291C110.528 213.29 110.53 213.29 110.532 213.289C137.373 203.702 158.306 190.69 172.535 173.724C186.799 156.718 194.2 135.887 194.2 110.94C194.2 78.8151 183.194 51.6887 162.108 32.6136C141.045 13.5601 110.17 2.75817 70.8156 2.75817C30.7588 2.75817 -0.0548592 13.5571 -20.85 34.2303C-41.6466 54.905 -52.0938 85.1277 -52.0938 123.292V125.534H-49.852H6.68122H8.70593L8.91147 123.52C11.2624 100.481 17.4608 83.9414 27.6127 73.1657C37.7047 62.4536 52.0042 57.1241 71.2906 57.1241C88.4578 57.1241 102.726 61.9934 112.673 70.8667C122.588 79.7111 128.432 92.7292 128.432 109.515C128.432 122.909 125.209 134.152 117.856 143.655C110.477 153.191 98.7764 161.184 81.4409 167.746L33.951 184.842L33.943 184.845C0.450634 197.046 -23.0639 212.467 -38.1537 234.189C-53.2411 255.907 -59.695 283.621 -59.695 319.971V348V350.242H-57.4531H191.958Z" fill="white" stroke="#6CC56C" stroke-width="4.48366"/>
</svg>
