<svg width="209" height="325" viewBox="0 0 209 325" fill="none" xmlns="http://www.w3.org/2000/svg">
<path d="M-105.375 275.281H-107.606V277.512C-107.606 328.468 -92.3577 364.303 -64.8445 387.339C-37.4071 410.312 1.84908 420.231 49.2179 420.231C96.6685 420.231 135.965 408.584 163.459 388.197C191.006 367.77 206.606 338.628 206.606 304.03C206.606 274.055 199.465 251.792 186.438 235.563C174.982 221.291 159.138 211.89 140.11 205.942C157 200.906 171.361 192.401 181.897 179.783C194.077 165.197 200.964 145.332 200.964 119.534C200.964 85.2506 185.957 55.9763 159.409 35.328C132.903 14.7121 95.0047 2.76867 49.2179 2.76867C0.604568 2.76867 -37.2234 15.5635 -62.9241 38.5286C-88.6556 61.5212 -101.964 94.4716 -101.964 134.204V136.435H-99.7329H-32.5922H-30.5924L-30.3742 134.447C-27.8788 111.711 -19.8777 94.8106 -6.73954 83.5687C6.41461 72.3131 25.0176 66.4731 49.2179 66.4731C71.6822 66.4731 90.3341 72.5748 103.321 83.0461C116.268 93.4848 123.719 108.363 123.719 126.305C123.719 144.55 116.825 157.223 104.803 165.438C92.6399 173.749 74.9673 177.673 53.1673 177.673H10.8518H8.62044V179.904V235.197V237.428H10.8518H58.8094C81.9729 237.428 99.5952 242.181 111.386 251.412C123.081 260.567 129.361 274.383 129.361 293.31C129.361 312.185 122.409 327.89 109.149 338.917C95.8419 349.984 75.9517 356.527 49.7821 356.527C24.4085 356.527 4.56996 350.948 -9.68185 338.461C-23.9245 325.982 -32.9471 306.286 -36.0153 277.278L-36.2265 275.281H-38.2343H-105.375Z" fill="white" stroke="#6CC56C" stroke-width="4.46266"/>
</svg>
