<svg width="731" height="893" viewBox="0 0 731 893" fill="none" xmlns="http://www.w3.org/2000/svg">
<rect x="1" y="237" width="131" height="515" fill="#6CC56C"/>
<line x1="67.5" y1="240" x2="67.5" y2="752" stroke="white" stroke-width="3" stroke-dasharray="21 21"/>
<g filter="url(#filter0_ii_5753_32161)">
<path d="M30.3654 671.941C30.6876 661.196 38.2214 652.061 48.6582 649.347L49.2771 649.186C61.1832 646.09 73.669 646.304 85.3774 649.806C95.2893 652.77 102.053 661.823 102.067 672.2C102.085 685.619 102.086 705.664 102 728.287C101.933 745.996 101.327 763.774 100.727 777.297C100.122 790.94 89.6462 802.11 76.0852 803.888L75.3482 803.985C68.0095 804.947 60.5825 804.82 53.3091 803.606C40.7087 801.505 31.5058 790.701 31.3146 777.91C31.129 765.49 30.8127 748.434 30.2799 728.319C29.6677 705.204 29.9642 685.323 30.3654 671.941Z" fill="url(#paint0_linear_5753_32161)"/>
</g>
<path d="M39.1503 699.945C37.2881 691.833 42.3467 683.156 50.5651 681.537L51.0909 681.433C61.1836 679.444 71.5525 679.607 81.5164 681.91C89.3446 683.719 93.7466 692.239 91.7224 700.065C89.4588 708.817 87.2445 720.812 87.2673 734.192C87.286 745.178 88.8843 756.23 90.6154 764.997C92.422 774.145 86.0841 783.485 76.7604 784.4L75.401 784.533C68.0469 785.255 60.6467 785.139 53.3427 784.189C44.6616 783.06 39.2571 773.625 41.1306 765.035C42.8859 756.987 44.2839 746.428 43.7783 734.166C43.218 720.578 41.1543 708.675 39.1503 699.945Z" fill="#A7A5A5"/>
<g filter="url(#filter1_di_5753_32161)">
<path fill-rule="evenodd" clip-rule="evenodd" d="M34.6573 676.905C35.4198 665.033 43.2467 654.734 54.381 650.403C61.992 647.443 70.4352 647.392 77.9904 650.288C89.4662 654.687 97.0939 665.554 97.2967 677.891C97.3451 680.837 97.395 684.001 97.4442 687.308C97.4547 688.018 96.5178 688.376 96.0005 687.89C95.4563 687.379 94.651 687.994 94.8509 688.714C95.5808 691.342 95.6869 694.186 95.0525 696.979C92.8188 706.811 90.5751 720.544 90.6151 735.929C90.6464 747.986 92.4103 760.115 94.3463 769.826C95.0706 773.459 94.672 777.122 93.3967 780.4C93.1454 781.046 93.8749 781.666 94.3973 781.211C94.8699 780.799 95.6566 781.16 95.6074 781.785C95.4541 783.729 95.3084 785.5 95.1764 787.06C94.804 791.459 91.7124 795.164 87.4573 796.389L86.0909 796.782C71.9363 800.854 56.9528 800.691 43.0066 796.312C39.1679 795.107 36.4637 791.711 36.1772 787.688C36.0424 785.795 35.8856 783.541 35.7147 780.988C35.659 780.156 36.8516 779.716 37.4322 780.315C38.017 780.918 38.9267 780.229 38.686 779.424C37.7745 776.375 37.5868 773.069 38.2806 769.869C40.2161 760.941 41.7264 749.328 41.1505 735.882C40.5057 720.825 38.1814 707.619 35.9121 697.886C35.2842 695.192 35.3341 692.441 35.9536 689.852C36.0829 689.311 35.4342 688.919 35.0985 689.362C34.7627 689.806 33.9288 689.557 33.9573 689.002C34.1782 684.693 34.4192 680.612 34.6573 676.905ZM40.4535 697.253C38.697 689.515 43.5095 681.281 51.3344 679.695L51.8512 679.59C61.8208 677.57 72.0808 677.733 81.9209 680.07C89.3727 681.839 93.5647 689.93 91.6475 697.392C89.3975 706.149 87.1397 718.347 87.1581 731.993C87.1732 743.219 88.8014 754.513 90.5257 763.341C92.2362 772.098 86.1721 781.003 77.2549 781.903L75.9333 782.037C68.6365 782.774 61.2904 782.657 54.0441 781.689C45.7324 780.579 40.5547 771.595 42.3548 763.369C44.1246 755.281 45.5752 744.524 45.0756 731.975C44.5234 718.101 42.4373 705.993 40.4535 697.253Z" fill="url(#paint1_linear_5753_32161)"/>
</g>
<g filter="url(#filter2_di_5753_32161)">
<path d="M35.4072 686.302C35.1167 685.422 35.6721 684.471 36.5881 684.291L66.0852 678.479C66.2936 678.438 66.5077 678.441 66.7134 678.489L94.7578 684.971C95.6602 685.179 96.1588 686.146 95.8252 687.017C93.7108 692.542 87.2283 711.348 87.2673 734.192C87.3017 754.39 92.6746 774.809 94.3971 780.84C94.6597 781.759 94.0152 782.707 93.0586 782.801L64.5048 785.602C64.3914 785.613 64.2773 785.612 64.1647 785.597L37.8825 782.178C36.8824 782.048 36.2877 780.984 36.6632 780.041C38.8498 774.55 44.7371 757.42 43.7783 734.166C42.7987 710.411 37.2239 691.805 35.4072 686.302Z" fill="url(#paint2_linear_5753_32161)"/>
</g>
<g filter="url(#filter3_d_5753_32161)">
<g filter="url(#filter4_d_5753_32161)">
<path d="M95.7028 663.241C93.613 659.601 90.6718 658.27 88.3544 657.946C87.2022 657.784 86.7898 659.101 87.5559 659.985C90.8603 663.797 93.7969 669.145 95.7325 673.26C96.3288 674.528 97.997 674.378 98.0245 672.99C98.0814 670.127 97.5848 666.519 95.7028 663.241Z" fill="white"/>
<path d="M93.8152 664.292C93.1243 663.088 92.337 662.212 91.531 661.579C92.8299 663.408 94.0327 665.373 95.1008 667.289C94.7916 666.273 94.3719 665.262 93.8152 664.292Z" stroke="white" stroke-width="4.35467" stroke-linecap="round"/>
</g>
</g>
<g filter="url(#filter5_d_5753_32161)">
<path d="M35.4252 663.437C37.5311 659.554 40.6159 658.136 43.036 657.787C44.1854 657.621 44.6304 658.937 43.884 659.831C40.4774 663.912 37.5091 669.672 35.5972 674.041C35.0375 675.32 33.3627 675.197 33.2871 673.808C33.1234 670.8 33.519 666.952 35.4252 663.437Z" fill="white"/>
<path d="M37.3376 664.461C38.1521 662.959 39.1211 661.93 40.108 661.232C38.5375 663.501 37.1103 665.99 35.886 668.374C36.1852 667.056 36.651 665.727 37.3376 664.461Z" stroke="white" stroke-width="4.35467" stroke-linecap="round"/>
</g>
<g filter="url(#filter6_di_5753_32161)">
<path fill-rule="evenodd" clip-rule="evenodd" d="M46.4638 675.198C39.7245 676.634 34.6037 682.179 34.0875 689.034C33.3796 698.434 32.7042 712.992 33.3341 730.293C33.9174 746.316 34.6295 759.817 35.1763 769.054C35.3726 772.37 36.5479 775.41 38.4284 777.892C37.7611 775.119 37.6809 772.174 38.2987 769.317C40.1858 760.591 41.6343 749.325 41.0682 736.316C40.4334 721.726 38.1714 708.9 35.9363 699.363C33.77 690.119 39.5463 680.163 48.9326 678.377L49.7057 678.23C60.9392 676.093 72.4634 676.341 83.5263 678.959C91.9531 680.953 96.8123 689.94 94.8747 698.432C92.673 708.081 90.4933 721.432 90.5328 736.363C90.5637 748.037 92.2702 759.779 94.1683 769.257C94.6071 771.449 94.6393 773.653 94.3182 775.779C95.5151 773.675 96.281 771.297 96.4959 768.754C97.3395 758.769 98.2489 744.795 98.253 730.918C98.258 713.948 97.7863 699.044 97.3867 689.478C97.1084 682.816 92.4768 677.248 86.0202 675.646C73.3563 672.504 60.1017 672.292 47.2599 675.028L46.4638 675.198Z" fill="url(#paint3_linear_5753_32161)"/>
</g>
<g filter="url(#filter7_ii_5753_32161)">
<path fill-rule="evenodd" clip-rule="evenodd" d="M33.3523 680.77C34.1595 668.447 42.3788 657.791 53.9934 653.432C61.6039 650.576 69.9854 650.527 77.5345 653.319C89.4952 657.744 97.4873 668.993 97.7035 681.797C97.7492 684.505 97.796 687.384 97.842 690.382C97.8529 691.091 96.9119 691.447 96.3972 690.959C95.855 690.445 95.0553 691.062 95.2665 691.779C96.1103 694.642 96.2497 697.763 95.5475 700.819C93.3323 710.459 91.1926 723.586 91.2327 738.225C91.2639 749.62 92.9264 761.079 94.8176 770.459C95.6131 774.404 95.143 778.395 93.6944 781.939C93.4206 782.609 94.1804 783.265 94.7236 782.787C95.2109 782.357 96.0275 782.731 95.9748 783.378C95.8266 785.199 95.6849 786.87 95.5551 788.361C95.1504 793.005 91.8559 796.894 87.3494 798.145L85.9751 798.527C71.5721 802.525 56.3902 802.365 42.1998 798.066C38.136 796.835 35.2587 793.276 34.9466 789.03C34.8396 787.575 34.7202 785.92 34.5917 784.09C34.5181 783.042 35.9378 782.436 36.7382 783.117C37.5662 783.821 38.659 782.824 38.2854 781.803C36.9908 778.266 36.6328 774.323 37.4464 770.538C39.3068 761.882 40.6943 750.852 40.1274 738.177C39.4894 723.912 37.262 711.324 35.0163 701.822C34.2135 698.426 34.4397 694.931 35.497 691.746C35.745 690.999 34.9094 690.341 34.356 690.901C33.8166 691.446 32.7371 691.047 32.7791 690.281C32.9629 686.933 33.1579 683.739 33.3523 680.77ZM39.57 700.832C37.7105 692.744 42.761 684.075 50.9605 682.472L51.4801 682.37C61.4378 680.423 71.662 680.581 81.4916 682.833C89.301 684.622 93.6886 693.128 91.6633 700.933C89.4319 709.532 87.2644 721.26 87.2829 734.33C87.2981 745.056 88.855 755.845 90.5543 764.441C92.3556 773.552 86.039 782.87 76.7495 783.774L75.4018 783.906C68.1562 784.611 60.8663 784.499 53.6704 783.572C45.025 782.458 39.6467 773.049 41.5136 764.494C43.2369 756.596 44.5993 746.277 44.1054 734.311C43.5577 721.043 41.5414 709.407 39.57 700.832Z" fill="url(#paint4_linear_5753_32161)"/>
</g>
<g filter="url(#filter8_ii_5753_32161)">
<path d="M41.7184 712.13C56.9493 707.424 73.2361 707.356 88.5059 711.935L89.064 712.102C89.064 712.102 87.7417 720.173 87.7317 737.326C88.2272 754.373 90.048 762.031 90.048 762.031L88.2025 762.356C72.8972 765.055 57.2246 764.899 41.976 761.897C41.976 761.897 43.8922 748.784 43.7906 737.284C43.7033 727.402 41.7184 712.13 41.7184 712.13Z" fill="url(#paint5_linear_5753_32161)"/>
</g>
<rect x="395" y="1" width="131" height="751" fill="#6CC56C"/>
<line x1="461.5" y1="5" x2="461.5" y2="752" stroke="white" stroke-width="3" stroke-dasharray="21 21"/>
<g filter="url(#filter9_ii_5753_32161)">
<path d="M424.362 487.941C424.684 477.196 432.218 468.061 442.654 465.347L443.273 465.186C455.179 462.09 467.665 462.304 479.373 465.806C489.285 468.77 496.049 477.823 496.063 488.2C496.081 501.619 496.082 521.664 495.996 544.287C495.929 561.996 495.323 579.774 494.723 593.297C494.118 606.94 483.642 618.11 470.081 619.888L469.344 619.985C462.006 620.947 454.579 620.82 447.305 619.606C434.705 617.505 425.502 606.701 425.311 593.91C425.125 581.49 424.809 564.434 424.276 544.319C423.664 521.204 423.96 501.323 424.362 487.941Z" fill="url(#paint6_linear_5753_32161)"/>
</g>
<path d="M433.146 515.945C431.284 507.833 436.343 499.156 444.561 497.537L445.087 497.433C455.18 495.444 465.549 495.607 475.512 497.91C483.341 499.719 487.743 508.239 485.718 516.065C483.455 524.817 481.241 536.812 481.263 550.192C481.282 561.178 482.88 572.23 484.611 580.997C486.418 590.145 480.08 599.485 470.756 600.4L469.397 600.533C462.043 601.255 454.643 601.139 447.339 600.189C438.658 599.06 433.253 589.625 435.127 581.035C436.882 572.987 438.28 562.428 437.774 550.166C437.214 536.578 435.15 524.675 433.146 515.945Z" fill="#A7A5A5"/>
<g filter="url(#filter10_di_5753_32161)">
<path fill-rule="evenodd" clip-rule="evenodd" d="M428.653 492.905C429.416 481.033 437.243 470.734 448.377 466.403C455.988 463.443 464.431 463.392 471.987 466.288C483.462 470.687 491.09 481.554 491.293 493.891C491.341 496.837 491.391 500.001 491.44 503.308C491.451 504.018 490.514 504.376 489.997 503.89C489.452 503.379 488.647 503.994 488.847 504.714C489.577 507.342 489.683 510.186 489.049 512.979C486.815 522.811 484.571 536.544 484.611 551.929C484.642 563.986 486.406 576.115 488.342 585.826C489.067 589.459 488.668 593.122 487.393 596.4C487.142 597.046 487.871 597.666 488.393 597.211C488.866 596.799 489.653 597.16 489.603 597.785C489.45 599.729 489.305 601.5 489.172 603.06C488.8 607.459 485.709 611.164 481.453 612.389L480.087 612.782C465.932 616.854 450.949 616.691 437.003 612.312C433.164 611.107 430.46 607.711 430.173 603.688C430.038 601.795 429.882 599.541 429.711 596.988C429.655 596.156 430.848 595.716 431.428 596.315C432.013 596.918 432.923 596.229 432.682 595.424C431.771 592.375 431.583 589.069 432.277 585.869C434.212 576.941 435.723 565.328 435.147 551.882C434.502 536.825 432.177 523.619 429.908 513.886C429.28 511.192 429.33 508.441 429.95 505.852C430.079 505.311 429.43 504.919 429.095 505.362C428.759 505.806 427.925 505.557 427.953 505.002C428.174 500.693 428.415 496.612 428.653 492.905ZM434.45 513.253C432.693 505.515 437.506 497.281 445.33 495.695L445.847 495.59C455.817 493.57 466.077 493.733 475.917 496.07C483.369 497.839 487.561 505.93 485.644 513.392C483.394 522.149 481.136 534.347 481.154 547.993C481.169 559.219 482.797 570.513 484.522 579.341C486.232 588.098 480.168 597.003 471.251 597.903L469.929 598.037C462.633 598.774 455.286 598.657 448.04 597.689C439.728 596.579 434.551 587.595 436.351 579.369C438.121 571.281 439.571 560.524 439.072 547.975C438.519 534.101 436.433 521.993 434.45 513.253Z" fill="url(#paint7_linear_5753_32161)"/>
</g>
<g filter="url(#filter11_di_5753_32161)">
<path d="M429.403 502.302C429.113 501.422 429.668 500.471 430.584 500.291L460.081 494.479C460.29 494.438 460.504 494.441 460.709 494.489L488.754 500.971C489.656 501.179 490.155 502.146 489.821 503.017C487.707 508.542 481.224 527.348 481.263 550.192C481.298 570.39 486.671 590.809 488.393 596.84C488.656 597.759 488.011 598.707 487.055 598.801L458.501 601.602C458.388 601.613 458.273 601.612 458.161 601.597L431.879 598.178C430.878 598.048 430.284 596.984 430.659 596.041C432.846 590.55 438.733 573.42 437.774 550.166C436.795 526.411 431.22 507.805 429.403 502.302Z" fill="url(#paint8_linear_5753_32161)"/>
</g>
<g filter="url(#filter12_d_5753_32161)">
<g filter="url(#filter13_d_5753_32161)">
<path d="M489.699 479.241C487.609 475.601 484.668 474.27 482.35 473.946C481.198 473.784 480.786 475.101 481.552 475.985C484.856 479.797 487.793 485.145 489.729 489.26C490.325 490.528 491.993 490.378 492.021 488.99C492.077 486.127 491.581 482.519 489.699 479.241Z" fill="white"/>
<path d="M487.811 480.292C487.12 479.088 486.333 478.212 485.527 477.579C486.826 479.408 488.029 481.373 489.097 483.289C488.788 482.273 488.368 481.262 487.811 480.292Z" stroke="white" stroke-width="4.35467" stroke-linecap="round"/>
</g>
</g>
<g filter="url(#filter14_d_5753_32161)">
<path d="M429.421 479.437C431.527 475.554 434.612 474.136 437.032 473.787C438.181 473.621 438.626 474.937 437.88 475.831C434.474 479.912 431.505 485.672 429.593 490.041C429.034 491.32 427.359 491.197 427.283 489.808C427.119 486.8 427.515 482.952 429.421 479.437Z" fill="white"/>
<path d="M431.334 480.461C432.148 478.959 433.117 477.93 434.104 477.232C432.534 479.501 431.106 481.99 429.882 484.374C430.181 483.056 430.647 481.727 431.334 480.461Z" stroke="white" stroke-width="4.35467" stroke-linecap="round"/>
</g>
<g filter="url(#filter15_di_5753_32161)">
<path fill-rule="evenodd" clip-rule="evenodd" d="M440.46 491.198C433.721 492.634 428.6 498.179 428.084 505.034C427.376 514.434 426.7 528.992 427.33 546.293C427.914 562.316 428.626 575.817 429.172 585.054C429.369 588.37 430.544 591.41 432.425 593.892C431.757 591.119 431.677 588.174 432.295 585.317C434.182 576.591 435.63 565.325 435.064 552.316C434.429 537.726 432.167 524.9 429.932 515.363C427.766 506.119 433.542 496.163 442.929 494.377L443.702 494.23C454.935 492.093 466.46 492.341 477.522 494.959C485.949 496.953 490.808 505.94 488.871 514.432C486.669 524.081 484.489 537.432 484.529 552.363C484.56 564.037 486.266 575.779 488.164 585.257C488.603 587.449 488.635 589.653 488.314 591.779C489.511 589.675 490.277 587.297 490.492 584.754C491.336 574.769 492.245 560.795 492.249 546.918C492.254 529.948 491.782 515.044 491.383 505.478C491.104 498.816 486.473 493.248 480.016 491.646C467.352 488.504 454.098 488.292 441.256 491.028L440.46 491.198Z" fill="url(#paint9_linear_5753_32161)"/>
</g>
<g filter="url(#filter16_ii_5753_32161)">
<path fill-rule="evenodd" clip-rule="evenodd" d="M427.348 496.77C428.156 484.447 436.375 473.791 447.99 469.432C455.6 466.576 463.981 466.527 471.531 469.319C483.491 473.744 491.483 484.993 491.7 497.797C491.745 500.505 491.792 503.384 491.838 506.382C491.849 507.091 490.908 507.447 490.393 506.959C489.851 506.445 489.051 507.062 489.263 507.779C490.106 510.642 490.246 513.763 489.544 516.819C487.328 526.459 485.189 539.586 485.229 554.225C485.26 565.62 486.922 577.079 488.814 586.459C489.609 590.404 489.139 594.395 487.69 597.939C487.417 598.609 488.177 599.265 488.72 598.787C489.207 598.357 490.024 598.731 489.971 599.378C489.823 601.199 489.681 602.87 489.551 604.361C489.146 609.005 485.852 612.894 481.346 614.145L479.971 614.527C465.568 618.525 450.386 618.365 436.196 614.066C432.132 612.835 429.255 609.276 428.943 605.03C428.836 603.575 428.716 601.92 428.588 600.09C428.514 599.042 429.934 598.436 430.734 599.117C431.562 599.821 432.655 598.824 432.281 597.803C430.987 594.266 430.629 590.323 431.442 586.538C433.303 577.882 434.69 566.852 434.124 554.177C433.486 539.912 431.258 527.324 429.012 517.822C428.21 514.426 428.436 510.931 429.493 507.746C429.741 506.999 428.905 506.341 428.352 506.901C427.813 507.446 426.733 507.047 426.775 506.281C426.959 502.933 427.154 499.739 427.348 496.77ZM433.566 516.832C431.707 508.744 436.757 500.075 444.957 498.472L445.476 498.37C455.434 496.423 465.658 496.581 475.488 498.833C483.297 500.622 487.685 509.128 485.659 516.933C483.428 525.532 481.26 537.26 481.279 550.33C481.294 561.056 482.851 571.845 484.55 580.441C486.352 589.552 480.035 598.87 470.746 599.774L469.398 599.906C462.152 600.611 454.862 600.499 447.666 599.572C439.021 598.458 433.643 589.049 435.51 580.494C437.233 572.596 438.595 562.277 438.101 550.311C437.554 537.043 435.538 525.407 433.566 516.832Z" fill="url(#paint10_linear_5753_32161)"/>
</g>
<g filter="url(#filter17_ii_5753_32161)">
<path d="M435.715 528.13C450.945 523.424 467.232 523.356 482.502 527.935L483.06 528.102C483.06 528.102 481.738 536.173 481.728 553.326C482.223 570.373 484.044 578.031 484.044 578.031L482.199 578.356C466.893 581.055 451.221 580.899 435.972 577.897C435.972 577.897 437.888 564.784 437.787 553.284C437.699 543.402 435.715 528.13 435.715 528.13Z" fill="url(#paint11_linear_5753_32161)"/>
</g>
<rect x="198" y="151" width="131" height="741" fill="#6CC56C"/>
<line x1="264.5" y1="156" x2="264.5" y2="892" stroke="white" stroke-width="3" stroke-dasharray="21 21"/>
<g filter="url(#filter18_ii_5753_32161)">
<path d="M299.985 230.922C299.67 241.667 292.141 250.807 281.706 253.527L281.087 253.688C269.183 256.791 256.697 256.584 244.986 253.09C235.073 250.132 228.304 241.082 228.284 230.705C228.258 217.286 228.245 197.241 228.318 174.618C228.375 156.909 228.97 139.131 229.562 125.607C230.159 111.964 240.629 100.788 254.188 99.0018L254.925 98.9047C262.264 97.9381 269.691 98.0613 276.965 99.2704C289.566 101.365 298.776 112.163 298.974 124.954C299.167 137.374 299.493 154.43 300.038 174.545C300.664 197.659 300.379 217.54 299.985 230.922Z" fill="url(#paint12_linear_5753_32161)"/>
</g>
<path d="M291.185 202.923C293.052 211.034 287.998 219.714 279.781 221.338L279.255 221.442C269.163 223.437 258.794 223.28 248.829 220.983C241 219.178 236.593 210.661 238.612 202.834C240.871 194.08 243.078 182.084 243.048 168.705C243.022 157.718 241.418 146.667 239.681 137.902C237.869 128.754 244.202 119.41 253.525 118.49L254.884 118.356C262.238 117.63 269.638 117.742 276.943 118.687C285.625 119.812 291.035 129.243 289.166 137.834C287.416 145.883 286.024 156.443 286.537 168.705C287.105 182.292 289.175 194.194 291.185 202.923Z" fill="#A7A5A5"/>
<g filter="url(#filter19_di_5753_32161)">
<path fill-rule="evenodd" clip-rule="evenodd" d="M295.689 225.96C294.934 237.833 287.113 248.136 275.981 252.474C268.372 255.439 259.929 255.495 252.372 252.603C240.893 248.21 233.259 237.348 233.049 225.011C232.999 222.065 232.947 218.902 232.896 215.594C232.885 214.884 233.822 214.526 234.34 215.012C234.884 215.523 235.689 214.907 235.489 214.187C234.757 211.56 234.649 208.715 235.282 205.922C237.51 196.088 239.746 182.354 239.697 166.969C239.658 154.912 237.888 142.784 235.946 133.075C235.219 129.442 235.616 125.779 236.889 122.5C237.14 121.854 236.41 121.234 235.888 121.69C235.416 122.102 234.629 121.742 234.678 121.117C234.83 119.173 234.975 117.401 235.106 115.841C235.475 111.442 238.565 107.735 242.819 106.508L244.185 106.114C258.338 102.033 273.321 102.188 287.27 106.558C291.109 107.761 293.816 111.155 294.104 115.178C294.24 117.072 294.398 119.325 294.571 121.878C294.627 122.71 293.435 123.151 292.854 122.553C292.269 121.95 291.359 122.639 291.6 123.444C292.514 126.492 292.703 129.799 292.012 132.999C290.081 141.928 288.578 153.542 289.161 166.988C289.815 182.044 292.147 195.248 294.422 204.981C295.052 207.674 295.003 210.425 294.385 213.015C294.256 213.555 294.905 213.947 295.241 213.503C295.576 213.06 296.41 213.308 296.382 213.864C296.164 218.173 295.925 222.253 295.689 225.96ZM289.881 205.616C291.642 213.353 286.834 221.59 279.01 223.181L278.494 223.286C268.525 225.312 258.265 225.154 248.424 222.824C240.971 221.059 236.774 212.97 238.687 205.507C240.932 196.749 243.183 184.549 243.156 170.903C243.134 159.677 241.5 148.384 239.77 139.558C238.055 130.801 244.113 121.893 253.03 120.987L254.352 120.853C261.648 120.112 268.994 120.224 276.241 121.188C284.553 122.293 289.736 131.274 287.941 139.502C286.176 147.59 284.732 158.348 285.239 170.897C285.799 184.771 287.892 196.877 289.881 205.616Z" fill="url(#paint13_linear_5753_32161)"/>
</g>
<g filter="url(#filter20_di_5753_32161)">
<path d="M294.936 216.564C295.227 217.444 294.672 218.395 293.756 218.576L264.262 224.405C264.054 224.446 263.84 224.443 263.634 224.396L235.586 217.93C234.683 217.722 234.184 216.756 234.517 215.884C236.628 210.358 243.1 191.548 243.048 168.705C243.001 148.507 237.616 128.09 235.89 122.061C235.627 121.142 236.271 120.193 237.228 120.098L265.78 117.281C265.893 117.27 266.007 117.271 266.12 117.286L292.404 120.69C293.404 120.819 294 121.883 293.625 122.826C291.441 128.318 285.564 145.452 286.537 168.705C287.53 192.46 293.116 211.062 294.936 216.564Z" fill="url(#paint14_linear_5753_32161)"/>
</g>
<g filter="url(#filter21_d_5753_32161)">
<g filter="url(#filter22_d_5753_32161)">
<path d="M234.653 239.66C236.745 243.299 239.687 244.628 242.005 244.951C243.157 245.112 243.569 243.795 242.802 242.912C239.495 239.102 236.556 233.756 234.618 229.642C234.021 228.374 232.353 228.524 232.326 229.913C232.271 232.776 232.769 236.383 234.653 239.66Z" fill="white"/>
<path d="M236.54 238.608C237.232 239.812 238.02 240.688 238.826 241.32C237.526 239.492 236.322 237.528 235.253 235.612C235.563 236.628 235.983 237.639 236.54 238.608Z" stroke="white" stroke-width="4.35467" stroke-linecap="round"/>
</g>
</g>
<g filter="url(#filter23_d_5753_32161)">
<path d="M294.931 239.429C292.827 243.314 289.743 244.733 287.323 245.084C286.174 245.25 285.728 243.935 286.474 243.04C289.878 238.957 292.843 233.195 294.753 228.826C295.311 227.546 296.986 227.668 297.063 229.057C297.228 232.065 296.835 235.913 294.931 239.429Z" fill="white"/>
<path d="M293.018 238.406C292.204 239.908 291.236 240.939 290.249 241.637C291.818 239.367 293.244 236.877 294.467 234.492C294.169 235.811 293.704 237.14 293.018 238.406Z" stroke="white" stroke-width="4.35467" stroke-linecap="round"/>
</g>
<g filter="url(#filter24_di_5753_32161)">
<path fill-rule="evenodd" clip-rule="evenodd" d="M283.887 227.675C290.625 226.235 295.743 220.687 296.255 213.832C296.957 204.431 297.624 189.872 296.984 172.572C296.391 156.549 295.671 143.049 295.119 133.812C294.921 130.496 293.744 127.457 291.862 124.976C292.531 127.749 292.613 130.693 291.997 133.551C290.115 142.278 288.673 153.545 289.246 166.553C289.89 181.143 292.159 193.967 294.4 203.504C296.572 212.747 290.801 222.706 281.416 224.497L280.643 224.645C269.411 226.788 257.886 226.547 246.822 223.935C238.394 221.946 233.529 212.962 235.462 204.469C237.658 194.818 239.83 181.467 239.782 166.535C239.744 154.861 238.031 143.121 236.127 133.643C235.687 131.452 235.653 129.248 235.973 127.122C234.778 129.226 234.013 131.605 233.8 134.148C232.962 144.133 232.061 158.108 232.065 171.985C232.07 188.955 232.55 203.858 232.955 213.425C233.238 220.086 237.872 225.651 244.33 227.249C256.996 230.385 270.25 230.588 283.091 227.845L283.887 227.675Z" fill="url(#paint15_linear_5753_32161)"/>
</g>
<g filter="url(#filter25_ii_5753_32161)">
<path fill-rule="evenodd" clip-rule="evenodd" d="M296.994 222.095C296.194 234.419 287.981 245.079 276.369 249.445C268.76 252.306 260.378 252.359 252.828 249.571C240.864 245.154 232.866 233.909 232.642 221.106C232.595 218.398 232.546 215.518 232.498 212.521C232.487 211.812 233.428 211.456 233.943 211.943C234.485 212.457 235.285 211.839 235.073 211.122C234.228 208.26 234.086 205.139 234.787 202.083C236.996 192.441 239.128 179.313 239.08 164.674C239.042 153.279 237.373 141.821 235.476 132.442C234.678 128.497 235.146 124.506 236.592 120.961C236.866 120.291 236.106 119.636 235.563 120.114C235.076 120.544 234.259 120.171 234.311 119.524C234.458 117.703 234.599 116.031 234.728 114.541C235.13 109.896 238.422 106.005 242.928 104.751L244.302 104.369C258.703 100.363 273.885 100.514 288.078 104.805C292.142 106.033 295.021 109.591 295.336 113.836C295.444 115.291 295.564 116.946 295.694 118.776C295.768 119.824 294.349 120.431 293.548 119.75C292.719 119.046 291.627 120.044 292.002 121.065C293.298 124.601 293.659 128.544 292.847 132.33C290.992 140.986 289.611 152.017 290.185 164.692C290.831 178.957 293.066 191.543 295.317 201.044C296.122 204.44 295.898 207.935 294.843 211.12C294.595 211.867 295.431 212.525 295.984 211.965C296.523 211.419 297.603 211.818 297.561 212.584C297.38 215.932 297.186 219.126 296.994 222.095ZM290.764 202.037C292.629 210.124 287.583 218.796 279.385 220.403L278.865 220.505C268.908 222.458 258.684 222.306 248.853 220.06C241.043 218.276 236.65 209.772 238.671 201.966C240.897 193.366 243.058 181.636 243.032 168.566C243.01 157.841 241.447 147.052 239.743 138.458C237.936 129.347 244.247 120.026 253.536 119.116L254.884 118.984C262.129 118.274 269.419 118.382 276.615 119.305C285.262 120.414 290.645 129.82 288.783 138.376C287.065 146.274 285.708 156.595 286.209 168.561C286.765 181.828 288.788 193.463 290.764 202.037Z" fill="url(#paint16_linear_5753_32161)"/>
</g>
<g filter="url(#filter26_ii_5753_32161)">
<path d="M288.609 190.74C273.381 195.455 257.094 195.533 241.822 190.963L241.264 190.796C241.264 190.796 242.581 182.724 242.581 165.571C242.076 148.524 240.251 140.868 240.251 140.868L242.096 140.541C257.4 137.833 273.072 137.98 288.323 140.973C288.323 140.973 286.414 154.087 286.522 165.587C286.616 175.469 288.609 190.74 288.609 190.74Z" fill="url(#paint17_linear_5753_32161)"/>
</g>
<rect x="599" y="65" width="131" height="795" fill="#6CC56C"/>
<line x1="665.5" y1="69" x2="665.5" y2="860" stroke="white" stroke-width="3" stroke-dasharray="21 21"/>
<g filter="url(#filter27_ii_5753_32161)">
<path d="M698.946 383.9C698.63 394.645 691.102 403.785 680.667 406.505L680.048 406.666C668.144 409.769 655.658 409.562 643.947 406.068C634.034 403.109 627.265 394.06 627.245 383.683C627.219 370.264 627.206 350.219 627.279 327.596C627.336 309.887 627.931 292.108 628.523 278.585C629.12 264.942 639.589 253.765 653.149 251.979L653.886 251.882C661.225 250.916 668.652 251.039 675.926 252.248C688.527 254.342 697.737 265.141 697.935 277.932C698.128 290.352 698.454 307.408 698.999 327.522C699.625 350.637 699.34 370.518 698.946 383.9Z" fill="url(#paint18_linear_5753_32161)"/>
</g>
<path d="M690.145 355.9C692.012 364.012 686.959 372.692 678.741 374.316L678.216 374.42C668.124 376.414 657.755 376.258 647.79 373.96C639.961 372.156 635.554 363.639 637.573 355.811C639.832 347.058 642.039 335.062 642.008 321.682C641.983 310.696 640.379 299.644 638.642 290.879C636.83 281.731 643.163 272.388 652.486 271.468L653.845 271.334C661.199 270.608 668.599 270.719 675.904 271.665C684.586 272.789 689.996 282.22 688.127 290.812C686.377 298.86 684.985 309.421 685.497 321.682C686.066 335.27 688.136 347.172 690.145 355.9Z" fill="#A7A5A5"/>
<g filter="url(#filter28_di_5753_32161)">
<path fill-rule="evenodd" clip-rule="evenodd" d="M694.65 378.938C693.894 390.81 686.074 401.114 674.942 405.451C667.333 408.416 658.889 408.473 651.333 405.581C639.854 401.188 632.22 390.325 632.01 377.989C631.96 375.042 631.908 371.879 631.857 368.572C631.846 367.862 632.783 367.504 633.301 367.989C633.845 368.5 634.65 367.884 634.45 367.165C633.718 364.537 633.61 361.693 634.243 358.899C636.471 349.066 638.707 335.332 638.658 319.947C638.619 307.889 636.848 295.762 634.907 286.052C634.18 282.42 634.577 278.756 635.85 275.477C636.101 274.831 635.371 274.212 634.849 274.667C634.377 275.079 633.59 274.719 633.639 274.094C633.791 272.15 633.935 270.379 634.067 268.819C634.436 264.42 637.526 260.712 641.78 259.485L643.146 259.091C657.299 255.011 672.282 255.165 686.231 259.536C690.07 260.739 692.776 264.133 693.065 268.156C693.201 270.049 693.359 272.303 693.532 274.855C693.588 275.688 692.396 276.129 691.815 275.53C691.23 274.927 690.32 275.617 690.561 276.422C691.475 279.47 691.664 282.776 690.972 285.977C689.042 294.905 687.539 306.52 688.122 319.965C688.776 335.021 691.108 348.226 693.383 357.958C694.013 360.651 693.964 363.403 693.346 365.992C693.217 366.533 693.866 366.924 694.202 366.481C694.537 366.038 695.371 366.286 695.343 366.841C695.125 371.15 694.886 375.231 694.65 378.938ZM688.842 358.593C690.603 366.331 685.795 374.568 677.971 376.158L677.455 376.263C667.486 378.289 657.226 378.132 647.385 375.801C639.932 374.036 635.735 365.948 637.648 358.485C639.893 349.726 642.143 337.527 642.117 323.88C642.095 312.655 640.461 301.361 638.731 292.535C637.015 283.779 643.074 274.87 651.991 273.965L653.313 273.83C660.609 273.089 667.955 273.202 675.202 274.165C683.514 275.271 688.697 284.252 686.902 292.479C685.137 300.567 683.693 311.325 684.2 323.875C684.76 337.748 686.853 349.854 688.842 358.593Z" fill="url(#paint19_linear_5753_32161)"/>
</g>
<g filter="url(#filter29_di_5753_32161)">
<path d="M693.897 369.541C694.188 370.421 693.633 371.373 692.717 371.554L663.223 377.383C663.015 377.424 662.801 377.421 662.595 377.373L634.547 370.908C633.644 370.7 633.145 369.733 633.478 368.861C635.589 363.336 642.061 344.526 642.008 321.682C641.962 301.484 636.577 281.068 634.851 275.038C634.588 274.119 635.232 273.17 636.189 273.076L664.741 270.258C664.854 270.247 664.968 270.249 665.081 270.263L691.365 273.667C692.365 273.797 692.961 274.86 692.586 275.804C690.402 281.295 684.525 298.429 685.497 321.682C686.491 345.437 692.077 364.04 693.897 369.541Z" fill="url(#paint20_linear_5753_32161)"/>
</g>
<g filter="url(#filter30_d_5753_32161)">
<g filter="url(#filter31_d_5753_32161)">
<path d="M633.614 392.638C635.706 396.277 638.648 397.606 640.966 397.929C642.118 398.09 642.53 396.773 641.763 395.889C638.456 392.08 635.517 386.733 633.579 382.619C632.982 381.352 631.313 381.502 631.287 382.891C631.232 385.754 631.73 389.361 633.614 392.638Z" fill="white"/>
<path d="M635.501 391.586C636.193 392.789 636.981 393.665 637.787 394.298C636.487 392.469 635.283 390.505 634.214 388.589C634.524 389.605 634.944 390.616 635.501 391.586Z" stroke="white" stroke-width="4.35467" stroke-linecap="round"/>
</g>
</g>
<g filter="url(#filter32_d_5753_32161)">
<path d="M693.892 392.407C691.788 396.291 688.704 397.711 686.284 398.061C685.135 398.228 684.689 396.912 685.435 396.018C688.839 391.935 691.804 386.173 693.713 381.803C694.272 380.524 695.947 380.646 696.024 382.034C696.189 385.043 695.796 388.891 693.892 392.407Z" fill="white"/>
<path d="M691.979 391.384C691.165 392.886 690.197 393.916 689.21 394.614C690.779 392.345 692.205 389.855 693.428 387.47C693.13 388.788 692.664 390.117 691.979 391.384Z" stroke="white" stroke-width="4.35467" stroke-linecap="round"/>
</g>
<g filter="url(#filter33_di_5753_32161)">
<path fill-rule="evenodd" clip-rule="evenodd" d="M682.847 380.652C689.586 379.212 694.704 373.664 695.216 366.809C695.918 357.409 696.585 342.85 695.945 325.549C695.352 309.527 694.632 296.026 694.08 286.79C693.882 283.474 692.705 280.435 690.823 277.953C691.492 280.726 691.574 283.671 690.957 286.528C689.076 295.256 687.634 306.523 688.207 319.531C688.851 334.121 691.12 346.945 693.361 356.481C695.533 365.724 689.762 375.684 680.377 377.475L679.604 377.622C668.372 379.766 656.847 379.524 645.783 376.913C637.355 374.924 632.49 365.94 634.423 357.447C636.619 347.796 638.791 334.444 638.743 319.513C638.705 307.839 636.992 296.098 635.088 286.621C634.648 284.429 634.614 282.225 634.934 280.099C633.739 282.204 632.974 284.583 632.761 287.125C631.923 297.111 631.022 311.085 631.026 324.963C631.031 341.933 631.511 356.836 631.916 366.402C632.198 373.063 636.833 378.629 643.291 380.227C655.957 383.362 669.211 383.566 682.051 380.822L682.847 380.652Z" fill="url(#paint21_linear_5753_32161)"/>
</g>
<g filter="url(#filter34_ii_5753_32161)">
<path fill-rule="evenodd" clip-rule="evenodd" d="M695.955 375.072C695.155 387.396 686.942 398.057 675.33 402.422C667.721 405.283 659.339 405.337 651.789 402.549C639.825 398.132 631.827 386.887 631.603 374.083C631.556 371.375 631.507 368.496 631.459 365.499C631.448 364.79 632.389 364.433 632.904 364.921C633.446 365.434 634.246 364.816 634.034 364.1C633.189 361.237 633.047 358.117 633.748 355.06C635.957 345.419 638.089 332.29 638.041 317.651C638.003 306.257 636.334 294.799 634.437 285.42C633.639 281.475 634.107 277.483 635.553 273.939C635.827 273.269 635.067 272.614 634.524 273.092C634.037 273.521 633.22 273.148 633.272 272.501C633.419 270.68 633.56 269.009 633.689 267.518C634.091 262.873 637.383 258.982 641.889 257.729L643.263 257.347C657.664 253.34 672.846 253.491 687.039 257.782C691.103 259.011 693.982 262.568 694.297 266.814C694.405 268.268 694.525 269.924 694.655 271.753C694.729 272.802 693.31 273.408 692.509 272.728C691.68 272.024 690.588 273.022 690.962 274.042C692.259 277.579 692.619 281.521 691.808 285.307C689.953 293.964 688.572 304.995 689.146 317.67C689.792 331.935 692.027 344.521 694.278 354.021C695.083 357.418 694.859 360.912 693.804 364.098C693.556 364.845 694.392 365.502 694.945 364.942C695.484 364.396 696.564 364.795 696.522 365.561C696.34 368.909 696.147 372.104 695.955 375.072ZM689.725 355.014C691.589 363.102 686.544 371.773 678.345 373.381L677.826 373.483C667.869 375.436 657.645 375.284 647.814 373.038C640.004 371.253 635.611 362.75 637.632 354.944C639.858 346.343 642.019 334.614 641.993 321.544C641.971 310.818 640.408 300.03 638.704 291.435C636.897 282.325 643.208 273.004 652.497 272.094L653.845 271.962C661.09 271.252 668.38 271.359 675.576 272.282C684.222 273.392 689.606 282.798 687.744 291.354C686.026 299.252 684.669 309.572 685.17 321.538C685.726 334.806 687.749 346.44 689.725 355.014Z" fill="url(#paint22_linear_5753_32161)"/>
</g>
<g filter="url(#filter35_ii_5753_32161)">
<path d="M687.57 343.717C672.342 348.433 656.055 348.51 640.783 343.94L640.225 343.773C640.225 343.773 641.542 335.702 641.542 318.549C641.037 301.502 639.212 293.845 639.212 293.845L641.057 293.519C656.361 290.811 672.033 290.957 687.284 293.951C687.284 293.951 685.375 307.065 685.483 318.564C685.576 328.447 687.57 343.717 687.57 343.717Z" fill="url(#paint23_linear_5753_32161)"/>
</g>
<defs>
<filter id="filter0_ii_5753_32161" x="29.9297" y="641.205" width="76.5031" height="163.417" filterUnits="userSpaceOnUse" color-interpolation-filters="sRGB">
<feFlood flood-opacity="0" result="BackgroundImageFix"/>
<feBlend mode="normal" in="SourceGraphic" in2="BackgroundImageFix" result="shape"/>
<feColorMatrix in="SourceAlpha" type="matrix" values="0 0 0 0 0 0 0 0 0 0 0 0 0 0 0 0 0 0 127 0" result="hardAlpha"/>
<feOffset dx="4.35467" dy="-5.80623"/>
<feGaussianBlur stdDeviation="17.4187"/>
<feComposite in2="hardAlpha" operator="arithmetic" k2="-1" k3="1"/>
<feColorMatrix type="matrix" values="0 0 0 0 0 0 0 0 0 0 0 0 0 0 0 0 0 0 0.07 0"/>
<feBlend mode="normal" in2="shape" result="effect1_innerShadow_5753_32161"/>
<feColorMatrix in="SourceAlpha" type="matrix" values="0 0 0 0 0 0 0 0 0 0 0 0 0 0 0 0 0 0 127 0" result="hardAlpha"/>
<feOffset dy="-0.725779"/>
<feGaussianBlur stdDeviation="1.45156"/>
<feComposite in2="hardAlpha" operator="arithmetic" k2="-1" k3="1"/>
<feColorMatrix type="matrix" values="0 0 0 0 0 0 0 0 0 0 0 0 0 0 0 0 0 0 0.25 0"/>
<feBlend mode="normal" in2="effect1_innerShadow_5753_32161" result="effect2_innerShadow_5753_32161"/>
</filter>
<filter id="filter1_di_5753_32161" x="31.0539" y="648.149" width="67.1419" height="154.475" filterUnits="userSpaceOnUse" color-interpolation-filters="sRGB">
<feFlood flood-opacity="0" result="BackgroundImageFix"/>
<feColorMatrix in="SourceAlpha" type="matrix" values="0 0 0 0 0 0 0 0 0 0 0 0 0 0 0 0 0 0 127 0" result="hardAlpha"/>
<feOffset dy="0.750549"/>
<feGaussianBlur stdDeviation="0.375275"/>
<feColorMatrix type="matrix" values="0 0 0 0 0.925374 0 0 0 0 0.925374 0 0 0 0 0.925374 0 0 0 0.37 0"/>
<feBlend mode="normal" in2="BackgroundImageFix" result="effect1_dropShadow_5753_32161"/>
<feBlend mode="normal" in="SourceGraphic" in2="effect1_dropShadow_5753_32161" result="shape"/>
<feColorMatrix in="SourceAlpha" type="matrix" values="0 0 0 0 0 0 0 0 0 0 0 0 0 0 0 0 0 0 127 0" result="hardAlpha"/>
<feOffset dx="-2.90311" dy="3.62889"/>
<feGaussianBlur stdDeviation="1.45156"/>
<feComposite in2="hardAlpha" operator="arithmetic" k2="-1" k3="1"/>
<feColorMatrix type="matrix" values="0 0 0 0 0 0 0 0 0 0 0 0 0 0 0 0 0 0 0.8 0"/>
<feBlend mode="normal" in2="shape" result="effect2_innerShadow_5753_32161"/>
</filter>
<filter id="filter2_di_5753_32161" x="32.425" y="678.45" width="64.2552" height="110.062" filterUnits="userSpaceOnUse" color-interpolation-filters="sRGB">
<feFlood flood-opacity="0" result="BackgroundImageFix"/>
<feColorMatrix in="SourceAlpha" type="matrix" values="0 0 0 0 0 0 0 0 0 0 0 0 0 0 0 0 0 0 127 0" result="hardAlpha"/>
<feOffset dy="0.750549"/>
<feGaussianBlur stdDeviation="0.375275"/>
<feColorMatrix type="matrix" values="0 0 0 0 0.925374 0 0 0 0 0.925374 0 0 0 0 0.925374 0 0 0 0.37 0"/>
<feBlend mode="normal" in2="BackgroundImageFix" result="effect1_dropShadow_5753_32161"/>
<feBlend mode="normal" in="SourceGraphic" in2="effect1_dropShadow_5753_32161" result="shape"/>
<feColorMatrix in="SourceAlpha" type="matrix" values="0 0 0 0 0 0 0 0 0 0 0 0 0 0 0 0 0 0 127 0" result="hardAlpha"/>
<feOffset dx="-2.90312" dy="3.62889"/>
<feGaussianBlur stdDeviation="1.45156"/>
<feComposite in2="hardAlpha" operator="arithmetic" k2="-1" k3="1"/>
<feColorMatrix type="matrix" values="0 0 0 0 0 0 0 0 0 0 0 0 0 0 0 0 0 0 0.8 0"/>
<feBlend mode="normal" in2="shape" result="effect2_innerShadow_5753_32161"/>
</filter>
<filter id="filter3_d_5753_32161" x="85.7125" y="655.029" width="13.7664" height="19.0979" filterUnits="userSpaceOnUse" color-interpolation-filters="sRGB">
<feFlood flood-opacity="0" result="BackgroundImageFix"/>
<feColorMatrix in="SourceAlpha" type="matrix" values="0 0 0 0 0 0 0 0 0 0 0 0 0 0 0 0 0 0 127 0" result="hardAlpha"/>
<feOffset dy="-1.45156"/>
<feGaussianBlur stdDeviation="0.725779"/>
<feColorMatrix type="matrix" values="0 0 0 0 0 0 0 0 0 0 0 0 0 0 0 0 0 0 0.25 0"/>
<feBlend mode="normal" in2="BackgroundImageFix" result="effect1_dropShadow_5753_32161"/>
<feBlend mode="normal" in="SourceGraphic" in2="effect1_dropShadow_5753_32161" result="shape"/>
</filter>
<filter id="filter4_d_5753_32161" x="86.4383" y="657.932" width="12.3148" height="17.6464" filterUnits="userSpaceOnUse" color-interpolation-filters="sRGB">
<feFlood flood-opacity="0" result="BackgroundImageFix"/>
<feColorMatrix in="SourceAlpha" type="matrix" values="0 0 0 0 0 0 0 0 0 0 0 0 0 0 0 0 0 0 127 0" result="hardAlpha"/>
<feOffset dy="0.725779"/>
<feGaussianBlur stdDeviation="0.362889"/>
<feColorMatrix type="matrix" values="0 0 0 0 1 0 0 0 0 1 0 0 0 0 1 0 0 0 0.25 0"/>
<feBlend mode="normal" in2="BackgroundImageFix" result="effect1_dropShadow_5753_32161"/>
<feBlend mode="normal" in="SourceGraphic" in2="effect1_dropShadow_5753_32161" result="shape"/>
</filter>
<filter id="filter5_d_5753_32161" x="31.8023" y="654.869" width="13.8992" height="20.0599" filterUnits="userSpaceOnUse" color-interpolation-filters="sRGB">
<feFlood flood-opacity="0" result="BackgroundImageFix"/>
<feColorMatrix in="SourceAlpha" type="matrix" values="0 0 0 0 0 0 0 0 0 0 0 0 0 0 0 0 0 0 127 0" result="hardAlpha"/>
<feOffset dy="-1.45156"/>
<feGaussianBlur stdDeviation="0.725779"/>
<feColorMatrix type="matrix" values="0 0 0 0 0 0 0 0 0 0 0 0 0 0 0 0 0 0 0.25 0"/>
<feBlend mode="normal" in2="BackgroundImageFix" result="effect1_dropShadow_5753_32161"/>
<feBlend mode="normal" in="SourceGraphic" in2="effect1_dropShadow_5753_32161" result="shape"/>
</filter>
<filter id="filter6_di_5753_32161" x="30.1828" y="673.122" width="68.8216" height="107.674" filterUnits="userSpaceOnUse" color-interpolation-filters="sRGB">
<feFlood flood-opacity="0" result="BackgroundImageFix"/>
<feColorMatrix in="SourceAlpha" type="matrix" values="0 0 0 0 0 0 0 0 0 0 0 0 0 0 0 0 0 0 127 0" result="hardAlpha"/>
<feOffset dy="0.750549"/>
<feGaussianBlur stdDeviation="0.375275"/>
<feColorMatrix type="matrix" values="0 0 0 0 0.925374 0 0 0 0 0.925374 0 0 0 0 0.925374 0 0 0 0.37 0"/>
<feBlend mode="normal" in2="BackgroundImageFix" result="effect1_dropShadow_5753_32161"/>
<feBlend mode="normal" in="SourceGraphic" in2="effect1_dropShadow_5753_32161" result="shape"/>
<feColorMatrix in="SourceAlpha" type="matrix" values="0 0 0 0 0 0 0 0 0 0 0 0 0 0 0 0 0 0 127 0" result="hardAlpha"/>
<feOffset dx="-2.90311" dy="3.62889"/>
<feGaussianBlur stdDeviation="1.45156"/>
<feComposite in2="hardAlpha" operator="arithmetic" k2="-1" k3="1"/>
<feColorMatrix type="matrix" values="0 0 0 0 0 0 0 0 0 0 0 0 0 0 0 0 0 0 0.8 0"/>
<feBlend mode="normal" in2="shape" result="effect2_innerShadow_5753_32161"/>
</filter>
<filter id="filter7_ii_5753_32161" x="32.7773" y="645.451" width="69.4211" height="155.961" filterUnits="userSpaceOnUse" color-interpolation-filters="sRGB">
<feFlood flood-opacity="0" result="BackgroundImageFix"/>
<feBlend mode="normal" in="SourceGraphic" in2="BackgroundImageFix" result="shape"/>
<feColorMatrix in="SourceAlpha" type="matrix" values="0 0 0 0 0 0 0 0 0 0 0 0 0 0 0 0 0 0 127 0" result="hardAlpha"/>
<feOffset dx="4.35467" dy="-5.80623"/>
<feGaussianBlur stdDeviation="17.4187"/>
<feComposite in2="hardAlpha" operator="arithmetic" k2="-1" k3="1"/>
<feColorMatrix type="matrix" values="0 0 0 0 0 0 0 0 0 0 0 0 0 0 0 0 0 0 0.07 0"/>
<feBlend mode="normal" in2="shape" result="effect1_innerShadow_5753_32161"/>
<feColorMatrix in="SourceAlpha" type="matrix" values="0 0 0 0 0 0 0 0 0 0 0 0 0 0 0 0 0 0 127 0" result="hardAlpha"/>
<feOffset dy="-0.725779"/>
<feGaussianBlur stdDeviation="1.45156"/>
<feComposite in2="hardAlpha" operator="arithmetic" k2="-1" k3="1"/>
<feColorMatrix type="matrix" values="0 0 0 0 0 0 0 0 0 0 0 0 0 0 0 0 0 0 0.09 0"/>
<feBlend mode="normal" in2="effect1_innerShadow_5753_32161" result="effect2_innerShadow_5753_32161"/>
</filter>
<filter id="filter8_ii_5753_32161" x="41.7188" y="702.744" width="52.6828" height="61.5274" filterUnits="userSpaceOnUse" color-interpolation-filters="sRGB">
<feFlood flood-opacity="0" result="BackgroundImageFix"/>
<feBlend mode="normal" in="SourceGraphic" in2="BackgroundImageFix" result="shape"/>
<feColorMatrix in="SourceAlpha" type="matrix" values="0 0 0 0 0 0 0 0 0 0 0 0 0 0 0 0 0 0 127 0" result="hardAlpha"/>
<feOffset dx="4.35467" dy="-5.80623"/>
<feGaussianBlur stdDeviation="17.4187"/>
<feComposite in2="hardAlpha" operator="arithmetic" k2="-1" k3="1"/>
<feColorMatrix type="matrix" values="0 0 0 0 0 0 0 0 0 0 0 0 0 0 0 0 0 0 0.07 0"/>
<feBlend mode="normal" in2="shape" result="effect1_innerShadow_5753_32161"/>
<feColorMatrix in="SourceAlpha" type="matrix" values="0 0 0 0 0 0 0 0 0 0 0 0 0 0 0 0 0 0 127 0" result="hardAlpha"/>
<feOffset dy="-0.725779"/>
<feGaussianBlur stdDeviation="1.45156"/>
<feComposite in2="hardAlpha" operator="arithmetic" k2="-1" k3="1"/>
<feColorMatrix type="matrix" values="0 0 0 0 0 0 0 0 0 0 0 0 0 0 0 0 0 0 0.25 0"/>
<feBlend mode="normal" in2="effect1_innerShadow_5753_32161" result="effect2_innerShadow_5753_32161"/>
</filter>
<filter id="filter9_ii_5753_32161" x="423.926" y="457.205" width="76.5031" height="163.417" filterUnits="userSpaceOnUse" color-interpolation-filters="sRGB">
<feFlood flood-opacity="0" result="BackgroundImageFix"/>
<feBlend mode="normal" in="SourceGraphic" in2="BackgroundImageFix" result="shape"/>
<feColorMatrix in="SourceAlpha" type="matrix" values="0 0 0 0 0 0 0 0 0 0 0 0 0 0 0 0 0 0 127 0" result="hardAlpha"/>
<feOffset dx="4.35467" dy="-5.80623"/>
<feGaussianBlur stdDeviation="17.4187"/>
<feComposite in2="hardAlpha" operator="arithmetic" k2="-1" k3="1"/>
<feColorMatrix type="matrix" values="0 0 0 0 0 0 0 0 0 0 0 0 0 0 0 0 0 0 0.07 0"/>
<feBlend mode="normal" in2="shape" result="effect1_innerShadow_5753_32161"/>
<feColorMatrix in="SourceAlpha" type="matrix" values="0 0 0 0 0 0 0 0 0 0 0 0 0 0 0 0 0 0 127 0" result="hardAlpha"/>
<feOffset dy="-0.725779"/>
<feGaussianBlur stdDeviation="1.45156"/>
<feComposite in2="hardAlpha" operator="arithmetic" k2="-1" k3="1"/>
<feColorMatrix type="matrix" values="0 0 0 0 0 0 0 0 0 0 0 0 0 0 0 0 0 0 0.25 0"/>
<feBlend mode="normal" in2="effect1_innerShadow_5753_32161" result="effect2_innerShadow_5753_32161"/>
</filter>
<filter id="filter10_di_5753_32161" x="425.05" y="464.149" width="67.1419" height="154.475" filterUnits="userSpaceOnUse" color-interpolation-filters="sRGB">
<feFlood flood-opacity="0" result="BackgroundImageFix"/>
<feColorMatrix in="SourceAlpha" type="matrix" values="0 0 0 0 0 0 0 0 0 0 0 0 0 0 0 0 0 0 127 0" result="hardAlpha"/>
<feOffset dy="0.750549"/>
<feGaussianBlur stdDeviation="0.375275"/>
<feColorMatrix type="matrix" values="0 0 0 0 0.925374 0 0 0 0 0.925374 0 0 0 0 0.925374 0 0 0 0.37 0"/>
<feBlend mode="normal" in2="BackgroundImageFix" result="effect1_dropShadow_5753_32161"/>
<feBlend mode="normal" in="SourceGraphic" in2="effect1_dropShadow_5753_32161" result="shape"/>
<feColorMatrix in="SourceAlpha" type="matrix" values="0 0 0 0 0 0 0 0 0 0 0 0 0 0 0 0 0 0 127 0" result="hardAlpha"/>
<feOffset dx="-2.90311" dy="3.62889"/>
<feGaussianBlur stdDeviation="1.45156"/>
<feComposite in2="hardAlpha" operator="arithmetic" k2="-1" k3="1"/>
<feColorMatrix type="matrix" values="0 0 0 0 0 0 0 0 0 0 0 0 0 0 0 0 0 0 0.8 0"/>
<feBlend mode="normal" in2="shape" result="effect2_innerShadow_5753_32161"/>
</filter>
<filter id="filter11_di_5753_32161" x="426.421" y="494.45" width="64.2552" height="110.062" filterUnits="userSpaceOnUse" color-interpolation-filters="sRGB">
<feFlood flood-opacity="0" result="BackgroundImageFix"/>
<feColorMatrix in="SourceAlpha" type="matrix" values="0 0 0 0 0 0 0 0 0 0 0 0 0 0 0 0 0 0 127 0" result="hardAlpha"/>
<feOffset dy="0.750549"/>
<feGaussianBlur stdDeviation="0.375275"/>
<feColorMatrix type="matrix" values="0 0 0 0 0.925374 0 0 0 0 0.925374 0 0 0 0 0.925374 0 0 0 0.37 0"/>
<feBlend mode="normal" in2="BackgroundImageFix" result="effect1_dropShadow_5753_32161"/>
<feBlend mode="normal" in="SourceGraphic" in2="effect1_dropShadow_5753_32161" result="shape"/>
<feColorMatrix in="SourceAlpha" type="matrix" values="0 0 0 0 0 0 0 0 0 0 0 0 0 0 0 0 0 0 127 0" result="hardAlpha"/>
<feOffset dx="-2.90312" dy="3.62889"/>
<feGaussianBlur stdDeviation="1.45156"/>
<feComposite in2="hardAlpha" operator="arithmetic" k2="-1" k3="1"/>
<feColorMatrix type="matrix" values="0 0 0 0 0 0 0 0 0 0 0 0 0 0 0 0 0 0 0.8 0"/>
<feBlend mode="normal" in2="shape" result="effect2_innerShadow_5753_32161"/>
</filter>
<filter id="filter12_d_5753_32161" x="479.709" y="471.029" width="13.7664" height="19.0979" filterUnits="userSpaceOnUse" color-interpolation-filters="sRGB">
<feFlood flood-opacity="0" result="BackgroundImageFix"/>
<feColorMatrix in="SourceAlpha" type="matrix" values="0 0 0 0 0 0 0 0 0 0 0 0 0 0 0 0 0 0 127 0" result="hardAlpha"/>
<feOffset dy="-1.45156"/>
<feGaussianBlur stdDeviation="0.725779"/>
<feColorMatrix type="matrix" values="0 0 0 0 0 0 0 0 0 0 0 0 0 0 0 0 0 0 0.25 0"/>
<feBlend mode="normal" in2="BackgroundImageFix" result="effect1_dropShadow_5753_32161"/>
<feBlend mode="normal" in="SourceGraphic" in2="effect1_dropShadow_5753_32161" result="shape"/>
</filter>
<filter id="filter13_d_5753_32161" x="480.434" y="473.932" width="12.3148" height="17.6464" filterUnits="userSpaceOnUse" color-interpolation-filters="sRGB">
<feFlood flood-opacity="0" result="BackgroundImageFix"/>
<feColorMatrix in="SourceAlpha" type="matrix" values="0 0 0 0 0 0 0 0 0 0 0 0 0 0 0 0 0 0 127 0" result="hardAlpha"/>
<feOffset dy="0.725779"/>
<feGaussianBlur stdDeviation="0.362889"/>
<feColorMatrix type="matrix" values="0 0 0 0 1 0 0 0 0 1 0 0 0 0 1 0 0 0 0.25 0"/>
<feBlend mode="normal" in2="BackgroundImageFix" result="effect1_dropShadow_5753_32161"/>
<feBlend mode="normal" in="SourceGraphic" in2="effect1_dropShadow_5753_32161" result="shape"/>
</filter>
<filter id="filter14_d_5753_32161" x="425.798" y="470.869" width="13.8992" height="20.0599" filterUnits="userSpaceOnUse" color-interpolation-filters="sRGB">
<feFlood flood-opacity="0" result="BackgroundImageFix"/>
<feColorMatrix in="SourceAlpha" type="matrix" values="0 0 0 0 0 0 0 0 0 0 0 0 0 0 0 0 0 0 127 0" result="hardAlpha"/>
<feOffset dy="-1.45156"/>
<feGaussianBlur stdDeviation="0.725779"/>
<feColorMatrix type="matrix" values="0 0 0 0 0 0 0 0 0 0 0 0 0 0 0 0 0 0 0.25 0"/>
<feBlend mode="normal" in2="BackgroundImageFix" result="effect1_dropShadow_5753_32161"/>
<feBlend mode="normal" in="SourceGraphic" in2="effect1_dropShadow_5753_32161" result="shape"/>
</filter>
<filter id="filter15_di_5753_32161" x="424.179" y="489.122" width="68.8216" height="107.674" filterUnits="userSpaceOnUse" color-interpolation-filters="sRGB">
<feFlood flood-opacity="0" result="BackgroundImageFix"/>
<feColorMatrix in="SourceAlpha" type="matrix" values="0 0 0 0 0 0 0 0 0 0 0 0 0 0 0 0 0 0 127 0" result="hardAlpha"/>
<feOffset dy="0.750549"/>
<feGaussianBlur stdDeviation="0.375275"/>
<feColorMatrix type="matrix" values="0 0 0 0 0.925374 0 0 0 0 0.925374 0 0 0 0 0.925374 0 0 0 0.37 0"/>
<feBlend mode="normal" in2="BackgroundImageFix" result="effect1_dropShadow_5753_32161"/>
<feBlend mode="normal" in="SourceGraphic" in2="effect1_dropShadow_5753_32161" result="shape"/>
<feColorMatrix in="SourceAlpha" type="matrix" values="0 0 0 0 0 0 0 0 0 0 0 0 0 0 0 0 0 0 127 0" result="hardAlpha"/>
<feOffset dx="-2.90311" dy="3.62889"/>
<feGaussianBlur stdDeviation="1.45156"/>
<feComposite in2="hardAlpha" operator="arithmetic" k2="-1" k3="1"/>
<feColorMatrix type="matrix" values="0 0 0 0 0 0 0 0 0 0 0 0 0 0 0 0 0 0 0.8 0"/>
<feBlend mode="normal" in2="shape" result="effect2_innerShadow_5753_32161"/>
</filter>
<filter id="filter16_ii_5753_32161" x="426.773" y="461.451" width="69.4211" height="155.961" filterUnits="userSpaceOnUse" color-interpolation-filters="sRGB">
<feFlood flood-opacity="0" result="BackgroundImageFix"/>
<feBlend mode="normal" in="SourceGraphic" in2="BackgroundImageFix" result="shape"/>
<feColorMatrix in="SourceAlpha" type="matrix" values="0 0 0 0 0 0 0 0 0 0 0 0 0 0 0 0 0 0 127 0" result="hardAlpha"/>
<feOffset dx="4.35467" dy="-5.80623"/>
<feGaussianBlur stdDeviation="17.4187"/>
<feComposite in2="hardAlpha" operator="arithmetic" k2="-1" k3="1"/>
<feColorMatrix type="matrix" values="0 0 0 0 0 0 0 0 0 0 0 0 0 0 0 0 0 0 0.07 0"/>
<feBlend mode="normal" in2="shape" result="effect1_innerShadow_5753_32161"/>
<feColorMatrix in="SourceAlpha" type="matrix" values="0 0 0 0 0 0 0 0 0 0 0 0 0 0 0 0 0 0 127 0" result="hardAlpha"/>
<feOffset dy="-0.725779"/>
<feGaussianBlur stdDeviation="1.45156"/>
<feComposite in2="hardAlpha" operator="arithmetic" k2="-1" k3="1"/>
<feColorMatrix type="matrix" values="0 0 0 0 0 0 0 0 0 0 0 0 0 0 0 0 0 0 0.09 0"/>
<feBlend mode="normal" in2="effect1_innerShadow_5753_32161" result="effect2_innerShadow_5753_32161"/>
</filter>
<filter id="filter17_ii_5753_32161" x="435.715" y="518.744" width="52.6828" height="61.5274" filterUnits="userSpaceOnUse" color-interpolation-filters="sRGB">
<feFlood flood-opacity="0" result="BackgroundImageFix"/>
<feBlend mode="normal" in="SourceGraphic" in2="BackgroundImageFix" result="shape"/>
<feColorMatrix in="SourceAlpha" type="matrix" values="0 0 0 0 0 0 0 0 0 0 0 0 0 0 0 0 0 0 127 0" result="hardAlpha"/>
<feOffset dx="4.35467" dy="-5.80623"/>
<feGaussianBlur stdDeviation="17.4187"/>
<feComposite in2="hardAlpha" operator="arithmetic" k2="-1" k3="1"/>
<feColorMatrix type="matrix" values="0 0 0 0 0 0 0 0 0 0 0 0 0 0 0 0 0 0 0.07 0"/>
<feBlend mode="normal" in2="shape" result="effect1_innerShadow_5753_32161"/>
<feColorMatrix in="SourceAlpha" type="matrix" values="0 0 0 0 0 0 0 0 0 0 0 0 0 0 0 0 0 0 127 0" result="hardAlpha"/>
<feOffset dy="-0.725779"/>
<feGaussianBlur stdDeviation="1.45156"/>
<feComposite in2="hardAlpha" operator="arithmetic" k2="-1" k3="1"/>
<feColorMatrix type="matrix" values="0 0 0 0 0 0 0 0 0 0 0 0 0 0 0 0 0 0 0.25 0"/>
<feBlend mode="normal" in2="effect1_innerShadow_5753_32161" result="effect2_innerShadow_5753_32161"/>
</filter>
<filter id="filter18_ii_5753_32161" x="228.262" y="92.455" width="76.4953" height="163.418" filterUnits="userSpaceOnUse" color-interpolation-filters="sRGB">
<feFlood flood-opacity="0" result="BackgroundImageFix"/>
<feBlend mode="normal" in="SourceGraphic" in2="BackgroundImageFix" result="shape"/>
<feColorMatrix in="SourceAlpha" type="matrix" values="0 0 0 0 0 0 0 0 0 0 0 0 0 0 0 0 0 0 127 0" result="hardAlpha"/>
<feOffset dx="4.35467" dy="-5.80623"/>
<feGaussianBlur stdDeviation="17.4187"/>
<feComposite in2="hardAlpha" operator="arithmetic" k2="-1" k3="1"/>
<feColorMatrix type="matrix" values="0 0 0 0 0 0 0 0 0 0 0 0 0 0 0 0 0 0 0.07 0"/>
<feBlend mode="normal" in2="shape" result="effect1_innerShadow_5753_32161"/>
<feColorMatrix in="SourceAlpha" type="matrix" values="0 0 0 0 0 0 0 0 0 0 0 0 0 0 0 0 0 0 127 0" result="hardAlpha"/>
<feOffset dy="-0.725779"/>
<feGaussianBlur stdDeviation="1.45156"/>
<feComposite in2="hardAlpha" operator="arithmetic" k2="-1" k3="1"/>
<feColorMatrix type="matrix" values="0 0 0 0 0 0 0 0 0 0 0 0 0 0 0 0 0 0 0.25 0"/>
<feBlend mode="normal" in2="effect1_innerShadow_5753_32161" result="effect2_innerShadow_5753_32161"/>
</filter>
<filter id="filter19_di_5753_32161" x="229.991" y="103.163" width="67.1419" height="154.476" filterUnits="userSpaceOnUse" color-interpolation-filters="sRGB">
<feFlood flood-opacity="0" result="BackgroundImageFix"/>
<feColorMatrix in="SourceAlpha" type="matrix" values="0 0 0 0 0 0 0 0 0 0 0 0 0 0 0 0 0 0 127 0" result="hardAlpha"/>
<feOffset dy="0.750549"/>
<feGaussianBlur stdDeviation="0.375275"/>
<feColorMatrix type="matrix" values="0 0 0 0 0.925374 0 0 0 0 0.925374 0 0 0 0 0.925374 0 0 0 0.37 0"/>
<feBlend mode="normal" in2="BackgroundImageFix" result="effect1_dropShadow_5753_32161"/>
<feBlend mode="normal" in="SourceGraphic" in2="effect1_dropShadow_5753_32161" result="shape"/>
<feColorMatrix in="SourceAlpha" type="matrix" values="0 0 0 0 0 0 0 0 0 0 0 0 0 0 0 0 0 0 127 0" result="hardAlpha"/>
<feOffset dx="-2.90311" dy="3.62889"/>
<feGaussianBlur stdDeviation="1.45156"/>
<feComposite in2="hardAlpha" operator="arithmetic" k2="-1" k3="1"/>
<feColorMatrix type="matrix" values="0 0 0 0 0 0 0 0 0 0 0 0 0 0 0 0 0 0 0.8 0"/>
<feBlend mode="normal" in2="shape" result="effect2_innerShadow_5753_32161"/>
</filter>
<filter id="filter20_di_5753_32161" x="231.511" y="117.273" width="64.2513" height="110.064" filterUnits="userSpaceOnUse" color-interpolation-filters="sRGB">
<feFlood flood-opacity="0" result="BackgroundImageFix"/>
<feColorMatrix in="SourceAlpha" type="matrix" values="0 0 0 0 0 0 0 0 0 0 0 0 0 0 0 0 0 0 127 0" result="hardAlpha"/>
<feOffset dy="0.750549"/>
<feGaussianBlur stdDeviation="0.375275"/>
<feColorMatrix type="matrix" values="0 0 0 0 0.925374 0 0 0 0 0.925374 0 0 0 0 0.925374 0 0 0 0.37 0"/>
<feBlend mode="normal" in2="BackgroundImageFix" result="effect1_dropShadow_5753_32161"/>
<feBlend mode="normal" in="SourceGraphic" in2="effect1_dropShadow_5753_32161" result="shape"/>
<feColorMatrix in="SourceAlpha" type="matrix" values="0 0 0 0 0 0 0 0 0 0 0 0 0 0 0 0 0 0 127 0" result="hardAlpha"/>
<feOffset dx="-2.90312" dy="3.62889"/>
<feGaussianBlur stdDeviation="1.45156"/>
<feComposite in2="hardAlpha" operator="arithmetic" k2="-1" k3="1"/>
<feColorMatrix type="matrix" values="0 0 0 0 0 0 0 0 0 0 0 0 0 0 0 0 0 0 0.8 0"/>
<feBlend mode="normal" in2="shape" result="effect2_innerShadow_5753_32161"/>
</filter>
<filter id="filter21_d_5753_32161" x="230.869" y="225.872" width="13.7742" height="19.0931" filterUnits="userSpaceOnUse" color-interpolation-filters="sRGB">
<feFlood flood-opacity="0" result="BackgroundImageFix"/>
<feColorMatrix in="SourceAlpha" type="matrix" values="0 0 0 0 0 0 0 0 0 0 0 0 0 0 0 0 0 0 127 0" result="hardAlpha"/>
<feOffset dy="-1.45156"/>
<feGaussianBlur stdDeviation="0.725779"/>
<feColorMatrix type="matrix" values="0 0 0 0 0 0 0 0 0 0 0 0 0 0 0 0 0 0 0.25 0"/>
<feBlend mode="normal" in2="BackgroundImageFix" result="effect1_dropShadow_5753_32161"/>
<feBlend mode="normal" in="SourceGraphic" in2="effect1_dropShadow_5753_32161" result="shape"/>
</filter>
<filter id="filter22_d_5753_32161" x="231.595" y="228.775" width="12.3227" height="17.6415" filterUnits="userSpaceOnUse" color-interpolation-filters="sRGB">
<feFlood flood-opacity="0" result="BackgroundImageFix"/>
<feColorMatrix in="SourceAlpha" type="matrix" values="0 0 0 0 0 0 0 0 0 0 0 0 0 0 0 0 0 0 127 0" result="hardAlpha"/>
<feOffset dy="0.725779"/>
<feGaussianBlur stdDeviation="0.362889"/>
<feColorMatrix type="matrix" values="0 0 0 0 1 0 0 0 0 1 0 0 0 0 1 0 0 0 0.25 0"/>
<feBlend mode="normal" in2="BackgroundImageFix" result="effect1_dropShadow_5753_32161"/>
<feBlend mode="normal" in="SourceGraphic" in2="effect1_dropShadow_5753_32161" result="shape"/>
</filter>
<filter id="filter23_d_5753_32161" x="284.654" y="225.033" width="13.8953" height="20.0647" filterUnits="userSpaceOnUse" color-interpolation-filters="sRGB">
<feFlood flood-opacity="0" result="BackgroundImageFix"/>
<feColorMatrix in="SourceAlpha" type="matrix" values="0 0 0 0 0 0 0 0 0 0 0 0 0 0 0 0 0 0 127 0" result="hardAlpha"/>
<feOffset dy="-1.45156"/>
<feGaussianBlur stdDeviation="0.725779"/>
<feColorMatrix type="matrix" values="0 0 0 0 0 0 0 0 0 0 0 0 0 0 0 0 0 0 0.25 0"/>
<feBlend mode="normal" in2="BackgroundImageFix" result="effect1_dropShadow_5753_32161"/>
<feBlend mode="normal" in="SourceGraphic" in2="effect1_dropShadow_5753_32161" result="shape"/>
</filter>
<filter id="filter24_di_5753_32161" x="229.163" y="124.976" width="68.8294" height="107.689" filterUnits="userSpaceOnUse" color-interpolation-filters="sRGB">
<feFlood flood-opacity="0" result="BackgroundImageFix"/>
<feColorMatrix in="SourceAlpha" type="matrix" values="0 0 0 0 0 0 0 0 0 0 0 0 0 0 0 0 0 0 127 0" result="hardAlpha"/>
<feOffset dy="0.750549"/>
<feGaussianBlur stdDeviation="0.375275"/>
<feColorMatrix type="matrix" values="0 0 0 0 0.925374 0 0 0 0 0.925374 0 0 0 0 0.925374 0 0 0 0.37 0"/>
<feBlend mode="normal" in2="BackgroundImageFix" result="effect1_dropShadow_5753_32161"/>
<feBlend mode="normal" in="SourceGraphic" in2="effect1_dropShadow_5753_32161" result="shape"/>
<feColorMatrix in="SourceAlpha" type="matrix" values="0 0 0 0 0 0 0 0 0 0 0 0 0 0 0 0 0 0 127 0" result="hardAlpha"/>
<feOffset dx="-2.90311" dy="3.62889"/>
<feGaussianBlur stdDeviation="1.45156"/>
<feComposite in2="hardAlpha" operator="arithmetic" k2="-1" k3="1"/>
<feColorMatrix type="matrix" values="0 0 0 0 0 0 0 0 0 0 0 0 0 0 0 0 0 0 0.8 0"/>
<feBlend mode="normal" in2="shape" result="effect2_innerShadow_5753_32161"/>
</filter>
<filter id="filter25_ii_5753_32161" x="232.5" y="95.665" width="69.4172" height="155.962" filterUnits="userSpaceOnUse" color-interpolation-filters="sRGB">
<feFlood flood-opacity="0" result="BackgroundImageFix"/>
<feBlend mode="normal" in="SourceGraphic" in2="BackgroundImageFix" result="shape"/>
<feColorMatrix in="SourceAlpha" type="matrix" values="0 0 0 0 0 0 0 0 0 0 0 0 0 0 0 0 0 0 127 0" result="hardAlpha"/>
<feOffset dx="4.35467" dy="-5.80623"/>
<feGaussianBlur stdDeviation="17.4187"/>
<feComposite in2="hardAlpha" operator="arithmetic" k2="-1" k3="1"/>
<feColorMatrix type="matrix" values="0 0 0 0 0 0 0 0 0 0 0 0 0 0 0 0 0 0 0.07 0"/>
<feBlend mode="normal" in2="shape" result="effect1_innerShadow_5753_32161"/>
<feColorMatrix in="SourceAlpha" type="matrix" values="0 0 0 0 0 0 0 0 0 0 0 0 0 0 0 0 0 0 127 0" result="hardAlpha"/>
<feOffset dy="-0.725779"/>
<feGaussianBlur stdDeviation="1.45156"/>
<feComposite in2="hardAlpha" operator="arithmetic" k2="-1" k3="1"/>
<feColorMatrix type="matrix" values="0 0 0 0 0 0 0 0 0 0 0 0 0 0 0 0 0 0 0.09 0"/>
<feBlend mode="normal" in2="effect1_innerShadow_5753_32161" result="effect2_innerShadow_5753_32161"/>
</filter>
<filter id="filter26_ii_5753_32161" x="240.25" y="132.808" width="52.714" height="61.5269" filterUnits="userSpaceOnUse" color-interpolation-filters="sRGB">
<feFlood flood-opacity="0" result="BackgroundImageFix"/>
<feBlend mode="normal" in="SourceGraphic" in2="BackgroundImageFix" result="shape"/>
<feColorMatrix in="SourceAlpha" type="matrix" values="0 0 0 0 0 0 0 0 0 0 0 0 0 0 0 0 0 0 127 0" result="hardAlpha"/>
<feOffset dx="4.35467" dy="-5.80623"/>
<feGaussianBlur stdDeviation="17.4187"/>
<feComposite in2="hardAlpha" operator="arithmetic" k2="-1" k3="1"/>
<feColorMatrix type="matrix" values="0 0 0 0 0 0 0 0 0 0 0 0 0 0 0 0 0 0 0.07 0"/>
<feBlend mode="normal" in2="shape" result="effect1_innerShadow_5753_32161"/>
<feColorMatrix in="SourceAlpha" type="matrix" values="0 0 0 0 0 0 0 0 0 0 0 0 0 0 0 0 0 0 127 0" result="hardAlpha"/>
<feOffset dy="-0.725779"/>
<feGaussianBlur stdDeviation="1.45156"/>
<feComposite in2="hardAlpha" operator="arithmetic" k2="-1" k3="1"/>
<feColorMatrix type="matrix" values="0 0 0 0 0 0 0 0 0 0 0 0 0 0 0 0 0 0 0.25 0"/>
<feBlend mode="normal" in2="effect1_innerShadow_5753_32161" result="effect2_innerShadow_5753_32161"/>
</filter>
<filter id="filter27_ii_5753_32161" x="627.223" y="245.433" width="76.4953" height="163.418" filterUnits="userSpaceOnUse" color-interpolation-filters="sRGB">
<feFlood flood-opacity="0" result="BackgroundImageFix"/>
<feBlend mode="normal" in="SourceGraphic" in2="BackgroundImageFix" result="shape"/>
<feColorMatrix in="SourceAlpha" type="matrix" values="0 0 0 0 0 0 0 0 0 0 0 0 0 0 0 0 0 0 127 0" result="hardAlpha"/>
<feOffset dx="4.35467" dy="-5.80623"/>
<feGaussianBlur stdDeviation="17.4187"/>
<feComposite in2="hardAlpha" operator="arithmetic" k2="-1" k3="1"/>
<feColorMatrix type="matrix" values="0 0 0 0 0 0 0 0 0 0 0 0 0 0 0 0 0 0 0.07 0"/>
<feBlend mode="normal" in2="shape" result="effect1_innerShadow_5753_32161"/>
<feColorMatrix in="SourceAlpha" type="matrix" values="0 0 0 0 0 0 0 0 0 0 0 0 0 0 0 0 0 0 127 0" result="hardAlpha"/>
<feOffset dy="-0.725779"/>
<feGaussianBlur stdDeviation="1.45156"/>
<feComposite in2="hardAlpha" operator="arithmetic" k2="-1" k3="1"/>
<feColorMatrix type="matrix" values="0 0 0 0 0 0 0 0 0 0 0 0 0 0 0 0 0 0 0.25 0"/>
<feBlend mode="normal" in2="effect1_innerShadow_5753_32161" result="effect2_innerShadow_5753_32161"/>
</filter>
<filter id="filter28_di_5753_32161" x="628.952" y="256.14" width="67.1419" height="154.476" filterUnits="userSpaceOnUse" color-interpolation-filters="sRGB">
<feFlood flood-opacity="0" result="BackgroundImageFix"/>
<feColorMatrix in="SourceAlpha" type="matrix" values="0 0 0 0 0 0 0 0 0 0 0 0 0 0 0 0 0 0 127 0" result="hardAlpha"/>
<feOffset dy="0.750549"/>
<feGaussianBlur stdDeviation="0.375275"/>
<feColorMatrix type="matrix" values="0 0 0 0 0.925374 0 0 0 0 0.925374 0 0 0 0 0.925374 0 0 0 0.37 0"/>
<feBlend mode="normal" in2="BackgroundImageFix" result="effect1_dropShadow_5753_32161"/>
<feBlend mode="normal" in="SourceGraphic" in2="effect1_dropShadow_5753_32161" result="shape"/>
<feColorMatrix in="SourceAlpha" type="matrix" values="0 0 0 0 0 0 0 0 0 0 0 0 0 0 0 0 0 0 127 0" result="hardAlpha"/>
<feOffset dx="-2.90311" dy="3.62889"/>
<feGaussianBlur stdDeviation="1.45156"/>
<feComposite in2="hardAlpha" operator="arithmetic" k2="-1" k3="1"/>
<feColorMatrix type="matrix" values="0 0 0 0 0 0 0 0 0 0 0 0 0 0 0 0 0 0 0.8 0"/>
<feBlend mode="normal" in2="shape" result="effect2_innerShadow_5753_32161"/>
</filter>
<filter id="filter29_di_5753_32161" x="630.472" y="270.251" width="64.2513" height="110.064" filterUnits="userSpaceOnUse" color-interpolation-filters="sRGB">
<feFlood flood-opacity="0" result="BackgroundImageFix"/>
<feColorMatrix in="SourceAlpha" type="matrix" values="0 0 0 0 0 0 0 0 0 0 0 0 0 0 0 0 0 0 127 0" result="hardAlpha"/>
<feOffset dy="0.750549"/>
<feGaussianBlur stdDeviation="0.375275"/>
<feColorMatrix type="matrix" values="0 0 0 0 0.925374 0 0 0 0 0.925374 0 0 0 0 0.925374 0 0 0 0.37 0"/>
<feBlend mode="normal" in2="BackgroundImageFix" result="effect1_dropShadow_5753_32161"/>
<feBlend mode="normal" in="SourceGraphic" in2="effect1_dropShadow_5753_32161" result="shape"/>
<feColorMatrix in="SourceAlpha" type="matrix" values="0 0 0 0 0 0 0 0 0 0 0 0 0 0 0 0 0 0 127 0" result="hardAlpha"/>
<feOffset dx="-2.90312" dy="3.62889"/>
<feGaussianBlur stdDeviation="1.45156"/>
<feComposite in2="hardAlpha" operator="arithmetic" k2="-1" k3="1"/>
<feColorMatrix type="matrix" values="0 0 0 0 0 0 0 0 0 0 0 0 0 0 0 0 0 0 0.8 0"/>
<feBlend mode="normal" in2="shape" result="effect2_innerShadow_5753_32161"/>
</filter>
<filter id="filter30_d_5753_32161" x="629.83" y="378.849" width="13.7742" height="19.0931" filterUnits="userSpaceOnUse" color-interpolation-filters="sRGB">
<feFlood flood-opacity="0" result="BackgroundImageFix"/>
<feColorMatrix in="SourceAlpha" type="matrix" values="0 0 0 0 0 0 0 0 0 0 0 0 0 0 0 0 0 0 127 0" result="hardAlpha"/>
<feOffset dy="-1.45156"/>
<feGaussianBlur stdDeviation="0.725779"/>
<feColorMatrix type="matrix" values="0 0 0 0 0 0 0 0 0 0 0 0 0 0 0 0 0 0 0.25 0"/>
<feBlend mode="normal" in2="BackgroundImageFix" result="effect1_dropShadow_5753_32161"/>
<feBlend mode="normal" in="SourceGraphic" in2="effect1_dropShadow_5753_32161" result="shape"/>
</filter>
<filter id="filter31_d_5753_32161" x="630.555" y="381.752" width="12.3227" height="17.6415" filterUnits="userSpaceOnUse" color-interpolation-filters="sRGB">
<feFlood flood-opacity="0" result="BackgroundImageFix"/>
<feColorMatrix in="SourceAlpha" type="matrix" values="0 0 0 0 0 0 0 0 0 0 0 0 0 0 0 0 0 0 127 0" result="hardAlpha"/>
<feOffset dy="0.725779"/>
<feGaussianBlur stdDeviation="0.362889"/>
<feColorMatrix type="matrix" values="0 0 0 0 1 0 0 0 0 1 0 0 0 0 1 0 0 0 0.25 0"/>
<feBlend mode="normal" in2="BackgroundImageFix" result="effect1_dropShadow_5753_32161"/>
<feBlend mode="normal" in="SourceGraphic" in2="effect1_dropShadow_5753_32161" result="shape"/>
</filter>
<filter id="filter32_d_5753_32161" x="683.615" y="378.011" width="13.8953" height="20.0647" filterUnits="userSpaceOnUse" color-interpolation-filters="sRGB">
<feFlood flood-opacity="0" result="BackgroundImageFix"/>
<feColorMatrix in="SourceAlpha" type="matrix" values="0 0 0 0 0 0 0 0 0 0 0 0 0 0 0 0 0 0 127 0" result="hardAlpha"/>
<feOffset dy="-1.45156"/>
<feGaussianBlur stdDeviation="0.725779"/>
<feColorMatrix type="matrix" values="0 0 0 0 0 0 0 0 0 0 0 0 0 0 0 0 0 0 0.25 0"/>
<feBlend mode="normal" in2="BackgroundImageFix" result="effect1_dropShadow_5753_32161"/>
<feBlend mode="normal" in="SourceGraphic" in2="effect1_dropShadow_5753_32161" result="shape"/>
</filter>
<filter id="filter33_di_5753_32161" x="628.124" y="277.953" width="68.8294" height="107.689" filterUnits="userSpaceOnUse" color-interpolation-filters="sRGB">
<feFlood flood-opacity="0" result="BackgroundImageFix"/>
<feColorMatrix in="SourceAlpha" type="matrix" values="0 0 0 0 0 0 0 0 0 0 0 0 0 0 0 0 0 0 127 0" result="hardAlpha"/>
<feOffset dy="0.750549"/>
<feGaussianBlur stdDeviation="0.375275"/>
<feColorMatrix type="matrix" values="0 0 0 0 0.925374 0 0 0 0 0.925374 0 0 0 0 0.925374 0 0 0 0.37 0"/>
<feBlend mode="normal" in2="BackgroundImageFix" result="effect1_dropShadow_5753_32161"/>
<feBlend mode="normal" in="SourceGraphic" in2="effect1_dropShadow_5753_32161" result="shape"/>
<feColorMatrix in="SourceAlpha" type="matrix" values="0 0 0 0 0 0 0 0 0 0 0 0 0 0 0 0 0 0 127 0" result="hardAlpha"/>
<feOffset dx="-2.90311" dy="3.62889"/>
<feGaussianBlur stdDeviation="1.45156"/>
<feComposite in2="hardAlpha" operator="arithmetic" k2="-1" k3="1"/>
<feColorMatrix type="matrix" values="0 0 0 0 0 0 0 0 0 0 0 0 0 0 0 0 0 0 0.8 0"/>
<feBlend mode="normal" in2="shape" result="effect2_innerShadow_5753_32161"/>
</filter>
<filter id="filter34_ii_5753_32161" x="631.461" y="248.643" width="69.4172" height="155.962" filterUnits="userSpaceOnUse" color-interpolation-filters="sRGB">
<feFlood flood-opacity="0" result="BackgroundImageFix"/>
<feBlend mode="normal" in="SourceGraphic" in2="BackgroundImageFix" result="shape"/>
<feColorMatrix in="SourceAlpha" type="matrix" values="0 0 0 0 0 0 0 0 0 0 0 0 0 0 0 0 0 0 127 0" result="hardAlpha"/>
<feOffset dx="4.35467" dy="-5.80623"/>
<feGaussianBlur stdDeviation="17.4187"/>
<feComposite in2="hardAlpha" operator="arithmetic" k2="-1" k3="1"/>
<feColorMatrix type="matrix" values="0 0 0 0 0 0 0 0 0 0 0 0 0 0 0 0 0 0 0.07 0"/>
<feBlend mode="normal" in2="shape" result="effect1_innerShadow_5753_32161"/>
<feColorMatrix in="SourceAlpha" type="matrix" values="0 0 0 0 0 0 0 0 0 0 0 0 0 0 0 0 0 0 127 0" result="hardAlpha"/>
<feOffset dy="-0.725779"/>
<feGaussianBlur stdDeviation="1.45156"/>
<feComposite in2="hardAlpha" operator="arithmetic" k2="-1" k3="1"/>
<feColorMatrix type="matrix" values="0 0 0 0 0 0 0 0 0 0 0 0 0 0 0 0 0 0 0.09 0"/>
<feBlend mode="normal" in2="effect1_innerShadow_5753_32161" result="effect2_innerShadow_5753_32161"/>
</filter>
<filter id="filter35_ii_5753_32161" x="639.211" y="285.785" width="52.714" height="61.5269" filterUnits="userSpaceOnUse" color-interpolation-filters="sRGB">
<feFlood flood-opacity="0" result="BackgroundImageFix"/>
<feBlend mode="normal" in="SourceGraphic" in2="BackgroundImageFix" result="shape"/>
<feColorMatrix in="SourceAlpha" type="matrix" values="0 0 0 0 0 0 0 0 0 0 0 0 0 0 0 0 0 0 127 0" result="hardAlpha"/>
<feOffset dx="4.35467" dy="-5.80623"/>
<feGaussianBlur stdDeviation="17.4187"/>
<feComposite in2="hardAlpha" operator="arithmetic" k2="-1" k3="1"/>
<feColorMatrix type="matrix" values="0 0 0 0 0 0 0 0 0 0 0 0 0 0 0 0 0 0 0.07 0"/>
<feBlend mode="normal" in2="shape" result="effect1_innerShadow_5753_32161"/>
<feColorMatrix in="SourceAlpha" type="matrix" values="0 0 0 0 0 0 0 0 0 0 0 0 0 0 0 0 0 0 127 0" result="hardAlpha"/>
<feOffset dy="-0.725779"/>
<feGaussianBlur stdDeviation="1.45156"/>
<feComposite in2="hardAlpha" operator="arithmetic" k2="-1" k3="1"/>
<feColorMatrix type="matrix" values="0 0 0 0 0 0 0 0 0 0 0 0 0 0 0 0 0 0 0.25 0"/>
<feBlend mode="normal" in2="effect1_innerShadow_5753_32161" result="effect2_innerShadow_5753_32161"/>
</filter>
<linearGradient id="paint0_linear_5753_32161" x1="59.1719" y1="797.822" x2="9.4633" y2="783.339" gradientUnits="userSpaceOnUse">
<stop stop-color="#D8D8D8"/>
<stop offset="1" stop-color="white"/>
</linearGradient>
<linearGradient id="paint1_linear_5753_32161" x1="94.8018" y1="1089.31" x2="-61.3529" y2="1027.48" gradientUnits="userSpaceOnUse">
<stop stop-color="#E8EAE9"/>
<stop offset="0.498386" stop-color="#707072"/>
<stop offset="1" stop-color="#2F3032"/>
</linearGradient>
<linearGradient id="paint2_linear_5753_32161" x1="87.0764" y1="990.741" x2="-46.9846" y2="912.799" gradientUnits="userSpaceOnUse">
<stop stop-color="#E8EAE9"/>
<stop offset="0.498386" stop-color="#707072"/>
<stop offset="1" stop-color="#2F3032"/>
</linearGradient>
<linearGradient id="paint3_linear_5753_32161" x1="95.6243" y1="978.114" x2="-42.2056" y2="897.114" gradientUnits="userSpaceOnUse">
<stop stop-color="#E8EAE9"/>
<stop offset="0.498386" stop-color="#707072"/>
<stop offset="1" stop-color="#2F3032"/>
</linearGradient>
<linearGradient id="paint4_linear_5753_32161" x1="61.1145" y1="794.369" x2="16.2623" y2="783.016" gradientUnits="userSpaceOnUse">
<stop stop-color="#D8D8D8"/>
<stop offset="1" stop-color="white"/>
</linearGradient>
<linearGradient id="paint5_linear_5753_32161" x1="82.84" y1="776.476" x2="33.9784" y2="755.189" gradientUnits="userSpaceOnUse">
<stop stop-color="#D2D2D2"/>
<stop offset="0.350909" stop-color="#CACACA"/>
<stop offset="1" stop-color="#F6F6F6"/>
</linearGradient>
<linearGradient id="paint6_linear_5753_32161" x1="453.168" y1="613.822" x2="403.459" y2="599.339" gradientUnits="userSpaceOnUse">
<stop stop-color="#D8D8D8"/>
<stop offset="1" stop-color="white"/>
</linearGradient>
<linearGradient id="paint7_linear_5753_32161" x1="488.798" y1="905.309" x2="332.643" y2="843.477" gradientUnits="userSpaceOnUse">
<stop stop-color="#E8EAE9"/>
<stop offset="0.498386" stop-color="#707072"/>
<stop offset="1" stop-color="#2F3032"/>
</linearGradient>
<linearGradient id="paint8_linear_5753_32161" x1="481.073" y1="806.741" x2="347.012" y2="728.799" gradientUnits="userSpaceOnUse">
<stop stop-color="#E8EAE9"/>
<stop offset="0.498386" stop-color="#707072"/>
<stop offset="1" stop-color="#2F3032"/>
</linearGradient>
<linearGradient id="paint9_linear_5753_32161" x1="489.62" y1="794.114" x2="351.79" y2="713.114" gradientUnits="userSpaceOnUse">
<stop stop-color="#E8EAE9"/>
<stop offset="0.498386" stop-color="#707072"/>
<stop offset="1" stop-color="#2F3032"/>
</linearGradient>
<linearGradient id="paint10_linear_5753_32161" x1="455.111" y1="610.369" x2="410.258" y2="599.016" gradientUnits="userSpaceOnUse">
<stop stop-color="#D8D8D8"/>
<stop offset="1" stop-color="white"/>
</linearGradient>
<linearGradient id="paint11_linear_5753_32161" x1="476.836" y1="592.476" x2="427.974" y2="571.189" gradientUnits="userSpaceOnUse">
<stop stop-color="#D2D2D2"/>
<stop offset="0.350909" stop-color="#CACACA"/>
<stop offset="1" stop-color="#F6F6F6"/>
</linearGradient>
<linearGradient id="paint12_linear_5753_32161" x1="271.105" y1="105.058" x2="320.822" y2="119.512" gradientUnits="userSpaceOnUse">
<stop stop-color="#D8D8D8"/>
<stop offset="1" stop-color="white"/>
</linearGradient>
<linearGradient id="paint13_linear_5753_32161" x1="235.303" y1="-186.408" x2="391.494" y2="-124.667" gradientUnits="userSpaceOnUse">
<stop stop-color="#E8EAE9"/>
<stop offset="0.498386" stop-color="#707072"/>
<stop offset="1" stop-color="#2F3032"/>
</linearGradient>
<linearGradient id="paint14_linear_5753_32161" x1="243.088" y1="-87.8445" x2="377.195" y2="-9.98168" gradientUnits="userSpaceOnUse">
<stop stop-color="#E8EAE9"/>
<stop offset="0.498386" stop-color="#707072"/>
<stop offset="1" stop-color="#2F3032"/>
</linearGradient>
<linearGradient id="paint15_linear_5753_32161" x1="234.549" y1="-75.2126" x2="372.426" y2="5.7069" gradientUnits="userSpaceOnUse">
<stop stop-color="#E8EAE9"/>
<stop offset="0.498386" stop-color="#707072"/>
<stop offset="1" stop-color="#2F3032"/>
</linearGradient>
<linearGradient id="paint16_linear_5753_32161" x1="269.165" y1="108.513" x2="314.024" y2="119.839" gradientUnits="userSpaceOnUse">
<stop stop-color="#D8D8D8"/>
<stop offset="1" stop-color="white"/>
</linearGradient>
<linearGradient id="paint17_linear_5753_32161" x1="247.45" y1="126.418" x2="296.324" y2="147.677" gradientUnits="userSpaceOnUse">
<stop stop-color="#D2D2D2"/>
<stop offset="0.350909" stop-color="#CACACA"/>
<stop offset="1" stop-color="#F6F6F6"/>
</linearGradient>
<linearGradient id="paint18_linear_5753_32161" x1="670.066" y1="258.036" x2="719.783" y2="272.49" gradientUnits="userSpaceOnUse">
<stop stop-color="#D8D8D8"/>
<stop offset="1" stop-color="white"/>
</linearGradient>
<linearGradient id="paint19_linear_5753_32161" x1="634.264" y1="-33.4306" x2="790.455" y2="28.3102" gradientUnits="userSpaceOnUse">
<stop stop-color="#E8EAE9"/>
<stop offset="0.498386" stop-color="#707072"/>
<stop offset="1" stop-color="#2F3032"/>
</linearGradient>
<linearGradient id="paint20_linear_5753_32161" x1="642.049" y1="65.133" x2="776.156" y2="142.996" gradientUnits="userSpaceOnUse">
<stop stop-color="#E8EAE9"/>
<stop offset="0.498386" stop-color="#707072"/>
<stop offset="1" stop-color="#2F3032"/>
</linearGradient>
<linearGradient id="paint21_linear_5753_32161" x1="633.51" y1="77.765" x2="771.387" y2="158.684" gradientUnits="userSpaceOnUse">
<stop stop-color="#E8EAE9"/>
<stop offset="0.498386" stop-color="#707072"/>
<stop offset="1" stop-color="#2F3032"/>
</linearGradient>
<linearGradient id="paint22_linear_5753_32161" x1="668.126" y1="261.49" x2="712.985" y2="272.817" gradientUnits="userSpaceOnUse">
<stop stop-color="#D8D8D8"/>
<stop offset="1" stop-color="white"/>
</linearGradient>
<linearGradient id="paint23_linear_5753_32161" x1="646.411" y1="279.395" x2="695.285" y2="300.654" gradientUnits="userSpaceOnUse">
<stop stop-color="#D2D2D2"/>
<stop offset="0.350909" stop-color="#CACACA"/>
<stop offset="1" stop-color="#F6F6F6"/>
</linearGradient>
</defs>
</svg>
