<svg width="607" height="160" viewBox="0 0 607 160" fill="none" xmlns="http://www.w3.org/2000/svg">
<path d="M0 10C0 4.47715 4.47715 0 10 0H597C602.523 0 607 4.47715 607 10V159.211H0V10Z" fill="#036E03"/>
<path d="M508.287 141.327H537.137V151.738C537.137 154.238 535.652 156.264 533.821 156.264H511.603C509.772 156.264 508.287 154.238 508.287 151.738V141.327Z" fill="#6CC56C" fill-opacity="0.5"/>
<path d="M508.287 51.7061H537.137V62.1168C537.137 64.6167 535.652 66.6433 533.821 66.6433H511.603C509.772 66.6433 508.287 64.6167 508.287 62.1168V51.7061Z" fill="#6CC56C" fill-opacity="0.5"/>
<path d="M477.996 117.057H506.846V127.467C506.846 129.967 505.361 131.994 503.53 131.994H481.312C479.481 131.994 477.996 129.967 477.996 127.467V117.057Z" fill="#6CC56C" fill-opacity="0.5"/>
<path d="M508.287 1.29248H537.137V11.7033C537.137 14.2031 535.652 16.2297 533.821 16.2297H511.603C509.772 16.2297 508.287 14.2031 508.287 11.7033V1.29248Z" fill="#6CC56C" fill-opacity="0.5"/>
<path d="M477.996 27.4331H506.846V37.8439C506.846 40.3438 505.361 42.3703 503.53 42.3703H481.312C479.481 42.3703 477.996 40.3438 477.996 37.8439V27.4331Z" fill="#6CC56C" fill-opacity="0.5"/>
<path d="M508.287 90.916H537.137V101.327C537.137 103.827 535.652 105.853 533.821 105.853H511.603C509.772 105.853 508.287 103.827 508.287 101.327V90.916Z" fill="#6CC56C" fill-opacity="0.5"/>
<path d="M542.91 27.4326H571.76V37.8434C571.76 40.3433 570.275 42.3698 568.444 42.3698H546.226C544.395 42.3698 542.91 40.3433 542.91 37.8434V27.4326Z" fill="#6CC56C" fill-opacity="0.5"/>
<path d="M571.76 131.994H542.91V121.583C542.91 119.083 544.395 117.056 546.226 117.056H568.444C570.275 117.056 571.76 119.083 571.76 121.583V131.994Z" fill="#6CC56C" fill-opacity="0.5"/>
<path d="M573.203 1.29199H602.053V11.7028C602.053 14.2026 600.568 16.2292 598.737 16.2292H576.519C574.688 16.2292 573.203 14.2026 573.203 11.7028V1.29199Z" fill="#6CC56C" fill-opacity="0.5"/>
<path d="M602.051 105.853H573.201V95.4422C573.201 92.9424 574.686 90.9158 576.517 90.9158H598.735C600.566 90.9158 602.051 92.9424 602.051 95.4422V105.853Z" fill="#6CC56C" fill-opacity="0.5"/>
<path d="M573.201 51.7056H602.051V62.1163C602.051 64.6162 600.566 66.6428 598.735 66.6428H576.517C574.686 66.6428 573.201 64.6162 573.201 62.1163V51.7056Z" fill="#6CC56C" fill-opacity="0.5"/>
<path d="M602.051 156.267H573.201V145.856C573.201 143.356 574.686 141.329 576.517 141.329H598.735C600.566 141.329 602.051 143.356 602.051 145.856V156.267Z" fill="#6CC56C" fill-opacity="0.5"/>
<path d="M93.7617 14.939L64.912 14.939V4.52819C64.912 2.02831 66.3967 0.00176233 68.2281 0.00176233L90.4457 0.00176233C92.2771 0.00176233 93.7617 2.02831 93.7617 4.52819V14.939Z" fill="#6CC56C" fill-opacity="0.5"/>
<path d="M93.7617 104.561H64.912V94.1498C64.912 91.6499 66.3967 89.6233 68.2281 89.6233H90.4457C92.2771 89.6233 93.7617 91.6499 93.7617 94.1498V104.561Z" fill="#6CC56C" fill-opacity="0.5"/>
<path d="M124.053 39.21L95.203 39.21V28.7992C95.203 26.2993 96.6877 24.2728 98.5191 24.2728L120.737 24.2728C122.568 24.2728 124.053 26.2993 124.053 28.7992V39.21Z" fill="#6CC56C" fill-opacity="0.5"/>
<path d="M93.7617 154.974H64.912V144.563C64.912 142.063 66.3967 140.037 68.2281 140.037H90.4457C92.2771 140.037 93.7617 142.063 93.7617 144.563V154.974Z" fill="#6CC56C" fill-opacity="0.5"/>
<path d="M124.053 128.833H95.203V118.423C95.203 115.923 96.6877 113.896 98.5191 113.896H120.737C122.568 113.896 124.053 115.923 124.053 118.423V128.833Z" fill="#6CC56C" fill-opacity="0.5"/>
<path d="M93.7617 65.3506H64.912V54.9398C64.912 52.4399 66.3967 50.4134 68.2281 50.4134H90.4457C92.2771 50.4134 93.7617 52.4399 93.7617 54.9398V65.3506Z" fill="#6CC56C" fill-opacity="0.5"/>
<path d="M59.1426 128.834H30.2929V118.423C30.2929 115.923 31.7775 113.897 33.6089 113.897H55.8265C57.6579 113.897 59.1426 115.923 59.1426 118.423V128.834Z" fill="#6CC56C" fill-opacity="0.5"/>
<path d="M30.293 24.2725L59.1427 24.2725V34.6832C59.1427 37.1831 57.658 39.2097 55.8266 39.2097L33.609 39.2097C31.7776 39.2097 30.293 37.1831 30.293 34.6832L30.293 24.2725Z" fill="#6CC56C" fill-opacity="0.5"/>
<path d="M28.8496 154.975H-0.000104904V144.564C-0.000104904 142.064 1.48455 140.037 3.31595 140.037H25.5335C27.365 140.037 28.8496 142.064 28.8496 144.564V154.975Z" fill="#6CC56C" fill-opacity="0.5"/>
<path d="M0.00195312 50.4136L28.8517 50.4136L28.8517 60.8244C28.8517 63.3242 27.367 65.3508 25.5356 65.3508L3.31801 65.3508C1.4866 65.3508 0.00195312 63.3242 0.00195312 60.8244L0.00195312 50.4136Z" fill="#6CC56C" fill-opacity="0.5"/>
<path d="M28.8496 104.561H-0.000104904V94.1503C-0.000104904 91.6504 1.48455 89.6238 3.31595 89.6238H25.5335C27.365 89.6238 28.8496 91.6504 28.8496 94.1503V104.561Z" fill="#6CC56C" fill-opacity="0.5"/>
<path d="M0.00195312 0L28.8517 0L28.8517 10.4108C28.8517 12.9107 27.367 14.9372 25.5356 14.9372L3.31801 14.9372C1.4866 14.9372 0.00195312 12.9107 0.00195312 10.4108L0.00195312 0Z" fill="#6CC56C" fill-opacity="0.5"/>
</svg>
