<svg width="273" height="54" viewBox="0 0 273 54" fill="none" xmlns="http://www.w3.org/2000/svg">
<rect width="272.712" height="53.9967" rx="26.9984" fill="white"/>
<circle cx="26.9979" cy="26.9979" r="19.7675" fill="#036E03"/>
<path fill-rule="evenodd" clip-rule="evenodd" d="M34.8545 29.243C34.8366 29.1775 34.8483 29.0209 34.8646 28.9474C34.9107 28.7393 34.8898 28.7448 34.8961 28.5154C34.9031 28.2644 34.9038 28.0142 34.9038 27.7631V17.143L30.3711 17.1453L30.3653 28.2469L30.3293 28.249C30.3319 28.3366 30.3409 28.4576 30.3172 28.5366L30.2914 28.723C30.2759 29.0118 30.2486 28.8974 30.242 29.0467C30.2407 29.075 30.2396 29.1379 30.2345 29.1629C30.2155 29.2555 30.2174 29.1334 30.1985 29.2546C30.1947 29.2785 30.1986 29.2892 30.1898 29.3135L30.1483 29.4516C30.1369 29.5047 30.0819 29.5904 30.0718 29.6222C30.0646 29.6453 30.0678 29.6595 30.0626 29.6815C30.0474 29.7466 30.062 29.6928 30.047 29.7182L30.0051 29.7927C30.0037 29.795 30.001 29.7978 29.9996 29.8L29.9714 29.8885C29.9495 29.9677 29.9736 29.8897 29.9482 29.9317C29.9353 29.9531 29.9249 29.9992 29.8993 30.0282C29.837 30.0988 29.8711 30.0534 29.8336 30.1298C29.8175 30.1625 29.8359 30.1306 29.8171 30.1547L29.5093 30.5446C29.5076 30.5469 29.5052 30.5499 29.5036 30.5523L29.4479 30.6276C29.4461 30.6294 29.4431 30.632 29.4413 30.6338L29.3905 30.6877C29.371 30.7029 29.3965 30.6863 29.3656 30.7031C29.362 30.7051 29.3505 30.7097 29.3469 30.7117C29.3209 30.7256 29.3335 30.7179 29.3135 30.7328C29.3112 30.7345 29.3083 30.737 29.3061 30.7387L29.2535 30.7876C29.2517 30.7895 29.249 30.7924 29.2471 30.7943L29.1304 30.9009C29.0896 30.9299 29.0797 30.9152 29.0345 30.951C29.0322 30.9528 29.0295 30.9556 29.0273 30.9574C29.0251 30.9593 29.0224 30.9621 29.0202 30.964C29.018 30.9659 29.0153 30.9687 29.0131 30.9706L28.9984 30.9833C28.9738 31.0017 29.0045 30.9831 28.9736 30.999L28.7429 31.1116C28.7404 31.1129 28.7375 31.1153 28.735 31.1167L28.4716 31.2385C28.4153 31.2665 28.3781 31.2621 28.3386 31.2801L28.3066 31.2996C28.3033 31.3009 28.2999 31.3024 28.2964 31.3035C28.1981 31.3352 28.2191 31.3046 28.1514 31.3397C28.1152 31.3585 28.0088 31.3624 27.9842 31.375C27.9363 31.3996 27.8777 31.3865 27.8232 31.4049L27.792 31.4226C27.7894 31.4238 27.7863 31.4258 27.7835 31.4268C27.7002 31.458 27.5841 31.4438 27.4951 31.4473C27.4072 31.4507 27.3638 31.4742 27.2685 31.477C27.1891 31.4793 27.1105 31.4815 27.0272 31.4816C26.9038 31.4818 26.7747 31.4874 26.6519 31.4751C26.5573 31.4657 26.6366 31.4646 26.5572 31.4504C26.4674 31.4344 26.3354 31.4658 26.2469 31.4246C26.2444 31.4234 26.2415 31.421 26.2391 31.4197C26.2368 31.4185 26.234 31.4159 26.2317 31.4148C26.2295 31.4136 26.2266 31.4112 26.2243 31.4102C26.2219 31.4092 26.2187 31.4073 26.2162 31.4064C26.1841 31.3951 26.1376 31.4001 26.1025 31.3982C26.0141 31.3935 26.0273 31.3631 25.8885 31.3548C25.7877 31.3488 25.7871 31.3127 25.6752 31.3079C25.6338 31.2541 25.6931 31.2817 25.5952 31.2663C25.5405 31.2577 25.494 31.2304 25.4423 31.2031L25.1664 31.0687C25.1637 31.0673 25.1605 31.0653 25.1577 31.064C25.1173 31.0453 25.1062 31.0487 25.0748 31.0182L25.054 30.9981C25.0519 30.9962 25.049 30.9936 25.0468 30.9919C25.0143 30.9668 24.9702 30.9606 24.9426 30.9361C24.9405 30.9343 24.9379 30.9313 24.9358 30.9294L24.8478 30.8484C24.7445 30.7948 24.7825 30.8126 24.6895 30.7307L24.5957 30.6369C24.5941 30.6352 24.5914 30.6323 24.5897 30.6306L24.1769 30.1077C24.1568 30.0859 24.1683 30.1038 24.1556 30.0694L24.1125 29.9788C24.1066 29.9637 24.1103 29.966 24.102 29.9488L24.0866 29.9244C24.0489 29.8607 24.0417 29.825 24.0174 29.7566C23.9923 29.686 24.0126 29.749 23.9939 29.7182C23.9616 29.6649 23.974 29.629 23.9508 29.5892C23.9495 29.5868 23.947 29.584 23.9457 29.5816L23.9243 29.5244C23.8463 29.3573 23.9006 29.3654 23.8622 29.2841C23.861 29.2815 23.859 29.2785 23.8578 29.2759C23.8565 29.2733 23.8547 29.27 23.8535 29.2673L23.8427 29.2385C23.7703 29.0571 23.8139 29.0819 23.7947 28.9034C23.7869 28.8311 23.7931 28.8801 23.7796 28.86L23.7538 28.7624C23.7532 28.7167 23.7544 28.6921 23.7414 28.6512C23.6951 28.5059 23.7124 28.3289 23.7119 28.1779C23.7008 25.1599 23.7115 22.1418 23.7115 19.1237C23.7115 18.4589 23.7266 17.7772 23.7098 17.1143L19.0958 17.1198C19.0827 18.304 19.0952 19.4953 19.0952 20.6803V27.8147C19.0952 27.9002 19.0766 28.3537 19.109 28.4189C19.1744 28.5504 19.0985 28.8935 19.1613 29.0813C19.194 29.1792 19.15 29.3246 19.1995 29.4194C19.2005 29.4216 19.2031 29.4244 19.2043 29.4265C19.2476 29.5107 19.2032 29.6796 19.2429 29.7543C19.2688 29.8033 19.2592 29.8857 19.2762 29.9441L19.3059 30.019C19.3401 30.1747 19.3307 30.0825 19.3469 30.141C19.364 30.2025 19.3448 30.2664 19.3777 30.3245C19.3969 30.3585 19.3935 30.3764 19.3985 30.4212L19.4195 30.4896C19.4482 30.5507 19.4336 30.6343 19.4641 30.6929C19.4653 30.6952 19.4678 30.698 19.469 30.7002L19.4832 30.7244C19.4911 30.746 19.4888 30.7507 19.492 30.772L19.5098 30.831C19.5111 30.8332 19.5138 30.8359 19.5151 30.8381C19.5357 30.8742 19.5355 30.9125 19.5381 30.9538C19.5888 30.9877 19.5693 30.959 19.5817 31.0314L19.6614 31.2152C19.6667 31.2369 19.6643 31.2544 19.6706 31.2751C19.6846 31.3208 19.7354 31.3774 19.7502 31.4252C19.7518 31.4303 19.7534 31.4424 19.7543 31.4475L19.9879 31.9408C20.0711 32.0678 20.0838 32.1517 20.1701 32.2541L20.3728 32.577C20.4465 32.6507 20.4084 32.6444 20.4579 32.6997L20.5643 32.8461C20.5762 32.8622 20.5658 32.8483 20.5832 32.8651L20.6292 32.913C20.6354 32.9204 20.6443 32.9317 20.6526 32.9419L20.7867 33.1096C20.8718 33.1886 20.855 33.2079 20.9163 33.27C20.9184 33.272 20.9212 33.2747 20.9232 33.2768L21.3771 33.7194C21.379 33.721 21.3821 33.7234 21.3839 33.725L21.4417 33.7833C21.4438 33.7853 21.4467 33.7879 21.4489 33.7899C21.4511 33.7919 21.454 33.7945 21.4562 33.7965L21.5126 33.8472C21.5345 33.8659 21.6313 33.9191 21.7182 34.0088C21.72 34.0107 21.7227 34.0135 21.7245 34.0154L21.8653 34.1153C21.9275 34.1508 21.9612 34.2052 22.0311 34.2397C22.0754 34.2616 22.0357 34.2374 22.0733 34.2653L22.1082 34.2948C22.1334 34.3166 22.114 34.3054 22.1454 34.3211L22.2676 34.3986C22.2779 34.4047 22.2925 34.4102 22.3022 34.4159L22.3257 34.4319C22.328 34.4334 22.3308 34.4361 22.3332 34.4376L22.3903 34.4615C22.4234 34.4752 22.404 34.4648 22.4307 34.4868L22.5766 34.5769C22.5795 34.5784 22.5832 34.5797 22.5862 34.5811C22.5892 34.5825 22.5931 34.5835 22.5961 34.5849L22.6405 34.608C22.643 34.6096 22.646 34.612 22.6483 34.6136L22.9553 34.771C22.9579 34.7724 22.9607 34.7748 22.9633 34.7762C22.9658 34.7776 22.9688 34.7799 22.9713 34.7813C22.974 34.7827 22.9772 34.7847 22.98 34.786L23.2686 34.9083C23.2709 34.9097 23.2738 34.9123 23.2761 34.9137L23.4939 34.9979C23.4965 34.9993 23.4996 35.0014 23.5023 35.0027C23.5052 35.0041 23.5086 35.0058 23.5116 35.0072C23.5149 35.0087 23.5185 35.0098 23.5218 35.0112C23.5259 35.0129 23.5392 35.0168 23.5432 35.0184C23.5464 35.0198 23.5501 35.021 23.5532 35.0223L23.7101 35.0782C23.7498 35.1022 23.7857 35.0969 23.8278 35.1168L24.0233 35.1864C24.1369 35.2132 24.0129 35.209 24.1109 35.2265L24.2026 35.2475C24.2478 35.2716 24.2824 35.2629 24.3368 35.2739C24.4458 35.2958 24.3146 35.2937 24.4302 35.3112C24.4795 35.3187 24.4999 35.3122 24.5438 35.3315L24.6427 35.3561C24.7445 35.3654 24.7716 35.3901 24.859 35.402C24.9855 35.4192 24.8593 35.4182 24.9538 35.4358C24.9841 35.4415 25.0531 35.4417 25.087 35.4432C25.1436 35.4458 25.1638 35.4556 25.1927 35.4688C25.2514 35.4957 25.3444 35.4846 25.4218 35.4918C25.4549 35.4949 25.453 35.4949 25.4789 35.5035L25.6478 35.5295C25.8951 35.538 25.8033 35.555 25.8765 35.5665C26.0093 35.5873 26.1937 35.5469 26.3235 35.5892C26.4156 35.6192 27.3078 35.624 27.4118 35.6036L27.4602 35.5871C27.5175 35.5717 27.5821 35.5756 27.6424 35.5744C27.7321 35.5725 27.8218 35.5697 27.9114 35.568C27.9262 35.5677 27.9645 35.5678 27.9769 35.5658C28.0407 35.5559 27.9933 35.5612 28.0197 35.5484L28.0701 35.5328C28.0854 35.531 28.1211 35.5309 28.1382 35.5305C28.235 35.5283 28.2388 35.5262 28.3067 35.503C28.392 35.4738 28.5227 35.496 28.6057 35.4788C28.7031 35.4587 28.5839 35.4577 28.6994 35.445C28.7366 35.441 28.7972 35.4462 28.832 35.437C28.9096 35.4163 28.801 35.4478 28.8728 35.4159C28.9061 35.4011 28.9568 35.4069 28.9955 35.4003C29.0776 35.3864 29.013 35.3964 29.0418 35.382C29.1146 35.3457 29.2104 35.3731 29.3255 35.3252L29.3961 35.2979C29.3986 35.2966 29.4014 35.2942 29.4038 35.293L29.5619 35.2615C29.6149 35.2385 29.5376 35.2554 29.6125 35.2371C29.627 35.2336 29.6572 35.2318 29.6714 35.2301C29.7177 35.2248 29.7484 35.2059 29.769 35.1966C29.8069 35.1794 29.8476 35.1873 29.8901 35.1777C29.956 35.1628 29.8926 35.1784 29.9317 35.1579L30.2541 35.0287C30.2928 35.0099 30.3275 35.0189 30.3722 35.0088C30.4382 34.9937 30.3765 35.006 30.4229 34.9826C30.4258 34.9812 30.4292 34.9793 30.4323 34.978L30.7248 34.8474C30.8016 34.8207 30.7506 34.8657 30.7889 34.8022C30.8119 34.8004 30.8465 34.7993 30.868 34.7933L31.179 34.6414C31.2948 34.5582 31.2984 34.5813 31.3997 34.5187L31.4157 34.508C31.4363 34.4965 31.4534 34.4921 31.4715 34.4821L31.585 34.4229C31.6139 34.3971 31.6198 34.3817 31.6596 34.3662L31.7339 34.3215C31.7361 34.3195 31.7388 34.3167 31.7412 34.3148C31.7435 34.3128 31.7462 34.3101 31.7487 34.3082L31.7838 34.2876C31.7919 34.2842 31.8283 34.2739 31.8617 34.2402L31.8905 34.2135C31.906 34.2025 31.889 34.2111 31.9174 34.1989C32.0015 34.1628 31.9935 34.1501 32.0528 34.0983L32.1225 34.0619C32.1553 34.0472 32.1359 34.0588 32.1624 34.035L32.2214 33.9756C32.2234 33.9738 32.2263 33.9711 32.2283 33.9693L32.367 33.8715C32.368 33.8707 32.4092 33.8367 32.4095 33.8364C32.4192 33.8279 32.4201 33.8269 32.4307 33.8174L32.5249 33.7266C32.5309 33.7215 32.5365 33.7179 32.5464 33.7099L32.5892 33.671C32.6438 33.6208 32.6364 33.6569 32.716 33.5749L32.9654 33.3374C32.9989 33.298 33.0104 33.2602 33.0521 33.223L33.2265 33.0461C33.2282 33.0441 33.2307 33.041 33.2324 33.0389C33.2342 33.0368 33.2368 33.0338 33.2387 33.0317C33.2413 33.0288 33.2492 33.0204 33.2519 33.0176C33.2527 33.0168 33.2715 32.999 33.2729 32.9976C33.3162 32.9526 33.3115 32.92 33.3464 32.8866C33.3483 32.8848 33.3513 32.8822 33.3532 32.8804L33.4459 32.7619C33.4631 32.7263 33.5051 32.6978 33.5314 32.6657L33.5495 32.6441C33.5512 32.6419 33.5538 32.639 33.5555 32.6366C33.5805 32.601 33.5893 32.5684 33.6196 32.5397C33.6637 32.498 33.6821 32.4445 33.7211 32.3944L33.7595 32.3255C33.7858 32.2807 33.7408 32.3446 33.7755 32.305L33.8547 32.1858C33.8551 32.1852 33.8858 32.1539 33.8865 32.1534C33.9404 32.1013 33.936 32.0629 33.9891 31.9661L34.0918 31.7822C34.1418 31.7183 34.1321 31.7419 34.1542 31.6566C34.1662 31.6099 34.2053 31.5624 34.2303 31.5152C34.2419 31.4934 34.2437 31.4798 34.2555 31.4582C34.2714 31.4291 34.2569 31.4613 34.271 31.4347L34.3943 31.1398C34.4329 31.0711 34.4033 31.0783 34.4526 30.9892C34.464 30.9686 34.4615 30.9644 34.4732 30.9433C34.4746 30.9408 34.4768 30.9376 34.4782 30.9353C34.4796 30.933 34.4821 30.9301 34.4835 30.9279C34.5018 30.8987 34.494 30.8822 34.5114 30.8259C34.5276 30.7735 34.5372 30.7963 34.5503 30.7205C34.5703 30.605 34.5698 30.7185 34.5923 30.61C34.6009 30.5688 34.5919 30.5808 34.6107 30.5457C34.6412 30.4887 34.6306 30.5182 34.6385 30.4345C34.6477 30.3377 34.675 30.4136 34.6849 30.2539C34.6865 30.2285 34.6869 30.1992 34.6891 30.1745C34.6962 30.0927 34.7295 30.1372 34.732 29.9935C34.7343 29.8642 34.7389 29.928 34.7641 29.8817C34.7823 29.8482 34.7708 29.8156 34.7844 29.7783L34.7935 29.7619C34.8093 29.7318 34.8036 29.7928 34.8133 29.7095C34.8201 29.6499 34.806 29.5753 34.8265 29.5185L34.8351 29.5023C34.8493 29.4747 34.8448 29.5311 34.8551 29.45C34.8634 29.3845 34.8715 29.3042 34.8547 29.243H34.8545Z" fill="white"/>
<path fill-rule="evenodd" clip-rule="evenodd" d="M23.2239 39.0648C23.1952 39.4572 23.7969 40.0158 24.213 40.0524C24.2967 40.0598 24.4093 40.055 24.4957 40.055L29.6496 40.0549C30.0941 40.0531 30.8475 39.6407 30.8151 39.1057L30.8143 37.2939H23.2373H23.2227L23.2239 39.0648V39.0648Z" fill="white"/>
<path d="M64.6238 34.3215C60.5753 34.3215 58.7296 32.4362 58.7296 28.7846V19.9929H60.9325V28.5861C60.9325 31.4836 62.0637 32.5155 64.6238 32.5155C67.1839 32.5155 68.3151 31.4836 68.3151 28.5861V19.9929H70.518V28.7846C70.518 32.4362 68.6723 34.3215 64.6238 34.3215ZM74.6553 34.123H72.5517V23.8827H74.5561V26.2443C75.0919 24.4384 76.0048 23.7636 77.4933 23.7636C77.7711 23.7636 78.168 23.8231 78.426 23.8827V25.7283L77.4139 25.6886C75.7468 25.6886 74.6553 26.9786 74.6553 29.2609V34.123ZM85.3563 34.3215C83.5901 34.3215 82.4787 33.5475 81.923 32.2377V34.123H79.9186V19.9929H82.0223V25.6291C82.5978 24.359 83.7091 23.6842 85.3563 23.6842C88.1149 23.6842 89.8415 25.6489 89.8415 29.0029C89.8415 32.3568 88.1149 34.3215 85.3563 34.3215ZM84.88 32.714C86.5669 32.714 87.7378 31.5828 87.7378 29.0029C87.7378 26.4428 86.5669 25.2917 84.88 25.2917C83.1733 25.2917 82.0223 26.4428 82.0223 29.0029C82.0223 31.5828 83.1733 32.714 84.88 32.714ZM94.8044 34.3215C92.4229 34.3215 91.133 33.1308 91.133 31.2256C91.133 29.6975 92.0657 28.4869 94.606 28.2686L96.5905 28.1098C97.8011 27.9907 98.1584 27.7129 98.1584 27.058C98.1584 25.8871 97.4836 25.1925 95.9952 25.1925C94.606 25.1925 93.8518 25.7879 93.7526 27.058H91.6887C91.6887 24.994 92.9588 23.6842 95.9753 23.6842C98.972 23.6842 100.262 24.994 100.262 27.058V31.5034C100.262 32.8926 100.381 33.7857 100.58 34.123H98.6942C98.3767 33.7261 98.2576 33.3094 98.2576 32.3568C97.7019 33.6666 96.5707 34.3215 94.8044 34.3215ZM95.38 32.8728C97.1859 32.8728 98.1584 31.4637 98.1584 29.7768V28.9036C97.9401 29.1815 97.3844 29.3402 96.5905 29.3998L95.2807 29.5188C93.8121 29.6379 93.2366 30.2531 93.2366 31.0867C93.2366 32.1385 93.8717 32.8728 95.38 32.8728ZM111.079 34.123H108.975V27.7327C108.975 26.1848 108.419 25.3909 106.971 25.3909C105.442 25.3909 104.45 26.542 104.45 28.4075V34.123H102.347V23.8827H104.351V25.6688C104.907 24.478 105.899 23.6842 107.606 23.6842C109.947 23.6842 111.079 24.875 111.079 27.3557V34.123ZM129.318 24.4185C129.318 27.2961 127.412 28.8242 124.396 28.8242H120.566V34.123H118.363V19.9929H124.396C127.412 19.9929 129.318 21.5409 129.318 24.4185ZM127.115 24.4185C127.115 22.5729 126.063 21.66 124.098 21.66H120.566V27.1572H124.098C126.063 27.1572 127.115 26.2642 127.115 24.4185ZM135.274 34.3215C132.019 34.3215 130.213 32.2576 130.213 29.0029C130.213 25.8474 131.92 23.6842 135.155 23.6842C138.39 23.6842 140.097 25.8871 140.097 28.8242C140.097 29.0227 140.077 29.2013 140.057 29.3998H132.317C132.377 31.8209 133.528 32.8728 135.274 32.8728C136.723 32.8728 137.636 32.1186 137.953 30.9477H139.878C139.422 33.0315 137.933 34.3215 135.274 34.3215ZM135.155 25.133C133.567 25.133 132.535 26.0855 132.317 28.0106H137.993C137.775 26.0855 136.743 25.133 135.155 25.133ZM143.88 34.123H141.776V23.8827H143.78V26.2443C144.316 24.4384 145.229 23.7636 146.717 23.7636C146.995 23.7636 147.392 23.8231 147.65 23.8827V25.7283L146.638 25.6886C144.971 25.6886 143.88 26.9786 143.88 29.2609V34.123ZM153.153 34.3215C149.938 34.3215 148.707 32.9125 148.707 30.9477H150.731C150.831 32.1186 151.347 32.9125 153.172 32.9125C154.959 32.9125 155.494 32.1385 155.494 31.2653C155.494 30.4516 154.899 30.0348 153.927 29.8959L152.041 29.6181C149.898 29.3204 148.985 28.5663 148.985 26.8595C148.985 25.0933 150.096 23.6842 153.153 23.6842C156.209 23.6842 157.32 25.0933 157.32 26.8992H155.296C155.197 25.9466 154.879 25.0933 153.133 25.0933C151.644 25.0933 151.089 25.7085 151.089 26.7008C151.089 27.5343 151.565 27.832 152.359 27.951L154.244 28.2289C156.328 28.5266 157.598 29.2807 157.598 31.1462C157.598 32.9125 156.368 34.3215 153.153 34.3215ZM163.945 34.3215C160.69 34.3215 158.884 32.2576 158.884 29.0029C158.884 25.7482 160.69 23.6842 163.945 23.6842C167.2 23.6842 169.006 25.7482 169.006 29.0029C169.006 32.2576 167.2 34.3215 163.945 34.3215ZM163.945 32.714C165.83 32.714 166.902 31.4836 166.902 29.0029C166.902 26.542 165.83 25.2917 163.945 25.2917C162.06 25.2917 160.988 26.542 160.988 29.0029C160.988 31.4836 162.06 32.714 163.945 32.714ZM179.431 34.123H177.327V27.7327C177.327 26.1848 176.771 25.3909 175.323 25.3909C173.795 25.3909 172.802 26.542 172.802 28.4075V34.123H170.699V23.8827H172.703V25.6688C173.259 24.478 174.251 23.6842 175.958 23.6842C178.3 23.6842 179.431 24.875 179.431 27.3557V34.123ZM184.79 34.3215C182.408 34.3215 181.118 33.1308 181.118 31.2256C181.118 29.6975 182.051 28.4869 184.591 28.2686L186.576 28.1098C187.787 27.9907 188.144 27.7129 188.144 27.058C188.144 25.8871 187.469 25.1925 185.981 25.1925C184.591 25.1925 183.837 25.7879 183.738 27.058H181.674C181.674 24.994 182.944 23.6842 185.961 23.6842C188.957 23.6842 190.247 24.994 190.247 27.058V31.5034C190.247 32.8926 190.367 33.7857 190.565 34.123H188.68C188.362 33.7261 188.243 33.3094 188.243 32.3568C187.687 33.6666 186.556 34.3215 184.79 34.3215ZM185.365 32.8728C187.171 32.8728 188.144 31.4637 188.144 29.7768V28.9036C187.926 29.1815 187.37 29.3402 186.576 29.3998L185.266 29.5188C183.798 29.6379 183.222 30.2531 183.222 31.0867C183.222 32.1385 183.857 32.8728 185.365 32.8728ZM194.436 34.123H192.332V19.9929H194.436V34.123ZM207.416 34.3215C203.367 34.3215 201.522 32.4362 201.522 28.7846V19.9929H203.725V28.5861C203.725 31.4836 204.856 32.5155 207.416 32.5155C209.976 32.5155 211.107 31.4836 211.107 28.5861V19.9929H213.31V28.7846C213.31 32.4362 211.464 34.3215 207.416 34.3215ZM219.392 34.3215C216.177 34.3215 214.947 32.9125 214.947 30.9477H216.971C217.07 32.1186 217.586 32.9125 219.412 32.9125C221.198 32.9125 221.734 32.1385 221.734 31.2653C221.734 30.4516 221.139 30.0348 220.166 29.8959L218.281 29.6181C216.138 29.3204 215.225 28.5663 215.225 26.8595C215.225 25.0933 216.336 23.6842 219.392 23.6842C222.448 23.6842 223.56 25.0933 223.56 26.8992H221.536C221.436 25.9466 221.119 25.0933 219.372 25.0933C217.884 25.0933 217.328 25.7085 217.328 26.7008C217.328 27.5343 217.805 27.832 218.598 27.951L220.484 28.2289C222.568 28.5266 223.838 29.2807 223.838 31.1462C223.838 32.9125 222.607 34.3215 219.392 34.3215ZM230.185 34.3215C226.93 34.3215 225.124 32.2576 225.124 29.0029C225.124 25.8474 226.831 23.6842 230.066 23.6842C233.3 23.6842 235.007 25.8871 235.007 28.8242C235.007 29.0227 234.987 29.2013 234.967 29.3998H227.228C227.287 31.8209 228.438 32.8728 230.185 32.8728C231.633 32.8728 232.546 32.1186 232.864 30.9477H234.789C234.332 33.0315 232.844 34.3215 230.185 34.3215ZM230.066 25.133C228.478 25.133 227.446 26.0855 227.228 28.0106H232.903C232.685 26.0855 231.653 25.133 230.066 25.133ZM238.79 34.123H236.686V23.8827H238.691V26.2443C239.227 24.4384 240.14 23.7636 241.628 23.7636C241.906 23.7636 242.303 23.8231 242.561 23.8827V25.7283L241.549 25.6886C239.882 25.6886 238.79 26.9786 238.79 29.2609V34.123Z" fill="#1A1A1A"/>
</svg>
