<svg width="273" height="54" viewBox="0 0 273 54" fill="none" xmlns="http://www.w3.org/2000/svg">
<rect width="272.712" height="53.9967" rx="26.9984" fill="#6CC56C"/>
<circle cx="26.9979" cy="26.9984" r="19.7675" fill="white"/>
<path fill-rule="evenodd" clip-rule="evenodd" d="M34.8584 29.2435C34.8406 29.178 34.8522 29.0214 34.8685 28.9479C34.9146 28.7398 34.8937 28.7453 34.9001 28.5159C34.907 28.2649 34.9077 28.0147 34.9077 27.7636V17.1435L30.375 17.1458L30.3692 28.2474L30.3332 28.2495C30.3358 28.3371 30.3448 28.4581 30.3212 28.5371L30.2953 28.7235C30.2798 29.0122 30.2525 28.8979 30.2459 29.0472C30.2446 29.0755 30.2435 29.1384 30.2384 29.1633C30.2194 29.256 30.2213 29.1339 30.2024 29.2551C30.1986 29.279 30.2025 29.2897 30.1937 29.314L30.1522 29.4521C30.1408 29.5052 30.0858 29.5909 30.0758 29.6227C30.0685 29.6458 30.0717 29.66 30.0665 29.682C30.0513 29.7471 30.0659 29.6933 30.0509 29.7187L30.009 29.7932C30.0076 29.7954 30.0049 29.7983 30.0035 29.8005L29.9753 29.8889C29.9534 29.9682 29.9775 29.8901 29.9521 29.9322C29.9392 29.9536 29.9288 29.9997 29.9033 30.0287C29.8409 30.0993 29.875 30.0539 29.8375 30.1303C29.8215 30.163 29.8398 30.1311 29.821 30.1552L29.5132 30.5451C29.5115 30.5474 29.5091 30.5504 29.5075 30.5528L29.4518 30.6281C29.45 30.6299 29.447 30.6325 29.4452 30.6343L29.3945 30.6882C29.3749 30.7034 29.4004 30.6868 29.3695 30.7036C29.3659 30.7056 29.3544 30.7102 29.3508 30.7121C29.3248 30.7261 29.3374 30.7184 29.3174 30.7333C29.3151 30.735 29.3122 30.7375 29.31 30.7392L29.2574 30.7881C29.2556 30.79 29.2529 30.7929 29.251 30.7948L29.1343 30.9014C29.0935 30.9304 29.0837 30.9157 29.0384 30.9515C29.0361 30.9533 29.0334 30.956 29.0312 30.9579C29.029 30.9598 29.0263 30.9626 29.0241 30.9645C29.0219 30.9664 29.0192 30.9692 29.017 30.9711L29.0023 30.9838C28.9777 31.0022 29.0084 30.9836 28.9775 30.9995L28.7468 31.1121C28.7443 31.1134 28.7414 31.1158 28.7389 31.1172L28.4755 31.239C28.4192 31.267 28.382 31.2626 28.3425 31.2806L28.3105 31.3001C28.3072 31.3014 28.3038 31.3029 28.3003 31.304C28.202 31.3357 28.223 31.3051 28.1554 31.3402C28.1191 31.359 28.0127 31.3629 27.9881 31.3755C27.9402 31.4001 27.8817 31.387 27.8271 31.4053L27.7959 31.4231C27.7933 31.4242 27.7902 31.4263 27.7874 31.4273C27.7041 31.4584 27.588 31.4443 27.499 31.4478C27.4111 31.4512 27.3677 31.4747 27.2724 31.4775C27.193 31.4797 27.1144 31.482 27.0311 31.4821C26.9077 31.4823 26.7786 31.4879 26.6558 31.4756C26.5612 31.4662 26.6405 31.4651 26.5611 31.4509C26.4713 31.4349 26.3393 31.4663 26.2508 31.4251C26.2483 31.4238 26.2454 31.4214 26.243 31.4202C26.2407 31.419 26.2379 31.4164 26.2356 31.4153C26.2334 31.4141 26.2305 31.4117 26.2282 31.4107C26.2259 31.4097 26.2226 31.4078 26.2201 31.4069C26.188 31.3956 26.1415 31.4006 26.1064 31.3987C26.018 31.394 26.0312 31.3636 25.8924 31.3553C25.7916 31.3493 25.791 31.3132 25.6791 31.3084C25.6377 31.2546 25.697 31.2822 25.5991 31.2668C25.5444 31.2582 25.4979 31.2309 25.4462 31.2036L25.1703 31.0691C25.1676 31.0677 25.1644 31.0658 25.1616 31.0645C25.1212 31.0458 25.1101 31.0491 25.0787 31.0187L25.0579 30.9986C25.0558 30.9967 25.0529 30.994 25.0507 30.9923C25.0182 30.9673 24.9741 30.9611 24.9465 30.9366C24.9444 30.9347 24.9418 30.9318 24.9397 30.9299L24.8517 30.8489C24.7484 30.7953 24.7864 30.8131 24.6934 30.7311L24.5996 30.6374C24.598 30.6357 24.5953 30.6328 24.5936 30.6311L24.1808 30.1082C24.1607 30.0864 24.1722 30.1043 24.1595 30.0699L24.1165 29.9793C24.1105 29.9641 24.1142 29.9665 24.1059 29.9493L24.0905 29.9249C24.0528 29.8612 24.0456 29.8255 24.0213 29.7571C23.9962 29.6864 24.0165 29.7495 23.9978 29.7187C23.9655 29.6654 23.9779 29.6294 23.9547 29.5897C23.9534 29.5873 23.9509 29.5845 23.9496 29.5821L23.9282 29.5249C23.8502 29.3578 23.9045 29.3658 23.8661 29.2846C23.8649 29.282 23.8629 29.279 23.8617 29.2764C23.8604 29.2737 23.8586 29.2705 23.8574 29.2678L23.8466 29.239C23.7742 29.0576 23.8178 29.0824 23.7986 28.9039C23.7908 28.8316 23.797 28.8805 23.7835 28.8605L23.7577 28.7629C23.7571 28.7172 23.7583 28.6926 23.7453 28.6517C23.699 28.5064 23.7164 28.3294 23.7158 28.1784C23.7047 25.1604 23.7154 22.1423 23.7154 19.1242C23.7154 18.4593 23.7305 17.7777 23.7137 17.1147L19.0997 17.1203C19.0866 18.3045 19.0991 19.4958 19.0991 20.6808V27.8152C19.0991 27.9007 19.0805 28.3542 19.1129 28.4194C19.1783 28.5509 19.1024 28.894 19.1652 29.0818C19.1979 29.1796 19.154 29.3251 19.2034 29.4199C19.2045 29.4221 19.207 29.4248 19.2082 29.427C19.2515 29.5112 19.2071 29.6801 19.2468 29.7548C19.2727 29.8038 19.2631 29.8862 19.2801 29.9446L19.3098 30.0195C19.344 30.1752 19.3346 30.083 19.3508 30.1415C19.3679 30.203 19.3487 30.2669 19.3816 30.325C19.4009 30.3589 19.3974 30.3769 19.4024 30.4217L19.4234 30.4901C19.4521 30.5512 19.4375 30.6348 19.468 30.6934C19.4692 30.6956 19.4717 30.6985 19.4729 30.7007L19.4871 30.7249C19.495 30.7465 19.4927 30.7512 19.496 30.7725L19.5137 30.8315C19.515 30.8337 19.5177 30.8364 19.519 30.8386C19.5396 30.8747 19.5394 30.913 19.5421 30.9543C19.5927 30.9882 19.5732 30.9595 19.5856 31.0318L19.6653 31.2156C19.6706 31.2373 19.6682 31.2548 19.6746 31.2756C19.6885 31.3213 19.7393 31.3779 19.7541 31.4257C19.7557 31.4308 19.7573 31.4429 19.7582 31.448L19.9918 31.9413C20.075 32.0683 20.0877 32.1522 20.174 32.2546L20.3767 32.5775C20.4504 32.6512 20.4123 32.6449 20.4618 32.7002L20.5682 32.8466C20.5801 32.8627 20.5697 32.8488 20.5871 32.8656L20.6331 32.9135C20.6393 32.9209 20.6482 32.9322 20.6565 32.9424L20.7906 33.1101C20.8757 33.1891 20.8589 33.2084 20.9202 33.2704C20.9223 33.2725 20.9251 33.2752 20.9271 33.2773L21.381 33.7198C21.3829 33.7214 21.386 33.7239 21.3878 33.7255L21.4456 33.7838C21.4478 33.7858 21.4507 33.7884 21.4528 33.7904C21.455 33.7924 21.4579 33.7949 21.4601 33.797L21.5165 33.8477C21.5384 33.8664 21.6352 33.9196 21.7221 34.0093C21.7239 34.0112 21.7266 34.014 21.7284 34.0159L21.8692 34.1158C21.9314 34.1513 21.9651 34.2056 22.035 34.2402C22.0793 34.262 22.0396 34.2379 22.0772 34.2658L22.1121 34.2953C22.1373 34.3171 22.1179 34.3059 22.1493 34.3216L22.2715 34.3991C22.2818 34.4052 22.2964 34.4107 22.3062 34.4164L22.3296 34.4324C22.3319 34.4339 22.3347 34.4366 22.3371 34.4381L22.3942 34.462C22.4273 34.4757 22.4079 34.4652 22.4346 34.4872L22.5805 34.5774C22.5834 34.5788 22.5871 34.5801 22.5901 34.5816C22.5932 34.583 22.597 34.584 22.6 34.5854L22.6444 34.6085C22.6469 34.6101 22.6499 34.6125 22.6522 34.6141L22.9592 34.7715C22.9618 34.7729 22.9646 34.7753 22.9672 34.7767C22.9697 34.7781 22.9727 34.7804 22.9752 34.7818C22.9779 34.7832 22.9811 34.7851 22.9839 34.7865L23.2725 34.9088C23.2748 34.9102 23.2777 34.9128 23.28 34.9141L23.4978 34.9984C23.5004 34.9998 23.5035 35.0019 23.5062 35.0032C23.5091 35.0046 23.5126 35.0063 23.5156 35.0077C23.5188 35.0091 23.5224 35.0103 23.5257 35.0117C23.5298 35.0134 23.5431 35.0173 23.5471 35.0189C23.5503 35.0203 23.554 35.0215 23.5571 35.0228L23.714 35.0787C23.7537 35.1026 23.7896 35.0974 23.8317 35.1173L24.0272 35.1869C24.1408 35.2137 24.0168 35.2095 24.1148 35.227L24.2065 35.248C24.2517 35.2721 24.2863 35.2634 24.3407 35.2744C24.4497 35.2963 24.3185 35.2942 24.4341 35.3117C24.4834 35.3192 24.5038 35.3127 24.5477 35.332L24.6466 35.3566C24.7484 35.3659 24.7756 35.3906 24.8629 35.4024C24.9894 35.4196 24.8633 35.4186 24.9577 35.4363C24.988 35.442 25.057 35.4422 25.091 35.4437C25.1475 35.4463 25.1677 35.456 25.1966 35.4693C25.2553 35.4961 25.3483 35.4851 25.4257 35.4923C25.4588 35.4954 25.4569 35.4954 25.4828 35.504L25.6518 35.5299C25.899 35.5385 25.8072 35.5555 25.8804 35.567C26.0132 35.5878 26.1976 35.5474 26.3274 35.5897C26.4195 35.6197 27.3117 35.6245 27.4157 35.6041L27.4641 35.5875C27.5214 35.5722 27.586 35.5761 27.6463 35.5749C27.736 35.573 27.8257 35.5702 27.9153 35.5685C27.9301 35.5682 27.9684 35.5682 27.9808 35.5663C28.0446 35.5564 27.9972 35.5617 28.0236 35.5489L28.074 35.5333C28.0893 35.5315 28.125 35.5314 28.1421 35.531C28.2389 35.5288 28.2427 35.5267 28.3106 35.5035C28.3959 35.4743 28.5266 35.4965 28.6096 35.4793C28.707 35.4592 28.5878 35.4581 28.7033 35.4455C28.7405 35.4415 28.8011 35.4467 28.8359 35.4374C28.9135 35.4168 28.8049 35.4483 28.8768 35.4164C28.91 35.4016 28.9607 35.4074 28.9994 35.4008C29.0815 35.3869 29.0169 35.3969 29.0457 35.3825C29.1185 35.3461 29.2143 35.3736 29.3294 35.3257L29.4 35.2984C29.4025 35.2971 29.4053 35.2947 29.4077 35.2935L29.5658 35.262C29.6188 35.239 29.5415 35.2559 29.6164 35.2376C29.631 35.234 29.6611 35.2322 29.6753 35.2306C29.7216 35.2253 29.7523 35.2064 29.7729 35.197C29.8108 35.1799 29.8515 35.1878 29.894 35.1782C29.9599 35.1633 29.8965 35.1789 29.9356 35.1584L30.258 35.0292C30.2967 35.0104 30.3314 35.0194 30.3761 35.0092C30.4421 34.9942 30.3804 35.0064 30.4268 34.9831C30.4297 34.9817 30.4331 34.9798 30.4362 34.9785L30.7288 34.8479C30.8055 34.8212 30.7545 34.8662 30.7929 34.8026C30.8158 34.8009 30.8504 34.7998 30.8719 34.7938L31.1829 34.6419C31.2987 34.5587 31.3023 34.5818 31.4036 34.5192L31.4196 34.5085C31.4402 34.497 31.4573 34.4926 31.4754 34.4826L31.5889 34.4234C31.6178 34.3976 31.6237 34.3822 31.6635 34.3667L31.7378 34.322C31.74 34.32 31.7427 34.3172 31.7451 34.3152C31.7474 34.3133 31.7501 34.3106 31.7526 34.3087L31.7877 34.2881C31.7958 34.2847 31.8322 34.2744 31.8656 34.2407L31.8944 34.214C31.9099 34.203 31.8929 34.2116 31.9213 34.1994C32.0054 34.1633 31.9974 34.1506 32.0567 34.0988L32.1264 34.0624C32.1592 34.0477 32.1398 34.0593 32.1663 34.0354L32.2253 33.9761C32.2273 33.9743 32.2302 33.9716 32.2322 33.9698L32.3709 33.872C32.3719 33.8712 32.4131 33.8372 32.4134 33.8369C32.4232 33.8284 32.424 33.8274 32.4346 33.8179L32.5288 33.7271C32.5348 33.722 32.5404 33.7184 32.5503 33.7104L32.5931 33.6715C32.6477 33.6213 32.6404 33.6574 32.7199 33.5754L32.9693 33.3379C33.0028 33.2985 33.0143 33.2607 33.056 33.2235L33.2304 33.0466C33.2321 33.0446 33.2346 33.0415 33.2363 33.0394C33.2381 33.0373 33.2407 33.0343 33.2426 33.0322C33.2452 33.0293 33.2531 33.0209 33.2558 33.0181C33.2566 33.0173 33.2754 32.9995 33.2768 32.9981C33.3201 32.953 33.3154 32.9205 33.3503 32.8871C33.3522 32.8853 33.3552 32.8827 33.3571 32.8808L33.4498 32.7624C33.467 32.7268 33.509 32.6983 33.5353 32.6662L33.5534 32.6446C33.5551 32.6424 33.5577 32.6395 33.5594 32.6371C33.5844 32.6015 33.5932 32.5689 33.6235 32.5402C33.6676 32.4985 33.686 32.445 33.725 32.3949L33.7634 32.326C33.7897 32.2811 33.7447 32.3451 33.7794 32.3055L33.8586 32.1863C33.859 32.1857 33.8897 32.1544 33.8904 32.1539C33.9443 32.1018 33.9399 32.0634 33.993 31.9666L34.0957 31.7827C34.1457 31.7188 34.136 31.7424 34.1581 31.6571C34.1701 31.6103 34.2092 31.5629 34.2342 31.5157C34.2458 31.4939 34.2476 31.4803 34.2594 31.4587C34.2753 31.4296 34.2608 31.4618 34.2749 31.4352L34.3982 31.1403C34.4368 31.0716 34.4072 31.0788 34.4565 30.9897C34.4679 30.9691 34.4654 30.9649 34.4771 30.9438C34.4785 30.9413 34.4807 30.9381 34.4821 30.9357C34.4835 30.9335 34.486 30.9306 34.4874 30.9284C34.5057 30.8991 34.4979 30.8827 34.5153 30.8263C34.5315 30.774 34.5411 30.7968 34.5542 30.721C34.5742 30.6055 34.5737 30.719 34.5962 30.6105C34.6048 30.5693 34.5958 30.5813 34.6146 30.5461C34.6451 30.4892 34.6345 30.5187 34.6424 30.435C34.6517 30.3382 34.6789 30.4141 34.6888 30.2544C34.6904 30.229 34.6908 30.1997 34.693 30.175C34.7001 30.0932 34.7335 30.1377 34.7359 29.994C34.7382 29.8647 34.7428 29.9284 34.768 29.8822C34.7862 29.8487 34.7747 29.8161 34.7883 29.7787L34.7975 29.7624C34.8132 29.7323 34.8075 29.7933 34.8172 29.71C34.824 29.6504 34.8099 29.5758 34.8304 29.519L34.8391 29.5028C34.8532 29.4752 34.8487 29.5316 34.859 29.4505C34.8673 29.3849 34.8754 29.3047 34.8586 29.2435H34.8584Z" fill="#036E03"/>
<path fill-rule="evenodd" clip-rule="evenodd" d="M23.2278 39.0653C23.1991 39.4577 23.8008 40.0163 24.217 40.0529C24.3006 40.0603 24.4132 40.0555 24.4996 40.0555L29.6535 40.0554C30.098 40.0536 30.8514 39.6412 30.819 39.1062L30.8182 37.2944H23.2412H23.2266L23.2278 39.0653V39.0653Z" fill="#036E03"/>
<path d="M64.6238 34.3215C60.5753 34.3215 58.7296 32.4362 58.7296 28.7846V19.9929H60.9325V28.5861C60.9325 31.4836 62.0637 32.5155 64.6238 32.5155C67.1839 32.5155 68.3151 31.4836 68.3151 28.5861V19.9929H70.518V28.7846C70.518 32.4362 68.6723 34.3215 64.6238 34.3215ZM74.6553 34.123H72.5517V23.8827H74.5561V26.2443C75.0919 24.4384 76.0048 23.7636 77.4933 23.7636C77.7711 23.7636 78.168 23.8231 78.426 23.8827V25.7283L77.4139 25.6886C75.7468 25.6886 74.6553 26.9786 74.6553 29.2609V34.123ZM85.3563 34.3215C83.5901 34.3215 82.4787 33.5475 81.923 32.2377V34.123H79.9186V19.9929H82.0223V25.6291C82.5978 24.359 83.7091 23.6842 85.3563 23.6842C88.1149 23.6842 89.8415 25.6489 89.8415 29.0029C89.8415 32.3568 88.1149 34.3215 85.3563 34.3215ZM84.88 32.714C86.5669 32.714 87.7378 31.5828 87.7378 29.0029C87.7378 26.4428 86.5669 25.2917 84.88 25.2917C83.1733 25.2917 82.0223 26.4428 82.0223 29.0029C82.0223 31.5828 83.1733 32.714 84.88 32.714ZM94.8044 34.3215C92.4229 34.3215 91.133 33.1308 91.133 31.2256C91.133 29.6975 92.0657 28.4869 94.606 28.2686L96.5905 28.1098C97.8011 27.9907 98.1584 27.7129 98.1584 27.058C98.1584 25.8871 97.4836 25.1925 95.9952 25.1925C94.606 25.1925 93.8518 25.7879 93.7526 27.058H91.6887C91.6887 24.994 92.9588 23.6842 95.9753 23.6842C98.972 23.6842 100.262 24.994 100.262 27.058V31.5034C100.262 32.8926 100.381 33.7857 100.58 34.123H98.6942C98.3767 33.7261 98.2576 33.3094 98.2576 32.3568C97.7019 33.6666 96.5707 34.3215 94.8044 34.3215ZM95.38 32.8728C97.1859 32.8728 98.1584 31.4637 98.1584 29.7768V28.9036C97.9401 29.1815 97.3844 29.3402 96.5905 29.3998L95.2807 29.5188C93.8121 29.6379 93.2366 30.2531 93.2366 31.0867C93.2366 32.1385 93.8717 32.8728 95.38 32.8728ZM111.079 34.123H108.975V27.7327C108.975 26.1848 108.419 25.3909 106.971 25.3909C105.442 25.3909 104.45 26.542 104.45 28.4075V34.123H102.347V23.8827H104.351V25.6688C104.907 24.478 105.899 23.6842 107.606 23.6842C109.947 23.6842 111.079 24.875 111.079 27.3557V34.123ZM124.694 34.3215C120.228 34.3215 117.827 31.3645 117.827 27.058C117.827 22.7515 120.228 19.7945 124.694 19.7945C128.544 19.7945 131.044 22.0966 131.044 25.0337H128.98C128.722 23.069 127.333 21.6004 124.694 21.6004C121.618 21.6004 120.03 23.5651 120.03 27.058C120.03 30.5508 121.618 32.5155 124.694 32.5155C127.293 32.5155 128.722 31.1263 128.98 28.9632H131.044C131.044 31.9599 128.623 34.3215 124.694 34.3215ZM137.387 34.3215C134.132 34.3215 132.326 32.2576 132.326 29.0029C132.326 25.7482 134.132 23.6842 137.387 23.6842C140.641 23.6842 142.447 25.7482 142.447 29.0029C142.447 32.2576 140.641 34.3215 137.387 34.3215ZM137.387 32.714C139.272 32.714 140.344 31.4836 140.344 29.0029C140.344 26.542 139.272 25.2917 137.387 25.2917C135.501 25.2917 134.43 26.542 134.43 29.0029C134.43 31.4836 135.501 32.714 137.387 32.714ZM146.244 34.123H144.14V23.8827H146.145V26.2443C146.681 24.4384 147.593 23.7636 149.082 23.7636C149.36 23.7636 149.757 23.8231 150.015 23.8827V25.7283L149.003 25.6886C147.336 25.6886 146.244 26.9786 146.244 29.2609V34.123ZM156.945 34.3215C155.298 34.3215 154.186 33.6468 153.611 32.3766V38.0128H151.507V23.8827H153.512V25.7879C154.067 24.4582 155.179 23.6842 156.945 23.6842C159.704 23.6842 161.43 25.6489 161.43 29.0029C161.43 32.3568 159.704 34.3215 156.945 34.3215ZM156.469 32.714C158.156 32.714 159.326 31.5828 159.326 29.0029C159.326 26.4428 158.156 25.2917 156.469 25.2917C154.762 25.2917 153.611 26.4428 153.611 29.0029C153.611 31.5828 154.762 32.714 156.469 32.714ZM167.782 34.3215C164.528 34.3215 162.722 32.2576 162.722 29.0029C162.722 25.7482 164.528 23.6842 167.782 23.6842C171.037 23.6842 172.843 25.7482 172.843 29.0029C172.843 32.2576 171.037 34.3215 167.782 34.3215ZM167.782 32.714C169.668 32.714 170.739 31.4836 170.739 29.0029C170.739 26.542 169.668 25.2917 167.782 25.2917C165.897 25.2917 164.825 26.542 164.825 29.0029C164.825 31.4836 165.897 32.714 167.782 32.714ZM176.64 34.123H174.536V23.8827H176.54V26.2443C177.076 24.4384 177.989 23.7636 179.478 23.7636C179.755 23.7636 180.152 23.8231 180.41 23.8827V25.7283L179.398 25.6886C177.731 25.6886 176.64 26.9786 176.64 29.2609V34.123ZM184.693 34.3215C182.312 34.3215 181.022 33.1308 181.022 31.2256C181.022 29.6975 181.954 28.4869 184.495 28.2686L186.479 28.1098C187.69 27.9907 188.047 27.7129 188.047 27.058C188.047 25.8871 187.372 25.1925 185.884 25.1925C184.495 25.1925 183.74 25.7879 183.641 27.058H181.577C181.577 24.994 182.847 23.6842 185.864 23.6842C188.861 23.6842 190.151 24.994 190.151 27.058V31.5034C190.151 32.8926 190.27 33.7857 190.468 34.123H188.583C188.265 33.7261 188.146 33.3094 188.146 32.3568C187.59 33.6666 186.459 34.3215 184.693 34.3215ZM185.269 32.8728C187.074 32.8728 188.047 31.4637 188.047 29.7768V28.9036C187.829 29.1815 187.273 29.3402 186.479 29.3998L185.169 29.5188C183.701 29.6379 183.125 30.2531 183.125 31.0867C183.125 32.1385 183.76 32.8728 185.269 32.8728ZM195.812 34.2223C193.669 34.2223 192.915 33.5872 192.915 31.5034V25.3909H191.247V23.8827H192.915V20.7867H195.018V23.8827H197.38V25.3909H195.018V31.563C195.018 32.456 195.356 32.714 196.288 32.714L197.38 32.6942V34.123C196.963 34.1627 196.229 34.2223 195.812 34.2223ZM203.122 34.3215C199.868 34.3215 198.062 32.2576 198.062 29.0029C198.062 25.8474 199.768 23.6842 203.003 23.6842C206.238 23.6842 207.945 25.8871 207.945 28.8242C207.945 29.0227 207.925 29.2013 207.905 29.3998H200.165C200.225 31.8209 201.376 32.8728 203.122 32.8728C204.571 32.8728 205.484 32.1186 205.802 30.9477H207.727C207.27 33.0315 205.782 34.3215 203.122 34.3215ZM203.003 25.133C201.416 25.133 200.384 26.0855 200.165 28.0106H205.841C205.623 26.0855 204.591 25.133 203.003 25.133ZM220.519 34.3215C216.471 34.3215 214.625 32.4362 214.625 28.7846V19.9929H216.828V28.5861C216.828 31.4836 217.959 32.5155 220.519 32.5155C223.08 32.5155 224.211 31.4836 224.211 28.5861V19.9929H226.414V28.7846C226.414 32.4362 224.568 34.3215 220.519 34.3215ZM232.496 34.3215C229.281 34.3215 228.05 32.9125 228.05 30.9477H230.075C230.174 32.1186 230.69 32.9125 232.516 32.9125C234.302 32.9125 234.838 32.1385 234.838 31.2653C234.838 30.4516 234.242 30.0348 233.27 29.8959L231.384 29.6181C229.241 29.3204 228.328 28.5663 228.328 26.8595C228.328 25.0933 229.44 23.6842 232.496 23.6842C235.552 23.6842 236.663 25.0933 236.663 26.8992H234.639C234.54 25.9466 234.222 25.0933 232.476 25.0933C230.988 25.0933 230.432 25.7085 230.432 26.7008C230.432 27.5343 230.908 27.832 231.702 27.951L233.587 28.2289C235.671 28.5266 236.941 29.2807 236.941 31.1462C236.941 32.9125 235.711 34.3215 232.496 34.3215ZM243.288 34.3215C240.033 34.3215 238.228 32.2576 238.228 29.0029C238.228 25.8474 239.934 23.6842 243.169 23.6842C246.404 23.6842 248.111 25.8871 248.111 28.8242C248.111 29.0227 248.091 29.2013 248.071 29.3998H240.331C240.391 31.8209 241.542 32.8728 243.288 32.8728C244.737 32.8728 245.65 32.1186 245.967 30.9477H247.892C247.436 33.0315 245.947 34.3215 243.288 34.3215ZM243.169 25.133C241.581 25.133 240.549 26.0855 240.331 28.0106H246.007C245.789 26.0855 244.757 25.133 243.169 25.133ZM251.894 34.123H249.79V23.8827H251.794V26.2443C252.33 24.4384 253.243 23.7636 254.732 23.7636C255.009 23.7636 255.406 23.8231 255.664 23.8827V25.7283L254.652 25.6886C252.985 25.6886 251.894 26.9786 251.894 29.2609V34.123Z" fill="white"/>
</svg>
