<svg width="273" height="54" viewBox="0 0 273 54" fill="none" xmlns="http://www.w3.org/2000/svg">
<rect x="0.289062" width="272.712" height="53.9967" rx="26.9984" fill="white"/>
<circle cx="27.287" cy="26.9984" r="19.7675" fill="#036E03"/>
<path fill-rule="evenodd" clip-rule="evenodd" d="M35.1436 29.2435C35.1257 29.178 35.1374 29.0214 35.1536 28.9479C35.1998 28.7398 35.1789 28.7453 35.1852 28.5159C35.1922 28.2649 35.1929 28.0147 35.1929 27.7636V17.1435L30.6601 17.1458L30.6543 28.2474L30.6184 28.2495C30.621 28.3371 30.63 28.4581 30.6063 28.5371L30.5805 28.7235C30.565 29.0122 30.5377 28.8979 30.531 29.0472C30.5298 29.0755 30.5287 29.1384 30.5236 29.1633C30.5046 29.256 30.5065 29.1339 30.4875 29.2551C30.4838 29.279 30.4877 29.2897 30.4789 29.314L30.4373 29.4521C30.4259 29.5052 30.3709 29.5909 30.3609 29.6227C30.3537 29.6458 30.3569 29.66 30.3517 29.682C30.3364 29.7471 30.3511 29.6933 30.3361 29.7187L30.2942 29.7932C30.2927 29.7954 30.2901 29.7983 30.2886 29.8005L30.2604 29.8889C30.2386 29.9682 30.2627 29.8901 30.2373 29.9322C30.2244 29.9536 30.214 29.9997 30.1884 30.0287C30.1261 30.0993 30.1602 30.0539 30.1227 30.1303C30.1066 30.163 30.125 30.1311 30.1061 30.1552L29.7983 30.5451C29.7966 30.5474 29.7943 30.5504 29.7927 30.5528L29.737 30.6281C29.7351 30.6299 29.7322 30.6325 29.7304 30.6343L29.6796 30.6882C29.6601 30.7034 29.6856 30.6868 29.6546 30.7036C29.651 30.7056 29.6396 30.7102 29.6359 30.7121C29.6099 30.7261 29.6225 30.7184 29.6026 30.7333C29.6003 30.735 29.5973 30.7375 29.5952 30.7392L29.5426 30.7881C29.5407 30.79 29.5381 30.7929 29.5361 30.7948L29.4195 30.9014C29.3786 30.9304 29.3688 30.9157 29.3235 30.9515C29.3213 30.9533 29.3186 30.956 29.3163 30.9579C29.3141 30.9598 29.3114 30.9626 29.3093 30.9645C29.307 30.9664 29.3043 30.9692 29.3021 30.9711L29.2875 30.9838C29.2629 31.0022 29.2935 30.9836 29.2627 30.9995L29.0319 31.1121C29.0295 31.1134 29.0266 31.1158 29.0241 31.1172L28.7606 31.239C28.7043 31.267 28.6672 31.2626 28.6277 31.2806L28.5956 31.3001C28.5924 31.3014 28.589 31.3029 28.5855 31.304C28.4871 31.3357 28.5081 31.3051 28.4405 31.3402C28.4042 31.359 28.2978 31.3629 28.2732 31.3755C28.2253 31.4001 28.1668 31.387 28.1122 31.4053L28.081 31.4231C28.0785 31.4242 28.0753 31.4263 28.0726 31.4273C27.9893 31.4584 27.8731 31.4443 27.7841 31.4478C27.6962 31.4512 27.6529 31.4747 27.5575 31.4775C27.4782 31.4797 27.3996 31.482 27.3163 31.4821C27.1929 31.4823 27.0638 31.4879 26.941 31.4756C26.8464 31.4662 26.9256 31.4651 26.8462 31.4509C26.7565 31.4349 26.6244 31.4663 26.536 31.4251C26.5335 31.4238 26.5306 31.4214 26.5281 31.4202C26.5259 31.419 26.5231 31.4164 26.5208 31.4153C26.5186 31.4141 26.5157 31.4117 26.5133 31.4107C26.511 31.4097 26.5077 31.4078 26.5052 31.4069C26.4732 31.3956 26.4266 31.4006 26.3916 31.3987C26.3032 31.394 26.3163 31.3636 26.1775 31.3553C26.0768 31.3493 26.0761 31.3132 25.9642 31.3084C25.9229 31.2546 25.9822 31.2822 25.8842 31.2668C25.8296 31.2582 25.7831 31.2309 25.7314 31.2036L25.4555 31.0691C25.4528 31.0677 25.4495 31.0658 25.4467 31.0645C25.4064 31.0458 25.3953 31.0491 25.3639 31.0187L25.3431 30.9986C25.341 30.9967 25.3381 30.994 25.3359 30.9923C25.3033 30.9673 25.2592 30.9611 25.2317 30.9366C25.2295 30.9347 25.2269 30.9318 25.2249 30.9299L25.1369 30.8489C25.0336 30.7953 25.0716 30.8131 24.9786 30.7311L24.8848 30.6374C24.8831 30.6357 24.8805 30.6328 24.8787 30.6311L24.4659 30.1082C24.4459 30.0864 24.4574 30.1043 24.4447 30.0699L24.4016 29.9793C24.3957 29.9641 24.3993 29.9665 24.3911 29.9493L24.3756 29.9249C24.3379 29.8612 24.3308 29.8255 24.3065 29.7571C24.2813 29.6864 24.3017 29.7495 24.283 29.7187C24.2506 29.6654 24.2631 29.6294 24.2399 29.5897C24.2385 29.5873 24.236 29.5845 24.2347 29.5821L24.2134 29.5249C24.1354 29.3578 24.1897 29.3658 24.1513 29.2846C24.1501 29.282 24.148 29.279 24.1468 29.2764C24.1456 29.2737 24.1438 29.2705 24.1426 29.2678L24.1318 29.239C24.0594 29.0576 24.1029 29.0824 24.0837 28.9039C24.076 28.8316 24.0821 28.8805 24.0686 28.8605L24.0428 28.7629C24.0423 28.7172 24.0434 28.6926 24.0304 28.6517C23.9842 28.5064 24.0015 28.3294 24.0009 28.1784C23.9899 25.1604 24.0005 22.1423 24.0005 19.1242C24.0005 18.4593 24.0157 17.7777 23.9989 17.1147L19.3849 17.1203C19.3718 18.3045 19.3843 19.4958 19.3843 20.6808V27.8152C19.3843 27.9007 19.3657 28.3542 19.3981 28.4194C19.4634 28.5509 19.3875 28.894 19.4503 29.0818C19.4831 29.1796 19.4391 29.3251 19.4885 29.4199C19.4896 29.4221 19.4922 29.4248 19.4933 29.427C19.5366 29.5112 19.4922 29.6801 19.5319 29.7548C19.5579 29.8038 19.5483 29.8862 19.5653 29.9446L19.595 30.0195C19.6291 30.1752 19.6197 30.083 19.636 30.1415C19.6531 30.203 19.6339 30.2669 19.6668 30.325C19.686 30.3589 19.6825 30.3769 19.6876 30.4217L19.7086 30.4901C19.7372 30.5512 19.7227 30.6348 19.7532 30.6934C19.7544 30.6956 19.7568 30.6985 19.7581 30.7007L19.7723 30.7249C19.7802 30.7465 19.7778 30.7512 19.7811 30.7725L19.7989 30.8315C19.8001 30.8337 19.8028 30.8364 19.8041 30.8386C19.8247 30.8747 19.8246 30.913 19.8272 30.9543C19.8779 30.9882 19.8584 30.9595 19.8707 31.0318L19.9505 31.2156C19.9557 31.2373 19.9533 31.2548 19.9597 31.2756C19.9736 31.3213 20.0244 31.3779 20.0393 31.4257C20.0409 31.4308 20.0424 31.4429 20.0434 31.448L20.2769 31.9413C20.3602 32.0683 20.3728 32.1522 20.4592 32.2546L20.6619 32.5775C20.7356 32.6512 20.6975 32.6449 20.747 32.7002L20.8533 32.8466C20.8652 32.8627 20.8549 32.8488 20.8722 32.8656L20.9183 32.9135C20.9244 32.9209 20.9333 32.9322 20.9416 32.9424L21.0758 33.1101C21.1609 33.1891 21.1441 33.2084 21.2054 33.2704C21.2074 33.2725 21.2102 33.2752 21.2123 33.2773L21.6662 33.7198C21.6681 33.7214 21.6712 33.7239 21.673 33.7255L21.7308 33.7838C21.7329 33.7858 21.7358 33.7884 21.738 33.7904C21.7402 33.7924 21.7431 33.7949 21.7452 33.797L21.8017 33.8477C21.8236 33.8664 21.9204 33.9196 22.0072 34.0093C22.0091 34.0112 22.0117 34.014 22.0136 34.0159L22.1544 34.1158C22.2166 34.1513 22.2503 34.2056 22.3202 34.2402C22.3644 34.262 22.3248 34.2379 22.3624 34.2658L22.3973 34.2953C22.4225 34.3171 22.4031 34.3059 22.4344 34.3216L22.5566 34.3991C22.567 34.4052 22.5815 34.4107 22.5913 34.4164L22.6147 34.4324C22.6171 34.4339 22.6199 34.4366 22.6223 34.4381L22.6793 34.462C22.7125 34.4757 22.693 34.4652 22.7198 34.4872L22.8657 34.5774C22.8686 34.5788 22.8723 34.5801 22.8753 34.5816C22.8783 34.583 22.8821 34.584 22.8852 34.5854L22.9296 34.6085C22.932 34.6101 22.935 34.6125 22.9373 34.6141L23.2444 34.7715C23.2469 34.7729 23.2498 34.7753 23.2523 34.7767C23.2549 34.7781 23.2578 34.7804 23.2604 34.7818C23.263 34.7832 23.2663 34.7851 23.269 34.7865L23.5576 34.9088C23.56 34.9102 23.5629 34.9128 23.5652 34.9141L23.783 34.9984C23.7856 34.9998 23.7887 35.0019 23.7914 35.0032C23.7943 35.0046 23.7977 35.0063 23.8007 35.0077C23.8039 35.0091 23.8076 35.0103 23.8109 35.0117C23.8149 35.0134 23.8283 35.0173 23.8323 35.0189C23.8355 35.0203 23.8392 35.0215 23.8423 35.0228L23.9991 35.0787C24.0388 35.1026 24.0747 35.0974 24.1169 35.1173L24.3124 35.1869C24.4259 35.2137 24.302 35.2095 24.4 35.227L24.4917 35.248C24.5369 35.2721 24.5715 35.2634 24.6258 35.2744C24.7349 35.2963 24.6037 35.2942 24.7192 35.3117C24.7685 35.3192 24.7889 35.3127 24.8329 35.332L24.9318 35.3566C25.0336 35.3659 25.0607 35.3906 25.148 35.4024C25.2745 35.4196 25.1484 35.4186 25.2428 35.4363C25.2732 35.442 25.3422 35.4422 25.3761 35.4437C25.4327 35.4463 25.4528 35.456 25.4818 35.4693C25.5404 35.4961 25.6335 35.4851 25.7109 35.4923C25.744 35.4954 25.7421 35.4954 25.7679 35.504L25.9369 35.5299C26.1842 35.5385 26.0924 35.5555 26.1655 35.567C26.2984 35.5878 26.4828 35.5474 26.6126 35.5897C26.7046 35.6197 27.5969 35.6245 27.7008 35.6041L27.7492 35.5875C27.8066 35.5722 27.8711 35.5761 27.9315 35.5749C28.0211 35.573 28.1109 35.5702 28.2005 35.5685C28.2152 35.5682 28.2536 35.5682 28.2659 35.5663C28.3297 35.5564 28.2823 35.5617 28.3087 35.5489L28.3592 35.5333C28.3744 35.5315 28.4102 35.5314 28.4272 35.531C28.5241 35.5288 28.5279 35.5267 28.5957 35.5035C28.681 35.4743 28.8117 35.4965 28.8948 35.4793C28.9922 35.4592 28.873 35.4581 28.9885 35.4455C29.0257 35.4415 29.0863 35.4467 29.1211 35.4374C29.1987 35.4168 29.0901 35.4483 29.1619 35.4164C29.1951 35.4016 29.2458 35.4074 29.2846 35.4008C29.3666 35.3869 29.302 35.3969 29.3309 35.3825C29.4036 35.3461 29.4995 35.3736 29.6145 35.3257L29.6852 35.2984C29.6876 35.2971 29.6905 35.2947 29.6929 35.2935L29.8509 35.262C29.9039 35.239 29.8267 35.2559 29.9015 35.2376C29.9161 35.234 29.9462 35.2322 29.9605 35.2306C30.0068 35.2253 30.0375 35.2064 30.0581 35.197C30.096 35.1799 30.1366 35.1878 30.1791 35.1782C30.2451 35.1633 30.1817 35.1789 30.2207 35.1584L30.5432 35.0292C30.5819 35.0104 30.6166 35.0194 30.6613 35.0092C30.7272 34.9942 30.6655 35.0064 30.712 34.9831C30.7149 34.9817 30.7182 34.9798 30.7213 34.9785L31.0139 34.8479C31.0907 34.8212 31.0397 34.8662 31.078 34.8026C31.1009 34.8009 31.1356 34.7998 31.1571 34.7938L31.4681 34.6419C31.5838 34.5587 31.5875 34.5818 31.6887 34.5192L31.7047 34.5085C31.7253 34.497 31.7425 34.4926 31.7606 34.4826L31.874 34.4234C31.9029 34.3976 31.9088 34.3822 31.9486 34.3667L32.0229 34.322C32.0252 34.32 32.0279 34.3172 32.0302 34.3152C32.0325 34.3133 32.0353 34.3106 32.0377 34.3087L32.0729 34.2881C32.0809 34.2847 32.1173 34.2744 32.1507 34.2407L32.1795 34.214C32.1951 34.203 32.1781 34.2116 32.2065 34.1994C32.2906 34.1633 32.2825 34.1506 32.3418 34.0988L32.4116 34.0624C32.4444 34.0477 32.425 34.0593 32.4515 34.0354L32.5105 33.9761C32.5124 33.9743 32.5153 33.9716 32.5173 33.9698L32.6561 33.872C32.657 33.8712 32.6982 33.8372 32.6985 33.8369C32.7083 33.8284 32.7091 33.8274 32.7198 33.8179L32.814 33.7271C32.82 33.722 32.8256 33.7184 32.8355 33.7104L32.8783 33.6715C32.9329 33.6213 32.9255 33.6574 33.0051 33.5754L33.2545 33.3379C33.288 33.2985 33.2994 33.2607 33.3412 33.2235L33.5155 33.0466C33.5173 33.0446 33.5197 33.0415 33.5215 33.0394C33.5233 33.0373 33.5258 33.0343 33.5278 33.0322C33.5303 33.0293 33.5383 33.0209 33.541 33.0181C33.5417 33.0173 33.5606 32.9995 33.562 32.9981C33.6053 32.953 33.6006 32.9205 33.6354 32.8871C33.6374 32.8853 33.6403 32.8827 33.6423 32.8808L33.7349 32.7624C33.7522 32.7268 33.7942 32.6983 33.8205 32.6662L33.8386 32.6446C33.8403 32.6424 33.8428 32.6395 33.8445 32.6371C33.8696 32.6015 33.8784 32.5689 33.9087 32.5402C33.9528 32.4985 33.9712 32.445 34.0102 32.3949L34.0486 32.326C34.0748 32.2811 34.0299 32.3451 34.0645 32.3055L34.1438 32.1863C34.1442 32.1857 34.1749 32.1544 34.1755 32.1539C34.2294 32.1018 34.225 32.0634 34.2782 31.9666L34.3809 31.7827C34.4309 31.7188 34.4212 31.7424 34.4432 31.6571C34.4553 31.6103 34.4943 31.5629 34.5194 31.5157C34.5309 31.4939 34.5328 31.4803 34.5446 31.4587C34.5605 31.4296 34.546 31.4618 34.56 31.4352L34.6833 31.1403C34.7219 31.0716 34.6923 31.0788 34.7417 30.9897C34.753 30.9691 34.7506 30.9649 34.7622 30.9438C34.7636 30.9413 34.7658 30.9381 34.7673 30.9357C34.7687 30.9335 34.7712 30.9306 34.7726 30.9284C34.7909 30.8991 34.783 30.8827 34.8005 30.8263C34.8167 30.774 34.8262 30.7968 34.8394 30.721C34.8594 30.6055 34.8588 30.719 34.8813 30.6105C34.8899 30.5693 34.881 30.5813 34.8998 30.5461C34.9302 30.4892 34.9197 30.5187 34.9276 30.435C34.9368 30.3382 34.9641 30.4141 34.974 30.2544C34.9756 30.229 34.976 30.1997 34.9782 30.175C34.9852 30.0932 35.0186 30.1377 35.0211 29.994C35.0234 29.8647 35.0279 29.9284 35.0531 29.8822C35.0713 29.8487 35.0598 29.8161 35.0735 29.7787L35.0826 29.7624C35.0984 29.7323 35.0927 29.7933 35.1023 29.71C35.1092 29.6504 35.0951 29.5758 35.1155 29.519L35.1242 29.5028C35.1384 29.4752 35.1339 29.5316 35.1441 29.4505C35.1525 29.3849 35.1606 29.3047 35.1437 29.2435H35.1436Z" fill="white"/>
<path fill-rule="evenodd" clip-rule="evenodd" d="M23.513 39.0653C23.4843 39.4577 24.0859 40.0163 24.5021 40.0529C24.5858 40.0603 24.6984 40.0555 24.7848 40.0555L29.9387 40.0554C30.3831 40.0536 31.1365 39.6412 31.1042 39.1062L31.1033 37.2944H23.5264H23.5117L23.513 39.0653V39.0653Z" fill="white"/>
<path d="M64.9129 34.3215C60.8643 34.3215 59.0187 32.4362 59.0187 28.7846V19.9929H61.2216V28.5861C61.2216 31.4836 62.3528 32.5155 64.9129 32.5155C67.4729 32.5155 68.6042 31.4836 68.6042 28.5861V19.9929H70.807V28.7846C70.807 32.4362 68.9614 34.3215 64.9129 34.3215ZM74.9444 34.123H72.8407V23.8827H74.8452V26.2443C75.381 24.4384 76.2939 23.7636 77.7823 23.7636C78.0602 23.7636 78.4571 23.8231 78.7151 23.8827V25.7283L77.7029 25.6886C76.0359 25.6886 74.9444 26.9786 74.9444 29.2609V34.123ZM85.6454 34.3215C83.8791 34.3215 82.7678 33.5475 82.2121 32.2377V34.123H80.2077V19.9929H82.3113V25.6291C82.8868 24.359 83.9982 23.6842 85.6454 23.6842C88.4039 23.6842 90.1305 25.6489 90.1305 29.0029C90.1305 32.3568 88.4039 34.3215 85.6454 34.3215ZM85.1691 32.714C86.856 32.714 88.0269 31.5828 88.0269 29.0029C88.0269 26.4428 86.856 25.2917 85.1691 25.2917C83.4624 25.2917 82.3113 26.4428 82.3113 29.0029C82.3113 31.5828 83.4624 32.714 85.1691 32.714ZM95.0935 34.3215C92.712 34.3215 91.422 33.1308 91.422 31.2256C91.422 29.6975 92.3548 28.4869 94.895 28.2686L96.8796 28.1098C98.0902 27.9907 98.4474 27.7129 98.4474 27.058C98.4474 25.8871 97.7727 25.1925 96.2842 25.1925C94.895 25.1925 94.1409 25.7879 94.0417 27.058H91.9777C91.9777 24.994 93.2478 23.6842 96.2644 23.6842C99.2611 23.6842 100.551 24.994 100.551 27.058V31.5034C100.551 32.8926 100.67 33.7857 100.869 34.123H98.9832C98.6657 33.7261 98.5466 33.3094 98.5466 32.3568C97.991 33.6666 96.8598 34.3215 95.0935 34.3215ZM95.669 32.8728C97.475 32.8728 98.4474 31.4637 98.4474 29.7768V28.9036C98.2291 29.1815 97.6734 29.3402 96.8796 29.3998L95.5698 29.5188C94.1012 29.6379 93.5257 30.2531 93.5257 31.0867C93.5257 32.1385 94.1607 32.8728 95.669 32.8728ZM111.368 34.123H109.264V27.7327C109.264 26.1848 108.708 25.3909 107.26 25.3909C105.732 25.3909 104.739 26.542 104.739 28.4075V34.123H102.636V23.8827H104.64V25.6688C105.196 24.478 106.188 23.6842 107.895 23.6842C110.237 23.6842 111.368 24.875 111.368 27.3557V34.123ZM129.607 24.4185C129.607 27.2961 127.702 28.8242 124.685 28.8242H120.855V34.123H118.652V19.9929H124.685C127.702 19.9929 129.607 21.5409 129.607 24.4185ZM127.404 24.4185C127.404 22.5729 126.352 21.66 124.387 21.66H120.855V27.1572H124.387C126.352 27.1572 127.404 26.2642 127.404 24.4185ZM135.563 34.3215C132.309 34.3215 130.503 32.2576 130.503 29.0029C130.503 25.8474 132.209 23.6842 135.444 23.6842C138.679 23.6842 140.386 25.8871 140.386 28.8242C140.386 29.0227 140.366 29.2013 140.346 29.3998H132.606C132.666 31.8209 133.817 32.8728 135.563 32.8728C137.012 32.8728 137.925 32.1186 138.242 30.9477H140.167C139.711 33.0315 138.223 34.3215 135.563 34.3215ZM135.444 25.133C133.856 25.133 132.824 26.0855 132.606 28.0106H138.282C138.064 26.0855 137.032 25.133 135.444 25.133ZM144.169 34.123H142.065V23.8827H144.069V26.2443C144.605 24.4384 145.518 23.7636 147.007 23.7636C147.284 23.7636 147.681 23.8231 147.939 23.8827V25.7283L146.927 25.6886C145.26 25.6886 144.169 26.9786 144.169 29.2609V34.123ZM153.442 34.3215C150.227 34.3215 148.996 32.9125 148.996 30.9477H151.021C151.12 32.1186 151.636 32.9125 153.462 32.9125C155.248 32.9125 155.783 32.1385 155.783 31.2653C155.783 30.4516 155.188 30.0348 154.216 29.8959L152.33 29.6181C150.187 29.3204 149.274 28.5663 149.274 26.8595C149.274 25.0933 150.385 23.6842 153.442 23.6842C156.498 23.6842 157.609 25.0933 157.609 26.8992H155.585C155.486 25.9466 155.168 25.0933 153.422 25.0933C151.933 25.0933 151.378 25.7085 151.378 26.7008C151.378 27.5343 151.854 27.832 152.648 27.951L154.533 28.2289C156.617 28.5266 157.887 29.2807 157.887 31.1462C157.887 32.9125 156.657 34.3215 153.442 34.3215ZM164.234 34.3215C160.979 34.3215 159.173 32.2576 159.173 29.0029C159.173 25.7482 160.979 23.6842 164.234 23.6842C167.489 23.6842 169.295 25.7482 169.295 29.0029C169.295 32.2576 167.489 34.3215 164.234 34.3215ZM164.234 32.714C166.119 32.714 167.191 31.4836 167.191 29.0029C167.191 26.542 166.119 25.2917 164.234 25.2917C162.349 25.2917 161.277 26.542 161.277 29.0029C161.277 31.4836 162.349 32.714 164.234 32.714ZM179.72 34.123H177.616V27.7327C177.616 26.1848 177.061 25.3909 175.612 25.3909C174.084 25.3909 173.091 26.542 173.091 28.4075V34.123H170.988V23.8827H172.992V25.6688C173.548 24.478 174.54 23.6842 176.247 23.6842C178.589 23.6842 179.72 24.875 179.72 27.3557V34.123ZM185.079 34.3215C182.697 34.3215 181.408 33.1308 181.408 31.2256C181.408 29.6975 182.34 28.4869 184.881 28.2686L186.865 28.1098C188.076 27.9907 188.433 27.7129 188.433 27.058C188.433 25.8871 187.758 25.1925 186.27 25.1925C184.881 25.1925 184.126 25.7879 184.027 27.058H181.963C181.963 24.994 183.233 23.6842 186.25 23.6842C189.247 23.6842 190.537 24.994 190.537 27.058V31.5034C190.537 32.8926 190.656 33.7857 190.854 34.123H188.969C188.651 33.7261 188.532 33.3094 188.532 32.3568C187.976 33.6666 186.845 34.3215 185.079 34.3215ZM185.654 32.8728C187.46 32.8728 188.433 31.4637 188.433 29.7768V28.9036C188.215 29.1815 187.659 29.3402 186.865 29.3998L185.555 29.5188C184.087 29.6379 183.511 30.2531 183.511 31.0867C183.511 32.1385 184.146 32.8728 185.654 32.8728ZM194.725 34.123H192.621V19.9929H194.725V34.123ZM207.705 34.3215C203.656 34.3215 201.811 32.4362 201.811 28.7846V19.9929H204.014V28.5861C204.014 31.4836 205.145 32.5155 207.705 32.5155C210.265 32.5155 211.396 31.4836 211.396 28.5861V19.9929H213.599V28.7846C213.599 32.4362 211.753 34.3215 207.705 34.3215ZM219.681 34.3215C216.466 34.3215 215.236 32.9125 215.236 30.9477H217.26C217.359 32.1186 217.875 32.9125 219.701 32.9125C221.487 32.9125 222.023 32.1385 222.023 31.2653C222.023 30.4516 221.428 30.0348 220.455 29.8959L218.57 29.6181C216.427 29.3204 215.514 28.5663 215.514 26.8595C215.514 25.0933 216.625 23.6842 219.681 23.6842C222.738 23.6842 223.849 25.0933 223.849 26.8992H221.825C221.725 25.9466 221.408 25.0933 219.661 25.0933C218.173 25.0933 217.617 25.7085 217.617 26.7008C217.617 27.5343 218.094 27.832 218.887 27.951L220.773 28.2289C222.857 28.5266 224.127 29.2807 224.127 31.1462C224.127 32.9125 222.896 34.3215 219.681 34.3215ZM230.474 34.3215C227.219 34.3215 225.413 32.2576 225.413 29.0029C225.413 25.8474 227.12 23.6842 230.355 23.6842C233.589 23.6842 235.296 25.8871 235.296 28.8242C235.296 29.0227 235.276 29.2013 235.256 29.3998H227.517C227.576 31.8209 228.727 32.8728 230.474 32.8728C231.922 32.8728 232.835 32.1186 233.153 30.9477H235.078C234.621 33.0315 233.133 34.3215 230.474 34.3215ZM230.355 25.133C228.767 25.133 227.735 26.0855 227.517 28.0106H233.193C232.974 26.0855 231.942 25.133 230.355 25.133ZM239.079 34.123H236.975V23.8827H238.98V26.2443C239.516 24.4384 240.429 23.7636 241.917 23.7636C242.195 23.7636 242.592 23.8231 242.85 23.8827V25.7283L241.838 25.6886C240.171 25.6886 239.079 26.9786 239.079 29.2609V34.123Z" fill="#1A1A1A"/>
</svg>
