<svg width="19" height="19" viewBox="0 0 19 19" fill="none" xmlns="http://www.w3.org/2000/svg">
<g clip-path="url(#clip0_8536_52121)">
<path d="M7.09729 19H3.16667C2.32681 19 1.52136 18.6664 0.927495 18.0725C0.33363 17.4786 0 16.6732 0 15.8333V11.875C0 11.0351 0.33363 10.2297 0.927495 9.63583C1.52136 9.04196 2.32681 8.70833 3.16667 8.70833H10.1785C10.6069 8.70854 11.0281 8.81933 11.4011 9.03001C11.7742 9.24068 12.0866 9.54409 12.308 9.91088L14.8548 7.11233C15.0655 6.88068 15.3197 6.69282 15.603 6.55948C15.8863 6.42614 16.1931 6.34994 16.5059 6.33524C16.8187 6.32053 17.1313 6.36761 17.4258 6.47378C17.7204 6.57995 17.9911 6.74314 18.2226 6.954C18.6844 7.37828 18.9612 7.96693 18.9933 8.59324C19.0254 9.21955 18.8104 9.83344 18.3944 10.3028L13.011 16.3487C12.2678 17.1823 11.3567 17.8495 10.3375 18.3064C9.31838 18.7633 8.21418 18.9997 7.09729 19ZM3.16667 10.2917C2.74674 10.2917 2.34401 10.4585 2.04708 10.7554C1.75015 11.0523 1.58333 11.4551 1.58333 11.875V15.8333C1.58333 16.2533 1.75015 16.656 2.04708 16.9529C2.34401 17.2499 2.74674 17.4167 3.16667 17.4167H7.09729C7.99023 17.4163 8.87301 17.2273 9.68778 16.8619C10.5026 16.4965 11.2309 15.9631 11.8251 15.2966L17.2124 9.24983C17.3523 9.09228 17.4247 8.8861 17.414 8.6757C17.4034 8.46529 17.3105 8.26748 17.1554 8.12488C16.9977 7.98311 16.791 7.90841 16.5791 7.91667C16.474 7.92111 16.3709 7.94643 16.2758 7.99115C16.1807 8.03587 16.0954 8.09909 16.0249 8.17713L12.521 12.0333C12.3672 12.4591 12.1006 12.835 11.7498 13.1212C11.399 13.4073 10.9771 13.5927 10.5292 13.6578L6.44338 14.2421C6.23551 14.2719 6.02432 14.2179 5.85625 14.092C5.68819 13.9661 5.57702 13.7786 5.54721 13.5708C5.51739 13.3629 5.57137 13.1517 5.69727 12.9836C5.82317 12.8156 6.01068 12.7044 6.21854 12.6746L10.3051 12.0911C10.532 12.0594 10.7383 11.9428 10.8825 11.7648C11.0266 11.5868 11.0979 11.3607 11.0818 11.1323C11.0657 10.9038 10.9635 10.6899 10.7958 10.5339C10.6282 10.3779 10.4075 10.2913 10.1785 10.2917H3.16667ZM8.70833 7.18358C8.34952 7.18455 8.00117 7.06275 7.72113 6.83842C6.36579 5.75067 4.75 4.11667 4.75 2.53333C4.73056 1.88287 4.96951 1.25119 5.41459 0.776438C5.85967 0.301691 6.47464 0.0225247 7.125 0C7.71665 0.0023044 8.2843 0.234189 8.70833 0.646792C9.13237 0.234189 9.70002 0.0023044 10.2917 0C10.942 0.0225247 11.557 0.301691 12.0021 0.776438C12.4472 1.25119 12.6861 1.88287 12.6667 2.53333C12.6667 4.11667 11.0509 5.75067 9.69475 6.83921C9.41481 7.06309 9.06678 7.18459 8.70833 7.18358ZM7.125 1.58333C6.8949 1.60642 6.68305 1.71888 6.53501 1.89654C6.38696 2.07419 6.31455 2.30284 6.33333 2.53333C6.33333 3.24583 7.24454 4.42542 8.71308 5.60421C10.1721 4.42542 11.0833 3.24583 11.0833 2.53333C11.1021 2.30284 11.0297 2.07419 10.8817 1.89654C10.7336 1.71888 10.5218 1.60642 10.2917 1.58333C10.0616 1.60642 9.84972 1.71888 9.70168 1.89654C9.55363 2.07419 9.48122 2.30284 9.5 2.53333C9.5 2.7433 9.41659 2.94466 9.26813 3.09313C9.11966 3.24159 8.9183 3.325 8.70833 3.325C8.49837 3.325 8.29701 3.24159 8.14854 3.09313C8.00007 2.94466 7.91667 2.7433 7.91667 2.53333C7.93545 2.30284 7.86304 2.07419 7.71499 1.89654C7.56695 1.71888 7.3551 1.60642 7.125 1.58333Z" fill="#036E03"/>
</g>
<defs>
<clipPath id="clip0_8536_52121">
<rect width="19" height="19" fill="white"/>
</clipPath>
</defs>
</svg>
