<svg width="120" height="120" viewBox="0 0 120 120" fill="none" xmlns="http://www.w3.org/2000/svg">
<path d="M27.8564 72.5002L47.329 92.0705M94.9981 18.0487C87.0221 17.9752 83.3289 21.6617 82.1179 25.3872C81.0515 28.6677 82.0257 35.3867 79.4797 40.3635C77.0453 45.1221 70.6017 47.8085 63.2853 48.0348M99.9999 38.052L100.05 38.0524M94.9999 79.8L95.0499 79.8005M34.9999 19.7463L35.0499 19.7468M94.9998 55.5472C87.4998 55.5472 82.4998 58.0472 77.9743 62.7236M51.1883 35.9398C54.9999 30.5495 57.4999 25.5495 55.0411 17.6367M17.6787 102.323L35.3564 49.2895L70.7117 84.6449L17.6787 102.323Z" stroke="#036E03" stroke-width="5" stroke-linecap="round" stroke-linejoin="round"/>
</svg>
