<svg width="77" height="77" viewBox="0 0 77 77" fill="none" xmlns="http://www.w3.org/2000/svg">
<path d="M17.7856 46.4809L30.2182 58.9758M60.653 11.7157C55.5607 11.6688 53.2027 14.0224 52.4295 16.401C51.7487 18.4955 52.3707 22.7853 50.7452 25.9628C49.1909 29.001 45.0769 30.7162 40.4057 30.8607M63.8465 24.487L63.8785 24.4873M60.6542 51.1415L60.6861 51.1418M22.3465 12.7995L22.3785 12.7998M60.6541 35.657C55.8657 35.657 52.6734 37.2531 49.784 40.2389M32.6822 23.1385C35.1158 19.697 36.7119 16.5047 35.142 11.4526M11.2876 65.5213L22.5741 31.6618L45.1471 54.2348L11.2876 65.5213Z" stroke="white" stroke-width="3.5986" stroke-linecap="round" stroke-linejoin="round"/>
</svg>
