<svg width="847" height="897" viewBox="0 0 847 897" fill="none" xmlns="http://www.w3.org/2000/svg">
<g clip-path="url(#clip0_8214_16116)">
<path d="M0 0H847V473.5C847 707.393 657.393 897 423.5 897C189.607 897 0 707.393 0 473.5V0Z" fill="white"/>
<g clip-path="url(#clip1_8214_16116)">
<path d="M585.867 464.067L464.784 437.966C461.672 437.294 459.683 434.178 460.335 431.002L476.138 354.659C476.688 351.993 478.927 350.134 481.472 350H482.059C482.355 350.015 482.654 350.054 482.954 350.118L604.044 376.225C607.149 376.899 609.132 380.013 608.478 383.184L592.682 459.533C592.021 462.704 588.973 464.73 585.865 464.068L585.867 464.067Z" fill="#E5E6E5"/>
<path d="M477.413 407.615L475.856 415.134L475.105 414.97L476.523 408.159L474.785 407.783L474.931 407.074L477.413 407.615Z" fill="#FEFEFE"/>
<path d="M483.565 416.064L483.419 416.775L478.27 415.662L478.382 415.116L482.064 412.718C483.068 412.066 483.324 411.596 483.44 411.078C483.62 410.211 483.13 409.549 482.01 409.301C481.259 409.094 480.457 409.242 479.827 409.706L479.391 409.122C480.213 408.531 481.248 408.343 482.218 408.607C483.706 408.931 484.491 409.905 484.236 411.194C484.09 411.904 483.736 412.507 482.548 413.282L479.526 415.248L483.566 416.063L483.565 416.064Z" fill="#FEFEFE"/>
<path d="M491.566 416.459L490.091 416.141L489.688 418.113L488.93 417.948L489.341 415.984L485.172 415.09L485.336 414.504L490.256 410.375L491.098 410.558L486.338 414.59L489.53 415.277L489.887 413.54L490.624 413.698L490.259 415.437L491.733 415.754L491.566 416.459Z" fill="#FEFEFE"/>
<path d="M502.823 418.891L501.357 418.573L500.945 420.546L500.181 420.381L500.591 418.411L496.422 417.516L496.542 416.962L501.462 412.826L502.302 413.011L497.544 417.04L500.734 417.728L501.091 415.998L501.828 416.15L501.47 417.887L502.937 418.206L502.823 418.891Z" fill="#FEFEFE"/>
<path d="M509.291 420.038C509.027 421.315 507.95 422.12 506.156 421.728C505.183 421.55 504.312 421.003 503.719 420.197L504.214 419.662C504.706 420.372 505.45 420.856 506.288 421.014C507.539 421.283 508.314 420.82 508.521 419.895C508.728 418.972 508.249 418.203 506.387 417.805L504.824 417.468L505.977 413.783L510.001 414.65L509.855 415.359L506.498 414.638L505.752 416.969L506.697 417.171C508.913 417.64 509.563 418.711 509.291 420.038H509.291Z" fill="#FEFEFE"/>
<path d="M515.81 421.428C516.02 420.442 515.436 419.656 514.296 419.411C513.385 419.105 512.403 419.609 512.104 420.54L512.072 420.646C511.902 421.469 512.41 422.394 513.681 422.668C514.536 422.964 515.464 422.499 515.756 421.626L515.809 421.428H515.81ZM516.565 421.572C516.273 422.989 515.005 423.639 513.573 423.332C511.627 422.914 510.852 421.298 511.343 418.93C511.864 416.383 513.507 415.35 515.499 415.749C516.11 415.856 516.684 416.126 517.158 416.535L516.726 417.092C516.348 416.74 515.875 416.509 515.37 416.43C513.785 416.088 512.552 416.907 512.128 418.944C512.096 419.114 512.061 419.333 512.033 419.557C512.641 418.803 513.63 418.489 514.55 418.76C516.012 419.101 516.847 420.196 516.565 421.572Z" fill="#FEFEFE"/>
<path d="M526.597 423.823C526.338 425.078 525.244 425.85 523.471 425.464C522.496 425.288 521.623 424.74 521.027 423.933L521.523 423.398C522.019 424.114 522.771 424.602 523.617 424.754C524.834 425.021 525.644 424.56 525.819 423.653C525.994 422.746 525.513 422.027 524.143 421.728L523.622 421.618L523.739 421.05L526.314 418.884L522.553 418.077L522.693 417.369L527.419 418.39L527.307 418.936L524.678 421.163C526.238 421.604 526.848 422.623 526.598 423.823H526.597Z" fill="#FEFEFE"/>
<path d="M533.269 425.178C533.47 424.191 532.888 423.407 531.756 423.167C530.846 422.856 529.862 423.356 529.558 424.285L529.525 424.396C529.356 425.219 529.864 426.15 531.136 426.425C532.004 426.706 532.929 426.216 533.205 425.33L533.238 425.208L533.269 425.178ZM534.019 425.322C533.727 426.741 532.458 427.391 531.032 427.081C529.08 426.663 528.305 425.049 528.795 422.686C529.323 420.132 530.959 419.099 532.952 419.506C533.565 419.609 534.14 419.879 534.611 420.292L534.179 420.848C533.8 420.497 533.328 420.265 532.823 420.186C531.238 419.845 530.006 420.664 529.587 422.7C529.543 422.902 529.512 423.107 529.493 423.314C530.1 422.564 531.085 422.25 532.001 422.517C533.429 422.854 534.265 423.948 534.017 425.321L534.019 425.322Z" fill="#FEFEFE"/>
<path d="M541.842 421.519L541.729 422.066L537.211 428.353L536.398 428.181L540.831 422.02L537.051 421.2L536.759 422.62L536.016 422.46L536.447 420.334L541.842 421.519Z" fill="#FEFEFE"/>
<path d="M552.33 423.782L552.217 424.328L547.707 430.622L546.887 430.443L551.32 424.281L547.54 423.469L547.254 424.886L546.504 424.723L546.938 422.637L552.33 423.782Z" fill="#FEFEFE"/>
<path d="M556.024 428.017C557.171 428.261 557.96 427.888 558.131 427.072C558.3 426.256 557.691 425.556 556.606 425.312C555.52 425.069 554.683 425.441 554.513 426.271C554.345 427.101 554.884 427.772 556.023 428.017H556.024ZM557.67 430.579C557.858 429.657 557.203 428.906 555.903 428.627C554.603 428.348 553.715 428.76 553.52 429.683C553.326 430.605 553.974 431.357 555.28 431.635C556.586 431.914 557.476 431.509 557.663 430.579H557.67ZM558.442 430.755C558.169 432.08 556.895 432.668 555.144 432.293C553.393 431.918 552.477 430.853 552.757 429.526C552.915 428.638 553.663 427.985 554.547 427.963C553.893 427.586 553.563 426.812 553.739 426.066C553.987 424.84 555.164 424.302 556.721 424.633C558.277 424.963 559.152 425.958 558.907 427.205C558.757 427.961 558.139 428.529 557.387 428.602C558.188 428.981 558.626 429.873 558.443 430.755H558.442Z" fill="#FEFEFE"/>
<path d="M565.2 428.854C565.375 428.032 564.861 427.102 563.596 426.825C562.732 426.532 561.799 427.009 561.511 427.889L561.463 428.072C561.26 429.052 561.836 429.837 562.977 430.082C563.882 430.393 564.863 429.894 565.165 428.971L565.2 428.854V428.854ZM565.937 430.565C565.408 433.117 563.767 434.152 561.773 433.745C561.161 433.639 560.588 433.368 560.113 432.959L560.546 432.403C560.927 432.75 561.397 432.979 561.902 433.065C563.486 433.406 564.72 432.587 565.144 430.55C565.176 430.381 565.211 430.161 565.238 429.936C564.629 430.689 563.642 431.002 562.722 430.734C561.264 430.422 560.426 429.32 560.715 427.951C561.005 426.581 562.269 425.882 563.701 426.192C565.652 426.588 566.42 428.197 565.937 430.566V430.565Z" fill="#FEFEFE"/>
<path d="M574.144 428.485L572.595 435.991L571.838 435.826L573.253 429.009L571.523 428.639L571.661 427.93L574.144 428.485Z" fill="#FEFEFE"/>
<path d="M580.292 436.928L580.152 437.638L575 436.505L575.114 435.959L578.797 433.561C579.799 432.909 580.056 432.439 580.171 431.92C580.351 431.054 579.861 430.392 578.734 430.152C577.987 429.939 577.184 430.088 576.558 430.556L576.121 429.964C576.944 429.376 577.98 429.191 578.949 429.457C580.437 429.774 581.221 430.755 580.962 432.003C580.809 432.714 580.463 433.317 579.267 434.092L576.252 436.056L580.291 436.928L580.292 436.928Z" fill="#FEFEFE"/>
<path d="M587.187 436.887C586.926 438.135 585.833 438.907 584.061 438.528C583.085 438.349 582.212 437.798 581.617 436.989L582.113 436.462C582.609 437.177 583.362 437.665 584.207 437.819C585.424 438.084 586.232 437.625 586.409 436.718C586.584 435.81 586.095 435.093 584.733 434.793L584.212 434.683L584.329 434.108L586.903 431.949L583.143 431.135L583.283 430.426L588.008 431.44L587.895 431.986L585.248 434.243C586.828 434.675 587.425 435.682 587.189 436.887H587.187Z" fill="#FEFEFE"/>
<path d="M528.508 435.681L529.183 432.424L588.031 445.109L587.356 448.368L528.508 435.681Z" fill="#FEFEFE"/>
<path d="M555.836 448.368L556.509 445.109L586.69 451.616L586.016 454.872L555.836 448.368Z" fill="#FEFEFE"/>
<path d="M495.22 405.286C494.986 405.286 494.75 405.261 494.511 405.209L476.486 401.245C474.677 400.846 473.527 399.026 473.915 397.18L476.461 385.125C476.8 383.522 478.189 382.424 479.734 382.424C479.968 382.424 480.204 382.449 480.443 382.502L498.468 386.466C500.277 386.864 501.427 388.684 501.039 390.53L498.494 402.585C498.155 404.188 496.765 405.286 495.22 405.286Z" fill="#EDEDEB"/>
<path d="M475.363 394.99L475.614 393.783L488.326 396.522C489.794 396.839 491.235 395.883 491.548 394.384C491.86 392.885 490.922 391.412 489.454 391.094L476.735 388.351L476.984 387.145L489.703 389.882C491.815 390.403 493.113 392.574 492.601 394.728C492.112 396.795 490.126 398.114 488.076 397.735L475.363 394.99Z" fill="#D9DAD9"/>
<path d="M491.992 395.103L492.242 393.896L500.967 395.785L500.717 396.991L491.992 395.103Z" fill="#D9DAD9"/>
<path d="M484.295 366.502L547.801 380.192L546.65 385.752L483.145 372.064L484.295 366.502Z" fill="#FEFEFE"/>
<path d="M583.376 383.957L591.976 385.811C593.13 386.06 593.867 387.216 593.624 388.394L591.808 397.172C591.564 398.35 590.431 399.104 589.277 398.856L580.676 397.001C579.521 396.752 578.784 395.595 579.027 394.416L580.844 385.639C581.087 384.461 582.22 383.706 583.376 383.956V383.957Z" fill="#FEFEFE"/>
<path d="M703.531 633.368C694.141 650.094 673.215 655.866 656.789 646.261C640.364 636.656 634.66 615.309 644.05 598.583C653.439 581.856 674.366 576.084 690.791 585.69C701.819 592.139 708.015 603.882 708.053 615.966V616.026C708.061 621.92 706.606 627.892 703.531 633.369V633.368Z" fill="#EFEFEF"/>
<path d="M696.454 629.229C689.299 641.976 673.351 646.374 660.834 639.054C648.317 631.734 643.971 615.467 651.125 602.72C658.282 589.974 674.23 585.575 686.746 592.896C699.262 600.215 703.609 616.483 696.454 629.229Z" fill="#E5E6E5"/>
<path d="M696.856 628.501C696.715 628.426 697.189 627.353 697.819 625.37C698.434 623.389 699.176 620.442 699.184 616.749C699.185 614.91 699.004 612.896 698.543 610.791C698.064 608.694 697.332 606.5 696.227 604.363C695.678 603.293 695.054 602.229 694.323 601.21C693.599 600.187 692.802 599.183 691.898 598.251C690.998 597.318 690.028 596.416 688.963 595.609C687.9 594.799 686.764 594.057 685.565 593.395C684.357 592.749 683.118 592.202 681.867 591.754C680.615 591.304 679.34 590.988 678.079 590.746C676.816 590.502 675.554 590.388 674.319 590.346C673.083 590.297 671.869 590.364 670.694 590.498C668.339 590.758 666.147 591.363 664.176 592.13C662.209 592.916 660.472 593.889 658.977 594.917C655.984 596.986 654.006 599.263 652.741 600.89C651.48 602.532 650.875 603.532 650.736 603.455C650.631 603.401 651.004 602.269 652.103 600.435C653.206 598.616 655.1 596.084 658.152 593.743C659.676 592.58 661.478 591.471 663.545 590.564C665.616 589.675 667.943 588.963 670.464 588.632C671.722 588.462 673.025 588.368 674.356 588.398C675.687 588.422 677.048 588.528 678.412 588.777C679.776 589.023 681.154 589.356 682.508 589.834C683.862 590.311 685.2 590.899 686.501 591.595C687.795 592.308 689.02 593.112 690.163 593.992C691.307 594.87 692.348 595.851 693.309 596.868C694.275 597.883 695.121 598.977 695.883 600.089C696.652 601.199 697.303 602.356 697.869 603.515C699.007 605.834 699.732 608.199 700.167 610.451C700.584 612.706 700.691 614.853 700.598 616.792C700.402 620.685 699.403 623.704 698.546 625.654C697.668 627.61 696.957 628.557 696.855 628.501H696.856Z" fill="#D9DAD9"/>
<path d="M675.124 625.429C675.813 624.158 675.156 622.887 673.925 621.478L671.207 626.485C673.201 627.091 674.494 626.59 675.125 625.429H675.124ZM673.757 613.231L676.55 608.08C674.431 607.451 673.114 608.081 672.464 609.278C671.775 610.547 672.467 611.84 673.757 613.231ZM668.608 631.271L666.403 635.334L662.851 633.326L664.996 629.372C661.596 627.164 658.83 624.132 657.723 621.468L662.077 618.147C663.125 620.495 665.152 622.919 667.574 624.621L670.861 618.563C667.448 615.354 663.771 611.521 666.585 606.334C668.672 602.49 673.199 600.736 679.168 603.258L681.353 599.232L684.907 601.242L682.76 605.196C685.308 606.921 687.508 609.112 688.773 611.486L684.575 614.944C683.333 612.867 681.821 611.205 680.163 609.982L676.817 616.149C680.248 619.321 683.856 623.116 681.08 628.23C679.033 632.002 674.56 633.74 668.607 631.273L668.608 631.271Z" fill="#D9DAD9"/>
<path d="M217.476 545.842C206.46 565.465 181.908 572.238 162.638 560.969C143.368 549.699 136.676 524.655 147.693 505.032C158.709 485.408 183.26 478.637 202.53 489.907C221.8 501.176 228.493 526.221 217.477 545.842H217.476Z" fill="#EFEFEF"/>
<path d="M209.176 540.986C200.781 555.94 182.072 561.101 167.386 552.513C152.701 543.925 147.602 524.84 155.996 509.887C164.392 494.933 183.101 489.771 197.786 498.36C212.47 506.949 217.57 526.033 209.176 540.986Z" fill="#E5E6E5"/>
<path d="M209.647 540.134C209.482 540.045 210.038 538.788 210.776 536.459C211.499 534.136 212.371 530.677 212.379 526.346C212.38 524.189 212.168 521.825 211.627 519.356C211.066 516.895 210.207 514.323 208.909 511.815C208.267 510.56 207.533 509.312 206.677 508.116C205.828 506.915 204.893 505.736 203.83 504.643C202.774 503.547 201.638 502.49 200.388 501.542C199.14 500.594 197.808 499.722 196.402 498.945C194.983 498.188 193.531 497.546 192.063 497.021C190.593 496.493 189.099 496.12 187.619 495.838C186.136 495.55 184.657 495.417 183.207 495.368C181.757 495.311 180.332 495.39 178.953 495.546C176.191 495.851 173.62 496.561 171.308 497.461C169.001 498.383 166.961 499.524 165.209 500.732C161.697 503.159 159.375 505.831 157.892 507.739C156.414 509.666 155.703 510.839 155.539 510.748C155.417 510.685 155.854 509.358 157.144 507.204C158.437 505.072 160.659 502.1 164.241 499.354C166.029 497.989 168.142 496.689 170.569 495.624C172.999 494.581 175.728 493.747 178.686 493.358C180.162 493.159 181.69 493.048 183.252 493.082C184.813 493.111 186.409 493.235 188.011 493.528C189.612 493.816 191.228 494.207 192.816 494.768C194.405 495.327 195.975 496.017 197.501 496.833C199.019 497.671 200.455 498.613 201.796 499.645C203.139 500.677 204.359 501.827 205.487 503.021C206.619 504.211 207.613 505.495 208.507 506.8C209.409 508.101 210.174 509.459 210.837 510.818C212.172 513.539 213.022 516.316 213.533 518.956C214.022 521.602 214.147 524.12 214.038 526.396C213.809 530.964 212.638 534.506 211.629 536.792C210.6 539.088 209.766 540.199 209.646 540.133L209.647 540.134Z" fill="#D9DAD9"/>
<path d="M184.153 536.529C184.961 535.038 184.191 533.548 182.745 531.894L179.557 537.767C181.896 538.478 183.413 537.891 184.153 536.53L184.153 536.529ZM182.548 522.217L185.826 516.174C183.34 515.436 181.795 516.175 181.032 517.579C180.225 519.069 181.036 520.585 182.548 522.217ZM176.508 543.384L173.922 548.151L169.754 545.792L172.271 541.155C168.282 538.565 165.037 535.008 163.738 531.881L168.848 527.984C170.078 530.739 172.456 533.583 175.297 535.58L179.153 528.472C175.148 524.709 170.833 520.211 174.136 514.126C176.585 509.615 181.896 507.558 188.899 510.516L191.463 505.793L195.633 508.149L193.114 512.788C196.102 514.811 198.684 517.382 200.169 520.168L195.244 524.225C193.786 521.789 192.012 519.839 190.066 518.403L186.14 525.639C190.167 529.36 194.398 533.813 191.144 539.811C188.741 544.237 183.493 546.275 176.509 543.383L176.508 543.384Z" fill="#D9DAD9"/>
<path d="M207.093 794.597C199.201 808.654 181.614 813.504 167.811 805.431C154.007 797.359 149.214 779.42 157.106 765.363C164.996 751.307 182.584 746.456 196.387 754.529C210.191 762.602 214.984 780.542 207.094 794.597H207.093Z" fill="#EFEFEF"/>
<path d="M201.143 791.12C195.13 801.832 181.728 805.529 171.207 799.378C160.688 793.226 157.035 779.554 163.048 768.843C169.063 758.132 182.465 754.434 192.984 760.585C203.503 766.738 207.156 780.409 201.143 791.12Z" fill="#E5E6E5"/>
<path d="M201.481 790.509C201.363 790.446 201.761 789.545 202.29 787.877C202.807 786.213 203.432 783.736 203.438 780.634C203.439 779.088 203.286 777.395 202.898 775.626C202.497 773.863 201.881 772.02 200.952 770.224C200.491 769.324 199.966 768.431 199.352 767.574C198.744 766.714 198.073 765.871 197.313 765.087C196.557 764.302 195.742 763.545 194.847 762.866C193.953 762.185 192.999 761.561 191.992 761.005C190.976 760.462 189.935 760.003 188.883 759.626C187.831 759.247 186.761 758.981 185.701 758.779C184.638 758.573 183.579 758.478 182.54 758.444C181.501 758.404 180.48 758.459 179.493 758.571C177.515 758.789 175.672 759.297 174.017 759.943C172.365 760.602 170.904 761.42 169.647 762.285C167.132 764.023 165.469 765.937 164.406 767.304C163.348 768.685 162.839 769.525 162.721 769.46C162.633 769.414 162.947 768.464 163.87 766.921C164.797 765.394 166.389 763.265 168.955 761.298C170.235 760.321 171.75 759.388 173.487 758.625C175.227 757.879 177.183 757.28 179.301 757.002C180.358 756.86 181.454 756.781 182.572 756.805C183.691 756.825 184.835 756.914 185.981 757.124C187.127 757.329 188.285 757.61 189.423 758.012C190.561 758.412 191.685 758.907 192.779 759.492C193.866 760.09 194.895 760.766 195.855 761.506C196.818 762.243 197.691 763.067 198.499 763.923C199.311 764.776 200.023 765.694 200.662 766.629C201.308 767.563 201.857 768.533 202.332 769.508C203.289 771.457 203.897 773.446 204.263 775.338C204.614 777.233 204.704 779.037 204.626 780.667C204.462 783.939 203.622 786.476 202.9 788.114C202.163 789.759 201.566 790.555 201.48 790.506L201.481 790.509Z" fill="#D9DAD9"/>
<path d="M183.219 787.927C183.798 786.86 183.246 785.792 182.211 784.607L179.928 788.813C181.603 789.323 182.69 788.902 183.22 787.926L183.219 787.927ZM182.069 777.676L184.417 773.347C182.636 772.819 181.529 773.349 180.983 774.353C180.405 775.421 180.986 776.507 182.069 777.676ZM177.742 792.838L175.89 796.252L172.904 794.563L174.707 791.241C171.849 789.387 169.524 786.837 168.594 784.599L172.254 781.807C173.135 783.779 174.838 785.818 176.873 787.247L179.636 782.156C176.767 779.459 173.676 776.237 176.042 771.878C177.796 768.647 181.6 767.172 186.616 769.293L188.453 765.908L191.44 767.597L189.636 770.92C191.777 772.369 193.626 774.211 194.689 776.206L191.161 779.112C190.118 777.367 188.846 775.971 187.452 774.942L184.639 780.125C187.524 782.791 190.555 785.98 188.223 790.278C186.502 793.448 182.744 794.908 177.741 792.836L177.742 792.838Z" fill="#D9DAD9"/>
<path d="M193.961 621.366C197.606 612.646 203.783 604.922 212.217 599.457C212.217 599.457 212.22 599.461 212.225 599.467C203.943 604.813 197.677 612.528 193.961 621.366Z" fill="#FEFEFE"/>
<path d="M226.596 642.392C226.091 642.405 225.591 642.294 225.138 642.066C224.016 641.58 223.075 640.742 222.453 639.673C221.841 638.589 221.593 637.331 221.748 636.092C221.753 635.56 221.896 635.041 222.163 634.584C222.163 634.584 222.037 635.151 221.989 636.043C221.92 637.218 222.189 638.388 222.763 639.409C223.359 640.415 224.223 641.225 225.256 641.743C226.048 642.234 226.598 642.334 226.596 642.393V642.392Z" fill="#FEFEFE"/>
<path d="M225.994 626.009C225.9 626.029 225.482 625.531 225.042 624.783C224.602 624.034 224.318 623.509 224.396 623.408C224.473 623.307 224.895 623.888 225.348 624.635C225.8 625.38 226.083 625.962 225.994 626.009Z" fill="#FEFEFE"/>
<path d="M567.379 458.894C572.375 456.254 577.952 454.671 583.792 454.395L583.826 454.403C578.046 454.675 572.435 456.234 567.38 458.893L567.379 458.894ZM591.092 454.743C589.43 454.508 587.769 454.383 586.119 454.362L586.121 454.355C587.762 454.375 589.426 454.501 591.094 454.734C591.094 454.734 591.094 454.737 591.092 454.744V454.743Z" fill="#E8E7E5"/>
<path d="M583.827 454.401L583.793 454.394C584.402 454.365 585.016 454.35 585.632 454.35C585.797 454.35 585.959 454.351 586.122 454.353L586.12 454.36C585.963 454.358 585.806 454.358 585.649 454.358C585.04 454.358 584.432 454.371 583.827 454.4V454.401Z" fill="#FEFEFE"/>
<path d="M577.549 490.122C577.218 489.852 576.958 489.505 576.79 489.109C576.329 488.179 576.17 487.124 576.339 486.097C576.521 485.066 577.029 484.125 577.785 483.417C578.07 483.08 578.437 482.827 578.848 482.684C578.848 482.684 578.469 482.976 577.965 483.52C577.298 484.233 576.85 485.129 576.677 486.099C576.526 487.07 576.649 488.065 577.035 488.967C577.283 489.719 577.581 490.086 577.548 490.122H577.549Z" fill="#FEFEFE"/>
<path d="M585.839 479.312C585.768 479.273 585.765 478.724 585.88 478.002C585.995 477.281 586.091 476.789 586.195 476.766C586.297 476.744 586.259 477.349 586.154 478.076C586.048 478.803 585.92 479.331 585.839 479.312Z" fill="#FEFEFE"/>
<path d="M577.816 815.577L547.574 815.516H577.816V815.577Z" fill="#ABAEAF"/>
<path d="M669.125 673.395L585.418 659.682C581.189 658.988 577.211 661.926 576.533 666.242L563.095 751.68C562.416 755.997 565.295 760.057 569.524 760.749L572.025 761.16L595.319 764.977L653.231 774.465C657.46 775.158 661.438 772.22 662.116 767.903L675.554 682.466C676.233 678.149 673.354 674.088 669.125 673.396V673.395Z" fill="#FEFEFE"/>
<path d="M572.746 690.336L671.766 706.56L675.646 681.895C676.275 677.893 673.608 674.13 669.688 673.488L584.575 659.543C580.813 658.926 577.273 661.54 576.671 665.379L572.746 690.337V690.336Z" fill="#6CC56C"/>
<path d="M613.666 710.326L608.264 744.682L600.473 743.405L604.873 715.429L598.141 714.326L599.144 707.945L613.666 710.326Z" fill="#2C3C43"/>
<path d="M645.885 715.604L645.074 720.758L627.979 747.912L619.515 746.526L635.969 720.625L624.813 718.798L623.934 724.393L617.008 723.258L618.907 711.184L645.885 715.604Z" fill="#2C3C43"/>
<path d="M610.595 682.375C610.566 682.554 617.348 683.812 625.738 685.187C634.131 686.563 640.957 687.532 640.985 687.353C641.013 687.175 634.234 685.916 625.84 684.541C617.449 683.166 610.622 682.197 610.594 682.375H610.595Z" fill="#2C3C43"/>
<path d="M669.125 673.395C669.125 673.395 669.466 673.428 670.107 673.601C670.745 673.772 671.694 674.14 672.729 674.95C673.744 675.762 674.858 677.065 675.406 678.948C675.68 679.879 675.806 680.941 675.692 682.059C675.564 683.171 675.355 684.328 675.174 685.568C673.638 695.474 671.417 709.783 668.673 727.464C667.293 736.307 665.781 745.994 664.157 756.39C663.752 758.989 663.338 761.634 662.918 764.32C662.698 765.667 662.52 767.008 662.259 768.39C661.98 769.788 661.296 771.098 660.348 772.169C659.382 773.221 658.147 774.051 656.764 774.46C655.397 774.921 653.876 774.869 652.493 774.599C649.703 774.145 646.875 773.683 644.012 773.215C621.105 769.468 595.923 765.35 569.49 761.027C566.029 760.51 563.166 757.462 562.791 753.959C562.664 753.096 562.744 752.205 562.868 751.365L563.26 748.88C563.52 747.225 563.778 745.577 564.038 743.934C565.073 737.363 566.092 730.889 567.095 724.528C569.1 711.806 571.035 699.534 572.88 687.844C573.803 681.999 574.702 676.3 575.578 670.762C575.797 669.378 576.014 668.003 576.229 666.639C576.324 665.961 576.49 665.251 576.722 664.591C576.992 663.941 577.288 663.299 577.707 662.741C578.495 661.589 579.607 660.71 580.816 660.108C582.046 659.54 583.4 659.274 584.725 659.371C594.961 660.982 604.41 662.596 613.082 664.013C630.392 666.886 644.401 669.212 654.098 670.822C658.929 671.637 662.683 672.269 665.246 672.702C666.51 672.922 667.476 673.089 668.143 673.205C668.795 673.322 669.127 673.395 669.127 673.395C669.127 673.395 668.79 673.36 668.135 673.262C667.466 673.159 666.497 673.009 665.23 672.814C662.664 672.405 658.905 671.808 654.066 671.038C644.362 669.47 630.344 667.203 613.022 664.403C604.365 663.014 594.853 661.415 584.695 659.833C583.446 659.744 582.171 659.998 581.013 660.536C579.875 661.104 578.827 661.934 578.089 663.02C577.694 663.545 577.419 664.152 577.164 664.762C576.947 665.394 576.796 666.026 576.7 666.717C576.486 668.082 576.271 669.455 576.055 670.84C575.187 676.38 574.295 682.079 573.379 687.926C571.547 699.618 569.621 711.89 567.625 724.615C566.627 730.976 565.61 737.45 564.577 744.022C564.319 745.665 564.061 747.313 563.8 748.968C563.589 750.632 563.116 752.281 563.335 753.889C563.685 757.152 566.352 759.992 569.577 760.475C596.007 764.813 621.187 768.945 644.091 772.706C646.954 773.176 649.782 773.642 652.571 774.101C653.955 774.37 655.321 774.412 656.623 773.982C657.923 773.601 659.083 772.821 659.992 771.835C660.884 770.829 661.531 769.601 661.794 768.286C662.048 766.956 662.234 765.579 662.455 764.243C662.881 761.557 663.298 758.914 663.708 756.315C665.356 745.923 666.889 736.241 668.29 727.399C671.106 709.732 673.384 695.431 674.963 685.532C675.152 684.298 675.37 683.128 675.504 682.038C675.624 680.948 675.51 679.909 675.248 678.995C674.73 677.147 673.65 675.853 672.66 675.039C671.652 674.225 670.72 673.843 670.091 673.655C669.782 673.539 669.531 673.512 669.37 673.462C669.207 673.422 669.125 673.394 669.125 673.394V673.395Z" fill="#2C3C43"/>
<path d="M610.464 677.038L610.678 677.074C612.398 677.356 614.017 676.16 614.293 674.404L616.883 657.936C617.159 656.181 615.988 654.528 614.267 654.246L614.054 654.211C612.334 653.929 610.715 655.125 610.438 656.88L607.849 673.348C607.572 675.104 608.744 676.757 610.464 677.038Z" fill="#D9DAD9"/>
<path d="M610.466 677.038C610.507 676.957 609.65 676.954 608.756 675.97C608.333 675.486 607.957 674.719 607.994 673.794C608.091 672.881 608.329 671.761 608.519 670.567C608.923 668.121 609.397 665.259 609.92 662.101C610.177 660.503 610.446 658.83 610.726 657.097C610.826 656.278 611.231 655.543 611.885 655.055C612.541 654.568 613.37 654.392 614.218 654.571C615.034 654.702 615.759 655.21 616.18 655.906C616.619 656.616 616.697 657.422 616.515 658.269C616.248 660.004 615.991 661.678 615.746 663.279C615.273 666.447 614.845 669.316 614.481 671.768C614.395 672.37 614.312 672.945 614.233 673.494C614.146 674.041 614.114 674.561 613.96 674.982C613.648 675.85 613.017 676.413 612.449 676.705C611.255 677.267 610.458 676.945 610.468 677.039C610.465 677.061 610.639 677.12 610.997 677.176C611.351 677.219 611.906 677.209 612.554 676.936C613.185 676.66 613.912 676.073 614.295 675.111C614.491 674.622 614.533 674.092 614.636 673.559C614.73 673.012 614.827 672.44 614.929 671.842C615.334 669.395 615.807 666.534 616.33 663.374C616.587 661.774 616.856 660.102 617.136 658.369C617.339 657.509 617.263 656.396 616.723 655.563C616.213 654.71 615.318 654.081 614.321 653.922C613.379 653.717 612.289 653.926 611.51 654.526C610.715 655.108 610.211 656.067 610.106 656.995C609.841 658.728 609.584 660.403 609.337 662.003C608.865 665.17 608.438 668.04 608.072 670.492C607.91 671.713 607.71 672.766 607.637 673.785C607.631 674.822 608.089 675.647 608.575 676.143C609.067 676.653 609.585 676.864 609.927 676.964C610.274 677.064 610.467 677.049 610.468 677.037L610.466 677.038Z" fill="#2C3C43"/>
<path d="M640.691 681.992L640.905 682.028C642.625 682.309 644.245 681.113 644.519 679.358L647.11 662.89C647.385 661.133 646.214 659.482 644.495 659.2L644.281 659.164C642.561 658.883 640.942 660.078 640.666 661.834L638.076 678.301C637.799 680.057 638.971 681.71 640.691 681.992Z" fill="#D9DAD9"/>
<path d="M640.691 681.991C640.733 681.91 639.877 681.906 638.981 680.923C638.558 680.437 638.181 679.671 638.219 678.747C638.316 677.833 638.555 676.714 638.743 675.518C639.149 673.072 639.621 670.21 640.144 667.052C640.402 665.454 640.671 663.781 640.951 662.049C641.052 661.229 641.456 660.495 642.11 660.006C642.767 659.519 643.594 659.343 644.443 659.522C645.257 659.653 645.982 660.163 646.404 660.857C646.843 661.568 646.922 662.374 646.739 663.22C646.473 664.955 646.216 666.629 645.97 668.231C645.497 671.399 645.07 674.267 644.705 676.721C644.618 677.321 644.535 677.896 644.455 678.445C644.368 678.993 644.337 679.512 644.182 679.933C643.871 680.802 643.241 681.365 642.67 681.656C641.478 682.218 640.68 681.896 640.69 681.991C640.687 682.011 640.862 682.071 641.218 682.128C641.574 682.17 642.128 682.16 642.775 681.887C643.407 681.611 644.133 681.025 644.518 680.062C644.712 679.575 644.755 679.043 644.858 678.511C644.952 677.964 645.049 677.391 645.151 676.793C645.555 674.347 646.028 671.485 646.553 668.325C646.81 666.727 647.078 665.053 647.359 663.322C647.56 662.46 647.486 661.347 646.946 660.514C646.434 659.661 645.54 659.032 644.543 658.874C643.601 658.668 642.511 658.877 641.731 659.477C640.935 660.06 640.433 661.02 640.327 661.946C640.061 663.681 639.804 665.355 639.558 666.955C639.086 670.122 638.658 672.991 638.293 675.443C638.132 676.666 637.931 677.719 637.859 678.736C637.853 679.774 638.311 680.598 638.796 681.095C639.288 681.604 639.807 681.816 640.148 681.916C640.495 682.015 640.688 682.001 640.689 681.989L640.691 681.991Z" fill="#2C3C43"/>
<path d="M503.029 606.896C503.029 605.818 502.176 604.872 500.576 604.872C499.239 604.872 498.314 605.667 498.314 606.912C498.314 608.141 499.209 608.936 500.649 608.936C502.059 608.936 503.029 608.051 503.029 606.896ZM504.835 608.89C504.835 612.474 502.852 614.393 499.973 614.393C499.004 614.393 498.078 614.198 497.417 613.777L497.976 612.607C498.52 612.967 499.209 613.101 499.96 613.101C502.045 613.101 503.367 611.767 503.367 609.143V608.77C502.766 609.684 501.678 610.149 500.4 610.149C498.359 610.149 496.891 608.905 496.891 606.97C496.891 604.947 498.476 603.656 500.517 603.656C503.279 603.656 504.836 605.546 504.836 608.888L504.835 608.89Z" fill="#2C3C43"/>
<path d="M387.215 519.073H393.716V513.287H387.215V519.073Z" fill="#6CC56C"/>
<path d="M397.208 528.957H383.976C383.411 528.957 382.953 528.49 382.953 527.912V527.261C382.953 526.685 383.411 526.217 383.976 526.217H397.208C397.773 526.217 398.23 526.685 398.23 527.261V527.913C398.23 528.49 397.772 528.956 397.208 528.956V528.957Z" fill="#D9DAD9"/>
<path d="M270.062 709.143C268.966 710.365 277.859 725.079 281.439 734.361C285.021 743.641 302.848 786.759 318.002 787.04C333.156 787.322 344.728 780.291 354.646 765.949C364.564 751.606 381.096 675.677 381.096 675.677L354.094 648.119L322.961 737.828C322.961 737.828 297.812 705.987 292.753 702.503C287.693 699.019 270.061 709.143 270.061 709.143H270.062Z" fill="#BD7768"/>
<path d="M522.013 843.441L515.185 791.617L373.33 795.696C373.33 795.696 360.987 870.941 361.613 902.216H443.612L444.296 891.734L448.669 892.703C448.669 892.703 449.683 896.901 450.844 902.216L530.381 902.365L522.012 843.442L522.013 843.441Z" fill="#2C3C43"/>
<path d="M375.471 708.615L334.145 694.239C334.145 694.239 356.814 602.764 388.443 602.764L375.471 708.615Z" fill="#6CC56C"/>
<path d="M508.819 736.118L503.914 599.158C496.173 595.551 463.045 591.211 463.045 591.211L419.941 597.4L384.035 603.683L374.406 697.228L370.352 826.612C416.486 843.987 472.775 838.134 522.284 825.283L508.819 736.117V736.118Z" fill="#6CC56C"/>
<path d="M511.382 753.079C511.382 753.079 493.713 748.843 472.362 729.424C451.01 710.004 426.93 657.723 426.93 657.723L508.819 736.118L511.381 753.079H511.382Z" fill="#6CC56C"/>
<path d="M375.577 639.063C375.754 639.07 375.334 653.366 374.637 670.991C373.94 688.621 373.23 702.902 373.052 702.895C372.875 702.889 373.296 688.595 373.993 670.965C374.689 653.34 375.399 639.055 375.576 639.063H375.577Z" fill="#2C3C43"/>
<path d="M495.477 596.775C495.477 596.775 533.658 600.256 538.738 640.891C541.087 659.683 545.434 689.355 545.434 689.355L507.931 692.698L502.757 688.784C499.877 680.008 494.886 661.915 495.586 661.27C496.536 660.395 495.477 596.775 495.477 596.775H495.477Z" fill="#6CC56C"/>
<path d="M413.243 774.834C413.218 774.798 413.813 774.324 414.911 773.498C416.007 772.667 417.619 771.505 419.635 770.104C423.664 767.297 429.345 763.584 435.81 759.812C442.278 756.043 448.299 752.935 452.714 750.818C454.921 749.758 456.72 748.93 457.977 748.389C459.232 747.844 459.934 747.563 459.953 747.604C459.972 747.645 459.304 748.006 458.082 748.622C456.764 749.289 455.022 750.169 452.912 751.236C448.555 753.456 442.582 756.623 436.127 760.383C429.677 764.146 423.973 767.788 419.885 770.49C417.914 771.803 416.284 772.888 415.053 773.707C413.911 774.469 413.268 774.873 413.242 774.834H413.243Z" fill="#2C3C43"/>
<path d="M434.665 767.453C434.623 767.382 435.7 766.61 437.55 765.546C439.397 764.48 442.037 763.152 445.069 761.974C448.104 760.8 450.941 760.002 453.016 759.547C455.092 759.09 456.398 758.938 456.413 759.019C456.432 759.116 455.159 759.428 453.125 759.998C451.091 760.566 448.303 761.425 445.297 762.589C442.295 763.756 439.652 765.003 437.762 765.956C435.871 766.91 434.715 767.539 434.666 767.454L434.665 767.453Z" fill="#2C3C43"/>
<path d="M500.693 687.393C500.515 687.385 501.008 675.079 501.792 659.911C502.577 644.739 503.357 632.451 503.535 632.461C503.711 632.469 503.22 644.773 502.435 659.946C501.65 675.113 500.869 687.403 500.693 687.393Z" fill="#2C3C43"/>
<path d="M380.05 516.543C375.476 518.447 369.71 516.672 366.931 512.502C366.094 511.246 365.504 509.754 365.618 508.24C365.732 506.726 366.676 505.223 368.101 504.787C365.843 503.934 363.868 502.201 362.928 499.941C361.987 497.68 362.183 494.904 363.628 492.94C365.073 490.976 367.789 490.012 370.049 490.857C369.367 488.297 370.283 485.368 372.293 483.684L383.16 483.457L380.05 516.544V516.543Z" fill="#2C3C43"/>
<path d="M416.865 598.884L414.973 591.371C414.973 591.371 392.602 593.314 387.082 571.386C384.416 560.794 380.666 538.532 377.501 518.341C374.097 496.633 387.599 475.901 408.525 470.695L410.603 470.178C433.342 465.936 449.576 483.276 453.102 506.594L464.755 592.025L430.451 618.353L416.865 598.884H416.865Z" fill="#BD7768"/>
<path d="M414.974 591.371C414.974 591.371 428.835 589.158 441.617 578.285C441.617 578.285 438.358 593.601 416.383 596.97L414.973 591.372L414.974 591.371Z" fill="#794C44"/>
<path d="M388.704 539.804C389.043 541.476 390.71 542.564 392.428 542.234C394.143 541.905 395.263 540.285 394.925 538.612C394.585 536.94 392.917 535.852 391.204 536.179C389.485 536.509 388.366 538.131 388.705 539.804H388.704Z" fill="#2C3C43"/>
<path d="M384.705 527.951C385.183 528.265 387.094 525.924 390.408 525.109C393.707 524.246 396.553 525.38 396.812 524.876C396.946 524.649 396.38 524.007 395.134 523.484C393.905 522.961 391.947 522.64 389.885 523.163C387.826 523.688 386.275 524.895 385.468 525.936C384.64 526.987 384.473 527.814 384.705 527.951Z" fill="#2C3C43"/>
<path d="M416.909 533.348C417.247 535.021 418.914 536.108 420.632 535.778C422.348 535.45 423.467 533.831 423.127 532.157C422.788 530.484 421.12 529.395 419.406 529.725C417.687 530.053 416.569 531.675 416.909 533.348Z" fill="#2C3C43"/>
<path d="M417.402 520.48C417.883 520.796 419.797 518.454 423.108 517.639C426.407 516.778 429.251 517.911 429.512 517.408C429.644 517.181 429.083 516.538 427.832 516.016C426.604 515.491 424.647 515.172 422.585 515.694C420.526 516.219 418.975 517.426 418.167 518.467C417.343 519.518 417.172 520.345 417.402 520.481V520.48Z" fill="#2C3C43"/>
<path d="M411.374 548.537C411.343 548.34 409.198 548.489 405.759 548.884C404.892 549.006 404.05 549.033 403.767 548.479C403.419 547.905 403.551 546.887 403.72 545.781C404.016 543.495 404.326 541.098 404.651 538.586C405.889 528.365 406.565 520.045 406.161 519.998C405.757 519.95 404.426 528.197 403.188 538.418C402.904 540.935 402.629 543.332 402.371 545.626C402.286 546.686 402.002 547.936 402.742 549.123C403.124 549.71 403.857 550.025 404.434 550.037C405.017 550.073 405.494 549.963 405.92 549.885C409.32 549.234 411.405 548.73 411.373 548.536L411.374 548.537Z" fill="#2C3C43"/>
<path d="M414.469 515.383C415.18 516.081 418.041 514.146 421.842 512.788C425.617 511.35 429.026 510.97 429.136 509.97C429.173 509.498 428.284 508.953 426.717 508.718C425.163 508.479 422.938 508.628 420.664 509.465C418.394 510.306 416.59 511.644 415.544 512.844C414.487 514.046 414.146 515.046 414.469 515.383H414.469Z" fill="#2C3C43"/>
<path d="M383.585 517.866C384.349 518.489 386.44 517.123 389.175 516.403C391.884 515.585 394.364 515.658 394.707 514.722C394.848 514.275 394.299 513.595 393.111 513.121C391.938 512.645 390.124 512.472 388.252 512.998C386.383 513.529 384.915 514.63 384.148 515.654C383.367 516.685 383.237 517.555 383.585 517.866Z" fill="#2C3C43"/>
<path d="M377.166 507.737C377.166 507.737 379.559 492.55 385.298 487.717C392.246 481.866 397.745 489.848 404.742 485.837C411.737 481.826 418.366 476.222 427.454 480.236C437.399 484.629 434.552 490.158 437.402 499.787C448.956 538.83 458.707 548.258 456.269 529.119C456.002 527.022 461.166 524.017 459.929 515.185C458.324 503.735 455.501 490.048 451.158 482.718C447.499 476.539 442.657 472.847 434.738 469.418C422.235 464.006 407.661 467.449 398.035 470.919C388.408 474.389 372.147 490.715 377.167 507.737H377.166Z" fill="#2C3C43"/>
<path d="M454.749 528.863C454.075 525.434 456.3 522.041 459.691 521.538C463.803 520.928 468.831 522.145 470.591 530.687C473.713 545.841 458.162 545.915 458.048 545.485C457.969 545.193 456.001 535.216 454.749 528.863Z" fill="#BD7768"/>
<path d="M460.106 539.089C460.162 539.027 460.404 539.219 460.882 539.329C461.349 539.436 462.109 539.417 462.824 538.954C464.271 538.031 465.068 535.205 464.578 532.46C464.332 531.072 463.777 529.82 463.075 528.834C462.394 527.823 461.531 527.2 460.712 527.226C459.889 527.21 459.428 527.811 459.335 528.277C459.223 528.743 459.38 529.026 459.307 529.069C459.272 529.116 458.935 528.881 458.926 528.231C458.926 527.917 459.025 527.522 459.315 527.157C459.61 526.784 460.102 526.521 460.664 526.464C461.826 526.299 463.079 527.153 463.851 528.234C464.687 529.306 465.341 530.708 465.618 532.265C466.152 535.34 465.209 538.525 463.192 539.619C462.205 540.121 461.268 539.986 460.744 539.726C460.207 539.45 460.059 539.128 460.105 539.089H460.106Z" fill="#794C44"/>
<path d="M396.666 499.945L396.565 499.984L396.305 500.068L396.666 499.945Z" fill="#6CC56C"/>
<path d="M363.437 480.42C363.85 476.282 366.776 472.702 370.379 470.757C373.981 468.812 378.177 468.306 382.252 468.412C380.71 463.006 385.729 457.514 391.158 456.52C396.587 455.524 402.047 457.655 407.167 459.747C412.848 454.199 423.26 455.084 427.963 461.513C431.408 458.454 436.484 457.446 440.801 458.965C445.116 460.482 448.506 464.468 449.374 469.043C453.026 468.964 456.644 471.078 458.428 474.332C460.211 477.585 460.082 481.84 458.103 484.974C460.922 486.038 462.899 489.083 462.761 492.148C462.622 495.213 460.38 498.058 457.476 498.853L444.705 491.475C439.053 493.826 431.784 490.151 430.192 484.138C426.071 486.901 420.303 486.814 416.264 483.931C415.872 486.967 413.92 489.749 411.228 491.103C408.536 492.459 405.185 492.346 402.586 490.814C403.065 494.962 400.999 499.306 397.508 501.488C394.018 503.67 389.287 503.574 385.885 501.251C382.83 505.22 376.652 506.194 372.564 503.352C368.479 500.51 367.108 494.284 369.61 489.931C365.631 489.032 363.026 484.559 363.437 480.42Z" fill="#2C3C43"/>
<path d="M431.471 486.498C431.421 486.524 431.548 486.976 432.013 487.687C432.479 488.387 433.323 489.35 434.694 490.087C436.04 490.82 437.991 491.307 440.065 490.765C442.107 490.253 444.222 488.779 445.354 486.436L444.49 486.595C445.452 487.53 446.654 488.273 447.983 488.722C450.819 489.67 453.88 489.246 456.066 487.818C458.294 486.4 459.475 484.184 459.976 482.322C460.482 480.423 460.325 478.802 460.078 477.762C459.807 476.714 459.483 476.208 459.432 476.231C459.206 476.254 460.325 478.569 459.23 482.093C458.677 483.786 457.523 485.739 455.536 486.933C453.588 488.147 450.85 488.496 448.328 487.653C447.148 487.254 446.09 486.605 445.242 485.798L444.696 485.279L444.378 485.958C443.435 487.97 441.607 489.322 439.822 489.829C438.02 490.365 436.281 490.027 435.004 489.44C432.395 488.197 431.617 486.362 431.471 486.497V486.498Z" fill="#42616A"/>
<path d="M423.194 554.899C423.203 555.094 421.374 555.104 419.585 556.317C417.77 557.491 417.015 559.191 416.845 559.103C416.772 559.074 416.852 558.6 417.217 557.926C417.576 557.254 418.263 556.413 419.235 555.766C420.21 555.124 421.242 554.828 421.99 554.765C422.742 554.7 423.2 554.818 423.194 554.898V554.899Z" fill="#2C3C43"/>
<path d="M410.397 648.511L407.571 652.286C405.569 653.447 403.834 652.556 402.881 649.982L379.598 605.858L386.505 602.195L412.74 644.857C412.74 644.857 412.976 647.017 410.398 648.512L410.397 648.511Z" fill="#42616A"/>
<path d="M384.664 553.88C377.47 548.845 368.085 547.292 359.274 550.545C352.241 553.144 346.618 558.382 343.446 565.295C340.271 572.208 339.925 579.97 342.47 587.148C345.015 594.328 350.147 600.066 356.92 603.305C363.692 606.545 371.298 606.898 378.331 604.301C385.365 601.703 390.987 596.465 394.16 589.552C397.334 582.64 397.68 574.878 395.135 567.7C393.069 561.871 389.326 557.145 384.664 553.882V553.88ZM351.803 602.655C346.804 599.157 342.794 594.093 340.58 587.845C337.853 580.152 338.224 571.834 341.624 564.424C345.027 557.015 351.051 551.402 358.59 548.616C374.151 542.87 391.393 551.117 397.025 567C399.752 574.694 399.381 583.013 395.979 590.422C392.579 597.832 386.554 603.444 379.014 606.23C369.573 609.716 359.512 608.052 351.803 602.655Z" fill="#2C3C43"/>
<path d="M386.046 552.714C378.852 547.68 369.467 546.126 360.656 549.381C353.623 551.978 348.002 557.217 344.828 564.129C341.653 571.043 341.307 578.804 343.852 585.983C346.397 593.163 351.529 598.901 358.302 602.139C365.076 605.379 372.679 605.733 379.713 603.135C386.747 600.537 392.369 595.299 395.542 588.387C398.716 581.473 399.062 573.712 396.517 566.533C394.451 560.705 390.709 555.978 386.046 552.715V552.714ZM353.185 601.49C348.186 597.991 344.177 592.927 341.963 586.68C339.236 578.986 339.606 570.669 343.008 563.259C346.409 555.848 352.434 550.235 359.974 547.451C375.535 541.703 392.776 549.95 398.407 565.834C401.134 573.528 400.764 581.846 397.361 589.255C393.961 596.664 387.936 602.277 380.398 605.063C370.956 608.549 360.895 606.885 353.186 601.489L353.185 601.49Z" fill="#42616A"/>
<path d="M361.689 600.962C361.717 600.888 363.037 601.529 365.312 602.055C365.598 602.117 365.897 602.18 366.208 602.247C366.519 602.312 366.849 602.341 367.187 602.393C367.864 602.51 368.595 602.539 369.362 602.591C370.9 602.635 372.595 602.549 374.347 602.243C376.095 601.914 377.716 601.399 379.145 600.817C379.848 600.496 380.525 600.213 381.12 599.865C381.42 599.697 381.72 599.553 381.991 599.383C382.259 599.211 382.518 599.046 382.766 598.889C384.725 597.594 385.748 596.527 385.798 596.586C385.813 596.603 385.558 596.864 385.078 597.325C384.843 597.559 384.545 597.836 384.17 598.12C383.799 598.41 383.394 598.768 382.892 599.081C382.644 599.247 382.387 599.421 382.119 599.6C381.848 599.778 381.548 599.929 381.248 600.105C380.651 600.467 379.968 600.764 379.259 601.096C377.819 601.702 376.176 602.232 374.404 602.567C372.628 602.877 370.908 602.955 369.35 602.895C368.573 602.833 367.833 602.794 367.149 602.664C366.808 602.605 366.475 602.568 366.161 602.496C365.849 602.422 365.548 602.351 365.259 602.282C364.682 602.163 364.182 601.97 363.735 601.829C363.287 601.694 362.913 601.539 362.613 601.402C362.007 601.137 361.679 600.983 361.688 600.963L361.689 600.962Z" fill="#FEFEFE"/>
<path d="M452.808 651.783C445.639 644.774 411.696 610.013 410.867 609.524C409.825 608.906 393.709 601.39 390.358 603.044C387.005 604.698 377.523 614.879 377.523 614.879C377.523 614.879 377.752 621.759 385.62 617.552C391.624 614.343 392.555 613.846 392.661 613.789L392.649 613.796L400.409 616.391C400.409 616.391 390.393 619.647 388.166 621.63C385.936 623.612 381.995 631.616 383.847 633.705C385.699 635.794 388.026 636.165 388.026 636.165C388.026 636.165 383.54 641.591 390.317 645.713C390.317 645.713 390.933 650.665 394.26 652.881C397.585 655.098 404.146 655.005 404.146 655.005C404.146 655.005 407.317 653.452 405.335 650.237C403.355 647.019 399.259 646.232 399.259 646.232L404.64 643.64C404.64 643.64 407.233 644.711 410.913 648.175C410.913 648.175 421.704 660.024 426.668 656.988L433.689 665.512C439.04 662.188 452.809 651.782 452.809 651.782L452.808 651.783Z" fill="#BD7768"/>
<path d="M403.438 633.808C403.437 633.785 403.165 633.765 402.674 633.786C402.182 633.805 401.471 633.886 400.61 634.084C398.896 634.469 396.556 635.45 394.548 637.322C392.538 639.195 391.37 641.483 390.838 643.191C390.568 644.049 390.424 644.764 390.36 645.263C390.296 645.761 390.29 646.038 390.313 646.041C390.385 646.054 390.495 644.945 391.093 643.283C391.677 641.629 392.853 639.429 394.804 637.61C396.755 635.791 399.008 634.797 400.674 634.352C402.351 633.895 403.444 633.882 403.438 633.81V633.808Z" fill="#794C44"/>
<path d="M404.532 625.043C404.532 625.017 404.242 625.013 403.715 625.029C403.452 625.033 403.13 625.049 402.759 625.103C402.388 625.152 401.96 625.185 401.5 625.292C400.57 625.455 399.482 625.762 398.311 626.203C397.147 626.665 395.905 627.276 394.684 628.063C393.471 628.864 392.408 629.759 391.507 630.644C390.624 631.546 389.895 632.425 389.359 633.218C389.071 633.601 388.863 633.982 388.664 634.305C388.461 634.626 388.311 634.918 388.197 635.16C387.962 635.641 387.842 635.912 387.866 635.923C387.933 635.959 388.451 634.895 389.576 633.381C390.131 632.619 390.869 631.773 391.75 630.902C392.647 630.047 393.698 629.176 394.887 628.389C396.085 627.617 397.462 626.75 398.599 626.277C399.743 625.827 400.643 625.756 401.553 625.561C403.372 625.154 404.536 625.12 404.531 625.044L404.532 625.043Z" fill="#794C44"/>
<path d="M406.849 615.067C406.862 615.025 406.475 614.833 405.794 614.724C405.115 614.613 404.136 614.636 403.128 614.968C401.762 615.423 401.251 615.944 400.831 616.37C400.341 616.867 400.141 617.256 400.176 617.281C400.257 617.369 401.304 615.958 403.245 615.336C405.174 614.672 406.833 615.186 406.849 615.066V615.067Z" fill="#794C44"/>
<path d="M369.201 600.962C365.677 600.962 362.155 600.241 358.952 598.783C355.261 597.103 354.779 591.844 358.187 589.627L358.26 589.579C360.68 588.032 363.656 587.76 366.509 587.628C369.362 587.498 372.31 587.444 374.91 586.241C378.125 584.755 380.407 581.654 381.698 578.303C382.99 574.952 383.407 571.327 383.791 567.747C383.941 566.342 384.102 564.889 384.793 563.665C384.917 563.447 385.06 563.239 385.223 563.045C385.881 566.275 386.507 569.103 387.081 571.387C388.295 576.208 390.323 579.876 392.749 582.664C391.507 587.439 388.974 591.853 385.302 595.088C380.878 598.985 375.036 600.963 369.202 600.963L369.201 600.962Z" fill="#DDE0DF"/>
<path d="M392.749 582.663C390.324 579.876 388.295 576.208 387.081 571.386C386.507 569.102 385.882 566.274 385.223 563.044C385.861 562.277 386.772 561.732 387.718 561.732C387.883 561.732 388.049 561.75 388.216 561.784C389.516 562.06 390.368 563.313 390.987 564.514C393.831 570.043 394.317 576.64 392.749 582.664V582.663Z" fill="#A86C5F"/>
<path d="M542.9 688.826L507.79 691.835C499.698 686.379 443.262 641.705 441.617 640.539L426.93 657.723C457.725 695.826 479.299 723.658 505.229 743.205C518.045 752.867 538.913 747.65 544.315 730.02C546.957 721.397 542.9 688.827 542.9 688.827V688.826Z" fill="#BD7768"/>
<path d="M413.087 902.215H413.019C412.716 898.196 412.46 893.778 412.191 888.967L412.351 888.965L413.087 902.215H413.087Z" fill="#273035"/>
<path d="M412.19 888.967C411.966 884.954 411.733 880.662 411.457 876.094L412.349 888.964C412.349 888.964 412.295 888.964 412.19 888.966V888.967Z" fill="#273035"/>
<path d="M411.46 876.093C410.948 867.599 410.287 858.146 409.258 847.724L409.737 847.592L411.46 876.093Z" fill="#273035"/>
<path d="M246.66 648.118C246.66 648.118 331.483 782.189 325.534 873.396L376.134 904.998H413.242C411.216 881.305 411.494 842.547 400.171 788.178C371.034 648.277 319.262 647.885 319.262 647.885L246.66 648.118Z" fill="#D9DAD9"/>
<path d="M409.69 861.363L324.954 876.15C325.662 878.915 324.309 882.378 322.444 884.277C320.578 886.177 317.962 887.067 315.412 887.751C310.415 889.09 305.277 889.87 300.116 890.076C297.4 890.185 294.641 890.138 292.017 890.862C289.393 891.587 286.852 893.233 285.791 895.788C284.728 898.343 285.64 904.907 292.097 904.907H378.146C371.689 904.907 370.777 898.343 371.84 895.788C372.902 893.233 375.442 891.588 378.066 890.862C380.69 890.138 383.449 890.185 386.165 890.076C391.326 889.87 396.465 889.09 401.461 887.751C404.01 887.067 406.627 886.177 408.493 884.277C410.358 882.377 410.088 864.556 409.69 861.363Z" fill="#D9DAD9"/>
<path d="M409.62 848.574L326.307 861.188C327.015 863.954 325.663 867.415 323.797 869.315C321.929 871.214 319.313 872.106 316.765 872.789C311.769 874.129 306.629 874.911 301.468 875.115C298.751 875.224 295.993 875.178 293.369 875.902C290.744 876.626 288.205 878.273 287.142 880.826C286.08 883.381 286.993 889.945 293.448 889.945H379.497C373.041 889.945 372.13 883.38 373.191 880.826C374.254 878.273 376.795 876.626 379.419 875.902C382.042 875.178 384.802 875.224 387.518 875.115C392.679 874.911 397.818 874.13 402.814 872.789C405.363 872.106 407.98 871.215 409.846 869.315C411.712 867.415 410.017 851.767 409.62 848.574Z" fill="#D9DAD9"/>
<path d="M409.276 845.476L324.954 848.316C325.662 850.922 324.309 854.184 322.444 855.974C320.578 857.764 317.962 858.604 315.412 859.247C310.415 860.51 305.277 861.245 300.116 861.44C297.4 861.54 294.641 861.498 292.017 862.18C289.393 862.862 286.852 864.414 285.791 866.82C284.728 869.226 285.64 875.412 292.097 875.412L377.881 874.43C371.425 874.43 370.777 869.226 371.84 866.819C372.902 864.412 375.442 862.861 378.066 862.179C380.69 861.496 383.449 861.539 386.165 861.439C391.326 861.244 396.465 860.51 401.461 859.246C404.01 858.603 406.627 857.763 408.493 855.973C410.358 854.183 409.672 848.483 409.275 845.475L409.276 845.476Z" fill="#D9DAD9"/>
<path d="M277.904 713.739C277.904 713.739 267.981 691.819 266.052 685.761C264.124 679.702 269.085 676.327 273.77 672.67C278.455 669.014 295.541 667.607 296.368 670.701C297.194 673.795 296.919 678.296 294.439 678.577C291.959 678.857 282.588 678.317 277.077 685.76C277.077 685.76 299.951 680.567 305.462 685.76C310.973 690.954 300.777 692.923 300.777 692.923C300.777 692.923 303.809 697.987 301.053 699.393C298.298 700.799 283.14 703.894 283.14 703.894L282.864 706.145C282.864 706.145 290.306 705.583 295.266 706.988C300.227 708.395 302.431 713.739 302.431 713.739C301.329 717.958 299.4 717.958 296.644 715.989C293.889 714.02 291.96 713.739 291.96 713.739C291.96 713.739 287.55 719.364 284.518 719.646C281.487 719.926 277.905 713.739 277.905 713.739H277.904Z" fill="#BD7768"/>
<path d="M314.996 647.899C315.043 647.889 315.082 647.88 315.114 647.875H315.116C315.116 647.875 315.109 647.882 315.094 647.899H314.996Z" fill="#ABAEAF"/>
<path d="M303.644 763.235L293.735 738.793C293.735 738.779 293.734 738.764 293.734 738.75C297.15 746.674 300.49 754.874 303.644 763.232C303.644 763.235 303.644 763.235 303.644 763.235Z" fill="#81574E"/>
<path d="M303.647 763.231C300.494 754.873 297.152 746.673 293.737 738.749C293.48 730.015 293.192 721.746 292.881 713.985C293.707 714.264 295.036 714.838 296.646 715.988C297.765 716.788 298.747 717.263 299.594 717.263C300.591 717.263 301.399 716.603 302.018 715.038C303.672 740.091 303.648 762.916 303.648 763.232L303.647 763.231ZM301.851 712.594C300.904 710.943 298.774 707.981 295.269 706.987C294.43 706.75 293.52 706.568 292.587 706.431C292.535 704.888 292.457 703.367 292.37 701.867C295.852 701.049 299.323 700.152 300.775 699.524C301.191 703.856 301.548 708.25 301.852 712.594H301.851ZM300.682 683.811C299.163 683.555 297.45 683.451 295.656 683.451C294.46 683.451 293.228 683.497 291.996 683.578C292.17 681.937 292.446 680.344 292.857 678.803C292.866 678.761 292.876 678.719 292.886 678.678C293.536 678.642 294.067 678.619 294.44 678.576C296.921 678.294 297.196 673.794 296.369 670.7C296.284 670.379 296.022 670.106 295.617 669.879C297.31 665.591 299.318 661.938 301.326 658.938C304.636 654.031 308.088 650.902 310.764 649.422C312.099 648.669 313.214 648.317 313.962 648.109C314.504 647.998 314.811 647.936 314.996 647.898H315.094C314.532 648.542 302.939 662.052 300.681 683.811H300.682Z" fill="#949899"/>
<path d="M299.59 717.262C298.743 717.262 297.76 716.788 296.642 715.988C295.031 714.838 293.703 714.264 292.876 713.985C292.793 711.894 292.708 709.843 292.622 707.826C292.612 707.36 292.599 706.893 292.583 706.431C293.516 706.568 294.425 706.749 295.264 706.986C298.77 707.98 300.899 710.942 301.847 712.593C301.904 713.411 301.959 714.225 302.012 715.037C301.395 716.603 300.586 717.262 299.589 717.262H299.59ZM292.365 701.867C291.979 695.301 291.399 689.161 291.993 683.579C293.225 683.498 294.456 683.452 295.652 683.452C297.447 683.452 299.16 683.556 300.679 683.811C300.212 688.31 300.143 693.163 300.654 698.326C300.693 698.725 300.731 699.123 300.77 699.525C299.318 700.152 295.848 701.05 292.365 701.868L292.365 701.867ZM292.882 678.678C293.618 675.499 294.553 672.564 295.614 669.879C296.02 670.106 296.281 670.378 296.367 670.7C297.193 673.794 296.918 678.295 294.438 678.576C294.064 678.618 293.533 678.643 292.883 678.677L292.882 678.678Z" fill="#81574E"/>
<path d="M314.938 647.899L315.113 647.875C315.069 647.881 315.02 647.889 314.95 647.899H314.938Z" fill="#ABAEAF"/>
<path d="M314.535 647.957C314.557 647.954 314.577 647.95 314.598 647.947L314.938 647.898H314.951C314.912 647.905 314.865 647.911 314.81 647.92C314.731 647.933 314.64 647.944 314.536 647.957H314.535Z" fill="#949899"/>
<path d="M315.115 647.875L242.936 647.886C242.936 647.886 213.132 648.512 213.132 708.483C213.132 786.157 230.607 812.68 184.199 857.022L259.096 866.621C259.096 866.621 294.532 863.146 294.495 798.435C294.478 768.904 293.155 716.491 291.572 691.234C290.418 672.832 303.717 649.13 315.115 647.875Z" fill="#FEFEFE"/>
<path d="M315.115 647.875C314.953 647.907 314.644 647.971 313.961 648.109C313.212 648.317 312.098 648.669 310.764 649.422C308.087 650.902 304.636 654.031 301.326 658.938C298.043 663.84 294.76 670.489 292.857 678.804C290.63 687.149 292.385 696.994 292.624 707.827C293.556 729.539 294.33 755.623 294.687 785.009C294.728 792.355 294.928 799.912 294.506 807.663C294.068 815.4 293.07 823.333 290.897 831.165C288.773 838.978 285.444 846.765 280.218 853.398C277.585 856.676 274.52 859.681 270.961 862.042C267.405 864.386 263.459 866.265 259.125 866.94L259.097 866.944L259.057 866.938C237.431 864.17 214.683 861.257 191.32 858.265C188.867 857.951 186.421 857.637 184.159 857.348L183.488 857.261L183.979 856.781C187.725 853.12 191.403 849.422 194.756 845.472C198.109 841.529 201.234 837.427 203.967 833.105C209.441 824.462 213.054 814.827 214.631 805.007C216.254 795.183 216.204 785.334 215.819 775.766C215.431 766.184 214.71 756.817 214.171 747.671C213.614 738.527 213.2 729.601 213.005 720.925C212.906 716.588 212.863 712.313 212.871 708.104C212.939 705.999 213.007 703.91 213.074 701.84C213.145 699.769 213.159 697.713 213.429 695.69C213.637 693.663 213.844 691.654 214.049 689.662C214.118 688.66 214.333 687.686 214.507 686.709C214.686 685.732 214.865 684.761 215.042 683.795C215.22 682.828 215.396 681.866 215.572 680.908C215.771 679.956 216.073 679.033 216.317 678.1C216.574 677.17 216.83 676.245 217.086 675.326C217.337 674.405 217.571 673.484 217.948 672.613C220.36 665.47 224.084 658.983 229.187 654.336C231.673 651.955 234.572 650.152 237.601 648.967C239.113 648.365 240.674 647.943 242.252 647.738C243.288 647.656 244.292 647.667 245.286 647.677C245.832 647.683 246.374 647.689 246.917 647.679C253.031 647.692 258.795 647.703 264.185 647.715C274.942 647.755 284.203 647.79 291.772 647.818C306.671 647.855 314.251 647.873 315.113 647.876C314.243 647.877 306.593 647.898 291.555 647.938C284.01 647.97 274.777 648.007 264.054 648.052C258.7 648.065 252.973 648.079 246.899 648.092C240.812 647.379 234.397 650.019 229.488 654.678C224.469 659.267 220.792 665.687 218.41 672.782C218.039 673.644 217.808 674.561 217.56 675.477C217.308 676.392 217.055 677.31 216.802 678.233C216.561 679.161 216.262 680.077 216.065 681.025C215.891 681.977 215.717 682.935 215.543 683.897C215.368 684.859 215.192 685.824 215.015 686.796C214.843 687.768 214.63 688.737 214.563 689.734C214.362 691.716 214.159 693.719 213.954 695.737C213.688 697.751 213.678 699.802 213.609 701.866C213.545 703.93 213.48 706.011 213.415 708.109C213.413 712.31 213.461 716.581 213.566 720.914C213.77 729.581 214.193 738.496 214.757 747.638C215.303 756.778 216.033 766.143 216.428 775.743C216.819 785.327 216.878 795.217 215.248 805.117C213.666 815.011 210.018 824.75 204.503 833.458C201.751 837.816 198.608 841.942 195.237 845.907C191.868 849.877 188.177 853.589 184.418 857.263L184.238 856.698C186.5 856.988 188.946 857.301 191.399 857.617C214.761 860.614 237.51 863.531 259.134 866.304H259.065C263.204 865.662 267.142 863.813 270.618 861.514C274.12 859.195 277.14 856.236 279.74 853.006C284.899 846.466 288.208 838.759 290.323 831.003C292.487 823.229 293.49 815.335 293.933 807.631C294.362 799.921 294.172 792.361 294.14 785.017C293.821 755.638 293.095 729.555 292.219 707.848C291.981 702.422 291.752 697.268 291.459 692.409C291.077 687.532 291.604 682.903 292.546 678.734C294.493 670.379 297.821 663.719 301.145 658.815C304.498 653.905 307.994 650.783 310.707 649.324C312.062 648.582 313.19 648.246 313.947 648.056C314.323 647.976 314.607 647.956 314.808 647.923C314.963 647.899 315.045 647.887 315.113 647.877L315.115 647.875Z" fill="#2C3C43"/>
<path d="M256.107 866.561C254.214 866.514 251.258 866.708 248.203 865.549C250.853 865.888 253.488 866.226 256.107 866.561Z" fill="#ABAEAF"/>
<path d="M259.095 866.297C254.883 865.757 250.629 865.211 246.335 864.662C242.882 862.656 239.553 858.513 237.738 849.936H249.861C249.861 849.936 250.479 865.307 262.254 865.307C262.546 865.307 262.845 865.297 263.153 865.279C261.829 865.734 260.473 866.082 259.095 866.298V866.297Z" fill="#ABAEAF"/>
<path d="M258.268 866.7C257.873 866.7 257.464 866.677 257.041 866.622C256.77 866.588 256.457 866.572 256.108 866.563C253.49 866.227 250.855 865.889 248.204 865.55C247.583 865.316 246.957 865.023 246.336 864.664C250.629 865.214 254.883 865.759 259.095 866.3C260.474 866.084 261.829 865.736 263.154 865.281C263.265 865.273 263.377 865.265 263.49 865.255C263.49 865.255 261.334 866.701 258.268 866.701V866.7Z" fill="#273035"/>
<path d="M149.48 841.645C149.48 841.645 147.567 865.192 176.293 866.602C205.019 868.011 257.114 866.602 257.114 866.602C257.114 866.602 239.023 863.272 239.023 843.188L149.48 841.645H149.48Z" fill="#D9DAD9"/>
<path d="M149.481 841.644C149.475 841.637 149.617 841.633 149.9 841.631C150.212 841.631 150.63 841.633 151.173 841.633C152.33 841.644 153.993 841.658 156.136 841.676C160.513 841.732 166.841 841.811 174.767 841.909C190.742 842.149 213.156 842.485 239.028 842.872L239.333 842.878V843.19C239.33 848.205 240.634 853.521 243.833 857.772C246.992 862.027 251.905 865.024 257.171 866.279L259.627 866.866L257.122 866.931L256.963 866.935C240.191 867.347 224.211 867.548 209.676 867.528C202.407 867.511 195.501 867.455 189.038 867.298C182.577 867.087 176.555 867.055 171.067 866.285C165.611 865.391 160.848 863.33 157.435 860.479C153.981 857.65 152.019 854.162 150.94 851.232C149.847 848.274 149.562 845.811 149.458 844.166C149.41 843.34 149.404 842.708 149.427 842.285C149.438 841.864 149.476 841.632 149.48 841.646C149.487 841.662 149.486 841.86 149.492 842.286C149.491 842.708 149.519 843.337 149.587 844.157C149.731 845.789 150.056 848.228 151.173 851.142C152.277 854.027 154.243 857.44 157.66 860.195C161.04 862.971 165.738 864.97 171.139 865.828C176.553 866.56 182.599 866.57 189.048 866.756C195.506 866.886 202.41 866.924 209.674 866.925C224.203 866.911 240.18 866.691 256.945 866.28L257.103 866.274L257.054 866.927C254.292 866.292 251.718 865.183 249.374 863.704C247.042 862.226 244.936 860.379 243.326 858.17C240.026 853.782 238.697 848.302 238.71 843.192L239.016 843.509C213.227 843.006 190.887 842.569 174.964 842.257C167.009 842.083 160.659 841.943 156.267 841.846C154.098 841.791 152.413 841.748 151.241 841.718C150.684 841.7 150.255 841.686 149.934 841.675C149.639 841.664 149.485 841.654 149.479 841.647L149.481 841.644Z" fill="#2C3C43"/>
<path d="M276.73 752.985C276.73 753.325 270.22 753.602 262.19 753.602C254.158 753.602 247.648 753.325 247.648 752.985C247.648 752.645 254.158 752.369 262.19 752.369C270.22 752.369 276.73 752.645 276.73 752.985Z" fill="#2C3C43"/>
<path d="M226.445 753.079C226.445 752.738 228.261 752.463 230.502 752.463C232.743 752.463 234.558 752.738 234.558 753.079C234.558 753.419 232.742 753.695 230.502 753.695C228.261 753.695 226.445 753.419 226.445 753.079Z" fill="#2C3C43"/>
<path d="M278.526 742.156C278.526 742.496 272.016 742.771 263.986 742.771C255.954 742.771 249.445 742.496 249.445 742.156C249.445 741.815 255.954 741.539 263.986 741.539C272.016 741.539 278.526 741.815 278.526 742.156Z" fill="#2C3C43"/>
<path d="M226.445 742.77C226.445 742.429 228.261 742.154 230.502 742.154C232.743 742.154 234.558 742.429 234.558 742.77C234.558 743.111 232.742 743.387 230.502 743.387C228.261 743.387 226.445 743.111 226.445 742.77Z" fill="#2C3C43"/>
<path d="M278.195 732.985C278.195 733.325 271.684 733.602 263.655 733.602C255.623 733.602 249.113 733.325 249.113 732.985C249.113 732.644 255.623 732.369 263.655 732.369C271.684 732.369 278.195 732.644 278.195 732.985Z" fill="#2C3C43"/>
<path d="M226.445 733.08C226.445 732.739 228.261 732.463 230.502 732.463C232.743 732.463 234.558 732.739 234.558 733.08C234.558 733.42 232.742 733.696 230.502 733.696C228.261 733.696 226.445 733.42 226.445 733.08Z" fill="#2C3C43"/>
<path d="M277.057 722.223C277.057 722.564 270.547 722.84 262.518 722.84C254.485 722.84 247.977 722.564 247.977 722.223C247.977 721.884 254.485 721.607 262.518 721.607C270.547 721.607 277.057 721.884 277.057 722.223Z" fill="#2C3C43"/>
<path d="M224.977 722.839C224.977 722.499 226.793 722.223 229.033 722.223C231.274 722.223 233.09 722.499 233.09 722.839C233.09 723.18 231.274 723.456 229.033 723.456C226.793 723.456 224.977 723.18 224.977 722.839Z" fill="#2C3C43"/>
<path d="M276.729 713.054C276.729 713.395 270.219 713.671 262.19 713.671C254.158 713.671 247.648 713.395 247.648 713.054C247.648 712.714 254.157 712.438 262.19 712.438C270.22 712.438 276.729 712.714 276.729 713.054Z" fill="#2C3C43"/>
<path d="M224.977 713.15C224.977 712.809 226.793 712.533 229.033 712.533C231.274 712.533 233.09 712.809 233.09 713.15C233.09 713.49 231.274 713.766 229.033 713.766C226.793 713.766 224.977 713.49 224.977 713.15Z" fill="#2C3C43"/>
<path d="M275.698 702.292C275.698 702.632 269.187 702.909 261.158 702.909C253.126 702.909 246.617 702.633 246.617 702.292C246.617 701.951 253.126 701.676 261.158 701.676C269.187 701.676 275.698 701.951 275.698 702.292Z" fill="#2C3C43"/>
<path d="M223.617 702.909C223.617 702.568 225.433 702.291 227.674 702.291C229.915 702.291 231.731 702.567 231.731 702.909C231.731 703.249 229.915 703.525 227.674 703.525C225.433 703.525 223.617 703.249 223.617 702.909Z" fill="#2C3C43"/>
<path d="M275.366 693.124C275.366 693.465 268.854 693.741 260.826 693.741C252.794 693.741 246.285 693.465 246.285 693.124C246.285 692.784 252.794 692.508 260.826 692.508C268.854 692.508 275.366 692.784 275.366 693.124Z" fill="#2C3C43"/>
<path d="M277.16 683.731C277.16 684.072 270.649 684.348 262.62 684.348C254.587 684.348 248.078 684.072 248.078 683.731C248.078 683.39 254.587 683.115 262.62 683.115C270.649 683.115 277.16 683.39 277.16 683.731Z" fill="#2C3C43"/>
<path d="M223.617 693.218C223.617 692.878 225.433 692.602 227.674 692.602C229.915 692.602 231.731 692.878 231.731 693.218C231.731 693.559 229.915 693.835 227.674 693.835C225.433 693.835 223.617 693.559 223.617 693.218Z" fill="#2C3C43"/>
<path d="M224.98 683.128C224.98 682.788 226.797 682.512 229.037 682.512C231.278 682.512 233.094 682.788 233.094 683.128C233.094 683.469 231.278 683.746 229.037 683.746C226.797 683.746 224.98 683.47 224.98 683.128Z" fill="#2C3C43"/>
<path d="M279.042 674.543C279.042 674.884 272.531 675.16 264.502 675.16C256.47 675.16 249.961 674.884 249.961 674.543C249.961 674.204 256.47 673.928 264.502 673.928C272.531 673.928 279.042 674.204 279.042 674.543Z" fill="#2C3C43"/>
<path d="M226.859 673.943C226.859 673.602 228.676 673.326 230.916 673.326C233.157 673.326 234.973 673.602 234.973 673.943C234.973 674.283 233.157 674.559 230.916 674.559C228.676 674.559 226.859 674.283 226.859 673.943Z" fill="#2C3C43"/>
<path d="M280.917 665.358C280.917 665.699 274.406 665.975 266.378 665.975C258.345 665.975 251.836 665.699 251.836 665.358C251.836 665.018 258.345 664.742 266.378 664.742C274.407 664.742 280.917 665.018 280.917 665.358Z" fill="#2C3C43"/>
<path d="M228.734 664.755C228.734 664.415 230.551 664.139 232.791 664.139C235.032 664.139 236.848 664.415 236.848 664.755C236.848 665.096 235.032 665.372 232.791 665.372C230.551 665.372 228.734 665.096 228.734 664.755Z" fill="#2C3C43"/>
<path d="M287.718 657.089C287.718 657.43 281.207 657.706 273.178 657.706C265.147 657.706 258.637 657.43 258.637 657.089C258.637 656.749 265.146 656.473 273.178 656.473C281.208 656.473 287.718 656.749 287.718 657.089Z" fill="#2C3C43"/>
<path d="M235.535 656.488C235.535 656.147 237.351 655.871 239.592 655.871C241.833 655.871 243.649 656.147 243.649 656.488C243.649 656.828 241.833 657.104 239.592 657.104C237.351 657.104 235.535 656.828 235.535 656.488Z" fill="#2C3C43"/>
<path d="M276.73 764.814C276.73 765.154 270.22 765.43 262.19 765.43C254.158 765.43 247.648 765.154 247.648 764.814C247.648 764.473 254.158 764.197 262.19 764.197C270.22 764.197 276.73 764.473 276.73 764.814Z" fill="#2C3C43"/>
<path d="M226.445 764.91C226.445 764.569 228.261 764.293 230.502 764.293C232.743 764.293 234.558 764.569 234.558 764.91C234.558 765.249 232.742 765.525 230.502 765.525C228.261 765.525 226.445 765.249 226.445 764.91Z" fill="#2C3C43"/>
<path d="M278.195 776.413C278.195 776.754 271.684 777.03 263.655 777.03C255.623 777.03 249.113 776.754 249.113 776.413C249.113 776.073 255.623 775.797 263.655 775.797C271.684 775.797 278.195 776.073 278.195 776.413Z" fill="#2C3C43"/>
<path d="M227.914 776.509C227.914 776.169 229.73 775.893 231.971 775.893C234.212 775.893 236.028 776.169 236.028 776.509C236.028 776.85 234.212 777.125 231.971 777.125C229.731 777.125 227.914 776.85 227.914 776.509Z" fill="#2C3C43"/>
<path d="M278.659 786.433C278.659 786.774 272.147 787.049 264.119 787.049C256.088 787.049 249.578 786.774 249.578 786.433C249.578 786.092 256.088 785.816 264.119 785.816C272.147 785.816 278.659 786.092 278.659 786.433Z" fill="#2C3C43"/>
<path d="M228.375 786.528C228.375 786.185 230.192 785.91 232.432 785.91C234.673 785.91 236.489 786.185 236.489 786.528C236.489 786.866 234.673 787.143 232.432 787.143C230.192 787.143 228.375 786.867 228.375 786.528Z" fill="#2C3C43"/>
<path d="M279.119 796.448C279.119 796.788 272.608 797.064 264.58 797.064C256.548 797.064 250.039 796.788 250.039 796.448C250.039 796.107 256.548 795.832 264.58 795.832C272.608 795.832 279.119 796.107 279.119 796.448Z" fill="#2C3C43"/>
<path d="M228.84 796.543C228.84 796.203 230.657 795.928 232.896 795.928C235.138 795.928 236.953 796.203 236.953 796.543C236.953 796.885 235.137 797.161 232.896 797.161C230.656 797.161 228.84 796.885 228.84 796.543Z" fill="#2C3C43"/>
<path d="M279.581 806.466C279.581 806.807 273.07 807.083 265.042 807.083C257.01 807.083 250.5 806.807 250.5 806.466C250.5 806.126 257.01 805.85 265.042 805.85C273.071 805.85 279.581 806.126 279.581 806.466Z" fill="#2C3C43"/>
<path d="M229.301 806.561C229.301 806.22 231.117 805.943 233.357 805.943C235.599 805.943 237.414 806.22 237.414 806.561C237.414 806.901 235.598 807.178 233.357 807.178C231.117 807.178 229.301 806.901 229.301 806.561Z" fill="#2C3C43"/>
<path d="M279.749 816.206C279.749 816.546 273.238 816.822 265.208 816.822C257.177 816.822 250.668 816.546 250.668 816.206C250.668 815.867 257.177 815.59 265.208 815.59C273.238 815.59 279.749 815.866 279.749 816.206Z" fill="#2C3C43"/>
<path d="M229.469 816.301C229.469 815.961 231.285 815.684 233.525 815.684C235.767 815.684 237.583 815.96 237.583 816.301C237.583 816.642 235.767 816.918 233.525 816.918C231.285 816.918 229.469 816.642 229.469 816.301Z" fill="#2C3C43"/>
<path d="M278.195 825.9C278.195 826.24 271.684 826.517 263.655 826.517C255.623 826.517 249.113 826.24 249.113 825.9C249.113 825.559 255.623 825.283 263.655 825.283C271.684 825.283 278.195 825.559 278.195 825.9Z" fill="#2C3C43"/>
<path d="M227.914 825.994C227.914 825.653 229.73 825.377 231.971 825.377C234.212 825.377 236.028 825.653 236.028 825.994C236.028 826.334 234.212 826.611 231.971 826.611C229.731 826.611 227.914 826.334 227.914 825.994Z" fill="#2C3C43"/>
<path d="M274.463 836.193C274.463 836.533 267.952 836.809 259.924 836.809C251.892 836.809 245.383 836.533 245.383 836.193C245.383 835.851 251.892 835.576 259.924 835.576C267.953 835.576 274.463 835.852 274.463 836.193Z" fill="#2C3C43"/>
<path d="M224.184 836.287C224.184 835.946 226.001 835.67 228.24 835.67C230.481 835.67 232.298 835.946 232.298 836.287C232.298 836.628 230.481 836.903 228.24 836.903C226.001 836.903 224.184 836.627 224.184 836.287Z" fill="#2C3C43"/>
<path d="M271.655 845.565C271.655 845.906 265.144 846.183 257.115 846.183C249.083 846.183 242.574 845.906 242.574 845.565C242.574 845.224 249.083 844.949 257.115 844.949C265.144 844.949 271.655 845.224 271.655 845.565Z" fill="#2C3C43"/>
<path d="M411.457 876.093C411.457 876.105 411.355 876.109 411.154 876.107C410.916 876.101 410.625 876.095 410.269 876.086C409.439 876.048 408.303 875.998 406.869 875.935C403.917 875.78 399.646 875.592 394.367 875.39C383.81 874.981 369.216 874.693 353.096 874.772C336.97 874.85 322.372 875.143 311.804 875.292C306.562 875.354 302.301 875.405 299.29 875.44C297.853 875.443 296.718 875.444 295.887 875.445C295.529 875.439 295.239 875.434 295.001 875.43C294.802 875.423 294.699 875.414 294.699 875.403C294.699 875.391 294.801 875.378 294.999 875.364C295.237 875.35 295.527 875.334 295.884 875.313C296.714 875.281 297.848 875.24 299.284 875.186C302.294 875.1 306.554 874.977 311.795 874.829C322.36 874.562 336.959 874.193 353.093 874.116C369.221 874.039 383.827 874.4 394.387 874.927C399.666 875.188 403.936 875.448 406.883 875.68C408.315 875.796 409.448 875.887 410.277 875.954C410.632 875.989 410.922 876.018 411.159 876.041C411.357 876.065 411.458 876.083 411.457 876.094V876.093Z" fill="#2C3C43"/>
<path d="M407.773 889.597C407.773 889.778 383.983 890.003 354.644 890.099C325.293 890.195 301.508 890.125 301.508 889.943C301.507 889.764 325.293 889.538 354.641 889.441C383.981 889.346 407.771 889.415 407.773 889.597Z" fill="#2C3C43"/>
<path d="M397.64 849.935C397.647 849.913 397.954 849.994 398.531 850.169C399.165 850.368 400.002 850.632 401.045 850.959C401.596 851.137 402.201 851.332 402.857 851.545C403.477 851.782 404.363 851.898 404.858 852.774C405.081 853.221 404.926 853.834 404.544 854.155C404.182 854.491 403.736 854.675 403.279 854.813C402.377 855.027 401.426 855.253 400.428 855.49C396.425 856.366 391.602 857.142 386.213 857.637C380.825 858.143 374.882 858.397 368.648 858.52C356.212 858.689 344.957 858.843 336.727 858.955C332.694 858.978 329.408 858.995 327.053 859.009C325.961 859.001 325.086 858.995 324.422 858.99C323.821 858.978 323.505 858.962 323.504 858.94C323.504 858.917 323.819 858.889 324.419 858.859C325.083 858.832 325.957 858.797 327.048 858.754C329.403 858.69 332.69 858.6 336.72 858.492C344.949 858.329 356.201 858.109 368.635 857.864C374.861 857.741 380.79 857.507 386.161 857.034C391.532 856.574 396.339 855.85 400.335 855.036C401.326 854.818 402.273 854.61 403.17 854.411C403.591 854.293 403.998 854.124 404.283 853.866C404.578 853.617 404.665 853.238 404.528 852.925C404.21 852.287 403.389 852.076 402.759 851.842C402.108 851.61 401.51 851.397 400.964 851.201C399.935 850.824 399.113 850.523 398.488 850.293C397.923 850.079 397.631 849.956 397.638 849.935H397.64Z" fill="#2C3C43"/>
</g>
<path d="M115.137 252.261C111.882 252.261 109.235 254.963 109.235 258.285V387.549C109.235 390.87 111.882 393.572 115.137 393.572H323.58C326.834 393.572 329.481 390.87 329.481 387.549V258.285C329.481 254.963 326.834 252.261 323.58 252.261H115.137ZM323.58 394.833H115.137C111.201 394.833 108 391.565 108 387.549V258.285C108 254.268 111.201 251 115.137 251H323.58C327.514 251 330.717 254.269 330.717 258.285V387.549C330.717 391.565 327.514 394.833 323.58 394.833Z" fill="#2C3C43"/>
<path d="M323.58 394.203H115.136C111.536 394.203 108.617 391.223 108.617 387.549V258.286C108.617 254.611 111.536 251.631 115.136 251.631H323.58C327.18 251.631 330.098 254.611 330.098 258.286V387.549C330.098 391.224 327.179 394.203 323.58 394.203Z" fill="#FEFEFE"/>
<path d="M121.494 369.401H318.293V283.847H121.494V369.401ZM318.74 369.815H121.047V283.434H318.74V369.815Z" fill="#E5E6E5"/>
<path d="M121.27 355.486H318.515V355.072H121.27V355.486Z" fill="#E5E6E5"/>
<path d="M121.27 341.156H318.515V340.742H121.27V341.156Z" fill="#E5E6E5"/>
<path d="M121.27 326.829H318.515V326.416H121.27V326.829Z" fill="#E5E6E5"/>
<path d="M121.27 312.501H318.515V312.088H121.27V312.501Z" fill="#E5E6E5"/>
<path d="M121.27 298.174H318.515V297.76H121.27V298.174Z" fill="#E5E6E5"/>
<path d="M139.965 369.303H146.464V311.197H139.965V369.303Z" fill="#6CC56C"/>
<path d="M150.246 369.303H158.275V297.146H150.246V369.303Z" fill="#42616A"/>
<path d="M185.445 369.304H191.944V352.816H185.445V369.304Z" fill="#6CC56C"/>
<path d="M195.727 369.304H202.226V318.861H195.727V369.304Z" fill="#42616A"/>
<path d="M227.867 369.303H234.366V286.367H227.867V369.303Z" fill="#6CC56C"/>
<path d="M239.68 369.303H246.18V349.529H239.68V369.303Z" fill="#42616A"/>
<path d="M270.285 369.304H276.785V294.766H270.285V369.304Z" fill="#6CC56C"/>
<path d="M280.57 369.304H287.069V326.455H280.57V369.304Z" fill="#42616A"/>
<path d="M154.391 379.187H141.16C140.595 379.187 140.137 378.72 140.137 378.143V377.492C140.137 376.915 140.595 376.447 141.16 376.447H154.391C154.956 376.447 155.414 376.915 155.414 377.492V378.144C155.414 378.72 154.956 379.186 154.391 379.186V379.187Z" fill="#D9DAD9"/>
<path d="M198.656 379.187H185.426C184.86 379.187 184.402 378.72 184.402 378.143V377.492C184.402 376.915 184.86 376.447 185.426 376.447H198.656C199.221 376.447 199.679 376.915 199.679 377.492V378.144C199.679 378.72 199.221 379.186 198.656 379.186V379.187Z" fill="#D9DAD9"/>
<path d="M237.731 379.187H224.5C223.935 379.187 223.477 378.72 223.477 378.143V377.492C223.477 376.915 223.935 376.447 224.5 376.447H237.731C238.297 376.447 238.754 376.915 238.754 377.492V378.144C238.754 378.72 238.297 379.186 237.731 379.186V379.187Z" fill="#D9DAD9"/>
<path d="M277.974 379.187H264.742C264.177 379.187 263.719 378.72 263.719 378.143V377.492C263.719 376.915 264.177 376.447 264.742 376.447H277.973C278.539 376.447 278.996 376.915 278.996 377.492V378.144C278.996 378.72 278.539 379.186 277.974 379.186V379.187Z" fill="#D9DAD9"/>
<path d="M127.101 267.424C127.101 269.13 125.745 270.514 124.074 270.514C122.402 270.514 121.047 269.13 121.047 267.424C121.047 265.717 122.402 264.334 124.074 264.334C125.745 264.334 127.101 265.716 127.101 267.424Z" fill="#D9DAD9"/>
<path d="M135.535 267.424C135.535 269.13 134.179 270.514 132.508 270.514C130.836 270.514 129.48 269.13 129.48 267.424C129.48 265.717 130.836 264.334 132.508 264.334C134.18 264.334 135.535 265.716 135.535 267.424Z" fill="#D9DAD9"/>
<path d="M143.964 267.424C143.964 269.13 142.609 270.514 140.937 270.514C139.265 270.514 137.91 269.13 137.91 267.424C137.91 265.717 139.265 264.334 140.937 264.334C142.609 264.334 143.964 265.716 143.964 267.424Z" fill="#D9DAD9"/>
<path d="M663.427 237.365C662.017 236.536 660.181 237.032 659.335 238.472L626.393 294.483C625.547 295.922 626.006 297.767 627.416 298.597L717.736 351.716C719.146 352.545 720.982 352.049 721.828 350.61L754.77 294.599C755.616 293.159 755.158 291.314 753.748 290.485L663.427 237.365ZM717.415 352.263L627.094 299.143C625.389 298.14 624.835 295.908 625.858 294.168L658.8 238.157C659.824 236.416 662.043 235.816 663.749 236.819L754.069 289.938C755.774 290.941 756.329 293.173 755.305 294.914L722.364 350.925C721.34 352.665 719.12 353.265 717.415 352.263Z" fill="#2C3C43"/>
<path d="M717.578 351.988L627.257 298.869C625.697 297.951 625.192 295.916 626.128 294.325L659.07 238.313C660.006 236.721 662.03 236.173 663.59 237.091L753.911 290.21C755.471 291.128 755.976 293.163 755.04 294.755L722.098 350.767C721.162 352.359 719.138 352.906 717.578 351.988Z" fill="#FEFEFE"/>
<path d="M636.333 289.744L721.608 339.895L743.41 302.824L658.136 252.672L636.333 289.744ZM721.696 340.189L636.033 289.809L658.047 252.379L743.71 302.759L721.696 340.189Z" fill="#E5E6E5"/>
<path d="M639.781 283.656L725.25 333.922L725.355 333.742L639.887 283.477L639.781 283.656Z" fill="#E5E6E5"/>
<path d="M643.434 277.447L728.902 327.713L729.008 327.533L643.539 277.268L643.434 277.447Z" fill="#E5E6E5"/>
<path d="M647.082 271.24L732.551 321.506L732.656 321.326L647.188 271.061L647.082 271.24Z" fill="#E5E6E5"/>
<path d="M650.735 265.029L736.203 315.295L736.309 315.116L650.84 264.85L650.735 265.029Z" fill="#E5E6E5"/>
<path d="M654.387 258.822L739.855 309.088L739.961 308.908L654.492 258.643L654.387 258.822Z" fill="#E5E6E5"/>
<path d="M644.36 294.406L647.177 296.062L661.984 270.885L659.168 269.229L644.36 294.406Z" fill="#6CC56C"/>
<path d="M648.815 297.028L652.294 299.074L670.682 267.808L667.203 265.762L648.815 297.028Z" fill="#42616A"/>
<path d="M664.068 305.998L666.884 307.654L671.086 300.51L668.27 298.854L664.068 305.998Z" fill="#6CC56C"/>
<path d="M668.524 308.617L671.341 310.273L684.195 288.416L681.379 286.76L668.524 308.617Z" fill="#42616A"/>
<path d="M682.451 316.808L685.267 318.464L706.402 282.527L703.586 280.871L682.451 316.808Z" fill="#6CC56C"/>
<path d="M687.57 319.818L690.387 321.475L695.426 312.907L692.609 311.25L687.57 319.818Z" fill="#42616A"/>
<path d="M700.829 327.618L703.645 329.275L722.641 296.977L719.824 295.32L700.829 327.618Z" fill="#6CC56C"/>
<path d="M705.287 330.239L708.104 331.895L719.023 313.328L716.207 311.672L705.287 330.239Z" fill="#42616A"/>
<path d="M648.095 302.367L642.362 298.995C642.117 298.851 642.038 298.532 642.185 298.282L642.351 297.999C642.498 297.75 642.816 297.664 643.061 297.808L648.794 301.179C649.039 301.323 649.118 301.643 648.971 301.893L648.805 302.175C648.658 302.425 648.341 302.51 648.096 302.366L648.095 302.367Z" fill="#D9DAD9"/>
<path d="M667.275 313.648L661.542 310.276C661.297 310.132 661.218 309.813 661.365 309.563L661.531 309.281C661.678 309.031 661.995 308.945 662.24 309.089L667.973 312.46C668.218 312.604 668.297 312.924 668.15 313.174L667.984 313.456C667.837 313.706 667.52 313.791 667.275 313.647L667.275 313.648Z" fill="#D9DAD9"/>
<path d="M684.209 323.605L678.476 320.233C678.231 320.089 678.151 319.77 678.298 319.52L678.464 319.238C678.611 318.988 678.929 318.902 679.174 319.046L684.907 322.418C685.152 322.562 685.231 322.881 685.084 323.131L684.918 323.414C684.771 323.663 684.454 323.749 684.209 323.605L684.209 323.605Z" fill="#D9DAD9"/>
<path d="M701.643 333.859L695.909 330.487C695.664 330.343 695.585 330.024 695.732 329.774L695.898 329.492C696.045 329.242 696.363 329.156 696.607 329.3L702.341 332.672C702.586 332.816 702.665 333.135 702.518 333.385L702.352 333.667C702.205 333.917 701.888 334.003 701.643 333.859L701.643 333.859Z" fill="#D9DAD9"/>
<path d="M664.75 246.983C664.315 247.723 663.375 247.977 662.651 247.551C661.926 247.125 661.692 246.18 662.127 245.44C662.562 244.701 663.501 244.447 664.226 244.873C664.95 245.299 665.185 246.243 664.75 246.983Z" fill="#D9DAD9"/>
<path d="M668.406 249.132C667.971 249.871 667.031 250.125 666.307 249.699C665.583 249.274 665.348 248.328 665.783 247.589C666.218 246.849 667.158 246.596 667.882 247.021C668.607 247.448 668.841 248.392 668.406 249.132Z" fill="#D9DAD9"/>
<path d="M672.055 251.282C671.62 252.021 670.68 252.276 669.955 251.85C669.231 251.424 668.997 250.479 669.431 249.739C669.866 249 670.806 248.746 671.53 249.172C672.255 249.598 672.49 250.542 672.055 251.282Z" fill="#D9DAD9"/>
<path d="M349.229 266.98C343.473 277.921 330.646 281.697 320.58 275.414C310.512 269.13 307.017 255.166 312.772 244.224C318.527 233.283 331.353 229.507 341.42 235.79C351.488 242.075 354.983 256.038 349.229 266.979V266.98Z" fill="#EFEFEF"/>
<path d="M344.888 264.335C340.504 272.731 330.731 275.63 323.061 270.807C315.391 265.985 312.727 255.268 317.112 246.871C321.497 238.474 331.27 235.576 338.939 240.398C346.609 245.221 349.273 255.937 344.888 264.335Z" fill="#E5E6E5"/>
<path d="M331.649 261.701C332.07 260.916 331.668 260.131 330.915 259.259L329.252 262.353C330.472 262.728 331.263 262.419 331.649 261.701H331.649ZM330.812 254.161L332.521 250.977C331.224 250.588 330.419 250.977 330.021 251.717C329.599 252.501 330.023 253.301 330.812 254.161ZM327.661 265.313L326.312 267.825L324.138 266.582L325.451 264.138C323.371 262.774 321.678 260.9 321 259.252L323.666 257.199C324.307 258.65 325.547 260.15 327.029 261.201L329.041 257.456C326.951 255.473 324.702 253.103 326.424 249.897C327.701 247.52 330.471 246.436 334.123 247.994L335.46 245.506L337.635 246.748L336.321 249.192C337.88 250.257 339.226 251.612 340 253.08L337.432 255.217C336.672 253.934 335.746 252.907 334.732 252.151L332.683 255.962C334.784 257.923 336.991 260.269 335.293 263.43C334.04 265.762 331.303 266.836 327.66 265.312L327.661 265.313Z" fill="#D9DAD9"/>
<path d="M134.18 168H97.85V118.16H134.18V125.93H107.37V138.95H131.94V146.23H107.37V160.23H134.18V168ZM173.278 168H163.268L155.148 156.17L147.028 168H137.018L149.898 149.1L137.718 131.88H147.728L155.148 142.73L162.568 131.88H172.578L160.328 149.1L173.278 168ZM197.584 168.7C192.124 168.7 188.484 166.46 186.454 162.54V181.72H177.424V131.88H186.034V138.04C187.994 133.84 191.494 131.18 197.584 131.18C207.314 131.18 213.474 138.11 213.474 149.94C213.474 161.77 207.314 168.7 197.584 168.7ZM195.414 161.84C200.804 161.84 204.444 158.2 204.444 149.94C204.444 141.68 200.804 138.04 195.414 138.04C190.094 138.04 186.454 141.68 186.454 149.94C186.454 158.2 190.094 161.84 195.414 161.84ZM235.934 168.7C224.174 168.7 217.594 161.35 217.594 149.94C217.594 138.81 223.894 131.18 235.514 131.18C247.204 131.18 253.504 138.88 253.504 149.52C253.504 150.29 253.434 150.99 253.364 151.83H226.624C226.904 159.18 230.404 162.54 235.934 162.54C240.414 162.54 243.354 160.3 244.404 156.59H252.734C251.194 164.01 245.664 168.7 235.934 168.7ZM235.514 137.34C230.544 137.34 227.394 140.21 226.624 145.95H244.474C243.704 140.21 240.484 137.34 235.514 137.34ZM291.121 168H282.091V145.88C282.091 140.98 280.341 138.53 275.931 138.53C271.171 138.53 268.091 141.96 268.091 147.84V168H259.061V131.88H267.671V137.76C269.631 133.91 272.851 131.18 278.731 131.18C286.991 131.18 291.121 135.38 291.121 144.13V168ZM313.014 168.7C301.394 168.7 296.634 163.73 296.634 156.59H305.384C305.804 160.44 307.554 162.75 313.154 162.75C318.544 162.75 320.434 160.51 320.434 157.85C320.434 155.4 318.474 154.14 315.394 153.65L309.164 152.74C300.834 151.55 297.614 148.75 297.614 142.59C297.614 136.15 302.024 131.18 313.014 131.18C324.074 131.18 328.484 136.15 328.484 142.73H319.734C319.384 139.72 318.264 137.13 312.944 137.13C308.394 137.13 306.644 139.02 306.644 141.89C306.644 144.27 308.044 145.32 310.634 145.67L316.794 146.58C324.774 147.7 329.464 150.36 329.464 157.29C329.464 163.73 324.704 168.7 313.014 168.7ZM351.965 168.7C340.205 168.7 333.625 161.35 333.625 149.94C333.625 138.81 339.925 131.18 351.545 131.18C363.235 131.18 369.535 138.88 369.535 149.52C369.535 150.29 369.465 150.99 369.395 151.83H342.655C342.935 159.18 346.435 162.54 351.965 162.54C356.445 162.54 359.385 160.3 360.435 156.59H368.765C367.225 164.01 361.695 168.7 351.965 168.7ZM351.545 137.34C346.575 137.34 343.425 140.21 342.655 145.95H360.505C359.735 140.21 356.515 137.34 351.545 137.34Z" fill="#036E03"/>
<path d="M445.582 168H441.942V121.87L421.432 168H418.072L397.562 121.87V168H393.992V118.16H399.662L419.752 162.96L439.842 118.16H445.582V168ZM465.555 168.7C457.505 168.7 452.885 164.5 452.885 157.78C452.885 152.53 456.315 148.61 464.925 147.91L471.085 147.35C476.895 146.86 478.575 145.74 478.575 142.59C478.575 137.27 475.565 133.98 468.495 133.98C462.055 133.98 458.625 136.64 458.205 142.59H454.845C454.845 135.59 459.045 131.18 468.495 131.18C477.945 131.18 482.145 135.59 482.145 142.59V158.76C482.145 163.66 482.565 166.81 483.265 168H480.185C479.065 166.32 478.645 164.85 478.645 160.37C476.755 165.9 472.065 168.7 465.555 168.7ZM466.395 165.97C474.515 165.97 478.575 159.53 478.575 151.76V147.42C477.525 148.82 474.935 149.66 471.085 149.94L465.625 150.43C459.185 150.99 456.455 153.79 456.455 157.64C456.455 162.33 459.395 165.97 466.395 165.97ZM518.315 168H514.745V144.55C514.745 137.62 512.295 134.19 505.435 134.19C498.505 134.19 494.025 139.58 494.025 147.84V168H490.455V131.88H493.955V139.09C495.985 134.19 499.975 131.18 506.275 131.18C514.535 131.18 518.315 135.38 518.315 144.13V168ZM537.895 168.7C529.845 168.7 525.225 164.5 525.225 157.78C525.225 152.53 528.655 148.61 537.265 147.91L543.425 147.35C549.235 146.86 550.915 145.74 550.915 142.59C550.915 137.27 547.905 133.98 540.835 133.98C534.395 133.98 530.965 136.64 530.545 142.59H527.185C527.185 135.59 531.385 131.18 540.835 131.18C550.285 131.18 554.485 135.59 554.485 142.59V158.76C554.485 163.66 554.905 166.81 555.605 168H552.525C551.405 166.32 550.985 164.85 550.985 160.37C549.095 165.9 544.405 168.7 537.895 168.7ZM538.735 165.97C546.855 165.97 550.915 159.53 550.915 151.76V147.42C549.865 148.82 547.275 149.66 543.425 149.94L537.965 150.43C531.525 150.99 528.795 153.79 528.795 157.64C528.795 162.33 531.735 165.97 538.735 165.97ZM576.935 166.6C567.205 166.6 561.395 159.39 561.395 148.89C561.395 138.39 567.205 131.18 576.935 131.18C583.655 131.18 588.415 134.05 590.445 139.79V131.88H593.945V165.9C593.945 177.1 588.065 182.42 578.055 182.42C568.465 182.42 563.355 177.31 563.355 170.17H566.575C567.065 176.26 571.335 179.76 578.195 179.76C585.755 179.76 590.375 175.63 590.375 166.53V158.13C588.275 163.8 583.585 166.6 576.935 166.6ZM577.635 163.8C585.125 163.8 590.375 158.62 590.375 148.89C590.375 139.16 585.125 133.98 577.635 133.98C570.215 133.98 564.965 139.16 564.965 148.89C564.965 158.62 570.215 163.8 577.635 163.8ZM617.437 168.7C606.727 168.7 600.847 161.7 600.847 149.94C600.847 138.81 606.237 131.18 617.017 131.18C627.867 131.18 633.257 139.02 633.257 148.89C633.257 149.17 633.257 149.73 633.187 150.22H604.417C604.627 161.63 609.947 165.97 617.437 165.97C624.087 165.97 628.007 162.47 629.407 157.29H632.487C630.807 164.43 626.047 168.7 617.437 168.7ZM617.017 133.91C609.947 133.91 605.187 138.25 604.417 147.56H629.687C628.917 138.25 624.087 133.91 617.017 133.91ZM685.275 168H681.775V144.48C681.775 137.62 679.885 134.19 674.145 134.19C668.545 134.19 664.415 139.51 664.415 147.77V168H660.845V144.48C660.845 137.62 658.885 134.19 653.355 134.19C647.755 134.19 643.695 139.51 643.695 147.77V168H640.195V131.88H643.695V139.09C645.305 134.19 649.225 131.18 654.265 131.18C659.935 131.18 663.015 133.98 664.065 139.65C665.885 133.91 669.945 131.18 674.985 131.18C682.125 131.18 685.275 135.38 685.275 144.13V168ZM708.782 168.7C698.072 168.7 692.192 161.7 692.192 149.94C692.192 138.81 697.582 131.18 708.362 131.18C719.212 131.18 724.602 139.02 724.602 148.89C724.602 149.17 724.602 149.73 724.532 150.22H695.762C695.972 161.63 701.292 165.97 708.782 165.97C715.432 165.97 719.352 162.47 720.752 157.29H723.832C722.152 164.43 717.392 168.7 708.782 168.7ZM708.362 133.91C701.292 133.91 696.532 138.25 695.762 147.56H721.032C720.262 138.25 715.432 133.91 708.362 133.91ZM759.399 168H755.829V144.55C755.829 137.62 753.379 134.19 746.519 134.19C739.589 134.19 735.109 139.58 735.109 147.84V168H731.539V131.88H735.039V139.09C737.069 134.19 741.059 131.18 747.359 131.18C755.619 131.18 759.399 135.38 759.399 144.13V168ZM778.786 168.28C772.696 168.28 770.246 166.6 770.246 160.72V134.68H763.736V131.88H770.246V120.96H773.816V131.88H783.126V134.68H773.816V160.79C773.816 164.64 775.146 165.55 779.276 165.55L783.126 165.34V168C781.866 168.14 779.906 168.28 778.786 168.28Z" fill="#1A1A1A"/>
</g>
<defs>
<clipPath id="clip0_8214_16116">
<path d="M0 0H847V473.5C847 707.393 657.393 897 423.5 897C189.607 897 0 707.393 0 473.5V0Z" fill="white"/>
</clipPath>
<clipPath id="clip1_8214_16116">
<rect width="566" height="555" fill="white" transform="translate(141 350)"/>
</clipPath>
</defs>
</svg>
