<svg width="2193" height="1044" viewBox="0 0 2193 1044" fill="none" xmlns="http://www.w3.org/2000/svg">
<g clip-path="url(#clip0_8021_11622)">
<rect width="2193" height="1044" fill="#036E03"/>
<path d="M67.429 1120.21C13.4912 1103.93 -5.57662 1061.81 7.07772 1019.87C19.7321 977.927 58.9171 953.377 112.855 969.651C167.871 986.251 186.939 1028.38 174.285 1070.32C161.631 1112.26 122.446 1136.81 67.429 1120.21ZM199.442 897.219L81.8575 861.741L92.2406 827.328C152.268 628.379 329.483 715.874 367.121 591.127C387.239 524.452 347.893 471.515 281.011 451.335C204.419 428.226 149.798 461.024 113.483 546.278L-22.4404 505.268C24.2833 350.409 145.715 287.317 315.08 338.418C481.208 388.542 551.795 509.57 513.508 636.468C460.944 810.683 248.761 733.757 209.825 862.806L199.442 897.219Z" stroke="#6CC56C" stroke-opacity="0.2" stroke-width="6"/>
<path d="M1998.57 98.1853L1996.12 96.4483L1994.38 98.8943L1973.57 128.202C1954.64 154.863 1929.78 166.366 1901.19 170.869C1876.72 174.725 1849.74 173.429 1821.47 172.072C1816.48 171.832 1811.46 171.591 1806.39 171.375C1772.84 169.947 1738.02 169.69 1704.92 179.242C1671.7 188.829 1640.33 208.255 1613.58 245.919C1574.73 300.627 1562.41 362.844 1577.81 424.116C1593.2 485.337 1636.17 545.314 1707.35 595.858C1779.89 647.373 1850.51 668.068 1915.02 658.976C1979.57 649.88 2037.45 611.046 2084.63 544.604L2086.37 542.158L2083.92 540.421L1968.16 458.218L1965.97 456.662L1964.19 458.67C1933.62 493.023 1903.2 513.239 1872.67 519.345C1842.25 525.429 1811.22 517.6 1779.11 494.801C1751.07 474.888 1732.24 449.647 1725.27 422.648C1718.32 395.725 1723.08 366.752 1742.77 339.035C1761.1 313.217 1783.25 302.372 1808.22 297.97C1827.57 294.56 1848.43 295.025 1870.65 295.519C1877.44 295.671 1884.35 295.825 1891.39 295.872C1921.25 296.071 1952.86 294.3 1984.64 281.666C2016.48 269.011 2048.23 245.557 2078.6 202.787L2099.42 173.48L2101.15 171.034L2098.71 169.297L1998.57 98.1853ZM2220.7 47.4431C2233.8 29.0079 2239.24 7.76385 2235.34 -13.1773C2231.44 -34.1222 2218.26 -54.4102 2194.78 -71.0845C2170.85 -88.0759 2147.13 -94.001 2125.95 -90.8663C2104.77 -87.7315 2086.5 -75.589 2073.41 -57.1527C2060.32 -38.7163 2054.88 -17.4666 2058.9 3.56338C2062.92 24.593 2076.33 45.0359 2100.25 62.0274C2123.73 78.7017 2147.23 84.4562 2168.29 81.2362C2189.35 78.0167 2207.61 65.8784 2220.7 47.4431Z" stroke="#6CC56C" stroke-opacity="0.2" stroke-width="6"/>
</g>
<defs>
<clipPath id="clip0_8021_11622">
<rect width="2193" height="1044" fill="white"/>
</clipPath>
</defs>
</svg>
