<svg width="32" height="30" viewBox="0 0 32 30" fill="none" xmlns="http://www.w3.org/2000/svg">
<path fill-rule="evenodd" clip-rule="evenodd" d="M31.5203 15.0314C31.5203 6.98673 24.5563 0.463867 15.9677 0.463867C7.37901 0.463867 0.415039 6.98673 0.415039 15.0314C0.415039 22.3021 6.10147 28.3288 13.5376 29.4226L13.5376 19.2436L9.58762 19.2436L9.58762 15.0314L13.5376 15.0314L13.5376 11.822C13.5376 8.17164 15.86 6.15365 19.4122 6.15365C21.1139 6.15365 22.8941 6.43849 22.8941 6.43849L22.8941 10.0238L20.932 10.0238C19.0011 10.0238 18.3971 11.1463 18.3971 12.3L18.3971 15.0314L22.7101 15.0314L22.0214 19.2436L18.3978 19.2436L18.3978 29.4239C25.8339 28.3307 31.5203 22.3041 31.5203 15.0314Z" fill="white"/>
</svg>
