<svg width="86" height="86" viewBox="0 0 86 86" fill="none" xmlns="http://www.w3.org/2000/svg">
<circle cx="42.6007" cy="42.6368" r="42.6007" fill="#036E03"/>
<path d="M32.4228 29.9795C32.2407 29.985 32.0617 30.0248 31.8964 30.0963C31.731 30.1678 31.5826 30.2696 31.46 30.3958C31.3374 30.522 31.2431 30.67 31.1827 30.831C31.1222 30.9919 31.0968 31.1626 31.1081 31.3329C31.2899 34.254 32.1474 41.3813 36.2526 45.8262C41.1686 51.1814 47.5707 53.0266 54.1392 52.7539C54.4913 52.7342 54.8223 52.5901 55.0653 52.3506C55.3084 52.1112 55.4454 51.7942 55.4487 51.4638V46.7853C55.4446 46.3488 55.2841 45.9262 54.9929 45.5854C54.7017 45.2446 54.2967 45.0054 53.843 44.9061L50.5536 44.2245C50.1467 44.1432 49.7232 44.1782 49.3378 44.3249C48.9524 44.4716 48.6229 44.7232 48.3918 45.0472L47.6643 46.0794C47.5975 46.1738 47.4976 46.2435 47.3819 46.2763C47.2662 46.3092 47.1418 46.3033 47.0303 46.2595C45.357 45.5828 38.6898 42.6617 37.9571 37.7349C37.9428 37.6397 37.9588 37.5427 38.0032 37.4561C38.0476 37.3695 38.1183 37.2971 38.2065 37.2481L39.5265 36.4934C39.8885 36.2832 40.1729 35.9739 40.3411 35.6073C40.5093 35.2408 40.5533 34.8346 40.467 34.4438L39.7447 31.3086C39.6391 30.8693 39.3743 30.4779 38.9953 30.2009C38.6163 29.924 38.1466 29.7786 37.6661 29.7896L32.4228 29.9795Z" fill="white" stroke="white" stroke-width="1.3524"/>
</svg>
