<svg width="14" height="14" viewBox="0 0 14 14" fill="none" xmlns="http://www.w3.org/2000/svg">
<g clip-path="url(#clip0_8536_52244)">
<path d="M5.83333 3.50065H13.4167C13.5714 3.50065 13.7197 3.43919 13.8291 3.32979C13.9385 3.2204 14 3.07203 14 2.91732C14 2.76261 13.9385 2.61423 13.8291 2.50484C13.7197 2.39544 13.5714 2.33398 13.4167 2.33398H5.83333C5.67862 2.33398 5.53025 2.39544 5.42085 2.50484C5.31146 2.61423 5.25 2.76261 5.25 2.91732C5.25 3.07203 5.31146 3.2204 5.42085 3.32979C5.53025 3.43919 5.67862 3.50065 5.83333 3.50065Z" fill="#036E03"/>
<path d="M13.4167 6.41602H5.83333C5.67862 6.41602 5.53025 6.47747 5.42085 6.58687C5.31146 6.69627 5.25 6.84464 5.25 6.99935C5.25 7.15406 5.31146 7.30244 5.42085 7.41183C5.53025 7.52123 5.67862 7.58269 5.83333 7.58269H13.4167C13.5714 7.58269 13.7197 7.52123 13.8291 7.41183C13.9385 7.30244 14 7.15406 14 6.99935C14 6.84464 13.9385 6.69627 13.8291 6.58687C13.7197 6.47747 13.5714 6.41602 13.4167 6.41602Z" fill="#036E03"/>
<path d="M13.4167 10.5H5.83333C5.67862 10.5 5.53025 10.5615 5.42085 10.6709C5.31146 10.7803 5.25 10.9286 5.25 11.0833C5.25 11.238 5.31146 11.3864 5.42085 11.4958C5.53025 11.6052 5.67862 11.6667 5.83333 11.6667H13.4167C13.5714 11.6667 13.7197 11.6052 13.8291 11.4958C13.9385 11.3864 14 11.238 14 11.0833C14 10.9286 13.9385 10.7803 13.8291 10.6709C13.7197 10.5615 13.5714 10.5 13.4167 10.5Z" fill="#036E03"/>
<path d="M3.55127 3.49991C3.60898 3.4999 3.6654 3.48277 3.71337 3.45068C3.76134 3.41859 3.79871 3.373 3.82076 3.31966C3.8428 3.26633 3.84853 3.20765 3.83722 3.15106C3.8259 3.09447 3.79805 3.0425 3.75719 3.00175L2.33386 1.579C2.22446 1.46964 2.07612 1.4082 1.92144 1.4082C1.76676 1.4082 1.61841 1.46964 1.50902 1.579L0.086272 3.00175C0.0454116 3.0425 0.0175611 3.09447 0.00624533 3.15106C-0.00507045 3.20765 0.000657215 3.26633 0.0227034 3.31966C0.0447496 3.373 0.0821232 3.41859 0.130094 3.45068C0.178065 3.48277 0.234476 3.4999 0.292189 3.49991H1.33869V10.4999H0.292189C0.234427 10.4998 0.177935 10.5169 0.129874 10.5489C0.0818139 10.5809 0.0443497 10.6265 0.0222311 10.6799C0.000112568 10.7333 -0.00566424 10.792 0.00563305 10.8486C0.0169303 10.9053 0.044793 10.9573 0.0856886 10.9981L1.50902 12.4208C1.61841 12.5302 1.76676 12.5916 1.92144 12.5916C2.07612 12.5916 2.22446 12.5302 2.33386 12.4208L3.75719 10.9981C3.79805 10.9573 3.8259 10.9054 3.83722 10.8488C3.84853 10.7922 3.8428 10.7335 3.82076 10.6802C3.79871 10.6268 3.76134 10.5812 3.71337 10.5491C3.6654 10.5171 3.60898 10.4999 3.55127 10.4999H2.50536V3.49991H3.55127Z" fill="#036E03"/>
</g>
<defs>
<clipPath id="clip0_8536_52244">
<rect width="14" height="14" fill="white"/>
</clipPath>
</defs>
</svg>
