<svg width="416" height="66" viewBox="0 0 416 66" fill="none" xmlns="http://www.w3.org/2000/svg">
<rect width="416" height="65.3398" rx="32.6699" fill="#1A1A1A"/>
<circle cx="32.67" cy="32.67" r="23.92" fill="white"/>
<path fill-rule="evenodd" clip-rule="evenodd" d="M42.1779 35.3866C42.1563 35.3073 42.1704 35.1179 42.1901 35.0289C42.2459 34.7771 42.2206 34.7838 42.2283 34.5062C42.2367 34.2024 42.2376 33.8997 42.2376 33.5958V20.7447L36.7526 20.7476L36.7456 34.1812L36.7021 34.1838C36.7053 34.2898 36.7162 34.4362 36.6875 34.5318L36.6563 34.7574C36.6375 35.1068 36.6045 34.9684 36.5964 35.149C36.5949 35.1833 36.5936 35.2594 36.5874 35.2896C36.5644 35.4017 36.5667 35.2539 36.5437 35.4006C36.5392 35.4296 36.5439 35.4425 36.5333 35.4718L36.483 35.639C36.4692 35.7033 36.4027 35.807 36.3905 35.8454C36.3818 35.8734 36.3857 35.8906 36.3794 35.9173C36.3609 35.996 36.3787 35.9309 36.3605 35.9617L36.3098 36.0518C36.308 36.0545 36.3048 36.0579 36.3031 36.0606L36.269 36.1676C36.2425 36.2635 36.2717 36.1691 36.241 36.2199C36.2253 36.2459 36.2127 36.3017 36.1818 36.3368C36.1064 36.4222 36.1476 36.3673 36.1022 36.4597C36.0828 36.4992 36.1051 36.4606 36.0823 36.4898L35.7098 36.9616C35.7077 36.9644 35.7049 36.968 35.7029 36.971L35.6356 37.062C35.6333 37.0642 35.6297 37.0674 35.6275 37.0696L35.5661 37.1348C35.5425 37.1532 35.5733 37.1331 35.5359 37.1534C35.5316 37.1558 35.5177 37.1614 35.5133 37.1638C35.4818 37.1806 35.4971 37.1713 35.4729 37.1893C35.4701 37.1914 35.4666 37.1945 35.464 37.1965L35.4003 37.2557C35.3981 37.258 35.3948 37.2615 35.3925 37.2638L35.2513 37.3928C35.2019 37.4278 35.19 37.4101 35.1353 37.4534C35.1325 37.4556 35.1292 37.4589 35.1266 37.4611C35.1239 37.4634 35.1206 37.4668 35.118 37.4691C35.1153 37.4714 35.112 37.4748 35.1093 37.4771L35.0916 37.4925C35.0619 37.5148 35.0989 37.4923 35.0616 37.5114L34.7824 37.6477C34.7794 37.6493 34.7759 37.6522 34.7729 37.6539L34.4541 37.8013C34.386 37.8351 34.341 37.8298 34.2932 37.8516L34.2544 37.8752C34.2505 37.8768 34.2464 37.8786 34.2422 37.88C34.1231 37.9183 34.1486 37.8813 34.0667 37.9237C34.0228 37.9465 33.8941 37.9513 33.8643 37.9665C33.8063 37.9962 33.7355 37.9804 33.6695 38.0026L33.6317 38.0241C33.6287 38.0255 33.6248 38.0279 33.6215 38.0291C33.5207 38.0668 33.3802 38.0497 33.2725 38.0539C33.1661 38.0581 33.1137 38.0865 32.9983 38.0899C32.9022 38.0926 32.8071 38.0953 32.7063 38.0955C32.557 38.0957 32.4008 38.1024 32.2522 38.0876C32.1377 38.0762 32.2336 38.0748 32.1375 38.0577C32.0289 38.0383 31.8691 38.0763 31.7621 38.0264C31.7591 38.025 31.7556 38.0221 31.7526 38.0205C31.7499 38.0191 31.7465 38.016 31.7437 38.0146C31.741 38.0132 31.7375 38.0103 31.7347 38.0091C31.7319 38.0078 31.728 38.0055 31.7249 38.0044C31.6861 37.9908 31.6298 37.9968 31.5874 37.9946C31.4804 37.9889 31.4963 37.952 31.3284 37.942C31.2064 37.9348 31.2057 37.891 31.0703 37.8853C31.0202 37.8202 31.092 37.8535 30.9735 37.8349C30.9073 37.8245 30.8511 37.7915 30.7885 37.7585L30.4546 37.5958C30.4514 37.5941 30.4474 37.5917 30.4441 37.5901C30.3952 37.5675 30.3818 37.5716 30.3438 37.5347L30.3187 37.5103C30.3161 37.5081 30.3126 37.5049 30.3099 37.5028C30.2705 37.4725 30.2172 37.465 30.1838 37.4354C30.1812 37.4331 30.1781 37.4296 30.1756 37.4273L30.0691 37.3292C29.9441 37.2643 29.9901 37.2859 29.8776 37.1867L29.7641 37.0733C29.7621 37.0712 29.7588 37.0678 29.7567 37.0657L29.2572 36.433C29.233 36.4066 29.2469 36.4282 29.2315 36.3866L29.1794 36.277C29.1722 36.2586 29.1766 36.2615 29.1667 36.2407L29.148 36.2112C29.1023 36.134 29.0937 36.0909 29.0642 36.0081C29.0338 35.9226 29.0585 35.9989 29.0358 35.9616C28.9967 35.8971 29.0117 35.8536 28.9837 35.8055C28.982 35.8027 28.979 35.7992 28.9775 35.7963L28.9516 35.7271C28.8572 35.5249 28.9229 35.5346 28.8765 35.4363C28.875 35.4332 28.8725 35.4295 28.8711 35.4263C28.8696 35.4232 28.8674 35.4193 28.8659 35.416L28.8529 35.3812C28.7653 35.1617 28.8179 35.1916 28.7947 34.9757C28.7853 34.8881 28.7928 34.9474 28.7764 34.9232L28.7453 34.805C28.7446 34.7497 28.7459 34.72 28.7302 34.6705C28.6743 34.4946 28.6952 34.2805 28.6945 34.0978C28.6811 30.4458 28.694 26.7936 28.694 23.1416C28.694 22.337 28.7124 21.5121 28.692 20.71L23.1088 20.7167C23.093 22.1497 23.1081 23.5912 23.1081 25.0251V33.6582C23.1081 33.7617 23.0856 34.3105 23.1248 34.3893C23.2038 34.5485 23.112 34.9637 23.188 35.191C23.2276 35.3093 23.1744 35.4854 23.2342 35.6001C23.2355 35.6027 23.2387 35.606 23.24 35.6086C23.2924 35.7105 23.2387 35.9149 23.2867 36.0053C23.3182 36.0646 23.3065 36.1643 23.3271 36.235L23.3631 36.3256C23.4044 36.514 23.393 36.4025 23.4126 36.4733C23.4333 36.5477 23.4101 36.625 23.4499 36.6952C23.4732 36.7364 23.469 36.7581 23.4751 36.8123L23.5005 36.8951C23.5352 36.969 23.5176 37.0701 23.5544 37.1411C23.5559 37.1438 23.5589 37.1472 23.5604 37.1499L23.5775 37.1792C23.5871 37.2054 23.5843 37.211 23.5883 37.2368L23.6098 37.3082C23.6113 37.3109 23.6145 37.3141 23.6161 37.3168C23.641 37.3604 23.6408 37.4068 23.644 37.4568C23.7053 37.4978 23.6817 37.4631 23.6967 37.5506L23.7932 37.773C23.7996 37.7993 23.7967 37.8205 23.8044 37.8456C23.8212 37.9009 23.8827 37.9693 23.9007 38.0272C23.9026 38.0334 23.9045 38.048 23.9056 38.0541L24.1882 38.6512C24.289 38.8048 24.3043 38.9063 24.4088 39.0303L24.654 39.4209C24.7432 39.5101 24.6971 39.5025 24.757 39.5695L24.8857 39.7466C24.9001 39.7661 24.8876 39.7493 24.9086 39.7696L24.9643 39.8275C24.9718 39.8365 24.9825 39.8502 24.9925 39.8625L25.1549 40.0654C25.2579 40.1611 25.2375 40.1844 25.3117 40.2595C25.3142 40.262 25.3176 40.2652 25.32 40.2678L25.8693 40.8033C25.8716 40.8052 25.8754 40.8081 25.8776 40.8101L25.9475 40.8807C25.9501 40.8831 25.9536 40.8862 25.9562 40.8886C25.9588 40.8911 25.9623 40.8942 25.965 40.8966L26.0333 40.958C26.0598 40.9806 26.1769 41.045 26.282 41.1535C26.2843 41.1558 26.2875 41.1593 26.2897 41.1616L26.4601 41.2824C26.5353 41.3254 26.5761 41.3911 26.6607 41.4329C26.7143 41.4594 26.6662 41.4302 26.7118 41.4639L26.754 41.4996C26.7845 41.526 26.761 41.5125 26.799 41.5314L26.9468 41.6252C26.9594 41.6326 26.977 41.6393 26.9888 41.6461L27.0172 41.6655C27.02 41.6673 27.0234 41.6706 27.0263 41.6724L27.0953 41.7013C27.1354 41.7179 27.1119 41.7053 27.1443 41.7319L27.3208 41.841C27.3243 41.8427 27.3288 41.8443 27.3324 41.846C27.3361 41.8477 27.3407 41.849 27.3444 41.8506L27.3981 41.8786C27.4011 41.8805 27.4047 41.8834 27.4075 41.8854L27.779 42.0759C27.7822 42.0776 27.7856 42.0805 27.7887 42.0822C27.7917 42.0839 27.7953 42.0867 27.7984 42.0883C27.8016 42.09 27.8056 42.0924 27.8089 42.094L28.1581 42.242C28.1609 42.2437 28.1644 42.2468 28.1673 42.2485L28.4308 42.3504C28.4339 42.3521 28.4377 42.3547 28.441 42.3563C28.4445 42.358 28.4486 42.36 28.4523 42.3617C28.4561 42.3634 28.4606 42.3648 28.4646 42.3665C28.4695 42.3686 28.4856 42.3733 28.4904 42.3753C28.4943 42.3769 28.4988 42.3783 28.5025 42.38L28.6924 42.4476C28.7404 42.4766 28.7838 42.4702 28.8348 42.4943L29.0714 42.5785C29.2088 42.6109 29.0588 42.6058 29.1774 42.627L29.2884 42.6525C29.343 42.6816 29.3849 42.6711 29.4507 42.6843C29.5826 42.7109 29.4239 42.7084 29.5637 42.7295C29.6234 42.7386 29.6481 42.7308 29.7012 42.7541L29.8209 42.7838C29.9441 42.7951 29.9769 42.825 30.0826 42.8393C30.2357 42.8602 30.0831 42.8589 30.1973 42.8803C30.234 42.8872 30.3175 42.8875 30.3586 42.8893C30.427 42.8924 30.4514 42.9042 30.4864 42.9203C30.5574 42.9527 30.67 42.9393 30.7637 42.9481C30.8037 42.9518 30.8014 42.9518 30.8327 42.9623L31.0372 42.9936C31.3364 43.004 31.2253 43.0246 31.3139 43.0385C31.4746 43.0636 31.6977 43.0147 31.8548 43.0659C31.9662 43.1023 33.0458 43.108 33.1717 43.0834L33.2302 43.0633C33.2997 43.0448 33.3777 43.0495 33.4507 43.048C33.5592 43.0457 33.6679 43.0423 33.7763 43.0403C33.7941 43.0399 33.8405 43.04 33.8555 43.0376C33.9327 43.0256 33.8753 43.032 33.9073 43.0166L33.9683 42.9977C33.9868 42.9955 34.03 42.9954 34.0506 42.9949C34.1678 42.9922 34.1725 42.9897 34.2546 42.9617C34.3578 42.9263 34.5159 42.9532 34.6164 42.9324C34.7343 42.908 34.5901 42.9067 34.7298 42.8915C34.7748 42.8865 34.8481 42.8929 34.8903 42.8817C34.9842 42.8567 34.8528 42.8948 34.9397 42.8562C34.9799 42.8383 35.0412 42.8453 35.0881 42.8373C35.1874 42.8205 35.1092 42.8327 35.1442 42.8152C35.2322 42.7712 35.3482 42.8045 35.4874 42.7465L35.5729 42.7134C35.5758 42.7119 35.5793 42.7089 35.5822 42.7075L35.7734 42.6694C35.8376 42.6416 35.7441 42.662 35.8347 42.6399C35.8523 42.6356 35.8887 42.6334 35.906 42.6314C35.9621 42.625 35.9992 42.6021 36.0241 42.5908C36.0699 42.57 36.1191 42.5796 36.1706 42.568C36.2504 42.55 36.1737 42.5688 36.2209 42.544L36.6111 42.3876C36.6579 42.3649 36.7 42.3759 36.754 42.3635C36.8338 42.3453 36.7592 42.3602 36.8153 42.3319C36.8188 42.3302 36.8229 42.3279 36.8267 42.3263L37.1807 42.1683C37.2736 42.136 37.2119 42.1904 37.2583 42.1135C37.286 42.1114 37.328 42.1101 37.354 42.1029L37.7303 41.919C37.8703 41.8183 37.8748 41.8463 37.9973 41.7705L38.0167 41.7576C38.0416 41.7437 38.0624 41.7384 38.0842 41.7263L38.2215 41.6547C38.2565 41.6234 38.2636 41.6047 38.3118 41.586L38.4017 41.5319C38.4045 41.5295 38.4077 41.5261 38.4105 41.5238C38.4133 41.5214 38.4167 41.5181 38.4196 41.5159L38.4622 41.4909C38.4719 41.4868 38.516 41.4743 38.5563 41.4336L38.5912 41.4012C38.61 41.388 38.5895 41.3984 38.6238 41.3836C38.7256 41.3399 38.7159 41.3245 38.7876 41.2619L38.872 41.2178C38.9117 41.2 38.8882 41.214 38.9203 41.1852L38.9917 41.1134C38.994 41.1112 38.9975 41.1079 39 41.1057L39.1678 40.9873C39.169 40.9864 39.2189 40.9452 39.2192 40.9449C39.2311 40.9346 39.2321 40.9335 39.245 40.9219L39.3589 40.8121C39.3662 40.8058 39.373 40.8015 39.385 40.7918L39.4367 40.7448C39.5028 40.6841 39.4939 40.7278 39.5902 40.6285L39.892 40.3411C39.9325 40.2934 39.9464 40.2476 39.9969 40.2026L40.2079 39.9886C40.21 39.9862 40.2129 39.9824 40.2151 39.9799C40.2173 39.9774 40.2203 39.9737 40.2226 39.9712C40.2258 39.9677 40.2354 39.9575 40.2387 39.9541C40.2395 39.9532 40.2624 39.9316 40.2641 39.9299C40.3164 39.8754 40.3108 39.836 40.3529 39.7956C40.3553 39.7934 40.3589 39.7903 40.3613 39.788L40.4733 39.6447C40.4942 39.6016 40.545 39.5672 40.5769 39.5283L40.5988 39.5022C40.6009 39.4995 40.6039 39.4959 40.606 39.4931C40.6363 39.4499 40.6469 39.4105 40.6836 39.3758C40.737 39.3254 40.7592 39.2606 40.8064 39.2L40.8529 39.1166C40.8847 39.0624 40.8303 39.1398 40.8722 39.0918L40.9681 38.9476C40.9686 38.9468 41.0057 38.909 41.0065 38.9083C41.0717 38.8453 41.0664 38.7988 41.1307 38.6817L41.255 38.4592C41.3155 38.3819 41.3038 38.4104 41.3304 38.3072C41.345 38.2506 41.3923 38.1933 41.4226 38.1361C41.4366 38.1098 41.4388 38.0933 41.4531 38.0671C41.4723 38.0319 41.4548 38.0708 41.4718 38.0387L41.621 37.6818C41.6677 37.5987 41.6319 37.6074 41.6916 37.4996C41.7053 37.4747 41.7023 37.4696 41.7165 37.444C41.7182 37.441 41.7208 37.4372 41.7225 37.4343C41.7242 37.4316 41.7273 37.4281 41.729 37.4254C41.7511 37.39 41.7416 37.3701 41.7627 37.302C41.7823 37.2386 41.7939 37.2662 41.8098 37.1744C41.834 37.0347 41.8334 37.1721 41.8606 37.0408C41.871 36.9909 41.8602 37.0054 41.8829 36.9629C41.9198 36.894 41.907 36.9297 41.9166 36.8283C41.9277 36.7113 41.9607 36.8031 41.9727 36.6099C41.9746 36.5791 41.9751 36.5436 41.9777 36.5137C41.9863 36.4148 42.0267 36.4686 42.0297 36.2947C42.0324 36.1383 42.038 36.2154 42.0684 36.1594C42.0905 36.1189 42.0766 36.0795 42.0931 36.0343L42.1041 36.0145C42.1232 35.978 42.1163 36.0519 42.128 35.951C42.1363 35.8789 42.1192 35.7887 42.144 35.72L42.1545 35.7004C42.1716 35.667 42.1662 35.7352 42.1786 35.6371C42.1887 35.5577 42.1985 35.4606 42.1781 35.3866H42.1779Z" fill="#6CC56C"/>
<path fill-rule="evenodd" clip-rule="evenodd" d="M28.105 47.2723C28.0703 47.7471 28.7983 48.423 29.302 48.4674C29.4032 48.4763 29.5395 48.4704 29.644 48.4704L35.8806 48.4703C36.4184 48.4682 37.3301 47.9691 37.2909 47.3217L37.2899 45.1294H28.1212H28.1035L28.105 47.2722V47.2723Z" fill="#6CC56C"/>
<path d="M77.385 41.9101C73.2304 41.9101 70.949 40.181 70.949 36.819C70.949 36.3147 70.9971 35.7863 71.1171 35.21L72.9903 24.5715H75.6559L73.8308 34.9698C73.7347 35.4741 73.6867 35.9304 73.6867 36.3627C73.6867 38.7401 75.1036 39.7247 77.5531 39.7247C80.5549 39.7247 82.1399 38.476 82.7643 34.9698L84.5894 24.5715H87.255L85.3819 35.21C84.5413 39.9889 82.308 41.9101 77.385 41.9101ZM89.2597 41.6699H86.7141L88.8754 29.2784H91.3009L90.8446 31.8719C91.7812 29.8307 93.03 29.1343 94.6389 29.1343C94.9752 29.1343 95.6956 29.2063 95.9838 29.2784L95.5995 31.5117L94.1827 31.4637C92.2135 31.4637 90.7966 32.8325 90.3163 35.5942L89.2597 41.6699ZM102.401 41.9101C100.311 41.9101 98.9907 40.9735 98.4864 39.1244L98.0541 41.6699H95.6286L98.6304 24.5715H101.176L99.9993 31.1515C100.792 29.9268 102.185 29.0382 104.082 29.0382C107.204 29.0382 108.813 31.1995 108.813 34.1293C108.813 38.476 106.483 41.9101 102.401 41.9101ZM101.992 39.9649C104.658 39.9649 106.267 37.4674 106.267 34.2734C106.267 32.1601 105.234 30.9834 103.433 30.9834C100.744 30.9834 99.1588 33.5049 99.1588 36.6749C99.1588 38.7882 100.191 39.9649 101.992 39.9649ZM113.834 41.9101C111.384 41.9101 109.799 40.6613 109.799 38.548C109.799 36.0745 111.336 34.8738 114.266 34.6336L117.22 34.3695C118.444 34.2734 119.237 33.9372 119.237 32.7365C119.237 31.5597 118.3 30.8633 116.835 30.8633C115.082 30.8633 114.122 31.6078 113.858 33.1207H111.36C111.576 30.5511 113.377 29.0382 117.028 29.0382C119.837 29.0382 121.758 30.2389 121.758 32.5444C121.758 32.8085 121.734 33.1207 121.686 33.3849L120.798 38.5C120.606 39.5326 120.51 40.3251 120.51 40.8774C120.51 41.2377 120.558 41.5018 120.63 41.6699H118.348C118.132 41.3817 118.06 40.9975 118.06 40.6373C118.06 40.3971 118.084 40.109 118.156 39.7968C117.196 41.1656 115.899 41.9101 113.834 41.9101ZM114.626 40.157C116.787 40.157 118.252 38.6441 118.589 36.6028L118.781 35.3541C118.492 35.6903 117.868 35.8584 116.931 35.9544L114.794 36.1225C113.113 36.2666 112.345 37.0111 112.345 38.2839C112.345 39.4366 113.209 40.157 114.626 40.157ZM133.334 41.6699H130.789L132.134 33.9372C132.182 33.649 132.206 33.3608 132.206 33.1207C132.206 31.7999 131.485 31.1035 130.14 31.1035C128.363 31.1035 126.923 32.3762 126.514 34.7057L125.314 41.6699H122.768L124.929 29.2784H127.355L127.019 31.1755C127.955 29.8067 129.372 29.0382 131.005 29.0382C133.406 29.0382 134.871 30.2149 134.871 32.4483C134.871 32.7605 134.823 33.1207 134.775 33.4809L133.334 41.6699ZM149.833 41.9101C145.319 41.9101 142.869 39.1244 142.869 35.0419C142.869 28.9181 146.399 24.3313 152.523 24.3313C156.942 24.3313 159.391 26.8289 159.391 29.6386C159.391 29.8547 159.367 30.0708 159.343 30.287H156.966C156.846 28.1737 155.285 26.5167 152.355 26.5167C147.864 26.5167 145.535 30.359 145.535 34.8498C145.535 37.8756 147.288 39.7247 150.242 39.7247C153.772 39.7247 155.381 37.6595 156.101 34.4175H151.538L151.851 32.5684H159.079L157.494 41.6699H155.501L155.837 38.548C154.684 40.6853 153.075 41.9101 149.833 41.9101ZM162.493 41.6699H159.948L162.109 29.2784H164.534L164.078 31.8719C165.015 29.8307 166.263 29.1343 167.872 29.1343C168.209 29.1343 168.929 29.2063 169.217 29.2784L168.833 31.5117L167.416 31.4637C165.447 31.4637 164.03 32.8325 163.55 35.5942L162.493 41.6699ZM174.326 39.9649C177.04 39.9649 178.721 37.4674 178.721 34.2734C178.721 32.1601 177.616 30.9834 175.767 30.9834C173.03 30.9834 171.373 33.5049 171.373 36.6749C171.373 38.7882 172.477 39.9649 174.326 39.9649ZM174.158 41.9101C170.844 41.9101 168.827 39.9649 168.827 36.819C168.827 32.1601 171.565 29.0382 175.935 29.0382C179.249 29.0382 181.267 30.9834 181.267 34.1293C181.267 38.8122 178.505 41.9101 174.158 41.9101ZM195.227 41.6699H192.561L191.481 32.6404L187.254 41.6699H184.516L182.331 29.2784H184.924L186.437 38.7882L190.808 29.2784H193.113L194.17 38.7882L199.021 29.2784H201.735L195.227 41.6699ZM205.916 41.79C203.731 41.79 202.65 41.2377 202.65 39.5566C202.65 39.2444 202.674 38.8842 202.746 38.5L204.067 31.1035H202.026L202.338 29.2784H204.379L205.028 25.5321H207.573L206.925 29.2784H209.759L209.446 31.1035H206.613L205.292 38.572C205.244 38.7401 205.244 38.9323 205.244 39.0523C205.244 39.7487 205.676 39.9649 206.637 39.9649L207.886 39.9409L207.597 41.6699C207.069 41.718 206.397 41.79 205.916 41.79ZM220.102 41.6699H217.557L218.902 33.9372C218.95 33.649 218.974 33.3608 218.974 33.1207C218.974 31.7999 218.253 31.1035 216.908 31.1035C215.131 31.1035 213.69 32.3762 213.282 34.7057L212.082 41.6699H209.536L212.538 24.5715H215.083L213.931 31.0074C214.795 29.8067 216.14 29.0382 217.773 29.0382C220.174 29.0382 221.639 30.2149 221.639 32.4483C221.639 32.7605 221.591 33.1207 221.543 33.4809L220.102 41.6699ZM241.236 41.6699L240.012 40.229C238.403 41.3337 236.505 41.9101 234.44 41.9101C230.958 41.9101 229.061 40.2771 229.061 37.8276C229.061 35.306 230.214 33.7931 233.576 32.5924C232.783 31.5117 232.399 30.4791 232.399 29.4465C232.399 26.4927 234.536 24.3313 237.754 24.3313C240.564 24.3313 242.173 25.8443 242.173 27.9576C242.173 30.5271 240.3 31.8479 236.746 33.0246L240.348 37.2993C241.164 36.3147 241.837 35.0179 242.341 33.3849H244.646C243.95 35.6182 242.917 37.4433 241.62 38.8362L244.022 41.6699H241.236ZM234.728 39.9649C236.097 39.9649 237.514 39.6047 238.763 38.7401L234.536 33.7691C232.399 34.6096 231.606 35.8103 231.606 37.5154C231.606 39.0043 232.879 39.9649 234.728 39.9649ZM234.824 29.3984C234.824 30.1669 235.113 30.9114 235.785 31.8479C238.499 30.9354 239.747 29.8307 239.747 28.0536C239.747 26.8048 238.907 26.1565 237.634 26.1565C235.905 26.1565 234.824 27.4773 234.824 29.3984ZM267.11 29.0862C267.11 32.9046 264.828 35.258 260.482 35.258H255.535L254.43 41.6699H251.764L254.766 24.5715H261.755C264.996 24.5715 267.11 26.1805 267.11 29.0862ZM264.444 29.2784C264.444 27.4292 263.291 26.5887 261.082 26.5887H257.072L255.895 33.2408H260.41C263.051 33.2408 264.444 31.8479 264.444 29.2784ZM270.481 41.9101C268.032 41.9101 266.447 40.6613 266.447 38.548C266.447 36.0745 267.984 34.8738 270.914 34.6336L273.867 34.3695C275.092 34.2734 275.885 33.9372 275.885 32.7365C275.885 31.5597 274.948 30.8633 273.483 30.8633C271.73 30.8633 270.77 31.6078 270.505 33.1207H268.008C268.224 30.5511 270.025 29.0382 273.675 29.0382C276.485 29.0382 278.406 30.2389 278.406 32.5444C278.406 32.8085 278.382 33.1207 278.334 33.3849L277.446 38.5C277.254 39.5326 277.157 40.3251 277.157 40.8774C277.157 41.2377 277.206 41.5018 277.278 41.6699H274.996C274.78 41.3817 274.708 40.9975 274.708 40.6373C274.708 40.3971 274.732 40.109 274.804 39.7968C273.843 41.1656 272.547 41.9101 270.481 41.9101ZM271.274 40.157C273.435 40.157 274.9 38.6441 275.236 36.6028L275.428 35.3541C275.14 35.6903 274.516 35.8584 273.579 35.9544L271.442 36.1225C269.761 36.2666 268.993 37.0111 268.993 38.2839C268.993 39.4366 269.857 40.157 271.274 40.157ZM281.961 41.6699H279.416L281.577 29.2784H284.003L283.546 31.8719C284.483 29.8307 285.732 29.1343 287.341 29.1343C287.677 29.1343 288.397 29.2063 288.685 29.2784L288.301 31.5117L286.884 31.4637C284.915 31.4637 283.498 32.8325 283.018 35.5942L281.961 41.6699ZM293.109 41.79C290.924 41.79 289.843 41.2377 289.843 39.5566C289.843 39.2444 289.867 38.8842 289.939 38.5L291.26 31.1035H289.219L289.531 29.2784H291.572L292.221 25.5321H294.766L294.118 29.2784H296.952L296.639 31.1035H293.806L292.485 38.572C292.437 38.7401 292.437 38.9323 292.437 39.0523C292.437 39.7487 292.869 39.9649 293.83 39.9649L295.078 39.9409L294.79 41.6699C294.262 41.718 293.59 41.79 293.109 41.79ZM307.295 41.6699H304.75L306.095 33.9372C306.143 33.649 306.167 33.3608 306.167 33.1207C306.167 31.7999 305.446 31.1035 304.101 31.1035C302.324 31.1035 300.883 32.3762 300.475 34.7057L299.274 41.6699H296.729L298.89 29.2784H301.316L300.979 31.1755C301.916 29.8067 303.333 29.0382 304.966 29.0382C307.367 29.0382 308.832 30.2149 308.832 32.4483C308.832 32.7605 308.784 33.1207 308.736 33.4809L307.295 41.6699ZM315.653 41.9101C312.243 41.9101 310.322 39.9169 310.322 36.819C310.322 32.3762 312.892 29.0382 317.286 29.0382C320.841 29.0382 322.474 31.5117 322.474 34.1293C322.474 34.8498 322.353 35.4982 322.233 35.9544H312.868C312.82 36.3147 312.796 36.6268 312.796 36.939C312.796 39.0523 313.924 40.157 315.797 40.157C317.502 40.157 318.775 39.2685 319.424 37.8276H321.753C320.961 40.3251 318.943 41.9101 315.653 41.9101ZM317.142 30.7913C315.221 30.7913 313.684 31.944 313.132 34.2734H320V33.9132C320 31.992 318.943 30.7913 317.142 30.7913ZM325.874 41.6699H323.329L325.49 29.2784H327.916L327.459 31.8719C328.396 29.8307 329.645 29.1343 331.254 29.1343C331.59 29.1343 332.31 29.2063 332.599 29.2784L332.214 31.5117L330.797 31.4637C328.828 31.4637 327.411 32.8325 326.931 35.5942L325.874 41.6699ZM337.288 41.9101C333.974 41.9101 332.317 40.4932 332.317 38.4279C332.317 38.2118 332.341 38.0437 332.365 37.8276H334.718C334.718 39.4366 335.607 40.205 337.504 40.205C339.521 40.205 340.602 39.3645 340.602 38.0437C340.602 37.1552 340.001 36.7229 338.752 36.5308L336.831 36.2426C334.814 35.9544 333.565 35.0659 333.565 33.0967C333.565 30.407 335.847 29.0382 339.065 29.0382C341.562 29.0382 343.675 29.9508 343.675 32.3762C343.675 32.5444 343.651 32.7365 343.627 32.9286H341.274C341.274 31.6078 340.77 30.7433 338.849 30.7433C337.288 30.7433 336.111 31.3436 336.111 32.8565C336.111 33.7691 336.639 34.0813 337.576 34.2254L339.497 34.5136C341.802 34.8498 343.147 35.7863 343.147 37.8756C343.147 40.3251 341.01 41.9101 337.288 41.9101ZM355.078 41.6699H352.532L353.877 33.9372C353.925 33.649 353.949 33.3608 353.949 33.1207C353.949 31.7999 353.229 31.1035 351.884 31.1035C350.107 31.1035 348.666 32.3762 348.258 34.7057L347.057 41.6699H344.511L347.513 24.5715H350.059L348.906 31.0074C349.771 29.8067 351.116 29.0382 352.749 29.0382C355.15 29.0382 356.615 30.2149 356.615 32.4483C356.615 32.7605 356.567 33.1207 356.519 33.4809L355.078 41.6699ZM360.146 41.6699H357.6L359.762 29.2784H362.307L360.146 41.6699ZM361.491 27.117C360.626 27.117 360.122 26.6127 360.122 25.9643C360.122 25.0758 360.722 24.4034 361.851 24.4034C362.716 24.4034 363.22 24.9077 363.22 25.5561C363.22 26.4686 362.595 27.117 361.491 27.117ZM369.441 41.9101C367.424 41.9101 366.127 40.9975 365.623 39.3165L364.374 46.3768H361.828L364.83 29.2784H367.256L366.895 31.3196C367.76 29.9268 369.225 29.0382 371.122 29.0382C374.244 29.0382 375.853 31.1995 375.853 34.1293C375.853 38.476 373.523 41.9101 369.441 41.9101ZM369.033 39.9649C371.698 39.9649 373.307 37.4674 373.307 34.2734C373.307 32.1601 372.275 30.9834 370.474 30.9834C367.784 30.9834 366.199 33.5049 366.199 36.6749C366.199 38.7882 367.232 39.9649 369.033 39.9649Z" fill="white"/>
</svg>
