<svg width="30" height="30" viewBox="0 0 30 30" fill="none" xmlns="http://www.w3.org/2000/svg">
<path d="M27.0621 0.00878906L2.51338 0.00878906C1.17199 0.00878906 0 0.973957 0 2.29959L0 26.9028C0 28.2357 1.17199 29.4234 2.51338 29.4234L27.0549 29.4234C28.4035 29.4234 29.4147 28.2278 29.4147 26.9028L29.4147 2.29959C29.4225 0.973957 28.4035 0.00878906 27.0621 0.00878906ZM9.11789 24.5274L4.90397 24.5274L4.90397 11.4254L9.11789 11.4254L9.11789 24.5274ZM7.15669 9.4333H7.12649C5.77788 9.4333 4.90463 8.42939 4.90463 7.1727C4.90463 5.89303 5.80086 4.91276 7.17967 4.91276C8.55848 4.91276 9.40219 5.88581 9.43239 7.1727C9.43173 8.42939 8.55848 9.4333 7.15669 9.4333ZM24.5186 24.5274L20.3046 24.5274L20.3046 17.3634C20.3046 15.6471 19.6914 14.4745 18.1668 14.4745C17.0021 14.4745 16.3127 15.2624 16.006 16.0299C15.8911 16.3057 15.8603 16.6813 15.8603 17.0647L15.8603 24.5274L11.6464 24.5274L11.6464 11.4254L15.8603 11.4254L15.8603 13.2487C16.4735 12.3754 17.4315 11.1187 19.6605 11.1187C22.4267 11.1187 24.5192 12.942 24.5192 16.873L24.5186 24.5274Z" fill="white"/>
</svg>
