<svg width="330" height="66" viewBox="0 0 330 66" fill="none" xmlns="http://www.w3.org/2000/svg">
<rect width="330" height="65.3398" rx="32.6699" fill="#036E03"/>
<circle cx="32.67" cy="32.67" r="23.92" fill="white"/>
<path fill-rule="evenodd" clip-rule="evenodd" d="M42.1769 35.3866C42.1553 35.3073 42.1694 35.1179 42.1891 35.0289C42.245 34.7771 42.2197 34.7838 42.2273 34.5062C42.2358 34.2024 42.2366 33.8997 42.2366 33.5958V20.7447L36.7516 20.7476L36.7446 34.1812L36.7011 34.1838C36.7043 34.2898 36.7152 34.4362 36.6865 34.5318L36.6553 34.7574C36.6365 35.1068 36.6035 34.9684 36.5954 35.149C36.5939 35.1833 36.5926 35.2594 36.5864 35.2896C36.5634 35.4017 36.5658 35.2539 36.5428 35.4006C36.5383 35.4296 36.543 35.4425 36.5323 35.4718L36.482 35.639C36.4683 35.7033 36.4017 35.807 36.3896 35.8454C36.3808 35.8734 36.3847 35.8906 36.3784 35.9173C36.36 35.996 36.3777 35.9309 36.3595 35.9617L36.3088 36.0518C36.3071 36.0545 36.3039 36.0579 36.3021 36.0606L36.268 36.1676C36.2416 36.2635 36.2707 36.1691 36.24 36.2199C36.2243 36.2459 36.2118 36.3017 36.1808 36.3368C36.1054 36.4222 36.1467 36.3673 36.1013 36.4597C36.0819 36.4992 36.1041 36.4606 36.0813 36.4898L35.7088 36.9616C35.7068 36.9644 35.7039 36.968 35.7019 36.971L35.6346 37.062C35.6323 37.0642 35.6288 37.0674 35.6266 37.0696L35.5652 37.1348C35.5415 37.1532 35.5724 37.1331 35.5349 37.1534C35.5306 37.1558 35.5167 37.1614 35.5123 37.1638C35.4808 37.1806 35.4961 37.1713 35.4719 37.1893C35.4692 37.1914 35.4656 37.1945 35.463 37.1965L35.3994 37.2557C35.3971 37.258 35.3939 37.2615 35.3915 37.2638L35.2504 37.3928C35.201 37.4278 35.1891 37.4101 35.1343 37.4534C35.1315 37.4556 35.1283 37.4589 35.1256 37.4611C35.1229 37.4634 35.1196 37.4668 35.117 37.4691C35.1143 37.4714 35.1111 37.4748 35.1084 37.4771L35.0906 37.4925C35.0609 37.5148 35.098 37.4923 35.0607 37.5114L34.7814 37.6477C34.7784 37.6493 34.7749 37.6522 34.7719 37.6539L34.4531 37.8013C34.385 37.8351 34.34 37.8298 34.2922 37.8516L34.2535 37.8752C34.2495 37.8768 34.2454 37.8786 34.2412 37.88C34.1222 37.9183 34.1476 37.8813 34.0658 37.9237C34.0219 37.9465 33.8931 37.9513 33.8633 37.9665C33.8054 37.9962 33.7346 37.9804 33.6685 38.0026L33.6308 38.0241C33.6277 38.0255 33.6239 38.0279 33.6206 38.0291C33.5198 38.0668 33.3792 38.0497 33.2715 38.0539C33.1651 38.0581 33.1127 38.0865 32.9973 38.0899C32.9013 38.0926 32.8062 38.0953 32.7054 38.0955C32.556 38.0957 32.3998 38.1024 32.2512 38.0876C32.1367 38.0762 32.2327 38.0748 32.1366 38.0577C32.0279 38.0383 31.8682 38.0763 31.7612 38.0264C31.7581 38.025 31.7546 38.0221 31.7516 38.0205C31.7489 38.0191 31.7455 38.016 31.7428 38.0146C31.7401 38.0132 31.7366 38.0103 31.7337 38.0091C31.7309 38.0078 31.727 38.0055 31.7239 38.0044C31.6852 37.9908 31.6288 37.9968 31.5864 37.9946C31.4794 37.9889 31.4953 37.952 31.3274 37.942C31.2055 37.9348 31.2047 37.891 31.0693 37.8853C31.0193 37.8202 31.091 37.8535 30.9725 37.8349C30.9063 37.8245 30.8501 37.7915 30.7875 37.7585L30.4537 37.5958C30.4504 37.5941 30.4465 37.5917 30.4431 37.5901C30.3942 37.5675 30.3808 37.5716 30.3428 37.5347L30.3177 37.5103C30.3151 37.5081 30.3116 37.5049 30.3089 37.5028C30.2695 37.4725 30.2162 37.465 30.1828 37.4354C30.1803 37.4331 30.1771 37.4296 30.1746 37.4273L30.0681 37.3292C29.9432 37.2643 29.9891 37.2859 29.8766 37.1867L29.7631 37.0733C29.7611 37.0712 29.7578 37.0678 29.7558 37.0657L29.2562 36.433C29.232 36.4066 29.2459 36.4282 29.2305 36.3866L29.1784 36.277C29.1712 36.2586 29.1756 36.2615 29.1657 36.2407L29.147 36.2112C29.1013 36.134 29.0927 36.0909 29.0633 36.0081C29.0328 35.9226 29.0575 35.9989 29.0348 35.9616C28.9957 35.8971 29.0107 35.8536 28.9827 35.8055C28.9811 35.8027 28.9781 35.7992 28.9765 35.7963L28.9506 35.7271C28.8562 35.5249 28.922 35.5346 28.8755 35.4363C28.8741 35.4332 28.8716 35.4295 28.8701 35.4263C28.8686 35.4232 28.8664 35.4193 28.8649 35.416L28.8519 35.3812C28.7643 35.1617 28.817 35.1916 28.7937 34.9757C28.7844 34.8881 28.7918 34.9474 28.7755 34.9232L28.7443 34.805C28.7436 34.7497 28.745 34.72 28.7293 34.6705C28.6733 34.4946 28.6943 34.2805 28.6936 34.0978C28.6802 30.4458 28.6931 26.7936 28.6931 23.1416C28.6931 22.337 28.7114 21.5121 28.6911 20.71L23.1078 20.7167C23.092 22.1497 23.1071 23.5912 23.1071 25.0251V33.6582C23.1071 33.7617 23.0846 34.3105 23.1238 34.3893C23.2029 34.5485 23.111 34.9637 23.187 35.191C23.2267 35.3093 23.1734 35.4854 23.2332 35.6001C23.2345 35.6027 23.2377 35.606 23.2391 35.6086C23.2915 35.7105 23.2377 35.9149 23.2858 36.0053C23.3172 36.0646 23.3055 36.1643 23.3261 36.235L23.3621 36.3256C23.4034 36.514 23.392 36.4025 23.4117 36.4733C23.4323 36.5477 23.4091 36.625 23.4489 36.6952C23.4722 36.7364 23.468 36.7581 23.4741 36.8123L23.4995 36.8951C23.5342 36.969 23.5166 37.0701 23.5535 37.1411C23.5549 37.1438 23.5579 37.1472 23.5594 37.1499L23.5766 37.1792C23.5861 37.2054 23.5833 37.211 23.5873 37.2368L23.6088 37.3082C23.6103 37.3109 23.6136 37.3141 23.6151 37.3168C23.6401 37.3604 23.6399 37.4068 23.6431 37.4568C23.7044 37.4978 23.6808 37.4631 23.6957 37.5506L23.7923 37.773C23.7986 37.7993 23.7957 37.8205 23.8034 37.8456C23.8202 37.9009 23.8817 37.9693 23.8997 38.0272C23.9016 38.0334 23.9035 38.048 23.9046 38.0541L24.1872 38.6512C24.288 38.8048 24.3033 38.9063 24.4078 39.0303L24.653 39.4209C24.7423 39.5101 24.6961 39.5025 24.756 39.5695L24.8848 39.7466C24.8992 39.7661 24.8866 39.7493 24.9076 39.7696L24.9633 39.8275C24.9708 39.8365 24.9816 39.8502 24.9916 39.8625L25.1539 40.0654C25.2569 40.1611 25.2366 40.1844 25.3107 40.2595C25.3132 40.262 25.3166 40.2652 25.3191 40.2678L25.8683 40.8033C25.8706 40.8052 25.8744 40.8081 25.8766 40.8101L25.9465 40.8807C25.9491 40.8831 25.9526 40.8862 25.9552 40.8886C25.9579 40.8911 25.9614 40.8942 25.964 40.8966L26.0323 40.958C26.0588 40.9806 26.1759 41.045 26.281 41.1535C26.2833 41.1558 26.2865 41.1593 26.2887 41.1616L26.4591 41.2824C26.5344 41.3254 26.5752 41.3911 26.6598 41.4329C26.7133 41.4594 26.6653 41.4302 26.7108 41.4639L26.753 41.4996C26.7835 41.526 26.7601 41.5125 26.798 41.5314L26.9459 41.6252C26.9584 41.6326 26.976 41.6393 26.9878 41.6461L27.0162 41.6655C27.019 41.6673 27.0224 41.6706 27.0253 41.6724L27.0943 41.7013C27.1344 41.7179 27.1109 41.7053 27.1433 41.7319L27.3198 41.841C27.3233 41.8427 27.3278 41.8443 27.3314 41.846C27.3351 41.8477 27.3397 41.849 27.3434 41.8506L27.3971 41.8786C27.4001 41.8805 27.4037 41.8834 27.4065 41.8854L27.7781 42.0759C27.7812 42.0776 27.7846 42.0805 27.7877 42.0822C27.7908 42.0839 27.7943 42.0867 27.7975 42.0883C27.8007 42.09 27.8046 42.0924 27.8079 42.094L28.1571 42.242C28.16 42.2437 28.1635 42.2468 28.1663 42.2485L28.4298 42.3504C28.4329 42.3521 28.4367 42.3547 28.44 42.3563C28.4435 42.358 28.4476 42.36 28.4513 42.3617C28.4552 42.3634 28.4596 42.3648 28.4636 42.3665C28.4685 42.3686 28.4846 42.3733 28.4895 42.3753C28.4933 42.3769 28.4978 42.3783 28.5016 42.38L28.6914 42.4476C28.7394 42.4766 28.7828 42.4702 28.8339 42.4943L29.0704 42.5785C29.2078 42.6109 29.0578 42.6058 29.1765 42.627L29.2874 42.6525C29.3421 42.6816 29.3839 42.6711 29.4497 42.6843C29.5817 42.7109 29.4229 42.7084 29.5628 42.7295C29.6224 42.7386 29.6471 42.7308 29.7002 42.7541L29.8199 42.7838C29.9432 42.7951 29.976 42.825 30.0816 42.8393C30.2347 42.8602 30.0821 42.8589 30.1963 42.8803C30.233 42.8872 30.3166 42.8875 30.3576 42.8893C30.4261 42.8924 30.4505 42.9042 30.4855 42.9203C30.5565 42.9527 30.669 42.9393 30.7627 42.9481C30.8028 42.9518 30.8004 42.9518 30.8318 42.9623L31.0362 42.9936C31.3354 43.004 31.2244 43.0246 31.3129 43.0385C31.4736 43.0636 31.6967 43.0147 31.8538 43.0659C31.9652 43.1023 33.0449 43.108 33.1707 43.0834L33.2293 43.0633C33.2987 43.0448 33.3768 43.0495 33.4498 43.048C33.5583 43.0457 33.6669 43.0423 33.7753 43.0403C33.7932 43.0399 33.8396 43.04 33.8545 43.0376C33.9317 43.0256 33.8744 43.032 33.9063 43.0166L33.9673 42.9977C33.9858 42.9955 34.0291 42.9954 34.0497 42.9949C34.1669 42.9922 34.1715 42.9897 34.2536 42.9617C34.3568 42.9263 34.515 42.9532 34.6155 42.9324C34.7333 42.908 34.5891 42.9067 34.7288 42.8915C34.7739 42.8865 34.8472 42.8929 34.8893 42.8817C34.9832 42.8567 34.8518 42.8948 34.9387 42.8562C34.9789 42.8383 35.0402 42.8453 35.0871 42.8373C35.1864 42.8205 35.1082 42.8327 35.1432 42.8152C35.2312 42.7712 35.3472 42.8045 35.4864 42.7465L35.5719 42.7134C35.5749 42.7119 35.5783 42.7089 35.5812 42.7075L35.7724 42.6694C35.8366 42.6416 35.7431 42.662 35.8337 42.6399C35.8513 42.6356 35.8878 42.6334 35.905 42.6314C35.9611 42.625 35.9982 42.6021 36.0231 42.5908C36.069 42.57 36.1182 42.5796 36.1696 42.568C36.2494 42.55 36.1727 42.5688 36.22 42.544L36.6101 42.3876C36.657 42.3649 36.699 42.3759 36.7531 42.3635C36.8328 42.3453 36.7582 42.3602 36.8144 42.3319C36.8179 42.3302 36.8219 42.3279 36.8257 42.3263L37.1797 42.1683C37.2727 42.136 37.2109 42.1904 37.2573 42.1135C37.2851 42.1114 37.327 42.1101 37.353 42.1029L37.7293 41.919C37.8694 41.8183 37.8738 41.8463 37.9963 41.7705L38.0157 41.7576C38.0406 41.7437 38.0614 41.7384 38.0832 41.7263L38.2205 41.6547C38.2555 41.6234 38.2627 41.6047 38.3108 41.586L38.4007 41.5319C38.4035 41.5295 38.4067 41.5261 38.4095 41.5238C38.4124 41.5214 38.4157 41.5181 38.4186 41.5159L38.4612 41.4909C38.4709 41.4868 38.515 41.4743 38.5554 41.4336L38.5902 41.4012C38.609 41.388 38.5885 41.3984 38.6229 41.3836C38.7246 41.3399 38.7149 41.3245 38.7866 41.2619L38.871 41.2178C38.9107 41.2 38.8872 41.214 38.9193 41.1852L38.9907 41.1134C38.9931 41.1112 38.9966 41.1079 38.999 41.1057L39.1669 40.9873C39.168 40.9864 39.2179 40.9452 39.2183 40.9449C39.2301 40.9346 39.2311 40.9335 39.244 40.9219L39.3579 40.8121C39.3652 40.8058 39.372 40.8015 39.384 40.7918L39.4358 40.7448C39.5018 40.6841 39.4929 40.7278 39.5892 40.6285L39.891 40.3411C39.9315 40.2934 39.9454 40.2476 39.9959 40.2026L40.2069 39.9886C40.209 39.9862 40.212 39.9824 40.2141 39.9799C40.2163 39.9774 40.2194 39.9737 40.2217 39.9712C40.2248 39.9677 40.2344 39.9575 40.2377 39.9541C40.2386 39.9532 40.2614 39.9316 40.2631 39.9299C40.3155 39.8754 40.3098 39.836 40.352 39.7956C40.3543 39.7934 40.3579 39.7903 40.3603 39.788L40.4724 39.6447C40.4933 39.6016 40.544 39.5672 40.5759 39.5283L40.5978 39.5022C40.5999 39.4995 40.603 39.4959 40.605 39.4931C40.6353 39.4499 40.646 39.4105 40.6827 39.3758C40.736 39.3254 40.7582 39.2606 40.8054 39.2L40.8519 39.1166C40.8837 39.0624 40.8293 39.1398 40.8712 39.0918L40.9671 38.9476C40.9676 38.9468 41.0048 38.909 41.0055 38.9083C41.0708 38.8453 41.0654 38.7988 41.1297 38.6817L41.254 38.4592C41.3145 38.3819 41.3028 38.4104 41.3295 38.3072C41.344 38.2506 41.3913 38.1933 41.4216 38.1361C41.4356 38.1098 41.4378 38.0933 41.4521 38.0671C41.4713 38.0319 41.4538 38.0708 41.4708 38.0387L41.62 37.6818C41.6667 37.5987 41.6309 37.6074 41.6906 37.4996C41.7043 37.4747 41.7013 37.4696 41.7155 37.444C41.7172 37.441 41.7198 37.4372 41.7216 37.4343C41.7233 37.4316 41.7263 37.4281 41.728 37.4254C41.7501 37.39 41.7407 37.3701 41.7618 37.302C41.7814 37.2386 41.7929 37.2662 41.8088 37.1744C41.833 37.0347 41.8324 37.1721 41.8596 37.0408C41.87 36.9909 41.8592 37.0054 41.8819 36.9629C41.9188 36.894 41.906 36.9297 41.9156 36.8283C41.9267 36.7113 41.9597 36.8031 41.9717 36.6099C41.9736 36.5791 41.9741 36.5436 41.9768 36.5137C41.9853 36.4148 42.0257 36.4686 42.0287 36.2947C42.0315 36.1383 42.037 36.2154 42.0675 36.1594C42.0895 36.1189 42.0756 36.0795 42.0921 36.0343L42.1032 36.0145C42.1223 35.978 42.1154 36.0519 42.127 35.951C42.1353 35.8789 42.1182 35.7887 42.143 35.72L42.1535 35.7004C42.1707 35.667 42.1652 35.7352 42.1776 35.6371C42.1877 35.5577 42.1975 35.4606 42.1771 35.3866H42.1769Z" fill="#1A1A1A"/>
<path fill-rule="evenodd" clip-rule="evenodd" d="M28.104 47.2718C28.0694 47.7466 28.7974 48.4225 29.301 48.4669C29.4022 48.4758 29.5385 48.47 29.643 48.47L35.8796 48.4698C36.4174 48.4677 37.3291 47.9686 37.2899 47.3212L37.2889 45.1289H28.1203H28.1025L28.104 47.2717V47.2718Z" fill="#1A1A1A"/>
<path d="M77.385 41.9101C73.2304 41.9101 70.949 40.181 70.949 36.819C70.949 36.3147 70.9971 35.7863 71.1171 35.21L72.9903 24.5715H75.6559L73.8308 34.9698C73.7347 35.4741 73.6867 35.9304 73.6867 36.3627C73.6867 38.7401 75.1036 39.7247 77.5531 39.7247C80.5549 39.7247 82.1399 38.476 82.7643 34.9698L84.5894 24.5715H87.255L85.3819 35.21C84.5413 39.9889 82.308 41.9101 77.385 41.9101ZM89.2597 41.6699H86.7141L88.8754 29.2784H91.3009L90.8446 31.8719C91.7812 29.8307 93.03 29.1343 94.6389 29.1343C94.9752 29.1343 95.6956 29.2063 95.9838 29.2784L95.5995 31.5117L94.1827 31.4637C92.2135 31.4637 90.7966 32.8325 90.3163 35.5942L89.2597 41.6699ZM102.401 41.9101C100.311 41.9101 98.9907 40.9735 98.4864 39.1244L98.0541 41.6699H95.6286L98.6304 24.5715H101.176L99.9993 31.1515C100.792 29.9268 102.185 29.0382 104.082 29.0382C107.204 29.0382 108.813 31.1995 108.813 34.1293C108.813 38.476 106.483 41.9101 102.401 41.9101ZM101.992 39.9649C104.658 39.9649 106.267 37.4674 106.267 34.2734C106.267 32.1601 105.234 30.9834 103.433 30.9834C100.744 30.9834 99.1588 33.5049 99.1588 36.6749C99.1588 38.7882 100.191 39.9649 101.992 39.9649ZM113.834 41.9101C111.384 41.9101 109.799 40.6613 109.799 38.548C109.799 36.0745 111.336 34.8738 114.266 34.6336L117.22 34.3695C118.444 34.2734 119.237 33.9372 119.237 32.7365C119.237 31.5597 118.3 30.8633 116.835 30.8633C115.082 30.8633 114.122 31.6078 113.858 33.1207H111.36C111.576 30.5511 113.377 29.0382 117.028 29.0382C119.837 29.0382 121.758 30.2389 121.758 32.5444C121.758 32.8085 121.734 33.1207 121.686 33.3849L120.798 38.5C120.606 39.5326 120.51 40.3251 120.51 40.8774C120.51 41.2377 120.558 41.5018 120.63 41.6699H118.348C118.132 41.3817 118.06 40.9975 118.06 40.6373C118.06 40.3971 118.084 40.109 118.156 39.7968C117.196 41.1656 115.899 41.9101 113.834 41.9101ZM114.626 40.157C116.787 40.157 118.252 38.6441 118.589 36.6028L118.781 35.3541C118.492 35.6903 117.868 35.8584 116.931 35.9544L114.794 36.1225C113.113 36.2666 112.345 37.0111 112.345 38.2839C112.345 39.4366 113.209 40.157 114.626 40.157ZM133.334 41.6699H130.789L132.134 33.9372C132.182 33.649 132.206 33.3608 132.206 33.1207C132.206 31.7999 131.485 31.1035 130.14 31.1035C128.363 31.1035 126.923 32.3762 126.514 34.7057L125.314 41.6699H122.768L124.929 29.2784H127.355L127.019 31.1755C127.955 29.8067 129.372 29.0382 131.005 29.0382C133.406 29.0382 134.871 30.2149 134.871 32.4483C134.871 32.7605 134.823 33.1207 134.775 33.4809L133.334 41.6699ZM150.074 41.9101C145.439 41.9101 142.869 39.1244 142.869 35.0419C142.869 28.9181 146.399 24.3313 152.523 24.3313C156.389 24.3313 159.415 26.4927 159.415 30.0468C159.415 30.2389 159.391 30.4551 159.367 30.6712H156.894C156.894 28.3178 155.237 26.5167 152.355 26.5167C147.864 26.5167 145.535 30.359 145.535 34.8498C145.535 37.8756 147.288 39.7247 150.242 39.7247C153.316 39.7247 155.285 38.0197 156.029 35.4261H158.527C157.974 39.3405 154.877 41.9101 150.074 41.9101ZM165.529 39.9649C168.243 39.9649 169.924 37.4674 169.924 34.2734C169.924 32.1601 168.819 30.9834 166.97 30.9834C164.232 30.9834 162.575 33.5049 162.575 36.6749C162.575 38.7882 163.68 39.9649 165.529 39.9649ZM165.361 41.9101C162.047 41.9101 160.03 39.9649 160.03 36.819C160.03 32.1601 162.767 29.0382 167.138 29.0382C170.452 29.0382 172.469 30.9834 172.469 34.1293C172.469 38.8122 169.708 41.9101 165.361 41.9101ZM175.887 41.6699H173.341L175.503 29.2784H177.928L177.472 31.8719C178.408 29.8307 179.657 29.1343 181.266 29.1343C181.602 29.1343 182.323 29.2063 182.611 29.2784L182.227 31.5117L180.81 31.4637C178.841 31.4637 177.424 32.8325 176.944 35.5942L175.887 41.6699ZM187.552 41.9101C184.142 41.9101 182.221 39.9169 182.221 36.819C182.221 32.3762 184.79 29.0382 189.185 29.0382C192.739 29.0382 194.372 31.5117 194.372 34.1293C194.372 34.8498 194.252 35.4982 194.132 35.9544H184.766C184.718 36.3147 184.694 36.6268 184.694 36.939C184.694 39.0523 185.823 40.157 187.696 40.157C189.401 40.157 190.674 39.2685 191.322 37.8276H193.652C192.859 40.3251 190.842 41.9101 187.552 41.9101ZM189.041 30.7913C187.12 30.7913 185.583 31.944 185.031 34.2734H191.899V33.9132C191.899 31.992 190.842 30.7913 189.041 30.7913ZM212.614 41.6699H201.519L204.521 24.5715H207.187L204.545 39.4846H212.974L212.614 41.6699ZM219.975 39.9649C222.688 39.9649 224.37 37.4674 224.37 34.2734C224.37 32.1601 223.265 30.9834 221.416 30.9834C218.678 30.9834 217.021 33.5049 217.021 36.6749C217.021 38.7882 218.126 39.9649 219.975 39.9649ZM219.807 41.9101C216.493 41.9101 214.475 39.9649 214.475 36.819C214.475 32.1601 217.213 29.0382 221.584 29.0382C224.898 29.0382 226.915 30.9834 226.915 34.1293C226.915 38.8122 224.153 41.9101 219.807 41.9101ZM233.503 41.9101C230.309 41.9101 228.291 39.9649 228.291 36.819C228.291 32.1601 230.909 29.0382 235.28 29.0382C238.642 29.0382 240.347 31.1035 240.347 33.1927C240.347 33.4089 240.323 33.601 240.275 33.8411H237.945C237.945 32.4243 237.081 30.9834 235.112 30.9834C232.374 30.9834 230.837 33.5049 230.837 36.6749C230.837 38.7882 231.942 39.9649 233.671 39.9649C235.52 39.9649 236.913 38.9563 237.489 37.0111H239.818C239.338 39.7968 237.345 41.9101 233.503 41.9101ZM244.89 41.9101C242.44 41.9101 240.855 40.6613 240.855 38.548C240.855 36.0745 242.392 34.8738 245.322 34.6336L248.276 34.3695C249.501 34.2734 250.293 33.9372 250.293 32.7365C250.293 31.5597 249.357 30.8633 247.892 30.8633C246.139 30.8633 245.178 31.6078 244.914 33.1207H242.416C242.632 30.5511 244.434 29.0382 248.084 29.0382C250.894 29.0382 252.815 30.2389 252.815 32.5444C252.815 32.8085 252.791 33.1207 252.743 33.3849L251.854 38.5C251.662 39.5326 251.566 40.3251 251.566 40.8774C251.566 41.2377 251.614 41.5018 251.686 41.6699H249.405C249.188 41.3817 249.116 40.9975 249.116 40.6373C249.116 40.3971 249.14 40.109 249.212 39.7968C248.252 41.1656 246.955 41.9101 244.89 41.9101ZM245.682 40.157C247.844 40.157 249.309 38.6441 249.645 36.6028L249.837 35.3541C249.549 35.6903 248.924 35.8584 247.988 35.9544L245.85 36.1225C244.169 36.2666 243.401 37.0111 243.401 38.2839C243.401 39.4366 244.265 40.157 245.682 40.157ZM258.369 41.79C256.183 41.79 255.103 41.2377 255.103 39.5566C255.103 39.2444 255.127 38.8842 255.199 38.5L256.52 31.1035H254.478L254.79 29.2784H256.832L257.48 25.5321H260.026L259.377 29.2784H262.211L261.899 31.1035H259.065L257.744 38.572C257.696 38.7401 257.696 38.9323 257.696 39.0523C257.696 39.7487 258.128 39.9649 259.089 39.9649L260.338 39.9409L260.05 41.6699C259.521 41.718 258.849 41.79 258.369 41.79ZM264.534 41.6699H261.988L264.15 29.2784H266.695L264.534 41.6699ZM265.879 27.117C265.014 27.117 264.51 26.6127 264.51 25.9643C264.51 25.0758 265.11 24.4034 266.239 24.4034C267.103 24.4034 267.608 24.9077 267.608 25.5561C267.608 26.4686 266.983 27.117 265.879 27.117ZM273.06 39.9649C275.774 39.9649 277.455 37.4674 277.455 34.2734C277.455 32.1601 276.35 30.9834 274.501 30.9834C271.764 30.9834 270.107 33.5049 270.107 36.6749C270.107 38.7882 271.211 39.9649 273.06 39.9649ZM272.892 41.9101C269.578 41.9101 267.561 39.9649 267.561 36.819C267.561 32.1601 270.299 29.0382 274.669 29.0382C277.983 29.0382 280.001 30.9834 280.001 34.1293C280.001 38.8122 277.239 41.9101 272.892 41.9101ZM291.439 41.6699H288.894L290.238 33.9372C290.286 33.649 290.31 33.3608 290.31 33.1207C290.31 31.7999 289.59 31.1035 288.245 31.1035C286.468 31.1035 285.027 32.3762 284.619 34.7057L283.418 41.6699H280.873L283.034 29.2784H285.459L285.123 31.1755C286.06 29.8067 287.477 29.0382 289.11 29.0382C291.511 29.0382 292.976 30.2149 292.976 32.4483C292.976 32.7605 292.928 33.1207 292.88 33.4809L291.439 41.6699ZM299.053 41.9101C295.739 41.9101 294.082 40.4932 294.082 38.4279C294.082 38.2118 294.106 38.0437 294.13 37.8276H296.483C296.483 39.4366 297.372 40.205 299.269 40.205C301.286 40.205 302.367 39.3645 302.367 38.0437C302.367 37.1552 301.766 36.7229 300.518 36.5308L298.596 36.2426C296.579 35.9544 295.33 35.0659 295.33 33.0967C295.33 30.407 297.612 29.0382 300.83 29.0382C303.327 29.0382 305.441 29.9508 305.441 32.3762C305.441 32.5444 305.417 32.7365 305.393 32.9286H303.039C303.039 31.6078 302.535 30.7433 300.614 30.7433C299.053 30.7433 297.876 31.3436 297.876 32.8565C297.876 33.7691 298.404 34.0813 299.341 34.2254L301.262 34.5136C303.567 34.8498 304.912 35.7863 304.912 37.8756C304.912 40.3251 302.775 41.9101 299.053 41.9101Z" fill="white"/>
</svg>
