<svg width="86" height="86" viewBox="0 0 86 86" fill="none" xmlns="http://www.w3.org/2000/svg">
<circle cx="42.6007" cy="42.7247" r="42.6007" fill="#036E03"/>
<path d="M32.4228 30.0674C32.2407 30.0729 32.0617 30.1126 31.8964 30.1842C31.731 30.2557 31.5826 30.3575 31.46 30.4837C31.3374 30.6099 31.2431 30.7579 31.1827 30.9189C31.1222 31.0798 31.0968 31.2505 31.1081 31.4208C31.2899 34.3419 32.1474 41.4692 36.2526 45.9141C41.1686 51.2693 47.5707 53.1145 54.1392 52.8418C54.4913 52.8221 54.8223 52.678 55.0653 52.4385C55.3084 52.1991 55.4454 51.8821 55.4487 51.5517V46.8732C55.4446 46.4366 55.2841 46.0141 54.9929 45.6733C54.7017 45.3325 54.2967 45.0933 53.843 44.994L50.5536 44.3124C50.1467 44.2311 49.7232 44.2661 49.3378 44.4128C48.9524 44.5595 48.6229 44.8111 48.3918 45.1351L47.6643 46.1672C47.5975 46.2617 47.4976 46.3313 47.3819 46.3642C47.2662 46.3971 47.1418 46.3911 47.0303 46.3474C45.357 45.6707 38.6898 42.7496 37.9571 37.8228C37.9428 37.7276 37.9588 37.6306 38.0032 37.544C38.0476 37.4574 38.1183 37.385 38.2065 37.3359L39.5265 36.5813C39.8885 36.3711 40.1729 36.0618 40.3411 35.6952C40.5093 35.3286 40.5533 34.9225 40.467 34.5317L39.7447 31.3965C39.6391 30.9572 39.3743 30.5658 38.9953 30.2888C38.6163 30.0119 38.1466 29.8665 37.6661 29.8775L32.4228 30.0674Z" fill="white" stroke="white" stroke-width="1.3524"/>
</svg>
