<svg width="41" height="41" viewBox="0 0 41 41" fill="none" xmlns="http://www.w3.org/2000/svg">
<g clip-path="url(#clip0_8211_15899)">
<path d="M36.2104 22.0533C38.7755 19.5802 40.271 16.2016 40.377 12.64C40.377 3.21667 35.7654 2.2 33.7837 2.2C28.837 2.2 23.9771 7.03333 20.3821 11.4017C16.8137 7.07 11.9387 2.2 6.97874 2.2C0.0637491 1.76667 -2.46625 15.6517 4.55374 22.055C4.84708 22.345 5.15208 22.6167 5.46041 22.8717C3.99277 24.2785 2.94688 26.0671 2.44043 28.0361C1.93399 30.005 1.98708 32.0762 2.59375 34.0167C2.874 34.9715 3.36344 35.852 4.02651 36.5941C4.68958 37.3361 5.50963 37.9212 6.42707 38.3067C7.31694 38.6874 8.28036 38.8653 9.24751 38.8275C10.2146 38.7898 11.1613 38.5373 12.0187 38.0883C14.4849 36.8094 16.7414 35.1615 18.7104 33.2017V37.1667C18.7104 37.6087 18.886 38.0326 19.1985 38.3452C19.5111 38.6577 19.935 38.8333 20.3771 38.8333C20.8191 38.8333 21.243 38.6577 21.5556 38.3452C21.8681 38.0326 22.0437 37.6087 22.0437 37.1667V33.2017C24.0138 35.1619 26.2721 36.8093 28.7404 38.0867C29.5976 38.5362 30.5442 38.7892 31.5114 38.8272C32.4786 38.8653 33.4421 38.6875 34.332 38.3067C35.2492 37.9212 36.0691 37.3364 36.7322 36.5947C37.3952 35.8529 37.8848 34.9728 38.1654 34.0183C38.7925 32.0754 38.8638 29.9959 38.371 28.0146C37.8783 26.0334 36.8412 24.2294 35.377 22.8067C35.662 22.57 35.9404 22.32 36.2104 22.0533ZM18.7104 26.56C18.7104 29.0233 15.2437 32.63 10.4654 35.1367C10.0451 35.3594 9.57977 35.4841 9.10437 35.5014C8.62898 35.5188 8.15583 35.4282 7.72041 35.2367C7.25796 35.0416 6.8448 34.7459 6.51095 34.3711C6.1771 33.9963 5.93096 33.5518 5.79041 33.07C5.31154 31.5717 5.30513 29.9624 5.77203 28.4603C6.23892 26.9582 7.15654 25.6361 8.40041 24.6733C9.66198 25.2084 11.0167 25.4894 12.3871 25.5C14.5521 25.5297 16.7014 25.1292 18.7104 24.3217V26.56ZM18.7104 20.475C16.8246 21.7073 14.5925 22.3003 12.3437 22.1667C11.3145 22.1436 10.3006 21.9115 9.36374 21.4846C8.42688 21.0577 7.58654 20.4449 6.89374 19.6833C4.97287 17.83 3.83895 15.3085 3.72708 12.6417C3.72708 8.125 4.91541 5.535 6.98541 5.535C9.95374 5.53333 13.8871 8.59667 18.7104 14.6517V20.475ZM22.0437 14.6667C26.8437 8.61667 30.797 5.53333 33.7837 5.53333C35.8554 5.53333 37.0437 8.12333 37.0437 12.64C36.9315 15.3068 35.7976 17.8281 33.877 19.6817C32.4785 21.1847 30.5448 22.0773 28.4937 22.1667C26.2177 22.3 23.9584 21.7045 22.0437 20.4667V14.6667ZM34.9637 33.08C34.8234 33.5619 34.5773 34.0065 34.2434 34.3813C33.9096 34.7561 33.4963 35.0518 33.0337 35.2467C32.5981 35.4379 32.1249 35.528 31.6496 35.5104C31.1742 35.4928 30.709 35.3679 30.2887 35.145C25.5104 32.63 22.0437 29.0233 22.0437 26.56V24.3183C24.0556 25.1283 26.2085 25.53 28.377 25.5C29.7677 25.4962 31.1428 25.2069 32.417 24.65C33.6678 25.6124 34.5859 26.9422 35.0426 28.4528C35.4993 29.9635 35.4717 31.5792 34.9637 33.0733V33.08ZM17.0437 3.83333C17.0437 2.94928 17.3949 2.10143 18.02 1.47631C18.6452 0.85119 19.493 0.5 20.3771 0.5C21.2611 0.5 22.109 0.85119 22.7341 1.47631C23.3592 2.10143 23.7104 2.94928 23.7104 3.83333C23.7104 4.71739 23.3592 5.56523 22.7341 6.19036C22.109 6.81548 21.2611 7.16667 20.3771 7.16667C19.493 7.16667 18.6452 6.81548 18.02 6.19036C17.3949 5.56523 17.0437 4.71739 17.0437 3.83333Z" fill="#036E03"/>
</g>
<defs>
<clipPath id="clip0_8211_15899">
<rect width="40" height="40" fill="white" transform="translate(0.378906 0.5)"/>
</clipPath>
</defs>
</svg>
