<svg width="99" height="100" viewBox="0 0 99 100" fill="none" xmlns="http://www.w3.org/2000/svg">
<rect y="0.637207" width="99" height="99" rx="49.5" fill="#6CC56C"/>
<path d="M44.5 61.6372L40.8333 67.1372M55.5 61.6372L59.1667 67.1372M40.8333 54.3039H59.1667M42.6667 54.3039V48.8039M50 54.3039V39.6372M57.3333 54.3039V45.1372M39.3667 61.6372H60.6333C62.6869 61.6372 63.7136 61.6372 64.498 61.2376C65.1879 60.886 65.7488 60.3251 66.1004 59.6352C66.5 58.8508 66.5 57.8241 66.5 55.7705V40.0039C66.5 37.9503 66.5 36.9236 66.1004 36.1392C65.7488 35.4493 65.1879 34.8884 64.498 34.5368C63.7136 34.1372 62.6869 34.1372 60.6333 34.1372H39.3667C37.3131 34.1372 36.2864 34.1372 35.502 34.5368C34.8121 34.8884 34.2512 35.4493 33.8996 36.1392C33.5 36.9236 33.5 37.9503 33.5 40.0039V55.7705C33.5 57.8241 33.5 58.8508 33.8996 59.6352C34.2512 60.3251 34.8121 60.886 35.502 61.2376C36.2864 61.6372 37.3131 61.6372 39.3667 61.6372Z" stroke="white" stroke-width="3" stroke-linecap="round" stroke-linejoin="round"/>
</svg>
