<svg width="98" height="99" viewBox="0 0 98 99" fill="none" xmlns="http://www.w3.org/2000/svg">
<rect y="0.637207" width="98" height="98" rx="49" fill="#6CC56C"/>
<path d="M63.6672 45.9707V40.8374C63.6672 38.7838 63.6672 37.7571 63.312 36.9727C62.9995 36.2828 62.5009 35.7219 61.8876 35.3703C61.1904 34.9707 60.2777 34.9707 58.4524 34.9707H39.5487C37.7233 34.9707 36.8106 34.9707 36.1134 35.3703C35.5002 35.7219 35.0016 36.2828 34.6891 36.9727C34.3339 37.7571 34.3339 38.7838 34.3339 40.8374V45.9707M38.6222 53.304H38.6406M33.4355 64.304C34.1906 62.1679 36.2279 60.6374 38.6226 60.6374C41.0173 60.6374 43.0546 62.1679 43.8096 64.304M48.999 53.304H49.0173M43.8123 64.304C44.5673 62.1679 46.6046 60.6374 48.9993 60.6374C51.3941 60.6374 53.4313 62.1679 54.1864 64.304M59.3755 53.304H59.3938M54.1888 64.304C54.9438 62.1679 56.9811 60.6374 59.3758 60.6374C61.7706 60.6374 63.8078 62.1679 64.5629 64.304M40.4556 53.304C40.4556 54.3166 39.6348 55.1374 38.6222 55.1374C37.6097 55.1374 36.7889 54.3166 36.7889 53.304C36.7889 52.2915 37.6097 51.4707 38.6222 51.4707C39.6348 51.4707 40.4556 52.2915 40.4556 53.304ZM50.8323 53.304C50.8323 54.3166 50.0115 55.1374 48.999 55.1374C47.9864 55.1374 47.1656 54.3166 47.1656 53.304C47.1656 52.2915 47.9864 51.4707 48.999 51.4707C50.0115 51.4707 50.8323 52.2915 50.8323 53.304ZM61.2088 53.304C61.2088 54.3166 60.388 55.1374 59.3755 55.1374C58.3629 55.1374 57.5421 54.3166 57.5421 53.304C57.5421 52.2915 58.3629 51.4707 59.3755 51.4707C60.388 51.4707 61.2088 52.2915 61.2088 53.304Z" stroke="white" stroke-width="3" stroke-linecap="round" stroke-linejoin="round"/>
</svg>
