<svg width="99" height="100" viewBox="0 0 99 100" fill="none" xmlns="http://www.w3.org/2000/svg">
<rect y="0.637207" width="99" height="99" rx="49.5" fill="white"/>
<path d="M45.4173 52.4707V57.9707M45.4173 52.4707H51.834C54.3653 52.4707 56.4173 50.4187 56.4173 47.8874C56.4173 45.3561 54.3653 43.304 51.834 43.304H45.4173V52.4707ZM41.2007 65.304H58.8007C60.8542 65.304 61.8809 65.304 62.6653 64.9044C63.3552 64.5529 63.9161 63.9919 64.2677 63.302C64.6673 62.5177 64.6673 61.4909 64.6673 59.4374V41.8374C64.6673 39.7838 64.6673 38.7571 64.2677 37.9727C63.9161 37.2828 63.3552 36.7219 62.6653 36.3703C61.8809 35.9707 60.8542 35.9707 58.8007 35.9707H41.2007C39.1471 35.9707 38.1204 35.9707 37.336 36.3703C36.6461 36.7219 36.0852 37.2828 35.7336 37.9727C35.334 38.7571 35.334 39.7838 35.334 41.8374V59.4374C35.334 61.4909 35.334 62.5177 35.7336 63.302C36.0852 63.9919 36.6461 64.5529 37.336 64.9044C38.1204 65.304 39.1471 65.304 41.2007 65.304Z" stroke="#6CC56C" stroke-width="3" stroke-linecap="round" stroke-linejoin="round"/>
</svg>
