<svg width="99" height="100" viewBox="0 0 99 100" fill="none" xmlns="http://www.w3.org/2000/svg">
<rect y="0.637207" width="99" height="99" rx="49.5" fill="white"/>
<path fill-rule="evenodd" clip-rule="evenodd" d="M40.4399 33.6372H58.5604C59.5592 33.6372 60.3985 33.6372 61.0853 33.6933C61.8034 33.752 62.4858 33.8794 63.1336 34.2094C64.1215 34.7128 64.9246 35.5159 65.4279 36.5038C65.758 37.1515 65.8854 37.834 65.9441 38.5521C66.0002 39.2389 66.0002 40.0781 66.0002 41.0769V59.1975C66.0002 60.1963 66.0002 61.0355 65.9441 61.7223C65.8854 62.4404 65.758 63.1229 65.4279 63.7707C64.9246 64.7585 64.1215 65.5617 63.1336 66.065C62.4858 66.3951 61.8034 66.5225 61.0853 66.5811C60.3985 66.6372 59.5592 66.6372 58.5604 66.6372H46.6877C45.8592 66.6372 45.1877 65.9656 45.1877 65.1372C45.1877 64.3088 45.8592 63.6372 46.6877 63.6372H58.5002C59.575 63.6372 60.2909 63.636 60.841 63.5911C61.3736 63.5476 61.6173 63.4706 61.7716 63.392C62.195 63.1763 62.5392 62.8321 62.7549 62.4087C62.8336 62.2543 62.9105 62.0106 62.9541 61.4781C62.999 60.928 63.0002 60.2121 63.0002 59.1372V41.1372C63.0002 40.0624 62.999 39.3464 62.9541 38.7964C62.9105 38.2638 62.8336 38.0201 62.7549 37.8657C62.5392 37.4424 62.195 37.0982 61.7716 36.8824C61.6173 36.8038 61.3736 36.7268 60.841 36.6833C60.2909 36.6384 59.575 36.6372 58.5002 36.6372H40.5002C39.4253 36.6372 38.7094 36.6384 38.1593 36.6833C37.6268 36.7268 37.3831 36.8038 37.2287 36.8824C36.8053 37.0982 36.4611 37.4424 36.2454 37.8657C36.1667 38.0201 36.0898 38.2638 36.0463 38.7964C36.0013 39.3464 36.0002 40.0624 36.0002 41.1372V44.5122C36.0002 45.3406 35.3286 46.0122 34.5002 46.0122C33.6717 46.0122 33.0002 45.3406 33.0002 44.5122L33.0002 41.077C33.0001 40.0782 33.0001 39.2389 33.0562 38.5521C33.1149 37.834 33.2423 37.1515 33.5724 36.5038C34.0757 35.5159 34.8789 34.7128 35.8667 34.2094C36.5145 33.8794 37.1969 33.752 37.915 33.6933C38.6018 33.6372 39.4411 33.6372 40.4399 33.6372ZM51.7502 40.7622C51.7502 39.9338 52.4217 39.2622 53.2502 39.2622H58.8752C59.7036 39.2622 60.3752 39.9338 60.3752 40.7622V46.3872C60.3752 47.2156 59.7036 47.8872 58.8752 47.8872C58.0467 47.8872 57.3752 47.2156 57.3752 46.3872V43.9648L48.5854 51.2895C48.1383 51.6621 47.516 51.7425 46.9889 51.4956C46.4618 51.2487 46.1252 50.7192 46.1252 50.1372V47.315L42.8322 49.5103C42.1429 49.9698 41.2116 49.7836 40.7521 49.0943C40.2926 48.405 40.4788 47.4737 41.1681 47.0141L46.7931 43.2641C47.2534 42.9573 47.8452 42.9287 48.3329 43.1897C48.8207 43.4507 49.1252 43.959 49.1252 44.5122V46.9346L54.7321 42.2622H53.2502C52.4217 42.2622 51.7502 41.5906 51.7502 40.7622ZM36.3752 50.5122C37.2036 50.5122 37.8752 51.1838 37.8752 52.0122V53.0998C38.7925 53.1216 39.7548 53.1875 40.4863 53.3689C41.2903 53.5683 41.7805 54.3818 41.581 55.1859C41.3816 55.9899 40.5681 56.4801 39.7641 56.2807C39.0488 56.1032 37.7331 56.0832 36.3852 56.0922C36.2691 56.093 36.1884 56.0924 36.1228 56.0909C36.0892 56.0901 36.0623 56.0891 36.0401 56.0882L36.0008 56.0865C35.9905 56.0861 35.9456 56.0843 35.6685 56.0916C35.0695 56.1108 34.6432 56.2453 34.4096 56.4063C34.3065 56.4773 34.2479 56.5477 34.2101 56.6194C34.1725 56.691 34.1256 56.8214 34.1252 57.0539C34.1248 57.2694 34.174 57.3732 34.2089 57.4276C34.2491 57.4903 34.3302 57.5783 34.5055 57.6725C34.8931 57.8806 35.5436 58.0123 36.3752 58.0123C37.3746 58.0123 38.6089 58.1183 39.6396 58.6487C40.1806 58.927 40.6973 59.3386 41.0723 59.9342C41.4496 60.5336 41.6252 61.2271 41.6252 61.9732C41.6252 63.3468 40.8936 64.3343 39.9287 64.9389C39.3156 65.323 38.5993 65.5649 37.8752 65.7178V67.0122C37.8752 67.8406 37.2036 68.5122 36.3752 68.5122C35.5467 68.5122 34.8752 67.8406 34.8752 67.0122V65.8826C34.2088 65.8667 33.4853 65.819 32.4391 65.6882C31.6171 65.5854 31.034 64.8357 31.1367 64.0137C31.2395 63.1917 31.9892 62.6086 32.8112 62.7113C34.2971 62.8971 34.9747 62.8935 36.0617 62.8877C36.2394 62.8868 36.428 62.8858 36.6328 62.8855C37.4424 62.7833 38.008 62.6021 38.3358 62.3967C38.4905 62.2997 38.5537 62.2213 38.5794 62.1792C38.5993 62.1467 38.6252 62.0925 38.6252 61.9732C38.6252 61.7056 38.5663 61.5846 38.5335 61.5325C38.4983 61.4766 38.4291 61.3996 38.267 61.3162C37.8914 61.123 37.2507 61.0123 36.3752 61.0123C35.3317 61.0123 34.1056 60.863 33.0861 60.3154C31.9622 59.7118 31.1224 58.6239 31.1252 57.0487C31.1276 55.6667 31.7402 54.6022 32.7076 53.9357C33.3744 53.4764 34.1454 53.2474 34.8752 53.15V52.0122C34.8752 51.1838 35.5467 50.5122 36.3752 50.5122ZM46.1252 57.6372C46.1252 56.8088 46.7967 56.1372 47.6252 56.1372H58.8752C59.7036 56.1372 60.3752 56.8088 60.3752 57.6372C60.3752 58.4656 59.7036 59.1372 58.8752 59.1372H47.6252C46.7967 59.1372 46.1252 58.4656 46.1252 57.6372Z" fill="#6CC56C"/>
</svg>
