<svg width="19" height="19" viewBox="0 0 19 19" fill="none" xmlns="http://www.w3.org/2000/svg">
<g clip-path="url(#clip0_8536_52019)">
<path d="M7.125 9.5C8.06446 9.5 8.98283 9.22142 9.76396 8.69948C10.5451 8.17755 11.1539 7.4357 11.5134 6.56775C11.8729 5.6998 11.967 4.74473 11.7837 3.82332C11.6005 2.90191 11.1481 2.05554 10.4838 1.39124C9.81946 0.726945 8.97309 0.274552 8.05168 0.091272C7.13027 -0.0920077 6.1752 0.00205811 5.30725 0.361574C4.4393 0.721091 3.69746 1.32991 3.17552 2.11104C2.65358 2.89218 2.375 3.81054 2.375 4.75C2.37626 6.00939 2.87711 7.21685 3.76763 8.10737C4.65816 8.9979 5.86561 9.49874 7.125 9.5ZM7.125 1.58334C7.75131 1.58334 8.36355 1.76906 8.88431 2.11701C9.40506 2.46497 9.81094 2.95954 10.0506 3.53817C10.2903 4.1168 10.353 4.75351 10.2308 5.36779C10.1086 5.98206 9.80704 6.54631 9.36417 6.98917C8.92131 7.43204 8.35706 7.73364 7.74279 7.85582C7.12851 7.97801 6.4918 7.9153 5.91317 7.67562C5.33454 7.43594 4.83997 7.03006 4.49201 6.50931C4.14406 5.98855 3.95833 5.37631 3.95833 4.75C3.95833 3.91015 4.29196 3.1047 4.88583 2.51083C5.47969 1.91697 6.28515 1.58334 7.125 1.58334Z" fill="#036E03"/>
<path d="M7.125 11.083C5.23604 11.0853 3.42511 11.8367 2.08941 13.1724C0.753712 14.5081 0.00230451 16.319 0 18.208C0 18.418 0.0834075 18.6193 0.231874 18.7678C0.38034 18.9162 0.581704 18.9997 0.791667 18.9997C1.00163 18.9997 1.20299 18.9162 1.35146 18.7678C1.49993 18.6193 1.58333 18.418 1.58333 18.208C1.58333 16.7383 2.16719 15.3287 3.20645 14.2894C4.24571 13.2502 5.65526 12.6663 7.125 12.6663C8.59474 12.6663 10.0043 13.2502 11.0436 14.2894C12.0828 15.3287 12.6667 16.7383 12.6667 18.208C12.6667 18.418 12.7501 18.6193 12.8985 18.7678C13.047 18.9162 13.2484 18.9997 13.4583 18.9997C13.6683 18.9997 13.8697 18.9162 14.0181 18.7678C14.1666 18.6193 14.25 18.418 14.25 18.208C14.2477 16.319 13.4963 14.5081 12.1606 13.1724C10.8249 11.8367 9.01396 11.0853 7.125 11.083Z" fill="#036E03"/>
<path d="M17.4158 6.23438C16.9752 6.25632 16.5612 6.4519 16.2645 6.7783C15.9678 7.10471 15.8124 7.53537 15.8324 7.97604C15.8525 7.53537 15.6971 7.10471 15.4004 6.7783C15.1036 6.4519 14.6897 6.25632 14.2491 6.23438C13.8085 6.25632 13.3946 6.4519 13.0979 6.7783C12.8011 7.10471 12.6458 7.53537 12.6658 7.97604C12.6658 9.34562 14.4518 10.9503 15.3416 11.6644C15.4809 11.7759 15.654 11.8367 15.8324 11.8367C16.0109 11.8367 16.184 11.7759 16.3233 11.6644C17.2131 10.9519 18.9991 9.34562 18.9991 7.97604C19.0191 7.53537 18.8638 7.10471 18.567 6.7783C18.2703 6.4519 17.8563 6.25632 17.4158 6.23438Z" fill="#036E03"/>
</g>
<defs>
<clipPath id="clip0_8536_52019">
<rect width="19" height="19" fill="white"/>
</clipPath>
</defs>
</svg>
