<svg width="391" height="143" viewBox="0 0 391 143" fill="none" xmlns="http://www.w3.org/2000/svg">
<rect x="0.561035" width="389.472" height="143" rx="71.5" fill="#1A1A1A"/>
<circle cx="77.156" cy="71.5002" r="55.1199" fill="white"/>
<path d="M79.6547 73.4003L92.3424 87.0393L62.7805 103.883L62.7805 103.883L62.7728 103.888L62.6856 103.939L62.6852 103.939C61.7479 104.484 60.6537 104.796 59.4824 104.796C56.7632 104.796 54.4521 103.102 53.5703 100.738L79.6547 73.4003Z" fill="white" stroke="#1A1A1A" stroke-width="2.14753"/>
<path d="M94.1283 60.6573L106.695 67.8524L106.731 67.8778L106.783 67.9059C108.744 68.9641 110.06 71.0101 110.06 73.3542C110.06 75.7151 108.727 77.7706 106.745 78.8277L106.731 78.8348L106.718 78.8422L94.2227 85.96L80.6186 72.5285L94.1283 60.6573Z" fill="white" stroke="#1A1A1A" stroke-width="2.14753"/>
<path d="M52.3529 46.1323C52.1888 46.7301 52.1016 47.3558 52.1016 48.0067V98.5827C52.1016 99.2337 52.1862 99.8619 52.3529 100.457L80.6024 72.5665L52.3529 46.1323Z" fill="#1A1A1A"/>
<path d="M62.7468 42.6841L62.7537 42.6882L62.7607 42.6922L92.2402 59.5685L79.8648 71.7845L53.5764 45.8302C54.4687 43.4776 56.7752 41.793 59.4824 41.793C60.6798 41.793 61.792 42.1183 62.7468 42.6841Z" fill="white" stroke="#1A1A1A" stroke-width="2.14753"/>
<path d="M156.904 35.5841C157.784 35.521 158.666 35.6539 159.488 35.9731C160.31 36.2923 161.05 36.7899 161.656 37.43C162.263 38.0701 162.719 38.8368 162.993 39.6747C163.267 40.5126 163.352 41.4009 163.241 42.2755C163.241 46.5778 160.916 49.0508 156.904 49.0508H152.04V35.5841H156.904ZM154.132 47.1463H156.671C157.299 47.1839 157.928 47.0809 158.511 46.8447C159.095 46.6086 159.618 46.2454 160.044 45.7815C160.469 45.3175 160.786 44.7645 160.971 44.1628C161.155 43.5611 161.204 42.9257 161.112 42.303C161.197 41.6827 161.144 41.0513 160.956 40.454C160.769 39.8566 160.451 39.3082 160.027 38.8479C159.602 38.3877 159.081 38.027 158.501 37.7918C157.921 37.5565 157.296 37.4525 156.671 37.4872H154.132V47.1463Z" fill="white"/>
<path d="M165.604 43.9649C165.54 43.297 165.616 42.6232 165.828 41.9866C166.04 41.35 166.382 40.7647 166.834 40.2682C167.285 39.7717 167.835 39.375 168.448 39.1036C169.062 38.8321 169.725 38.6919 170.396 38.6919C171.067 38.6919 171.731 38.8321 172.344 39.1036C172.958 39.375 173.508 39.7717 173.959 40.2682C174.41 40.7647 174.753 41.35 174.965 41.9866C175.177 42.6232 175.253 43.297 175.189 43.9649C175.254 44.6335 175.179 45.3082 174.967 45.9459C174.756 46.5835 174.414 47.1699 173.963 47.6673C173.511 48.1648 172.961 48.5623 172.347 48.8344C171.732 49.1064 171.068 49.2469 170.396 49.2469C169.725 49.2469 169.06 49.1064 168.446 48.8344C167.832 48.5623 167.282 48.1648 166.83 47.6673C166.379 47.1699 166.037 46.5835 165.825 45.9459C165.614 45.3082 165.539 44.6335 165.604 43.9649ZM173.126 43.9649C173.126 41.762 172.136 40.4738 170.4 40.4738C168.656 40.4738 167.676 41.762 167.676 43.9649C167.676 46.1855 168.656 47.4638 170.4 47.4638C172.136 47.4638 173.126 46.1766 173.126 43.9649H173.126Z" fill="white"/>
<path d="M187.93 49.0504H185.85L183.749 41.5656H183.59L181.499 49.0504H179.438L176.637 38.8877H178.671L180.492 46.6425H180.641L182.731 38.8877H184.655L186.744 46.6425H186.903L188.715 38.8877H190.72L187.93 49.0504Z" fill="white"/>
<path d="M193.077 38.8878H195.008V40.5023H195.158C195.412 39.9224 195.841 39.4363 196.384 39.1118C196.928 38.7872 197.559 38.6403 198.19 38.6916C198.685 38.6545 199.181 38.729 199.643 38.9098C200.105 39.0906 200.52 39.3729 200.858 39.7359C201.196 40.0989 201.448 40.5333 201.595 41.0069C201.742 41.4804 201.781 41.981 201.708 42.4715V49.0504H199.702V42.9752C199.702 41.342 198.993 40.5298 197.509 40.5298C197.174 40.5142 196.839 40.5713 196.527 40.6973C196.215 40.8233 195.935 41.0152 195.704 41.2598C195.474 41.5044 195.299 41.796 195.192 42.1145C195.084 42.433 195.047 42.771 195.083 43.1052V49.0506H193.077L193.077 38.8878Z" fill="white"/>
<path d="M204.903 34.9204H206.909V49.0504H204.903V34.9204Z" fill="white"/>
<path d="M209.697 43.9646C209.634 43.2967 209.71 42.6228 209.922 41.9862C210.134 41.3496 210.476 40.7642 210.928 40.2677C211.379 39.7712 211.929 39.3745 212.543 39.1031C213.156 38.8316 213.82 38.6914 214.491 38.6914C215.162 38.6914 215.825 38.8316 216.439 39.1031C217.052 39.3745 217.602 39.7712 218.054 40.2677C218.505 40.7642 218.848 41.3496 219.059 41.9862C219.271 42.6228 219.348 43.2967 219.284 43.9646C219.349 44.6332 219.273 45.308 219.062 45.9456C218.851 46.5832 218.508 47.1696 218.057 47.6671C217.605 48.1645 217.055 48.562 216.441 48.834C215.827 49.106 215.162 49.2466 214.491 49.2466C213.819 49.2466 213.155 49.106 212.54 48.834C211.926 48.562 211.376 48.1645 210.924 47.6671C210.473 47.1696 210.131 46.5832 209.919 45.9456C209.708 45.308 209.632 44.6332 209.697 43.9646ZM217.22 43.9646C217.22 41.7617 216.23 40.4735 214.493 40.4735C212.75 40.4735 211.769 41.7617 211.769 43.9646C211.769 46.1852 212.75 47.4635 214.493 47.4635C216.23 47.4635 217.22 46.1763 217.22 43.9646H217.22Z" fill="white"/>
<path d="M221.396 46.1762C221.396 44.3469 222.759 43.2923 225.176 43.1424L227.929 42.9837V42.1065C227.929 41.0332 227.22 40.4271 225.849 40.4271C224.729 40.4271 223.953 40.8381 223.731 41.5566H221.789C221.994 39.811 223.636 38.6914 225.941 38.6914C228.489 38.6914 229.926 39.9598 229.926 42.1065V49.0503H227.995V47.6221H227.837C227.515 48.1344 227.062 48.552 226.526 48.8324C225.99 49.1127 225.389 49.2457 224.784 49.2177C224.357 49.2621 223.926 49.2166 223.518 49.0841C223.11 48.9516 222.735 48.7351 222.415 48.4486C222.096 48.162 221.841 47.8118 221.665 47.4204C221.49 47.029 221.398 46.6052 221.396 46.1762ZM227.929 45.3079V44.4582L225.447 44.6169C224.048 44.7106 223.413 45.1866 223.413 46.0826C223.413 46.9972 224.207 47.5295 225.298 47.5295C225.617 47.5619 225.94 47.5296 226.247 47.4346C226.554 47.3396 226.839 47.1838 227.084 46.9765C227.33 46.7693 227.531 46.5147 227.676 46.228C227.822 45.9414 227.907 45.6284 227.929 45.3079Z" fill="white"/>
<path d="M232.559 43.9646C232.559 40.7534 234.209 38.7191 236.777 38.7191C237.412 38.6898 238.043 38.8419 238.594 39.1577C239.146 39.4734 239.597 39.9397 239.894 40.502H240.043V34.9204H242.049V49.0504H240.127V47.4447H239.969C239.649 48.0033 239.183 48.4638 238.62 48.7763C238.058 49.0889 237.42 49.2416 236.777 49.2179C234.192 49.218 232.559 47.1836 232.559 43.9646ZM234.63 43.9646C234.63 46.1202 235.647 47.4173 237.346 47.4173C239.036 47.4173 240.081 46.1015 240.081 43.9735C240.081 41.8554 239.025 40.5209 237.346 40.5209C235.657 40.5209 234.63 41.8267 234.63 43.9646Z" fill="white"/>
<path d="M250.35 43.9649C250.286 43.297 250.362 42.6232 250.574 41.9866C250.786 41.35 251.128 40.7647 251.58 40.2682C252.031 39.7717 252.581 39.375 253.194 39.1036C253.808 38.8321 254.472 38.6919 255.142 38.6919C255.813 38.6919 256.477 38.8321 257.09 39.1036C257.704 39.375 258.254 39.7717 258.705 40.2682C259.156 40.7647 259.499 41.35 259.711 41.9866C259.923 42.6232 259.999 43.297 259.935 43.9649C260 44.6335 259.925 45.3082 259.713 45.9459C259.502 46.5835 259.16 47.1699 258.709 47.6673C258.257 48.1648 257.707 48.5623 257.093 48.8344C256.478 49.1064 255.814 49.2469 255.142 49.2469C254.471 49.2469 253.806 49.1064 253.192 48.8344C252.578 48.5623 252.028 48.1648 251.576 47.6673C251.125 47.1699 250.783 46.5835 250.571 45.9459C250.36 45.3082 250.285 44.6335 250.35 43.9649ZM257.872 43.9649C257.872 41.762 256.883 40.4738 255.146 40.4738C253.402 40.4738 252.422 41.762 252.422 43.9649C252.422 46.1855 253.402 47.4638 255.146 47.4638C256.883 47.4638 257.872 46.1766 257.872 43.9649Z" fill="white"/>
<path d="M262.625 38.8878H264.556V40.5023H264.706C264.96 39.9224 265.389 39.4363 265.932 39.1118C266.476 38.7872 267.107 38.6403 267.738 38.6916C268.233 38.6545 268.729 38.729 269.191 38.9098C269.653 39.0906 270.068 39.3729 270.406 39.7359C270.744 40.0989 270.996 40.5333 271.143 41.0069C271.29 41.4804 271.329 41.981 271.256 42.4715V49.0504H269.25V42.9752C269.25 41.342 268.541 40.5298 267.057 40.5298C266.722 40.5142 266.386 40.5713 266.075 40.6973C265.763 40.8233 265.483 41.0152 265.252 41.2598C265.022 41.5044 264.847 41.796 264.739 42.1145C264.632 42.433 264.595 42.771 264.631 43.1052V49.0506H262.625V38.8878Z" fill="white"/>
<path d="M282.592 36.3574V38.9339H284.794V40.6233H282.592V45.849C282.592 46.9136 283.031 47.3797 284.029 47.3797C284.285 47.3789 284.54 47.3635 284.794 47.3334V49.0041C284.434 49.0685 284.069 49.1028 283.703 49.1066C281.472 49.1066 280.584 48.3219 280.584 46.3626V40.6232H278.971V38.9338H280.584V36.3574H282.592Z" fill="white"/>
<path d="M287.529 34.9204H289.517V40.5208H289.676C289.943 39.9356 290.383 39.4467 290.938 39.121C291.492 38.7952 292.134 38.6483 292.775 38.7003C293.267 38.6735 293.758 38.7557 294.215 38.9408C294.671 39.126 295.082 39.4096 295.416 39.7715C295.75 40.1334 296 40.5646 296.149 41.0343C296.297 41.504 296.34 42.0008 296.275 42.489V49.0504H294.267V42.9838C294.267 41.3605 293.511 40.5384 292.094 40.5384C291.749 40.5102 291.402 40.5576 291.078 40.6773C290.753 40.797 290.459 40.9862 290.215 41.2316C289.972 41.4771 289.784 41.7728 289.667 42.0981C289.549 42.4234 289.504 42.7704 289.535 43.1149V49.0504H287.529L287.529 34.9204Z" fill="white"/>
<path d="M307.973 46.3065C307.7 47.2353 307.11 48.0387 306.305 48.5762C305.5 49.1137 304.531 49.351 303.569 49.2466C302.899 49.2643 302.234 49.1361 301.619 48.8708C301.004 48.6055 300.454 48.2096 300.007 47.7105C299.561 47.2115 299.228 46.6211 299.032 45.9806C298.837 45.34 298.783 44.6646 298.874 44.0011C298.785 43.3355 298.84 42.6586 299.035 42.0161C299.23 41.3736 299.561 40.7806 300.006 40.2771C300.45 39.7737 300.997 39.3716 301.611 39.098C302.224 38.8245 302.889 38.6859 303.56 38.6916C306.388 38.6916 308.094 40.6235 308.094 43.8148V44.5146H300.918V44.627C300.886 45 300.933 45.3754 301.055 45.7291C301.177 46.0829 301.372 46.4072 301.627 46.6814C301.882 46.9555 302.191 47.1733 302.535 47.3209C302.879 47.4685 303.25 47.5426 303.624 47.5384C304.104 47.596 304.59 47.5097 305.02 47.2903C305.451 47.0709 305.806 46.7284 306.042 46.3064L307.973 46.3065ZM300.917 43.0313H306.051C306.076 42.6902 306.03 42.3476 305.915 42.0255C305.8 41.7034 305.618 41.4089 305.383 41.161C305.147 40.913 304.862 40.7171 304.547 40.5858C304.231 40.4545 303.891 40.3908 303.549 40.3986C303.202 40.3942 302.858 40.4594 302.537 40.5901C302.215 40.7209 301.923 40.9147 301.678 41.1601C301.433 41.4054 301.239 41.6974 301.109 42.0188C300.978 42.3401 300.913 42.6844 300.918 43.0313H300.917Z" fill="white"/>
<path d="M213.715 80.0218C208.361 80.0218 203.997 84.0942 203.997 89.7031C203.997 95.2778 208.361 99.3843 213.715 99.3843C219.071 99.3843 223.435 95.2778 223.435 89.7031C223.433 84.0942 219.069 80.0218 213.715 80.0218ZM213.715 95.5737C210.781 95.5737 208.252 93.154 208.252 89.7053C208.252 86.2203 210.783 83.8369 213.715 83.8369C216.649 83.8369 219.178 86.2203 219.178 89.7053C219.178 93.1517 216.649 95.5737 213.715 95.5737ZM192.513 80.0218C187.159 80.0218 182.796 84.0942 182.796 89.7031C182.796 95.2778 187.159 99.3843 192.513 99.3843C197.869 99.3843 202.233 95.2778 202.233 89.7031C202.233 84.0942 197.869 80.0218 192.513 80.0218ZM192.513 95.5737C189.579 95.5737 187.05 93.154 187.05 89.7053C187.05 86.2203 189.581 83.8369 192.513 83.8369C195.447 83.8369 197.976 86.2203 197.976 89.7053C197.979 93.1517 195.447 95.5737 192.513 95.5737ZM167.296 82.9947V87.1012H177.125C176.832 89.4117 176.062 91.0984 174.888 92.2708C173.458 93.7003 171.22 95.2778 167.296 95.2778C161.246 95.2778 156.515 90.3996 156.515 84.3491C156.515 78.2986 161.246 73.4205 167.296 73.4205C170.56 73.4205 172.944 74.7043 174.703 76.3547L177.601 73.4569C175.143 71.11 171.881 69.314 167.296 69.314C159.008 69.314 152.04 76.061 152.04 84.3491C152.04 92.6372 159.008 99.3843 167.296 99.3843C171.769 99.3843 175.145 97.916 177.783 95.1662C180.496 92.4529 181.341 88.6377 181.341 85.5579C181.341 84.6063 181.268 83.7254 181.12 82.9924L167.296 82.9947ZM270.432 86.1838C269.626 84.0213 267.168 80.0218 262.144 80.0218C257.156 80.0218 253.011 83.9462 253.011 89.7031C253.011 95.1298 257.12 99.3843 262.62 99.3843C267.056 99.3843 269.624 96.6709 270.689 95.0934L267.388 92.8922C266.289 94.5061 264.784 95.5692 262.62 95.5692C260.457 95.5692 258.916 94.5789 257.926 92.635L270.871 87.281L270.432 86.1838ZM257.229 89.4117C257.12 85.6694 260.127 83.7641 262.292 83.7641C263.979 83.7641 265.408 84.6086 265.886 85.8174L257.229 89.4117ZM246.706 98.7993H250.958V70.3429H246.706V98.7993ZM239.736 82.1866H239.59C238.636 81.0484 236.801 80.0218 234.493 80.0218C229.652 80.0218 225.215 84.2763 225.215 89.7417C225.215 95.1685 229.652 99.3866 234.493 99.3866C236.804 99.3866 238.636 98.3599 239.59 97.1876H239.736V98.5807C239.736 102.284 237.755 104.265 234.566 104.265C231.962 104.265 230.348 102.396 229.688 100.818L225.984 102.359C227.047 104.925 229.87 108.08 234.566 108.08C239.554 108.08 243.772 105.146 243.772 97.9934V80.6114H239.738L239.736 82.1866ZM234.86 95.5737C231.926 95.5737 229.469 93.1153 229.469 89.7417C229.469 86.3295 231.926 83.8369 234.86 83.8369C237.755 83.8369 240.029 86.3295 240.029 89.7417C240.029 93.1153 237.755 95.5737 234.86 95.5737ZM290.359 70.3429H280.181V98.7993H284.427V88.0186H290.357C295.064 88.0186 299.694 84.6109 299.694 79.1819C299.694 73.7528 295.066 70.3429 290.359 70.3429ZM290.468 84.0577H284.427V74.3037H290.468C293.644 74.3037 295.447 76.9328 295.447 79.1819C295.447 81.3853 293.644 84.0577 290.468 84.0577ZM316.719 79.9717C313.644 79.9717 310.459 81.3262 309.141 84.3286L312.911 85.9016C313.716 84.3286 315.219 83.8142 316.792 83.8142C318.988 83.8142 321.221 85.1322 321.258 87.4745V87.7682C320.488 87.3288 318.84 86.671 316.828 86.671C312.765 86.671 308.626 88.9041 308.626 93.0766C308.626 96.8849 311.959 99.3365 315.692 99.3365C318.547 99.3365 320.122 98.0549 321.11 96.5525H321.256V98.7492H325.358V87.8387C325.36 82.7898 321.586 79.9717 316.719 79.9717ZM316.204 95.5669C314.816 95.5669 312.874 94.8703 312.874 93.1494C312.874 90.9528 315.292 90.1105 317.379 90.1105C319.243 90.1105 320.124 90.5134 321.258 91.062C320.928 93.7003 318.658 95.5669 316.204 95.5669ZM340.295 80.5932L335.426 92.9309H335.28L330.227 80.5932H325.651L333.229 97.8364L328.909 107.429H333.338L345.018 80.5932H340.295ZM302.039 98.7993H306.284V70.3429H302.039V98.7993Z" fill="white"/>
</svg>
