<svg width="110" height="110" viewBox="0 0 110 110" fill="none" xmlns="http://www.w3.org/2000/svg">
<path d="M96.25 55C96.25 77.7817 77.7817 96.25 55 96.25C32.2183 96.25 13.75 77.7817 13.75 55C13.75 32.2183 32.2183 13.75 55 13.75M77.9167 55C77.9167 67.6565 67.6565 77.9167 55 77.9167C42.3435 77.9167 32.0833 67.6565 32.0833 55C32.0833 42.3435 42.3435 32.0833 55 32.0833M67.6403 42.8616L85.7856 44.7673L95.6217 30.9967L83.8184 27.0623L79.8839 15.2589L66.1133 25.095L67.6403 42.8616ZM67.6403 42.8616L55.0001 54.9996" stroke="white" stroke-width="5" stroke-linecap="round" stroke-linejoin="round"/>
</svg>
