<svg width="18" height="18" viewBox="0 0 18 18" fill="none" xmlns="http://www.w3.org/2000/svg">
<g clip-path="url(#clip0_8536_52116)">
<path d="M3.75 10.5C4.16421 10.5 4.5 10.1642 4.5 9.75C4.5 9.33579 4.16421 9 3.75 9C3.33579 9 3 9.33579 3 9.75C3 10.1642 3.33579 10.5 3.75 10.5Z" fill="#036E03"/>
<path d="M0.75 7.5C1.16421 7.5 1.5 7.16421 1.5 6.75C1.5 6.33579 1.16421 6 0.75 6C0.335786 6 0 6.33579 0 6.75C0 7.16421 0.335786 7.5 0.75 7.5Z" fill="#036E03"/>
<path d="M3.75 4.5C4.16421 4.5 4.5 4.16421 4.5 3.75C4.5 3.33579 4.16421 3 3.75 3C3.33579 3 3 3.33579 3 3.75C3 4.16421 3.33579 4.5 3.75 4.5Z" fill="#036E03"/>
<path d="M0.75 1.5C1.16421 1.5 1.5 1.16421 1.5 0.75C1.5 0.335786 1.16421 0 0.75 0C0.335786 0 0 0.335786 0 0.75C0 1.16421 0.335786 1.5 0.75 1.5Z" fill="#036E03"/>
<path d="M17.25 10.5C17.6642 10.5 18 10.1642 18 9.75C18 9.33579 17.6642 9 17.25 9C16.8358 9 16.5 9.33579 16.5 9.75C16.5 10.1642 16.8358 10.5 17.25 10.5Z" fill="#036E03"/>
<path d="M14.25 7.5C14.6642 7.5 15 7.16421 15 6.75C15 6.33579 14.6642 6 14.25 6C13.8358 6 13.5 6.33579 13.5 6.75C13.5 7.16421 13.8358 7.5 14.25 7.5Z" fill="#036E03"/>
<path d="M17.25 4.5C17.6642 4.5 18 4.16421 18 3.75C18 3.33579 17.6642 3 17.25 3C16.8358 3 16.5 3.33579 16.5 3.75C16.5 4.16421 16.8358 4.5 17.25 4.5Z" fill="#036E03"/>
<path d="M14.25 1.5C14.6642 1.5 15 1.16421 15 0.75C15 0.335786 14.6642 0 14.25 0C13.8358 0 13.5 0.335786 13.5 0.75C13.5 1.16421 13.8358 1.5 14.25 1.5Z" fill="#036E03"/>
<path d="M10.5 18C10.9142 18 11.25 17.6642 11.25 17.25C11.25 16.8358 10.9142 16.5 10.5 16.5C10.0858 16.5 9.75 16.8358 9.75 17.25C9.75 17.6642 10.0858 18 10.5 18Z" fill="#036E03"/>
<path d="M7.5 15C7.91421 15 8.25 14.6642 8.25 14.25C8.25 13.8358 7.91421 13.5 7.5 13.5C7.08579 13.5 6.75 13.8358 6.75 14.25C6.75 14.6642 7.08579 15 7.5 15Z" fill="#036E03"/>
<path d="M10.5 12C10.9142 12 11.25 11.6642 11.25 11.25C11.25 10.8358 10.9142 10.5 10.5 10.5C10.0858 10.5 9.75 10.8358 9.75 11.25C9.75 11.6642 10.0858 12 10.5 12Z" fill="#036E03"/>
<path d="M7.5 9.00001C7.91421 9.00001 8.25 8.66422 8.25 8.25C8.25 7.83579 7.91421 7.5 7.5 7.5C7.08579 7.5 6.75 7.83579 6.75 8.25C6.75 8.66422 7.08579 9.00001 7.5 9.00001Z" fill="#036E03"/>
<path d="M11.25 2.25C10.8522 2.25 10.4706 2.09196 10.1893 1.81066C9.90803 1.52936 9.74999 1.14782 9.74999 0.75C9.74999 0.551088 9.67098 0.360322 9.53032 0.21967C9.38967 0.0790176 9.19891 0 8.99999 0C8.80108 0 8.61032 0.0790176 8.46967 0.21967C8.32901 0.360322 8.25 0.551088 8.25 0.75C8.25 1.14782 8.09196 1.52936 7.81066 1.81066C7.52935 2.09196 7.14782 2.25 6.75 2.25C6.55109 2.25 6.36032 2.32902 6.21967 2.46967C6.07902 2.61032 6 2.80109 6 3C6 3.19891 6.07902 3.38968 6.21967 3.53033C6.36032 3.67098 6.55109 3.75 6.75 3.75C7.14782 3.75 7.52935 3.90804 7.81066 4.18934C8.09196 4.47064 8.25 4.85218 8.25 5.25C8.25 5.44891 8.32901 5.63968 8.46967 5.78033C8.61032 5.92098 8.80108 6 8.99999 6C9.19891 6 9.38967 5.92098 9.53032 5.78033C9.67098 5.63968 9.74999 5.44891 9.74999 5.25C9.74999 4.85218 9.90803 4.47064 10.1893 4.18934C10.4706 3.90804 10.8522 3.75 11.25 3.75C11.4489 3.75 11.6397 3.67098 11.7803 3.53033C11.921 3.38968 12 3.19891 12 3C12 2.80109 11.921 2.61032 11.7803 2.46967C11.6397 2.32902 11.4489 2.25 11.25 2.25Z" fill="#036E03"/>
<path d="M5.25 14.25C4.85218 14.25 4.47064 14.092 4.18934 13.8107C3.90804 13.5294 3.75 13.1478 3.75 12.75C3.75 12.5511 3.67098 12.3603 3.53033 12.2197C3.38968 12.079 3.19891 12 3 12C2.80109 12 2.61032 12.079 2.46967 12.2197C2.32902 12.3603 2.25 12.5511 2.25 12.75C2.25 13.1478 2.09196 13.5294 1.81066 13.8107C1.52936 14.092 1.14782 14.25 0.75 14.25C0.551088 14.25 0.360322 14.329 0.21967 14.4697C0.0790176 14.6103 0 14.8011 0 15C0 15.1989 0.0790176 15.3897 0.21967 15.5303C0.360322 15.671 0.551088 15.75 0.75 15.75C1.14782 15.75 1.52936 15.908 1.81066 16.1893C2.09196 16.4706 2.25 16.8522 2.25 17.25C2.25 17.4489 2.32902 17.6397 2.46967 17.7803C2.61032 17.921 2.80109 18 3 18C3.19891 18 3.38968 17.921 3.53033 17.7803C3.67098 17.6397 3.75 17.4489 3.75 17.25C3.75 16.8522 3.90804 16.4706 4.18934 16.1893C4.47064 15.908 4.85218 15.75 5.25 15.75C5.44891 15.75 5.63968 15.671 5.78033 15.5303C5.92098 15.3897 6 15.1989 6 15C6 14.8011 5.92098 14.6103 5.78033 14.4697C5.63968 14.329 5.44891 14.25 5.25 14.25Z" fill="#036E03"/>
<path d="M17.25 14.25C16.8522 14.25 16.4706 14.092 16.1893 13.8107C15.908 13.5294 15.75 13.1478 15.75 12.75C15.75 12.5511 15.671 12.3603 15.5303 12.2197C15.3897 12.079 15.1989 12 15 12C14.8011 12 14.6103 12.079 14.4697 12.2197C14.329 12.3603 14.25 12.5511 14.25 12.75C14.25 13.1478 14.092 13.5294 13.8107 13.8107C13.5294 14.092 13.1478 14.25 12.75 14.25C12.5511 14.25 12.3603 14.329 12.2197 14.4697C12.079 14.6103 12 14.8011 12 15C12 15.1989 12.079 15.3897 12.2197 15.5303C12.3603 15.671 12.5511 15.75 12.75 15.75C13.1478 15.75 13.5294 15.908 13.8107 16.1893C14.092 16.4706 14.25 16.8522 14.25 17.25C14.25 17.4489 14.329 17.6397 14.4697 17.7803C14.6103 17.921 14.8011 18 15 18C15.1989 18 15.3897 17.921 15.5303 17.7803C15.671 17.6397 15.75 17.4489 15.75 17.25C15.75 16.8522 15.908 16.4706 16.1893 16.1893C16.4706 15.908 16.8522 15.75 17.25 15.75C17.4489 15.75 17.6397 15.671 17.7803 15.5303C17.921 15.3897 18 15.1989 18 15C18 14.8011 17.921 14.6103 17.7803 14.4697C17.6397 14.329 17.4489 14.25 17.25 14.25Z" fill="#036E03"/>
</g>
<defs>
<clipPath id="clip0_8536_52116">
<rect width="18" height="18" fill="white"/>
</clipPath>
</defs>
</svg>
