<svg width="63" height="62" viewBox="0 0 63 62" fill="none" xmlns="http://www.w3.org/2000/svg">
<circle cx="31.5512" cy="30.9906" r="30.932" fill="white"/>
<path fill-rule="evenodd" clip-rule="evenodd" d="M43.8462 34.5035C43.8183 34.4009 43.8365 34.1559 43.862 34.0409C43.9342 33.7153 43.9015 33.7239 43.9114 33.3649C43.9223 32.9721 43.9234 32.5807 43.9234 32.1876V15.5694L36.8305 15.5731L36.8215 32.9448L36.7652 32.948C36.7693 33.0852 36.7834 33.2745 36.7463 33.3981L36.7059 33.6898C36.6816 34.1416 36.639 33.9627 36.6285 34.1963C36.6266 34.2405 36.6249 34.339 36.6169 34.378C36.5872 34.523 36.5902 34.3319 36.5604 34.5216C36.5546 34.559 36.5607 34.5758 36.5469 34.6137L36.4819 34.8299C36.4641 34.913 36.378 35.0471 36.3623 35.0968C36.351 35.133 36.356 35.1552 36.3479 35.1897C36.324 35.2915 36.347 35.2073 36.3235 35.2471L36.2579 35.3636C36.2556 35.3671 36.2515 35.3716 36.2492 35.375L36.2051 35.5134C36.1709 35.6375 36.2086 35.5153 36.1689 35.5811C36.1487 35.6146 36.1324 35.6868 36.0924 35.7322C35.9949 35.8426 36.0482 35.7716 35.9895 35.8912C35.9644 35.9422 35.9932 35.8923 35.9637 35.9301L35.482 36.5402C35.4794 36.5438 35.4757 36.5485 35.4731 36.5523L35.386 36.67C35.3831 36.6728 35.3785 36.6769 35.3757 36.6798L35.2962 36.7642C35.2657 36.7879 35.3056 36.7619 35.2571 36.7882C35.2516 36.7913 35.2336 36.7985 35.2279 36.8016C35.1872 36.8234 35.2069 36.8114 35.1757 36.8346C35.1721 36.8373 35.1675 36.8413 35.1641 36.8439L35.0819 36.9204C35.0789 36.9234 35.0747 36.928 35.0717 36.9309L34.8892 37.0977C34.8253 37.1431 34.8099 37.1201 34.7391 37.1762C34.7355 37.1789 34.7313 37.1832 34.7278 37.1861C34.7243 37.189 34.7201 37.1934 34.7167 37.1964C34.7132 37.1994 34.709 37.2038 34.7055 37.2068L34.6826 37.2267C34.6442 37.2555 34.6921 37.2264 34.6439 37.2512L34.2828 37.4275C34.2789 37.4295 34.2744 37.4333 34.2705 37.4354L33.8582 37.626C33.7701 37.6698 33.712 37.6629 33.6501 37.691L33.6 37.7216C33.5949 37.7237 33.5897 37.726 33.5842 37.7278C33.4303 37.7773 33.4631 37.7294 33.3573 37.7843C33.3006 37.8137 33.134 37.8199 33.0956 37.8396C33.0206 37.8781 32.929 37.8576 32.8436 37.8863L32.7948 37.9141C32.7908 37.9159 32.7859 37.919 32.7816 37.9206C32.6512 37.9694 32.4695 37.9472 32.3302 37.9527C32.1927 37.9581 32.1248 37.9949 31.9756 37.9992C31.8514 38.0027 31.7284 38.0063 31.5981 38.0064C31.405 38.0067 31.203 38.0154 31.0108 37.9962C30.8628 37.9815 30.9868 37.9797 30.8626 37.9576C30.7221 37.9325 30.5155 37.9816 30.3771 37.9171C30.3732 37.9153 30.3686 37.9115 30.3648 37.9095C30.3613 37.9076 30.3569 37.9036 30.3533 37.9018C30.3498 37.9 30.3453 37.8963 30.3417 37.8947C30.338 37.8931 30.3329 37.8901 30.329 37.8887C30.2788 37.8711 30.206 37.8789 30.1512 37.876C30.0128 37.8686 30.0334 37.821 29.8162 37.808C29.6585 37.7986 29.6575 37.742 29.4824 37.7346C29.4177 37.6504 29.5105 37.6936 29.3573 37.6695C29.2717 37.6561 29.199 37.6134 29.1181 37.5706L28.6863 37.3602C28.6821 37.358 28.677 37.355 28.6727 37.3529C28.6095 37.3237 28.5921 37.3289 28.543 37.2813L28.5105 37.2498C28.5072 37.2469 28.5026 37.2427 28.4992 37.24C28.4482 37.2009 28.3793 37.1912 28.3361 37.1528C28.3328 37.1499 28.3287 37.1453 28.3255 37.1424L28.1878 37.0155C28.0262 36.9317 28.0856 36.9595 27.9401 36.8313L27.7933 36.6846C27.7907 36.6819 27.7865 36.6775 27.7839 36.6748L27.1379 35.8566C27.1065 35.8224 27.1245 35.8504 27.1046 35.7966L27.0372 35.6549C27.0279 35.6311 27.0337 35.6348 27.0208 35.6079L26.9966 35.5698C26.9376 35.47 26.9264 35.4142 26.8884 35.3072C26.849 35.1966 26.8809 35.2953 26.8516 35.247C26.801 35.1636 26.8204 35.1074 26.7842 35.0452C26.7821 35.0415 26.7782 35.037 26.7761 35.0332L26.7427 34.9437C26.6206 34.6823 26.7056 34.6949 26.6456 34.5677C26.6437 34.5637 26.6405 34.5589 26.6386 34.5549C26.6366 34.5508 26.6338 34.5458 26.6319 34.5415L26.615 34.4964C26.5018 34.2126 26.5699 34.2513 26.5398 33.9721C26.5277 33.8588 26.5373 33.9355 26.5162 33.9042L26.4759 33.7514C26.475 33.6798 26.4767 33.6415 26.4564 33.5774C26.384 33.35 26.4112 33.0731 26.4103 32.8368C26.393 28.1143 26.4096 23.3914 26.4096 18.6688C26.4096 17.6284 26.4334 16.5618 26.407 15.5244L19.1871 15.5331C19.1666 17.3862 19.1861 19.2503 19.1861 21.1046V32.2684C19.1861 32.4023 19.1571 33.1119 19.2077 33.2138C19.31 33.4197 19.1912 33.9566 19.2895 34.2505C19.3408 34.4035 19.2719 34.6312 19.3493 34.7795C19.351 34.7829 19.355 34.7872 19.3568 34.7906C19.4246 34.9223 19.3551 35.1866 19.4172 35.3036C19.4578 35.3801 19.4428 35.5092 19.4694 35.6005L19.5159 35.7177C19.5693 35.9613 19.5546 35.8171 19.58 35.9087C19.6067 36.0049 19.5767 36.1049 19.6282 36.1957C19.6583 36.2489 19.6529 36.277 19.6607 36.3471L19.6936 36.4541C19.7384 36.5498 19.7157 36.6805 19.7634 36.7722C19.7652 36.7758 19.7691 36.7802 19.7711 36.7836L19.7933 36.8216C19.8056 36.8554 19.802 36.8627 19.8071 36.896L19.8349 36.9884C19.8369 36.9918 19.8411 36.996 19.8431 36.9995C19.8753 37.0559 19.8751 37.1159 19.8792 37.1805C19.9585 37.2336 19.928 37.1887 19.9473 37.3019L20.0722 37.5895C20.0803 37.6234 20.0766 37.6508 20.0866 37.6833C20.1084 37.7548 20.1879 37.8433 20.2111 37.9182C20.2136 37.9262 20.216 37.9451 20.2175 37.953L20.5829 38.725C20.7132 38.9237 20.733 39.055 20.8682 39.2152L21.1853 39.7205C21.3007 39.8358 21.241 39.8259 21.3185 39.9125L21.4849 40.1416C21.5036 40.1668 21.4874 40.145 21.5145 40.1713L21.5865 40.2462C21.5962 40.2578 21.6101 40.2756 21.6231 40.2914L21.833 40.5538C21.9662 40.6776 21.9399 40.7077 22.0358 40.8048C22.039 40.808 22.0434 40.8123 22.0466 40.8155L22.7568 41.508C22.7598 41.5105 22.7647 41.5143 22.7675 41.5169L22.858 41.6081C22.8613 41.6113 22.8658 41.6153 22.8692 41.6184C22.8726 41.6215 22.8771 41.6255 22.8805 41.6287L22.9689 41.7081C23.0031 41.7373 23.1546 41.8206 23.2905 41.9609C23.2934 41.9639 23.2976 41.9684 23.3005 41.9713L23.5208 42.1276C23.6181 42.1832 23.6709 42.2682 23.7803 42.3223C23.8495 42.3565 23.7874 42.3187 23.8462 42.3623L23.9009 42.4085C23.9403 42.4426 23.91 42.4251 23.959 42.4496L24.1503 42.5709C24.1664 42.5804 24.1892 42.5891 24.2045 42.5979L24.2412 42.623C24.2448 42.6254 24.2492 42.6295 24.253 42.6319L24.3422 42.6693C24.3941 42.6907 24.3637 42.6744 24.4055 42.7089L24.6338 42.8499C24.6384 42.8522 24.6441 42.8542 24.6488 42.8564C24.6536 42.8586 24.6596 42.8603 24.6644 42.8624L24.7338 42.8986C24.7376 42.9011 24.7423 42.9048 24.746 42.9074L25.2264 43.1537C25.2304 43.1559 25.2349 43.1596 25.2389 43.1618C25.2428 43.164 25.2474 43.1676 25.2515 43.1697C25.2556 43.1719 25.2607 43.175 25.265 43.1771L25.7166 43.3685C25.7202 43.3707 25.7248 43.3747 25.7284 43.3769L26.0692 43.5087C26.0732 43.5108 26.0781 43.5142 26.0824 43.5163C26.0869 43.5185 26.0923 43.5211 26.097 43.5232C26.102 43.5255 26.1077 43.5273 26.1129 43.5295C26.1192 43.5322 26.1401 43.5382 26.1463 43.5408C26.1514 43.5429 26.1571 43.5448 26.162 43.5469L26.4074 43.6343C26.4695 43.6718 26.5257 43.6636 26.5917 43.6948L26.8976 43.8037C27.0753 43.8456 26.8813 43.839 27.0347 43.8664L27.1782 43.8993C27.2489 43.937 27.303 43.9234 27.3881 43.9405C27.5587 43.9749 27.3535 43.9716 27.5343 43.999C27.6114 44.0107 27.6433 44.0005 27.7121 44.0307L27.8669 44.0692C28.0262 44.0838 28.0686 44.1224 28.2053 44.141C28.4032 44.1679 28.2058 44.1663 28.3536 44.1939C28.401 44.2028 28.509 44.2032 28.5621 44.2055C28.6506 44.2095 28.6822 44.2248 28.7275 44.2456C28.8193 44.2876 28.9648 44.2702 29.086 44.2815C29.1378 44.2864 29.1348 44.2864 29.1753 44.2999L29.4397 44.3405C29.8266 44.3539 29.683 44.3805 29.7974 44.3984C30.0053 44.431 30.2938 44.3678 30.497 44.434C30.641 44.481 32.0372 44.4884 32.1999 44.4566L32.2756 44.4306C32.3654 44.4066 32.4663 44.4127 32.5607 44.4107C32.701 44.4078 32.8415 44.4035 32.9817 44.4008C33.0048 44.4003 33.0648 44.4004 33.0841 44.3973C33.184 44.3818 33.1098 44.3901 33.1511 44.3701L33.23 44.3457C33.2539 44.3429 33.3099 44.3427 33.3365 44.3421C33.4881 44.3387 33.494 44.3354 33.6002 44.2991C33.7337 44.2534 33.9382 44.2881 34.0681 44.2612C34.2206 44.2298 34.0341 44.2281 34.2148 44.2083C34.273 44.202 34.3678 44.2101 34.4223 44.1957C34.5437 44.1634 34.3738 44.2127 34.4861 44.1628C34.5381 44.1396 34.6175 44.1486 34.6781 44.1384C34.8065 44.1166 34.7054 44.1323 34.7506 44.1097C34.8644 44.0529 35.0144 44.0958 35.1944 44.0208L35.305 43.9781C35.3088 43.9761 35.3132 43.9723 35.317 43.9704L35.5643 43.9212C35.6473 43.8852 35.5263 43.9116 35.6435 43.883C35.6663 43.8774 35.7134 43.8746 35.7358 43.872C35.8082 43.8637 35.8563 43.8342 35.8885 43.8195C35.9477 43.7926 36.0114 43.805 36.0779 43.7901C36.1811 43.7668 36.0819 43.7911 36.143 43.7591L36.6476 43.5568C36.7081 43.5275 36.7624 43.5416 36.8324 43.5257C36.9355 43.5021 36.839 43.5213 36.9117 43.4848C36.9162 43.4825 36.9215 43.4796 36.9263 43.4775L37.3841 43.2731C37.5043 43.2314 37.4245 43.3018 37.4845 43.2024C37.5203 43.1996 37.5746 43.1979 37.6082 43.1886L38.0948 42.9509C38.2759 42.8206 38.2817 42.8567 38.4401 42.7588L38.4651 42.7421C38.4974 42.7242 38.5242 42.7172 38.5525 42.7016L38.73 42.609C38.7753 42.5686 38.7845 42.5444 38.8468 42.5202L38.9631 42.4502C38.9666 42.4471 38.9708 42.4428 38.9745 42.4397C38.9781 42.4366 38.9824 42.4324 38.9862 42.4295L39.0413 42.3972C39.0538 42.3919 39.1108 42.3758 39.163 42.3231L39.2081 42.2812C39.2324 42.2641 39.2059 42.2775 39.2503 42.2585C39.3819 42.2019 39.3693 42.1821 39.4621 42.101L39.5712 42.044C39.6226 42.021 39.5922 42.0391 39.6336 42.0019L39.7259 41.9091C39.729 41.9062 39.7336 41.9019 39.7367 41.8991L39.9538 41.746C39.9553 41.7449 40.0198 41.6916 40.0202 41.6911C40.0355 41.6779 40.0368 41.6764 40.0535 41.6615L40.2009 41.5194C40.2103 41.5113 40.2191 41.5057 40.2345 41.4932L40.3015 41.4324C40.3869 41.3539 40.3754 41.4104 40.4999 41.282L40.8902 40.9104C40.9426 40.8487 40.9605 40.7895 41.0259 40.7313L41.2987 40.4545C41.3014 40.4514 41.3053 40.4465 41.308 40.4433C41.3108 40.44 41.3148 40.4353 41.3178 40.432C41.3218 40.4275 41.3342 40.4143 41.3385 40.4099C41.3397 40.4087 41.3692 40.3808 41.3714 40.3786C41.4391 40.3081 41.4318 40.2571 41.4863 40.205C41.4894 40.2021 41.494 40.1981 41.4971 40.1952L41.642 40.0098C41.669 39.9541 41.7347 39.9095 41.7759 39.8592L41.8042 39.8255C41.8069 39.822 41.8109 39.8174 41.8135 39.8137C41.8527 39.758 41.8665 39.707 41.9139 39.6621C41.9829 39.5969 42.0116 39.5131 42.0727 39.4348L42.1328 39.327C42.1739 39.2567 42.1035 39.3568 42.1578 39.2949L42.2817 39.1083C42.2824 39.1074 42.3305 39.0584 42.3314 39.0576C42.4158 38.9761 42.4089 38.916 42.4921 38.7646L42.6528 38.4767C42.731 38.3769 42.7158 38.4136 42.7503 38.2802C42.7692 38.2071 42.8303 38.1329 42.8695 38.059C42.8876 38.0249 42.8905 38.0036 42.9089 37.9698C42.9338 37.9242 42.9111 37.9746 42.9331 37.933L43.1261 37.4715C43.1865 37.364 43.1402 37.3753 43.2173 37.2359C43.2351 37.2036 43.2312 37.1971 43.2495 37.164C43.2517 37.1601 43.2551 37.1552 43.2574 37.1515C43.2596 37.1479 43.2635 37.1434 43.2657 37.1399C43.2943 37.0942 43.2821 37.0685 43.3094 36.9803C43.3347 36.8983 43.3497 36.9341 43.3702 36.8154C43.4015 36.6346 43.4007 36.8123 43.4359 36.6426C43.4493 36.5781 43.4353 36.5968 43.4647 36.5418C43.5124 36.4527 43.4959 36.4989 43.5083 36.3678C43.5227 36.2164 43.5654 36.3352 43.5808 36.0853C43.5833 36.0455 43.584 35.9997 43.5874 35.961C43.5985 35.8331 43.6507 35.9027 43.6546 35.6778C43.6581 35.4755 43.6653 35.5753 43.7047 35.5028C43.7332 35.4504 43.7152 35.3994 43.7366 35.341L43.7508 35.3154C43.7755 35.2683 43.7666 35.3638 43.7817 35.2334C43.7925 35.1401 43.7704 35.0234 43.8023 34.9346L43.8159 34.9092C43.8381 34.8661 43.8311 34.9542 43.8471 34.8274C43.8601 34.7248 43.8729 34.5992 43.8465 34.5035H43.8462Z" fill="#036E03"/>
<path fill-rule="evenodd" clip-rule="evenodd" d="M25.6484 49.8731C25.6036 50.4871 26.545 51.3612 27.1962 51.4185C27.3272 51.4301 27.5034 51.4225 27.6385 51.4225L35.7034 51.4224C36.3988 51.4196 37.5778 50.7742 37.5271 49.9371L37.5258 47.1021H25.6694H25.6465L25.6484 49.8731V49.8731Z" fill="#036E03"/>
</svg>
