<svg width="330" height="66" viewBox="0 0 330 66" fill="none" xmlns="http://www.w3.org/2000/svg">
<rect width="330" height="65.3398" rx="32.6699" fill="#6CC56C"/>
<circle cx="32.67" cy="32.67" r="23.92" fill="white"/>
<path fill-rule="evenodd" clip-rule="evenodd" d="M42.1779 35.3866C42.1563 35.3073 42.1704 35.1179 42.1901 35.0289C42.2459 34.7771 42.2206 34.7838 42.2283 34.5062C42.2367 34.2024 42.2376 33.8997 42.2376 33.5958V20.7447L36.7526 20.7476L36.7456 34.1812L36.7021 34.1838C36.7053 34.2898 36.7162 34.4362 36.6875 34.5318L36.6563 34.7574C36.6375 35.1068 36.6045 34.9684 36.5964 35.149C36.5949 35.1833 36.5936 35.2594 36.5874 35.2896C36.5644 35.4017 36.5667 35.2539 36.5437 35.4006C36.5392 35.4296 36.5439 35.4425 36.5333 35.4718L36.483 35.639C36.4692 35.7033 36.4027 35.807 36.3905 35.8454C36.3818 35.8734 36.3857 35.8906 36.3794 35.9173C36.3609 35.996 36.3787 35.9309 36.3605 35.9617L36.3098 36.0518C36.308 36.0545 36.3048 36.0579 36.3031 36.0606L36.269 36.1676C36.2425 36.2635 36.2717 36.1691 36.241 36.2199C36.2253 36.2459 36.2127 36.3017 36.1818 36.3368C36.1064 36.4222 36.1476 36.3673 36.1022 36.4597C36.0828 36.4992 36.1051 36.4606 36.0823 36.4898L35.7098 36.9616C35.7077 36.9644 35.7049 36.968 35.7029 36.971L35.6356 37.062C35.6333 37.0642 35.6297 37.0674 35.6275 37.0696L35.5661 37.1348C35.5425 37.1532 35.5733 37.1331 35.5359 37.1534C35.5316 37.1558 35.5177 37.1614 35.5133 37.1638C35.4818 37.1806 35.4971 37.1713 35.4729 37.1893C35.4701 37.1914 35.4666 37.1945 35.464 37.1965L35.4003 37.2557C35.3981 37.258 35.3948 37.2615 35.3925 37.2638L35.2513 37.3928C35.2019 37.4278 35.19 37.4101 35.1353 37.4534C35.1325 37.4556 35.1292 37.4589 35.1266 37.4611C35.1239 37.4634 35.1206 37.4668 35.118 37.4691C35.1153 37.4714 35.112 37.4748 35.1093 37.4771L35.0916 37.4925C35.0619 37.5148 35.0989 37.4923 35.0616 37.5114L34.7824 37.6477C34.7794 37.6493 34.7759 37.6522 34.7729 37.6539L34.4541 37.8013C34.386 37.8351 34.341 37.8298 34.2932 37.8516L34.2544 37.8752C34.2505 37.8768 34.2464 37.8786 34.2422 37.88C34.1231 37.9183 34.1486 37.8813 34.0667 37.9237C34.0228 37.9465 33.8941 37.9513 33.8643 37.9665C33.8063 37.9962 33.7355 37.9804 33.6695 38.0026L33.6317 38.0241C33.6287 38.0255 33.6248 38.0279 33.6215 38.0291C33.5207 38.0668 33.3802 38.0497 33.2725 38.0539C33.1661 38.0581 33.1137 38.0865 32.9983 38.0899C32.9022 38.0926 32.8071 38.0953 32.7063 38.0955C32.557 38.0957 32.4008 38.1024 32.2522 38.0876C32.1377 38.0762 32.2336 38.0748 32.1375 38.0577C32.0289 38.0383 31.8691 38.0763 31.7621 38.0264C31.7591 38.025 31.7556 38.0221 31.7526 38.0205C31.7499 38.0191 31.7465 38.016 31.7437 38.0146C31.741 38.0132 31.7375 38.0103 31.7347 38.0091C31.7319 38.0078 31.728 38.0055 31.7249 38.0044C31.6861 37.9908 31.6298 37.9968 31.5874 37.9946C31.4804 37.9889 31.4963 37.952 31.3284 37.942C31.2064 37.9348 31.2057 37.891 31.0703 37.8853C31.0202 37.8202 31.092 37.8535 30.9735 37.8349C30.9073 37.8245 30.8511 37.7915 30.7885 37.7585L30.4546 37.5958C30.4514 37.5941 30.4474 37.5917 30.4441 37.5901C30.3952 37.5675 30.3818 37.5716 30.3438 37.5347L30.3187 37.5103C30.3161 37.5081 30.3126 37.5049 30.3099 37.5028C30.2705 37.4725 30.2172 37.465 30.1838 37.4354C30.1812 37.4331 30.1781 37.4296 30.1756 37.4273L30.0691 37.3292C29.9441 37.2643 29.9901 37.2859 29.8776 37.1867L29.7641 37.0733C29.7621 37.0712 29.7588 37.0678 29.7567 37.0657L29.2572 36.433C29.233 36.4066 29.2469 36.4282 29.2315 36.3866L29.1794 36.277C29.1722 36.2586 29.1766 36.2615 29.1667 36.2407L29.148 36.2112C29.1023 36.134 29.0937 36.0909 29.0642 36.0081C29.0338 35.9226 29.0585 35.9989 29.0358 35.9616C28.9967 35.8971 29.0117 35.8536 28.9837 35.8055C28.982 35.8027 28.979 35.7992 28.9775 35.7963L28.9516 35.7271C28.8572 35.5249 28.9229 35.5346 28.8765 35.4363C28.875 35.4332 28.8725 35.4295 28.8711 35.4263C28.8696 35.4232 28.8674 35.4193 28.8659 35.416L28.8529 35.3812C28.7653 35.1617 28.8179 35.1916 28.7947 34.9757C28.7853 34.8881 28.7928 34.9474 28.7764 34.9232L28.7453 34.805C28.7446 34.7497 28.7459 34.72 28.7302 34.6705C28.6743 34.4946 28.6952 34.2805 28.6945 34.0978C28.6811 30.4458 28.694 26.7936 28.694 23.1416C28.694 22.337 28.7124 21.5121 28.692 20.71L23.1088 20.7167C23.093 22.1497 23.1081 23.5912 23.1081 25.0251V33.6582C23.1081 33.7617 23.0856 34.3105 23.1248 34.3893C23.2038 34.5485 23.112 34.9637 23.188 35.191C23.2276 35.3093 23.1744 35.4854 23.2342 35.6001C23.2355 35.6027 23.2387 35.606 23.24 35.6086C23.2924 35.7105 23.2387 35.9149 23.2867 36.0053C23.3182 36.0646 23.3065 36.1643 23.3271 36.235L23.3631 36.3256C23.4044 36.514 23.393 36.4025 23.4126 36.4733C23.4333 36.5477 23.4101 36.625 23.4499 36.6952C23.4732 36.7364 23.469 36.7581 23.4751 36.8123L23.5005 36.8951C23.5352 36.969 23.5176 37.0701 23.5544 37.1411C23.5559 37.1438 23.5589 37.1472 23.5604 37.1499L23.5775 37.1792C23.5871 37.2054 23.5843 37.211 23.5883 37.2368L23.6098 37.3082C23.6113 37.3109 23.6145 37.3141 23.6161 37.3168C23.641 37.3604 23.6408 37.4068 23.644 37.4568C23.7053 37.4978 23.6817 37.4631 23.6967 37.5506L23.7932 37.773C23.7996 37.7993 23.7967 37.8205 23.8044 37.8456C23.8212 37.9009 23.8827 37.9693 23.9007 38.0272C23.9026 38.0334 23.9045 38.048 23.9056 38.0541L24.1882 38.6512C24.289 38.8048 24.3043 38.9063 24.4088 39.0303L24.654 39.4209C24.7432 39.5101 24.6971 39.5025 24.757 39.5695L24.8857 39.7466C24.9001 39.7661 24.8876 39.7493 24.9086 39.7696L24.9643 39.8275C24.9718 39.8365 24.9825 39.8502 24.9925 39.8625L25.1549 40.0654C25.2579 40.1611 25.2375 40.1844 25.3117 40.2595C25.3142 40.262 25.3176 40.2652 25.32 40.2678L25.8693 40.8033C25.8716 40.8052 25.8754 40.8081 25.8776 40.8101L25.9475 40.8807C25.9501 40.8831 25.9536 40.8862 25.9562 40.8886C25.9588 40.8911 25.9623 40.8942 25.965 40.8966L26.0333 40.958C26.0598 40.9806 26.1769 41.045 26.282 41.1535C26.2843 41.1558 26.2875 41.1593 26.2897 41.1616L26.4601 41.2824C26.5353 41.3254 26.5761 41.3911 26.6607 41.4329C26.7143 41.4594 26.6662 41.4302 26.7118 41.4639L26.754 41.4996C26.7845 41.526 26.761 41.5125 26.799 41.5314L26.9468 41.6252C26.9594 41.6326 26.977 41.6393 26.9888 41.6461L27.0172 41.6655C27.02 41.6673 27.0234 41.6706 27.0263 41.6724L27.0953 41.7013C27.1354 41.7179 27.1119 41.7053 27.1443 41.7319L27.3208 41.841C27.3243 41.8427 27.3288 41.8443 27.3324 41.846C27.3361 41.8477 27.3407 41.849 27.3444 41.8506L27.3981 41.8786C27.4011 41.8805 27.4047 41.8834 27.4075 41.8854L27.779 42.0759C27.7822 42.0776 27.7856 42.0805 27.7887 42.0822C27.7917 42.0839 27.7953 42.0867 27.7984 42.0883C27.8016 42.09 27.8056 42.0924 27.8089 42.094L28.1581 42.242C28.1609 42.2437 28.1644 42.2468 28.1673 42.2485L28.4308 42.3504C28.4339 42.3521 28.4377 42.3547 28.441 42.3563C28.4445 42.358 28.4486 42.36 28.4523 42.3617C28.4561 42.3634 28.4606 42.3648 28.4646 42.3665C28.4695 42.3686 28.4856 42.3733 28.4904 42.3753C28.4943 42.3769 28.4988 42.3783 28.5025 42.38L28.6924 42.4476C28.7404 42.4766 28.7838 42.4702 28.8348 42.4943L29.0714 42.5785C29.2088 42.6109 29.0588 42.6058 29.1774 42.627L29.2884 42.6525C29.343 42.6816 29.3849 42.6711 29.4507 42.6843C29.5826 42.7109 29.4239 42.7084 29.5637 42.7295C29.6234 42.7386 29.6481 42.7308 29.7012 42.7541L29.8209 42.7838C29.9441 42.7951 29.9769 42.825 30.0826 42.8393C30.2357 42.8602 30.0831 42.8589 30.1973 42.8803C30.234 42.8872 30.3175 42.8875 30.3586 42.8893C30.427 42.8924 30.4514 42.9042 30.4864 42.9203C30.5574 42.9527 30.67 42.9393 30.7637 42.9481C30.8037 42.9518 30.8014 42.9518 30.8327 42.9623L31.0372 42.9936C31.3364 43.004 31.2253 43.0246 31.3139 43.0385C31.4746 43.0636 31.6977 43.0147 31.8548 43.0659C31.9662 43.1023 33.0458 43.108 33.1717 43.0834L33.2302 43.0633C33.2997 43.0448 33.3777 43.0495 33.4507 43.048C33.5592 43.0457 33.6679 43.0423 33.7763 43.0403C33.7941 43.0399 33.8405 43.04 33.8555 43.0376C33.9327 43.0256 33.8753 43.032 33.9073 43.0166L33.9683 42.9977C33.9868 42.9955 34.03 42.9954 34.0506 42.9949C34.1678 42.9922 34.1725 42.9897 34.2546 42.9617C34.3578 42.9263 34.5159 42.9532 34.6164 42.9324C34.7343 42.908 34.5901 42.9067 34.7298 42.8915C34.7748 42.8865 34.8481 42.8929 34.8903 42.8817C34.9842 42.8567 34.8528 42.8948 34.9397 42.8562C34.9799 42.8383 35.0412 42.8453 35.0881 42.8373C35.1874 42.8205 35.1092 42.8327 35.1442 42.8152C35.2322 42.7712 35.3482 42.8045 35.4874 42.7465L35.5729 42.7134C35.5758 42.7119 35.5793 42.7089 35.5822 42.7075L35.7734 42.6694C35.8376 42.6416 35.7441 42.662 35.8347 42.6399C35.8523 42.6356 35.8887 42.6334 35.906 42.6314C35.9621 42.625 35.9992 42.6021 36.0241 42.5908C36.0699 42.57 36.1191 42.5796 36.1706 42.568C36.2504 42.55 36.1737 42.5688 36.2209 42.544L36.6111 42.3876C36.6579 42.3649 36.7 42.3759 36.754 42.3635C36.8338 42.3453 36.7592 42.3602 36.8153 42.3319C36.8188 42.3302 36.8229 42.3279 36.8267 42.3263L37.1807 42.1683C37.2736 42.136 37.2119 42.1904 37.2583 42.1135C37.286 42.1114 37.328 42.1101 37.354 42.1029L37.7303 41.919C37.8703 41.8183 37.8748 41.8463 37.9973 41.7705L38.0167 41.7576C38.0416 41.7437 38.0624 41.7384 38.0842 41.7263L38.2215 41.6547C38.2565 41.6234 38.2636 41.6047 38.3118 41.586L38.4017 41.5319C38.4045 41.5295 38.4077 41.5261 38.4105 41.5238C38.4133 41.5214 38.4167 41.5181 38.4196 41.5159L38.4622 41.4909C38.4719 41.4868 38.516 41.4743 38.5563 41.4336L38.5912 41.4012C38.61 41.388 38.5895 41.3984 38.6238 41.3836C38.7256 41.3399 38.7159 41.3245 38.7876 41.2619L38.872 41.2178C38.9117 41.2 38.8882 41.214 38.9203 41.1852L38.9917 41.1134C38.994 41.1112 38.9975 41.1079 39 41.1057L39.1678 40.9873C39.169 40.9864 39.2189 40.9452 39.2192 40.9449C39.2311 40.9346 39.2321 40.9335 39.245 40.9219L39.3589 40.8121C39.3662 40.8058 39.373 40.8015 39.385 40.7918L39.4367 40.7448C39.5028 40.6841 39.4939 40.7278 39.5902 40.6285L39.892 40.3411C39.9325 40.2934 39.9464 40.2476 39.9969 40.2026L40.2079 39.9886C40.21 39.9862 40.2129 39.9824 40.2151 39.9799C40.2173 39.9774 40.2203 39.9737 40.2226 39.9712C40.2258 39.9677 40.2354 39.9575 40.2387 39.9541C40.2395 39.9532 40.2624 39.9316 40.2641 39.9299C40.3164 39.8754 40.3108 39.836 40.3529 39.7956C40.3553 39.7934 40.3589 39.7903 40.3613 39.788L40.4733 39.6447C40.4942 39.6016 40.545 39.5672 40.5769 39.5283L40.5988 39.5022C40.6009 39.4995 40.6039 39.4959 40.606 39.4931C40.6363 39.4499 40.6469 39.4105 40.6836 39.3758C40.737 39.3254 40.7592 39.2606 40.8064 39.2L40.8529 39.1166C40.8847 39.0624 40.8303 39.1398 40.8722 39.0918L40.9681 38.9476C40.9686 38.9468 41.0057 38.909 41.0065 38.9083C41.0717 38.8453 41.0664 38.7988 41.1307 38.6817L41.255 38.4592C41.3155 38.3819 41.3038 38.4104 41.3304 38.3072C41.345 38.2506 41.3923 38.1933 41.4226 38.1361C41.4366 38.1098 41.4388 38.0933 41.4531 38.0671C41.4723 38.0319 41.4548 38.0708 41.4718 38.0387L41.621 37.6818C41.6677 37.5987 41.6319 37.6074 41.6916 37.4996C41.7053 37.4747 41.7023 37.4696 41.7165 37.444C41.7182 37.441 41.7208 37.4372 41.7225 37.4343C41.7242 37.4316 41.7273 37.4281 41.729 37.4254C41.7511 37.39 41.7416 37.3701 41.7627 37.302C41.7823 37.2386 41.7939 37.2662 41.8098 37.1744C41.834 37.0347 41.8334 37.1721 41.8606 37.0408C41.871 36.9909 41.8602 37.0054 41.8829 36.9629C41.9198 36.894 41.907 36.9297 41.9166 36.8283C41.9277 36.7113 41.9607 36.8031 41.9727 36.6099C41.9746 36.5791 41.9751 36.5436 41.9777 36.5137C41.9863 36.4148 42.0267 36.4686 42.0297 36.2947C42.0324 36.1383 42.038 36.2154 42.0684 36.1594C42.0905 36.1189 42.0766 36.0795 42.0931 36.0343L42.1041 36.0145C42.1232 35.978 42.1163 36.0519 42.128 35.951C42.1363 35.8789 42.1192 35.7887 42.144 35.72L42.1545 35.7004C42.1716 35.667 42.1662 35.7352 42.1786 35.6371C42.1887 35.5577 42.1985 35.4606 42.1781 35.3866H42.1779Z" fill="#1A1A1A"/>
<path fill-rule="evenodd" clip-rule="evenodd" d="M28.105 47.2723C28.0703 47.7471 28.7983 48.423 29.302 48.4674C29.4032 48.4763 29.5395 48.4704 29.644 48.4704L35.8806 48.4703C36.4184 48.4682 37.3301 47.9691 37.2909 47.3217L37.2899 45.1294H28.1212H28.1035L28.105 47.2722V47.2723Z" fill="#1A1A1A"/>
<path d="M82.404 41.6699H71.3093V24.5715H73.9749V39.4846H82.404V41.6699ZM89.4045 41.9101C85.4661 41.9101 83.2808 39.4125 83.2808 35.4741C83.2808 31.6558 85.346 29.0382 89.2604 29.0382C93.1748 29.0382 95.2401 31.7038 95.2401 35.258C95.2401 35.4982 95.216 35.7143 95.192 35.9544H85.8263C85.8984 38.8842 87.2912 40.157 89.4045 40.157C91.1576 40.157 92.2622 39.2444 92.6465 37.8276H94.9759C94.4236 40.3491 92.6225 41.9101 89.4045 41.9101ZM89.2604 30.7913C87.3392 30.7913 86.0905 31.944 85.8263 34.2734H92.6945C92.4303 31.944 91.1816 30.7913 89.2604 30.7913ZM101.6 41.79C99.0068 41.79 98.0942 41.0215 98.0942 38.5V31.1035H96.077V29.2784H98.0942V25.5321H100.64V29.2784H103.498V31.1035H100.64V38.572C100.64 39.6527 101.048 39.9649 102.177 39.9649L103.498 39.9409V41.6699C102.993 41.718 102.105 41.79 101.6 41.79ZM107.621 30.9354H105.772L105.34 24.5715H108.054L107.621 30.9354ZM114.935 41.9101C111.044 41.9101 109.555 40.205 109.555 37.8276H112.005C112.125 39.2444 112.749 40.205 114.959 40.205C117.12 40.205 117.768 39.2685 117.768 38.2118C117.768 37.2272 117.048 36.7229 115.871 36.5548L113.59 36.2186C110.996 35.8584 109.891 34.9458 109.891 32.8806C109.891 30.7433 111.236 29.0382 114.935 29.0382C118.633 29.0382 119.978 30.7433 119.978 32.9286H117.528C117.408 31.7759 117.024 30.7433 114.911 30.7433C113.109 30.7433 112.437 31.4877 112.437 32.6884C112.437 33.6971 113.013 34.0573 113.974 34.2014L116.255 34.5376C118.777 34.8978 120.314 35.8103 120.314 38.0677C120.314 40.205 118.825 41.9101 114.935 41.9101ZM133.397 41.1896C130.059 41.1896 127.994 38.7401 127.994 35.1139C127.994 31.4877 130.059 29.0382 133.397 29.0382C135.559 29.0382 136.879 29.9748 137.576 31.5838V29.2784H140.001V40.7574C140.001 44.5997 137.936 46.6169 134.07 46.6169C130.468 46.6169 128.666 44.8639 128.666 42.2463H131.044C131.212 43.9753 132.317 44.9119 134.19 44.9119C136.255 44.9119 137.456 43.8072 137.456 41.4058V38.8362C136.759 40.3731 135.391 41.1896 133.397 41.1896ZM133.998 39.3645C136.039 39.3645 137.456 37.9236 137.456 35.1139C137.456 32.3282 136.039 30.8633 133.998 30.8633C131.932 30.8633 130.54 32.3282 130.54 35.1139C130.54 37.9236 131.932 39.3645 133.998 39.3645ZM148.168 41.9101C144.23 41.9101 142.044 39.4125 142.044 35.4741C142.044 31.6558 144.11 29.0382 148.024 29.0382C151.938 29.0382 154.004 31.7038 154.004 35.258C154.004 35.4982 153.98 35.7143 153.956 35.9544H144.59C144.662 38.8842 146.055 40.157 148.168 40.157C149.921 40.157 151.026 39.2444 151.41 37.8276H153.74C153.187 40.3491 151.386 41.9101 148.168 41.9101ZM148.024 30.7913C146.103 30.7913 144.854 31.944 144.59 34.2734H151.458C151.194 31.944 149.945 30.7913 148.024 30.7913ZM160.364 41.79C157.77 41.79 156.858 41.0215 156.858 38.5V31.1035H154.841V29.2784H156.858V25.5321H159.403V29.2784H162.261V31.1035H159.403V38.572C159.403 39.6527 159.812 39.9649 160.94 39.9649L162.261 39.9409V41.6699C161.757 41.718 160.868 41.79 160.364 41.79ZM170.492 46.3768V44.5517H171.596C173.253 44.5517 174.214 43.495 174.214 42.3663C174.214 42.1262 174.166 41.862 174.07 41.6219L169.363 29.2784H172.005L175.583 39.6287L179.185 29.2784H181.851L177.096 41.6219C175.679 45.2721 174.262 46.3768 171.572 46.3768H170.492ZM188.329 41.9101C184.391 41.9101 182.205 39.4125 182.205 35.4741C182.205 31.5357 184.391 29.0382 188.329 29.0382C192.267 29.0382 194.453 31.5357 194.453 35.4741C194.453 39.4125 192.267 41.9101 188.329 41.9101ZM188.329 39.9649C190.61 39.9649 191.907 38.476 191.907 35.4741C191.907 32.4963 190.61 30.9834 188.329 30.9834C186.048 30.9834 184.751 32.4963 184.751 35.4741C184.751 38.476 186.048 39.9649 188.329 39.9649ZM200.704 41.9101C197.87 41.9101 196.501 40.4692 196.501 37.4674V29.2784H199.047V37.0111C199.047 38.8842 199.719 39.8448 201.472 39.8448C203.322 39.8448 204.522 38.452 204.522 36.1946V29.2784H207.068V41.6699H204.642V39.5326C203.946 40.9495 202.769 41.9101 200.704 41.9101ZM220.613 41.9101C216.723 41.9101 215.234 40.205 215.234 37.8276H217.683C217.803 39.2444 218.428 40.205 220.637 40.205C222.798 40.205 223.447 39.2685 223.447 38.2118C223.447 37.2272 222.726 36.7229 221.55 36.5548L219.268 36.2186C216.675 35.8584 215.57 34.9458 215.57 32.8806C215.57 30.7433 216.915 29.0382 220.613 29.0382C224.311 29.0382 225.656 30.7433 225.656 32.9286H223.207C223.087 31.7759 222.702 30.7433 220.589 30.7433C218.788 30.7433 218.116 31.4877 218.116 32.6884C218.116 33.6971 218.692 34.0573 219.653 34.2014L221.934 34.5376C224.455 34.8978 225.992 35.8103 225.992 38.0677C225.992 40.205 224.503 41.9101 220.613 41.9101ZM232.357 41.79C229.764 41.79 228.851 41.0215 228.851 38.5V31.1035H226.834V29.2784H228.851V25.5321H231.397V29.2784H234.255V31.1035H231.397V38.572C231.397 39.6527 231.805 39.9649 232.934 39.9649L234.255 39.9409V41.6699C233.75 41.718 232.862 41.79 232.357 41.79ZM240.156 41.9101C237.274 41.9101 235.713 40.4692 235.713 38.1638C235.713 36.3147 236.842 34.8498 239.915 34.5856L242.317 34.3935C243.782 34.2494 244.214 33.9132 244.214 33.1207C244.214 31.7038 243.398 30.8633 241.596 30.8633C239.915 30.8633 239.003 31.5838 238.883 33.1207H236.385C236.385 30.6232 237.922 29.0382 241.572 29.0382C245.199 29.0382 246.76 30.6232 246.76 33.1207V38.5C246.76 40.181 246.904 41.2617 247.144 41.6699H244.862C244.478 41.1896 244.334 40.6853 244.334 39.5326C243.662 41.1176 242.293 41.9101 240.156 41.9101ZM240.852 40.157C243.037 40.157 244.214 38.452 244.214 36.4107V35.3541C243.95 35.6903 243.277 35.8824 242.317 35.9544L240.732 36.0985C238.955 36.2426 238.258 36.9871 238.258 37.9957C238.258 39.2685 239.027 40.157 240.852 40.157ZM251.828 41.6699H249.282V29.2784H251.708V32.1361C252.356 29.9508 253.461 29.1343 255.262 29.1343C255.598 29.1343 256.078 29.2063 256.39 29.2784V31.5117L255.166 31.4637C253.148 31.4637 251.828 33.0246 251.828 35.7863V41.6699ZM262.759 41.79C260.166 41.79 259.253 41.0215 259.253 38.5V31.1035H257.236V29.2784H259.253V25.5321H261.799V29.2784H264.657V31.1035H261.799V38.572C261.799 39.6527 262.207 39.9649 263.336 39.9649L264.657 39.9409V41.6699C264.152 41.718 263.264 41.79 262.759 41.79ZM271.605 41.9101C267.667 41.9101 265.482 39.4125 265.482 35.4741C265.482 31.6558 267.547 29.0382 271.461 29.0382C275.376 29.0382 277.441 31.7038 277.441 35.258C277.441 35.4982 277.417 35.7143 277.393 35.9544H268.027C268.099 38.8842 269.492 40.157 271.605 40.157C273.358 40.157 274.463 39.2444 274.847 37.8276H277.177C276.624 40.3491 274.823 41.9101 271.605 41.9101ZM271.461 30.7913C269.54 30.7913 268.291 31.944 268.027 34.2734H274.895C274.631 31.944 273.382 30.7913 271.461 30.7913ZM284.396 41.9101C281.058 41.9101 278.993 39.5326 278.993 35.4741C278.993 31.4157 281.058 29.0382 284.396 29.0382C286.389 29.0382 287.758 29.8547 288.455 31.3916V24.5715H291V41.6699H288.575V39.3885C287.878 40.9735 286.557 41.9101 284.396 41.9101ZM284.996 39.9649C287.038 39.9649 288.455 38.596 288.455 35.4741C288.455 32.3762 287.038 30.9834 284.996 30.9834C282.931 30.9834 281.538 32.3762 281.538 35.4741C281.538 38.596 282.931 39.9649 284.996 39.9649Z" fill="white"/>
</svg>
