<svg width="99" height="100" viewBox="0 0 99 100" fill="none" xmlns="http://www.w3.org/2000/svg">
<rect y="0.660156" width="99" height="99" rx="49.5" fill="#6CC56C"/>
<path d="M59.1667 59.1668H59.185M59.9 53.6668H61C62.7085 53.6668 63.5627 53.6668 64.2365 53.9459C65.1349 54.3181 65.8487 55.0319 66.2209 55.9303C66.5 56.6042 66.5 57.4584 66.5 59.1668C66.5 60.8753 66.5 61.7295 66.2209 62.4033C65.8487 63.3018 65.1349 64.0156 64.2365 64.3877C63.5627 64.6668 62.7085 64.6668 61 64.6668H39C37.2915 64.6668 36.4373 64.6668 35.7635 64.3877C34.8651 64.0156 34.1513 63.3018 33.7791 62.4033C33.5 61.7295 33.5 60.8753 33.5 59.1668C33.5 57.4584 33.5 56.6042 33.7791 55.9303C34.1513 55.0319 34.8651 54.3181 35.7635 53.9459C36.4373 53.6668 37.2915 53.6668 39 53.6668H40.1M50 55.5002V35.3335M50 55.5002L44.5 50.0002M50 55.5002L55.5 50.0002" stroke="white" stroke-width="3" stroke-linecap="round" stroke-linejoin="round"/>
</svg>
