<svg width="98" height="99" viewBox="0 0 98 99" fill="none" xmlns="http://www.w3.org/2000/svg">
<rect y="0.660156" width="98" height="98" rx="49" fill="#6CC56C"/>
<path d="M45.3333 49.9657L47.5897 52.4102L52.6667 46.9102M43.8667 66.1602H54.1333C56.1869 66.1602 57.2136 66.1602 57.998 65.7605C58.6879 65.409 59.2488 64.8481 59.6004 64.1581C60 63.3738 60 62.347 60 60.2935V39.0268C60 36.9733 60 35.9465 59.6004 35.1622C59.2488 34.4723 58.6879 33.9113 57.998 33.5598C57.2136 33.1602 56.1869 33.1602 54.1333 33.1602H43.8667C41.8131 33.1602 40.7864 33.1602 40.002 33.5598C39.3121 33.9113 38.7512 34.4723 38.3996 35.1622C38 35.9465 38 36.9733 38 39.0268V60.2935C38 62.347 38 63.3738 38.3996 64.1581C38.7512 64.8481 39.3121 65.409 40.002 65.7605C40.7864 66.1602 41.8131 66.1602 43.8667 66.1602Z" stroke="white" stroke-width="3" stroke-linecap="round" stroke-linejoin="round"/>
</svg>
