<svg width="98" height="99" viewBox="0 0 98 99" fill="none" xmlns="http://www.w3.org/2000/svg">
<rect y="0.660156" width="98" height="98" rx="49" fill="#036E03"/>
<path d="M49.0015 44.1603H49.0198M54.5015 62.4937L58.1681 66.1603L65.5015 58.827M43.8148 55.1603C44.5698 53.0241 46.6071 51.4937 49.0018 51.4937C51.3966 51.4937 53.4338 53.0241 54.1889 55.1603M63.6663 51.4937V40.8603C63.6663 38.8068 63.6663 37.78 63.2667 36.9957C62.9152 36.3058 62.3542 35.7448 61.6643 35.3933C60.88 34.9937 59.8532 34.9937 57.7997 34.9937H40.1997C38.1461 34.9937 37.1194 34.9937 36.335 35.3933C35.6451 35.7448 35.0842 36.3058 34.7327 36.9957C34.333 37.78 34.333 38.8068 34.333 40.8603V58.4603C34.333 60.5138 34.333 61.5406 34.7327 62.3249C35.0842 63.0149 35.6451 63.5758 36.335 63.9273C37.1194 64.327 38.1461 64.327 40.1997 64.327H47.1681M50.8348 44.1603C50.8348 45.1728 50.014 45.9937 49.0015 45.9937C47.9889 45.9937 47.1681 45.1728 47.1681 44.1603C47.1681 43.1478 47.9889 42.327 49.0015 42.327C50.014 42.327 50.8348 43.1478 50.8348 44.1603Z" stroke="white" stroke-width="3" stroke-linecap="round" stroke-linejoin="round"/>
</svg>
