<svg width="32" height="212" viewBox="0 0 32 212" fill="none" xmlns="http://www.w3.org/2000/svg">
<circle cx="15" cy="15" r="15" fill="#1A1A1A"/>
<circle cx="14.9998" cy="14.9993" r="8.07692" fill="white"/>
<path fill-rule="evenodd" clip-rule="evenodd" d="M17.407 211.865C19.8062 210.654 32 203.931 32 192.34C32 183.868 25.2843 177 17 177C8.71573 177 2 183.868 2 192.34C2 203.931 14.1938 210.654 16.593 211.865C16.8526 211.996 17.1474 211.996 17.407 211.865ZM17.0008 198.914C20.5512 198.914 23.4294 195.971 23.4294 192.34C23.4294 188.709 20.5512 185.766 17.0008 185.766C13.4504 185.766 10.5723 188.709 10.5723 192.34C10.5723 195.971 13.4504 198.914 17.0008 198.914Z" fill="#1A1A1A"/>
<line x1="16" y1="36" x2="16" y2="171" stroke="#6CC56C" stroke-width="2" stroke-linecap="round" stroke-dasharray="6 6"/>
</svg>
