<svg width="593" height="593" viewBox="0 0 593 593" fill="none" xmlns="http://www.w3.org/2000/svg">
<g clip-path="url(#clip0_5289_412)">
<rect width="592.061" height="592.061" rx="296.03" fill="white"/>
<path d="M146.767 478.567H232.789V465.64H146.767V478.567Z" fill="white"/>
<path d="M396.097 478.576H489.991V466.255H396.097V478.576Z" fill="white"/>
<path d="M604.009 68.326C604.009 85.3109 593.241 99.0801 579.959 99.0801C566.677 99.0801 555.909 85.3109 555.909 68.326C555.909 51.341 566.677 37.5718 579.959 37.5718C593.241 37.5718 604.009 51.34 604.009 68.326Z" fill="#E5E6E5"/>
<path d="M576.531 137.094C576.393 137.094 576.278 131.415 576.278 124.408C576.278 117.402 576.392 111.723 576.531 111.723C576.672 111.723 576.785 117.402 576.785 124.408C576.785 131.415 576.672 137.094 576.531 137.094Z" fill="white"/>
<path d="M562.676 104.572C562.796 104.662 560.534 109.961 557.623 116.406C554.711 122.854 552.254 128.007 552.133 127.918C552.011 127.829 554.273 122.531 557.185 116.084C560.096 109.638 562.554 104.483 562.676 104.572Z" fill="white"/>
<path d="M548.453 93.2458C548.541 93.3869 546.026 96.1271 542.838 99.3684C539.647 102.61 536.992 105.125 536.905 104.984C536.817 104.845 539.332 102.105 542.522 98.8614C545.711 95.6201 548.367 93.1057 548.453 93.2458Z" fill="white"/>
<path d="M580.148 0.000993683C580.219 0.00691212 580.211 1.6187 580.182 4.22281C580.153 6.82791 580.113 10.4234 580.115 14.3937C580.12 18.3669 580.165 21.9633 580.199 24.5674C580.233 27.1706 580.244 28.7843 580.172 28.7883C580.104 28.7942 579.967 27.1883 579.841 24.5832C579.716 21.9801 579.613 18.3768 579.608 14.3946C579.605 10.4135 579.702 6.81016 579.823 4.20605C579.944 1.60193 580.079 -0.00393837 580.146 7.25411e-06L580.148 0.000993683Z" fill="white"/>
<path d="M559.719 32.5294C559.601 32.6221 557.067 27.5983 554.061 21.31C551.055 15.0187 548.715 9.84595 548.835 9.75224C548.954 9.65952 551.487 14.6813 554.493 20.9726C557.499 27.261 559.838 32.4356 559.719 32.5284V32.5294Z" fill="white"/>
<path d="M547.52 45.7882C547.507 45.872 546.527 45.6895 544.963 45.2693C543.399 44.8501 541.255 44.1784 538.914 43.2965C536.575 42.4147 534.488 41.4884 532.996 40.7555C531.504 40.0236 530.604 39.4979 530.628 39.417C530.654 39.3312 531.598 39.705 533.115 40.3245C534.633 40.9449 536.729 41.7972 539.059 42.6771C541.388 43.555 543.511 44.2918 545.048 44.8254C546.586 45.3581 547.537 45.6994 547.522 45.7902L547.52 45.7882Z" fill="white"/>
<path d="M542.191 69.4167C542.204 69.5953 538.767 70.1634 534.516 70.6852C530.263 71.209 526.805 71.4882 526.792 71.3096C526.778 71.1311 530.214 70.5639 534.467 70.0411C538.718 69.5173 542.176 69.2382 542.191 69.4167Z" fill="white"/>
<path d="M587.682 200.263C588.147 195.937 583.374 192.38 579.787 192.01C578.077 191.834 576.302 192.168 574.68 191.445C571.17 189.881 569.768 184.082 566.343 182.233C563.782 180.852 560.833 182.082 558.35 183.68C555.868 185.277 553.415 187.289 550.642 187.517C548.229 187.714 545.608 186.57 543.498 188.077C541.925 189.2 541.101 191.516 539.651 192.886C538.233 194.223 536.384 194.506 534.623 194.629C532.863 194.752 531.041 194.774 529.439 195.713C527.836 196.651 526.511 198.818 526.843 201.031L587.684 200.264L587.682 200.263Z" fill="#E5E6E5"/>
<path d="M678.674 481.515C678.674 481.713 507.211 481.873 295.749 481.873C84.2137 481.873 -87.2129 481.714 -87.2129 481.515C-87.2129 481.32 84.2137 481.159 295.749 481.159C507.211 481.159 678.674 481.32 678.674 481.515Z" fill="#2C3C43"/>
<path d="M210.529 470.944H185.629L183.399 481.514H212.76L210.529 470.944Z" fill="white"/>
<path d="M210.531 470.946C210.542 470.928 210.604 471.157 210.715 471.613C210.838 472.142 210.996 472.817 211.192 473.652C211.616 475.552 212.203 478.183 212.935 481.455L212.999 481.744L212.761 481.746C206.335 481.824 196.556 481.874 185.631 481.874C184.882 481.874 184.137 481.874 183.4 481.873H183.037L183.131 481.424C183.914 477.734 184.668 474.181 185.373 470.859L185.426 470.605L185.63 470.607C192.837 470.66 199.051 470.706 203.539 470.738C205.704 470.786 207.448 470.822 208.721 470.85C209.272 470.87 209.721 470.886 210.081 470.899C210.387 470.916 210.54 470.932 210.53 470.947C210.522 470.962 210.349 470.978 210.027 470.995C209.658 471.006 209.197 471.023 208.63 471.044C207.363 471.072 205.627 471.109 203.475 471.155C199.002 471.188 192.811 471.233 185.63 471.287L185.886 471.036C185.189 474.36 184.443 477.917 183.668 481.609L183.4 481.16C184.137 481.16 184.881 481.16 185.631 481.16C196.556 481.16 206.335 481.21 212.761 481.286L212.587 481.576C211.942 478.323 211.423 475.71 211.049 473.822C210.886 472.958 210.754 472.26 210.65 471.712C210.562 471.225 210.521 470.963 210.531 470.946Z" fill="#2C3C43"/>
<path d="M443.113 470.944H418.213L415.982 481.514H445.343L443.113 470.944Z" fill="white"/>
<path d="M443.11 470.946C443.121 470.928 443.183 471.157 443.295 471.613C443.417 472.142 443.575 472.817 443.771 473.652C444.196 475.552 444.783 478.183 445.515 481.455L445.579 481.744L445.341 481.746C438.915 481.824 429.136 481.874 418.212 481.874C417.462 481.874 416.717 481.874 415.98 481.873H415.617L415.712 481.424C416.494 477.734 417.249 474.181 417.954 470.859L418.007 470.605L418.211 470.607C425.418 470.66 431.632 470.706 436.12 470.738C438.285 470.786 440.029 470.822 441.302 470.85C441.853 470.87 442.302 470.886 442.662 470.899C442.968 470.916 443.12 470.932 443.111 470.947C443.103 470.962 442.93 470.978 442.608 470.995C442.239 471.006 441.778 471.023 441.21 471.044C439.944 471.072 438.208 471.109 436.056 471.155C431.584 471.188 425.392 471.233 418.211 471.287L418.467 471.036C417.77 474.36 417.024 477.917 416.249 481.609L415.98 481.16C416.717 481.16 417.462 481.16 418.212 481.16C429.136 481.16 438.915 481.21 445.341 481.286L445.167 481.576C444.522 478.323 444.003 475.71 443.629 473.822C443.466 472.958 443.334 472.26 443.23 471.712C443.144 471.225 443.101 470.963 443.111 470.946H443.11Z" fill="#2C3C43"/>
<path d="M448.688 481.512H476.712V428.246H448.688V481.512Z" fill="#2C3C43"/>
<path d="M466.492 334.081C466.492 334.081 456.137 344.302 455.34 347.871C455.34 347.871 454.18 349.409 454.056 352.716C453.933 356.023 453.072 360.43 453.072 360.43C453.072 360.43 448.392 371.925 447.901 377.592C447.408 383.26 447.901 435.69 447.901 435.69H631.425V373.127L626.334 357.256C626.334 357.256 625.06 347.489 623.469 344.641C621.878 341.791 610.103 332.839 610.103 332.839L602.482 307.095C599.844 299.408 593.001 289.569 583.083 289.616L495.861 289.57C488.446 289.57 480.17 297.753 477.733 303.844L466.493 334.083L466.492 334.081Z" fill="white"/>
<path d="M631.424 430.158L627.713 416.031L512.317 416.36C510.703 410.603 508.363 404.868 506.498 400.718C517.127 400.724 528.348 400.731 539.948 400.737C562.804 400.715 584.19 400.693 602.418 400.676C604.707 400.629 606.889 399.356 608.409 397.36H631.424V430.158ZM447.845 425.741L447.683 397.36H466.108C466.398 400.941 467.562 401.77 468.286 401.929C468.256 402.42 468.091 405.294 468.091 409.561C468.091 411.59 468.128 413.933 468.234 416.484L453.779 416.525L451.077 420.721L447.845 425.741ZM602.408 400.063C584.184 400.05 562.801 400.038 539.948 400.023C528.885 400.03 518.166 400.036 507.977 400.042C508.402 399.884 508.785 399.609 509.098 399.184C509.346 398.849 509.542 398.225 509.693 397.359H607.746C606.326 399.005 604.41 400.029 602.408 400.063Z" fill="#949899"/>
<path d="M475.808 332.633H603.369C603.369 332.633 601.775 295.249 582.641 295.249C563.507 295.249 496.396 295.97 496.396 295.97C496.396 295.97 488.04 293.92 480.96 309.145C478.258 314.951 476.706 321.511 476.163 328.231L475.808 332.634V332.633Z" fill="#42616A"/>
<path d="M528.2 332.455L506.487 298.11C510.197 298.071 514.76 298.025 519.816 297.976L542.817 332.449C542.473 332.449 542.129 332.449 541.784 332.449C537.131 332.449 532.589 332.452 528.2 332.456V332.455ZM505.079 295.881L505.077 295.877C505.08 295.877 505.084 295.877 505.087 295.877H505.438C505.317 295.879 505.199 295.88 505.08 295.881H505.079Z" fill="#748B93"/>
<path d="M499.024 295.941V295.905L500.128 295.877L500.158 295.929C499.75 295.935 499.372 295.937 499.024 295.942V295.941Z" fill="#E2E3E3"/>
<path d="M518.321 332.47L498.991 300.289L499.009 298.186C499.698 298.178 500.533 298.169 501.496 298.16L521.975 332.463C520.742 332.466 519.524 332.467 518.322 332.47H518.321ZM499.029 295.944V295.94C499.376 295.936 499.755 295.933 500.163 295.927L500.166 295.931C499.753 295.935 499.374 295.94 499.03 295.944H499.029Z" fill="#748B93"/>
<path d="M603.369 332.633C603.369 332.633 603.551 333.017 603.878 333.791C604.209 334.591 604.688 335.743 605.311 337.245C606.57 340.32 608.413 344.827 610.797 350.656L610.812 350.693V350.736C610.828 357.26 610.848 365.327 610.871 374.673C610.877 379.351 610.885 384.35 610.893 389.634C610.895 392.343 610.069 395.132 608.527 397.205C607.003 399.292 604.766 400.63 602.418 400.679C584.19 400.696 562.804 400.718 539.949 400.74C523.12 400.731 507.091 400.721 492.508 400.712C488.863 400.706 485.309 400.701 481.854 400.697C481.24 400.685 480.635 400.689 480.033 400.693C478.932 400.702 477.841 400.708 476.728 400.625C475.871 400.495 475.041 400.213 474.255 399.805C473.479 399.364 472.761 398.798 472.112 398.128C471.48 397.434 470.923 396.646 470.458 395.785C470.018 394.906 469.647 393.975 469.405 392.995C468.879 391.023 469.003 388.966 469 387.074C469.017 383.225 469.034 379.534 469.048 376.007C469.067 368.961 469.082 362.585 469.098 356.98C469.093 354.18 469.098 351.571 469.052 349.181C468.952 347.966 469.268 346.775 469.581 345.775C469.923 344.762 470.282 343.824 470.65 342.954C472.125 339.48 473.47 336.94 474.371 335.214C474.826 334.376 475.176 333.732 475.424 333.272C475.667 332.841 475.807 332.633 475.807 332.633C475.807 332.633 475.7 332.869 475.471 333.314C475.234 333.782 474.899 334.44 474.464 335.293C473.595 337.043 472.279 339.607 470.841 343.083C470.483 343.954 470.135 344.89 469.805 345.892C469.501 346.918 469.215 347.963 469.317 349.167C469.38 351.573 469.39 354.176 469.408 356.978C469.418 362.583 469.43 368.96 469.442 376.008C469.439 379.534 469.434 383.227 469.429 387.074C469.437 389.007 469.326 390.963 469.83 392.819C470.062 393.747 470.415 394.626 470.835 395.459C471.279 396.271 471.807 397.015 472.408 397.671C473.024 398.301 473.705 398.835 474.438 399.249C475.182 399.633 475.967 399.896 476.777 400.017C477.824 400.092 478.92 400.081 480.027 400.072C480.634 400.066 481.247 400.06 481.854 400.069C485.308 400.063 488.862 400.06 492.507 400.054C507.09 400.045 523.119 400.036 539.948 400.025C562.8 400.039 584.183 400.052 602.408 400.065C604.628 400.029 606.744 398.772 608.193 396.802C609.659 394.841 610.45 392.205 610.456 389.63C610.464 384.347 610.473 379.35 610.481 374.672C610.504 365.326 610.523 357.259 610.539 350.735L610.554 350.815C608.22 344.954 606.415 340.422 605.184 337.329C604.587 335.81 604.129 334.644 603.812 333.834C603.507 333.046 603.368 332.633 603.368 332.633H603.369Z" fill="#2C3C43"/>
<path d="M587.09 383.375L568.14 366.506H512.221L509.191 369.277C509.047 367.241 508.893 365.201 508.732 363.19C509.718 361.877 510.713 360.554 511.715 359.218C520.69 359.222 530.139 359.225 539.882 359.229C549.939 359.225 559.686 359.221 568.766 359.216C573.734 365.895 578.515 372.279 583.092 378.256C584.252 379.747 585.395 381.218 586.521 382.664C586.712 382.903 586.901 383.14 587.091 383.375H587.09Z" fill="#949899"/>
<path d="M627.858 366.506C627.858 366.506 627.882 366.92 627.894 367.727C627.902 368.563 627.915 369.753 627.93 371.296C627.944 374.456 627.966 379.053 627.994 384.917L627.996 385.093H627.858C620.682 385.12 611.049 385.156 599.586 385.198C596.717 385.205 593.733 385.212 590.646 385.219L589.483 385.222L588.898 385.223L588.497 385.018L588.255 384.765C587.654 384.089 587.093 383.38 586.52 382.665C585.394 381.218 584.25 379.749 583.09 378.257C578.489 372.249 573.68 365.828 568.684 359.111L568.879 359.217C559.766 359.221 549.981 359.225 539.881 359.23C530.096 359.226 520.608 359.223 511.6 359.219L511.795 359.112C504.822 368.397 498.26 377.135 492.255 385.129L492.184 385.225L492.082 385.224C473.95 385.161 459.273 385.111 449.901 385.079L449.775 385.077L449.776 384.917C449.801 379.821 449.822 375.9 449.836 373.22C449.85 371.918 449.861 370.92 449.868 370.219C449.879 369.545 449.901 369.203 449.901 369.203C449.901 369.203 449.924 369.545 449.935 370.219C449.943 370.92 449.954 371.919 449.968 373.22C449.981 375.901 450.001 379.821 450.028 384.917L449.901 384.756C459.273 384.724 473.951 384.673 492.082 384.61L491.908 384.704C497.899 376.694 504.447 367.936 511.404 358.634L511.484 358.528H511.6C520.608 358.524 530.096 358.519 539.881 358.517C549.981 358.521 559.767 358.526 568.879 358.53H568.996L569.075 358.636C574.064 365.361 578.861 371.793 583.446 377.811C584.601 379.304 585.74 380.774 586.86 382.222C587.427 382.935 587.992 383.649 588.568 384.301L588.78 384.527L588.838 384.589L588.83 384.597L588.821 384.688C588.819 384.667 588.819 384.718 588.819 384.769C588.819 384.864 588.82 384.958 588.825 384.612H588.898L589.482 384.614L590.646 384.616C593.733 384.624 596.716 384.63 599.585 384.636C611.048 384.679 620.682 384.716 627.857 384.742L627.72 384.917C627.747 379.054 627.77 374.457 627.785 371.296C627.801 369.753 627.812 368.564 627.821 367.727C627.832 366.92 627.857 366.506 627.857 366.506H627.858Z" fill="#2C3C43"/>
<path d="M513.812 382.401H565.719V366.506H513.812V382.401Z" fill="#42616A"/>
<path d="M447.286 426.611L453.78 416.526L627.713 416.031L631.424 430.159V443.423L616.158 455.203H466.041C466.041 455.203 448.106 446.298 447.286 436.31V426.61V426.611Z" fill="#2C3C43"/>
<path d="M614.845 454.977C597.306 454.947 570.316 454.899 540.108 454.846C528.843 454.863 518.026 454.879 507.962 454.893C507.989 454.375 508.004 454.094 508.004 454.094C508.405 453.49 508.774 452.906 509.117 452.335C509.166 453.738 509.228 454.58 509.296 454.58C509.373 454.58 509.442 453.478 509.493 451.699C512.558 446.386 513.301 442.079 513.896 433.785H606.377C611.063 433.785 614.863 438.643 614.863 444.637V454.971C614.856 454.974 614.851 454.975 614.844 454.977H614.845Z" fill="#273035"/>
<path d="M480.155 446.762C480.155 450.383 477.86 453.318 475.029 453.318C472.197 453.318 469.901 450.383 469.901 446.762C469.901 443.141 472.197 440.206 475.029 440.206C477.86 440.206 480.155 443.141 480.155 446.762Z" fill="#42616A"/>
<path d="M491.123 446.762C491.123 450.383 488.828 453.318 485.997 453.318C483.165 453.318 480.87 450.383 480.87 446.762C480.87 443.141 483.165 440.206 485.997 440.206C488.827 440.206 491.123 443.141 491.123 446.762Z" fill="#42616A"/>
<path d="M495.36 454.583C495.208 454.583 495.082 450.186 495.082 444.766C495.082 439.343 495.208 434.947 495.36 434.947C495.515 434.947 495.641 439.343 495.641 444.766C495.641 450.185 495.515 454.583 495.36 454.583Z" fill="#2C3C43"/>
<path d="M509.296 454.583C509.142 454.583 509.018 450.186 509.018 444.766C509.018 439.343 509.142 434.947 509.296 434.947C509.45 434.947 509.574 439.343 509.574 444.766C509.574 450.185 509.45 454.583 509.296 454.583Z" fill="#2C3C43"/>
<path d="M523.234 454.582C523.08 454.582 522.954 450.185 522.954 444.765C522.954 439.342 523.08 434.947 523.234 434.947C523.387 434.947 523.513 439.341 523.513 444.765C523.513 450.184 523.387 454.582 523.234 454.582Z" fill="#2C3C43"/>
<path d="M537.168 454.582C537.014 454.582 536.89 450.185 536.89 444.765C536.89 439.342 537.014 434.947 537.168 434.947C537.322 434.947 537.448 439.341 537.448 444.765C537.448 450.184 537.322 454.582 537.168 454.582Z" fill="#2C3C43"/>
<path d="M551.103 454.582C550.949 454.582 550.823 450.185 550.823 444.765C550.823 439.342 550.949 434.947 551.103 434.947C551.256 434.947 551.382 439.341 551.382 444.765C551.382 450.184 551.256 454.582 551.103 454.582Z" fill="#2C3C43"/>
<path d="M565.043 454.582C564.889 454.582 564.765 450.185 564.765 444.765C564.765 439.342 564.889 434.947 565.043 434.947C565.197 434.947 565.323 439.341 565.323 444.765C565.323 450.184 565.197 454.582 565.043 454.582Z" fill="#2C3C43"/>
<path d="M578.976 454.582C578.821 454.582 578.697 450.185 578.697 444.765C578.697 439.342 578.821 434.947 578.976 434.947C579.13 434.947 579.254 439.341 579.254 444.765C579.254 450.184 579.13 454.582 578.976 454.582Z" fill="#2C3C43"/>
<path d="M451.076 420.722L477.181 420.831V416.459L453.779 416.526L451.076 420.722Z" fill="#6CC56C"/>
<path d="M609.496 332.803C609.496 333.001 579.175 333.161 541.782 333.161C504.375 333.161 474.062 333.001 474.062 332.803C474.062 332.608 504.374 332.447 541.782 332.447C579.174 332.447 609.496 332.608 609.496 332.803Z" fill="#2C3C43"/>
<path d="M631.424 438.322C631.432 438.324 631.412 438.487 631.364 438.808C631.308 439.157 631.233 439.632 631.137 440.238C630.898 441.479 630.349 443.296 629.206 445.308C626.941 449.373 621.879 453.502 614.894 455.425L614.881 455.429H614.863C597.325 455.459 570.327 455.507 540.108 455.559C513.25 455.517 488.938 455.478 471.312 455.45C466.882 455.439 462.891 454.301 459.668 452.507C456.431 450.725 453.968 448.364 452.193 446.178C450.413 443.98 449.293 441.964 448.605 440.559C448.258 439.857 448.03 439.293 447.88 438.913C447.734 438.531 447.682 438.322 447.682 438.322C447.682 438.322 447.769 438.51 447.932 438.879C448.097 439.246 448.34 439.794 448.7 440.481C449.414 441.854 450.557 443.829 452.344 445.976C454.126 448.114 456.582 450.415 459.79 452.14C462.986 453.877 466.931 454.966 471.314 454.946C488.939 454.92 513.25 454.886 540.109 454.845C570.327 454.897 597.325 454.946 614.864 454.975L614.833 454.979C621.739 453.138 626.784 449.111 629.053 445.159C630.202 443.201 630.774 441.424 631.044 440.203C631.159 439.605 631.25 439.14 631.316 438.796C631.38 438.48 631.418 438.32 631.425 438.321L631.424 438.322Z" fill="#42616A"/>
<path d="M453.999 353.632C453.999 353.632 456.836 348.502 472.682 348.502C488.528 348.502 607.974 348.502 607.974 348.502C607.974 348.502 619.483 347.741 625.986 354.908L624.568 363.412H593.473L582.11 354.044H499.291L487.481 363.412H455.34L453.998 353.632H453.999Z" fill="#6CC56C"/>
<path d="M610.435 351.095C610.435 351.293 577.6 351.453 537.104 351.453C496.594 351.453 463.766 351.293 463.766 351.095C463.766 350.899 496.595 350.739 537.104 350.739C577.599 350.739 610.435 350.899 610.435 351.095Z" fill="#FEFEFE"/>
<path d="M603.696 332.633H603.537C603.401 331.074 603.157 328.805 602.735 326.155C601.294 315.462 596.713 295.28 582.67 295.249C582.771 295.249 582.87 295.249 582.968 295.249C602.102 295.249 603.696 332.633 603.696 332.633H603.696Z" fill="#949899"/>
<path d="M476.317 332.632H476.136L476.491 328.23C476.727 325.309 477.154 322.418 477.783 319.606C477.945 319.718 478.101 319.818 478.252 319.909C477.361 323.323 476.781 326.875 476.491 330.472L476.317 332.631V332.632ZM602.737 326.154C600.977 315.113 596.109 297.491 582.97 297.491C571.168 297.491 541.118 297.765 519.817 297.974L518.418 295.877H505.44C524.114 295.686 567.521 295.254 582.672 295.249C596.716 295.28 601.295 315.462 602.738 326.155L602.737 326.154ZM501.496 298.161L500.165 295.932C501.483 295.918 503.141 295.9 505.08 295.881L506.488 298.109C504.582 298.127 502.901 298.145 501.496 298.161Z" fill="#33484E"/>
<path d="M506.484 298.109L505.077 295.881C505.195 295.879 505.314 295.878 505.435 295.877H518.413L519.813 297.975C514.756 298.024 510.194 298.07 506.484 298.109Z" fill="#54656A"/>
<path d="M499.009 298.187L499.029 295.943C499.373 295.94 499.751 295.936 500.164 295.931L501.495 298.16C500.533 298.17 499.697 298.178 499.008 298.186L499.009 298.187Z" fill="#54656A"/>
<path d="M520.053 297.911C520.053 299.125 520.822 300.11 521.772 300.11H556.716C557.667 300.11 558.436 299.125 558.436 297.911V297.596C558.436 296.377 557.659 295.389 556.705 295.398L521.76 295.712C520.815 295.721 520.053 296.702 520.053 297.911Z" fill="#6CC56C"/>
<path d="M219.777 481.514H248.918V413.417H219.777V481.514Z" fill="#2C3C43"/>
<path d="M381.305 481.514H411.803V413.417H381.305V481.514Z" fill="#2C3C43"/>
<path d="M221.097 315.582H228.998V307.209H221.097V315.582Z" fill="#2C3C43"/>
<path d="M213.953 321.92C209.563 321.92 206.006 317.371 206.006 311.76V299.196C206.006 293.584 209.563 289.034 213.953 289.034C218.341 289.034 221.899 293.584 221.899 299.196V311.76C221.899 317.371 218.34 321.92 213.953 321.92Z" fill="#2C3C43"/>
<path d="M398.143 315.582H406.044V307.209H398.143V315.582Z" fill="#2C3C43"/>
<path d="M413.192 321.92C417.581 321.92 421.139 317.371 421.139 311.76V299.196C421.139 293.584 417.582 289.034 413.192 289.034C408.804 289.034 405.247 293.584 405.247 299.196V311.76C405.247 317.371 408.804 321.92 413.192 321.92Z" fill="#2C3C43"/>
<path d="M254.021 209.214C250.024 209.284 246.323 211.852 244.056 216.06C242.801 218.391 241.616 220.983 241.086 223.244C239.712 229.098 232.197 252.058 226.244 309.435C224.06 327.079 222.296 347.418 220.75 369.154L218.918 389.591L409.641 390.606C409.641 390.606 404.164 321.265 402.9 309.413C401.637 297.56 386.891 217.826 386.891 217.826C386.891 217.826 387.312 211.586 377.2 209.318C368.438 207.353 277.985 208.795 254.02 209.213L254.021 209.214Z" fill="#6CC56C"/>
<path d="M218.918 389.59L221.202 362.916C221.049 364.98 220.899 367.062 220.75 369.154L218.918 389.59ZM409.543 389.353C409.118 383.996 407.403 362.389 405.79 342.749L405.913 342.736L409.641 389.351L409.542 389.353H409.543Z" fill="#ABAEAF"/>
<path d="M359.987 389.59H218.918L220.75 369.154C220.899 367.062 221.049 364.98 221.202 362.916L221.205 362.894L222.817 342.736L263.155 346.705H366.541L405.789 342.749C407.403 362.389 409.118 383.997 409.542 389.353L359.987 389.59Z" fill="#6CC56C" fill-opacity="0.09"/>
<path d="M246.241 247.991C246.241 247.991 238.576 248.367 235.628 266.842C232.68 285.315 230.322 315.099 230.322 315.099H399.255L390.706 261.563C390.706 261.563 389.551 252.441 379.797 247.99C369.979 243.51 250.434 242.896 246.242 247.99L246.241 247.991Z" fill="#42616A"/>
<path d="M325.57 253.329H302.905C300.267 253.329 298.129 250.595 298.129 247.221V244.436H330.347V247.221C330.347 250.595 328.209 253.329 325.57 253.329Z" fill="#2C3C43"/>
<path d="M230.322 315.099L230.997 307.209H397.599L399.254 315.099H230.322Z" fill="#2C3C43"/>
<path d="M386.82 309.805H385.749C385.749 298.73 378.702 289.719 370.042 289.719C361.381 289.719 354.335 298.73 354.335 309.805H353.264C353.264 297.974 360.79 288.349 370.042 288.349C379.293 288.349 386.82 297.973 386.82 309.805Z" fill="#2C3C43"/>
<path d="M349.167 308.428C349.167 308.428 351.494 302.904 358.249 302.673C364.52 302.457 380.434 302.682 380.434 302.682C380.434 302.682 388.205 303.118 390.451 307.209V309.805H349.167V308.428Z" fill="#2C3C43"/>
<path d="M241.615 308.638C240.937 309.731 241.939 292.528 243.479 284.977C243.835 283.237 245.06 282.026 246.467 282.026H273.99C275.509 282.026 276.806 283.439 277.038 285.36C277.668 290.558 279.357 300.53 279.739 308.687L241.616 308.638H241.615Z" fill="#2C3C43"/>
<path d="M269.082 279.748H251.847C249.907 279.748 248.335 277.738 248.335 275.258V267.698C248.335 265.218 249.906 263.208 251.847 263.208H269.082C271.021 263.208 272.593 265.218 272.593 267.698V275.258C272.593 277.738 271.021 279.748 269.082 279.748Z" fill="#2C3C43"/>
<path d="M290.673 308.638C289.995 309.731 290.998 292.528 292.538 284.977C292.892 283.237 294.119 282.026 295.526 282.026H323.049C324.568 282.026 325.863 283.439 326.096 285.36C326.725 290.558 328.414 300.53 328.798 308.687L290.674 308.638H290.673Z" fill="#2C3C43"/>
<path d="M318.143 279.748H300.908C298.969 279.748 297.397 277.738 297.397 275.258V267.698C297.397 265.218 298.969 263.208 300.908 263.208H318.143C320.083 263.208 321.655 265.218 321.655 267.698V275.258C321.655 277.738 320.084 279.748 318.143 279.748Z" fill="#2C3C43"/>
<path d="M341.322 308.638C340.644 309.731 341.647 292.528 343.186 284.977C343.541 283.237 344.768 282.026 346.173 282.026H373.696C375.215 282.026 376.512 283.439 376.744 285.36C377.374 290.558 379.063 300.53 379.446 308.687L341.322 308.638Z" fill="#2C3C43"/>
<path d="M368.79 279.748H351.555C349.616 279.748 348.043 277.738 348.043 275.258V267.698C348.043 265.218 349.616 263.208 351.555 263.208H368.79C370.73 263.208 372.302 265.218 372.302 267.698V275.258C372.302 277.738 370.73 279.748 368.79 279.748Z" fill="#2C3C43"/>
<path d="M399.251 315.097C399.251 315.097 399.262 315.383 399.258 315.942C399.248 316.526 399.236 317.347 399.221 318.415C399.174 320.618 399.108 323.819 399.022 327.927C398.824 336.213 398.54 348.157 398.187 362.901L398.18 363.151H397.984C376.486 363.177 347.168 363.211 314.887 363.25C281.916 363.21 252.041 363.173 230.318 363.147H230.118L230.12 362.894C230.157 348.715 230.187 337.233 230.208 329.268C230.231 325.319 230.249 322.244 230.261 320.126C230.272 319.101 230.282 318.312 230.289 317.749C230.299 317.213 230.318 316.939 230.318 316.939C230.318 316.939 230.337 317.213 230.346 317.749C230.353 318.312 230.363 319.101 230.374 320.126C230.386 322.244 230.404 325.319 230.427 329.268C230.448 337.233 230.478 348.715 230.515 362.894L230.317 362.638C252.04 362.612 281.914 362.575 314.886 362.535C347.168 362.574 376.486 362.609 397.983 362.634L397.782 362.884C398.211 348.143 398.558 336.202 398.799 327.918C398.931 323.812 399.033 320.613 399.104 318.412C399.145 317.345 399.176 316.525 399.198 315.94C399.223 315.383 399.25 315.098 399.25 315.098L399.251 315.097Z" fill="#2C3C43"/>
<path d="M366.541 346.704C366.337 347.487 366.541 373.076 366.541 373.076C366.541 373.076 400.26 375.422 407.8 364.719L405.913 342.736L366.541 346.705L366.541 346.704Z" fill="white"/>
<path d="M366.544 346.704C366.535 346.69 366.781 346.649 367.263 346.585C367.789 346.521 368.501 346.433 369.406 346.322C371.332 346.105 374.074 345.797 377.513 345.409C384.529 344.665 394.378 343.621 405.894 342.401L406.147 342.375L406.176 342.699C406.765 349.509 407.409 356.939 408.079 364.681L408.093 364.846L408.008 364.957C407.277 365.924 406.395 366.827 405.418 367.521C402.037 369.934 398.332 370.934 394.803 371.774C391.25 372.546 387.779 372.966 384.454 373.236C377.801 373.737 371.734 373.666 366.531 373.344L366.334 373.331L366.333 373.078C366.297 364.954 366.299 358.359 366.336 353.796C366.355 351.514 366.379 349.74 366.417 348.537C366.44 347.346 366.524 346.677 366.543 346.704C366.548 347.656 366.555 349.658 366.571 353.796C366.614 358.411 366.677 364.988 366.753 373.073L366.555 372.809C371.734 373.075 377.797 373.101 384.422 372.57C387.733 372.288 391.187 371.858 394.711 371.082C398.204 370.248 401.879 369.236 405.139 366.904C406.083 366.234 406.913 365.377 407.596 364.48L407.526 364.759C406.867 357.016 406.234 349.585 405.655 342.773L405.936 343.07C394.466 344.166 384.657 345.104 377.668 345.773C374.207 346.082 371.446 346.329 369.506 346.5C368.581 346.574 367.853 346.631 367.318 346.674C367.089 346.688 366.902 346.698 366.747 346.708C366.618 346.714 366.549 346.712 366.544 346.704Z" fill="#2C3C43"/>
<path d="M262.532 346.704C262.736 347.487 262.532 373.076 262.532 373.076C262.532 373.076 228.813 375.422 221.272 364.719L223.16 342.736L262.532 346.705V346.704Z" fill="white"/>
<path d="M262.531 346.704C262.526 346.712 262.458 346.714 262.328 346.708C262.172 346.699 261.986 346.689 261.757 346.674C261.222 346.631 260.494 346.574 259.568 346.5C257.629 346.328 254.868 346.081 251.407 345.773C244.419 345.104 234.608 344.166 223.139 343.07L223.42 342.773C222.841 349.585 222.208 357.016 221.549 364.759L221.479 364.48C222.162 365.376 222.991 366.234 223.934 366.904C227.194 369.236 230.87 370.249 234.364 371.082C237.887 371.858 241.342 372.288 244.652 372.57C251.275 373.101 257.338 373.074 262.519 372.809L262.32 373.073C262.397 364.988 262.46 358.411 262.504 353.796C262.519 349.659 262.527 347.656 262.531 346.704C262.55 346.677 262.635 347.346 262.656 348.537C262.694 349.74 262.719 351.514 262.738 353.796C262.774 358.359 262.776 364.954 262.741 373.078L262.74 373.331L262.542 373.344C257.341 373.666 251.273 373.737 244.619 373.236C241.295 372.967 237.823 372.546 234.27 371.774C230.742 370.933 227.037 369.934 223.657 367.521C222.679 366.827 221.797 365.924 221.065 364.957L220.98 364.846L220.995 364.681C221.666 356.94 222.309 349.509 222.899 342.699L222.927 342.375L223.18 342.401C234.697 343.621 244.547 344.665 251.563 345.409C255.001 345.797 257.744 346.106 259.67 346.322C260.576 346.432 261.287 346.52 261.811 346.585C262.294 346.649 262.541 346.69 262.531 346.704Z" fill="#2C3C43"/>
<path d="M218.919 389.59C218.919 389.59 217.059 421.462 221.349 440.831C222.732 447.077 227.223 451.355 232.299 451.355H400.128C403.769 451.355 407.046 448.515 408.359 444.174C411.02 435.369 413.883 420.53 409.642 389.352L359.989 389.59H218.92H218.919Z" fill="#2C3C43"/>
<path d="M245.738 417.625C241.725 417.625 236.964 417.371 233.356 416.406C225.739 414.367 224.146 400.49 223.614 400.037H253.726V417.312C253.726 417.312 250.194 417.626 245.737 417.626L245.738 417.625Z" fill="#273035"/>
<path d="M247.314 408.642C247.314 412.99 244.559 416.513 241.16 416.513C237.76 416.513 235.005 412.99 235.005 408.642C235.005 404.296 237.76 400.772 241.16 400.772C244.559 400.772 247.314 404.297 247.314 408.642Z" fill="#FEFEFE"/>
<path d="M376.726 417.815C372.268 417.815 368.735 417.501 368.735 417.501V400.226H398.849C398.317 400.68 396.723 414.555 389.106 416.595C385.499 417.559 380.738 417.814 376.727 417.814L376.726 417.815Z" fill="#273035"/>
<path d="M375.149 408.831C375.149 413.178 377.906 416.701 381.304 416.701C384.704 416.701 387.459 413.178 387.459 408.831C387.459 404.483 384.704 400.96 381.304 400.96C377.905 400.96 375.149 404.483 375.149 408.831Z" fill="#FEFEFE"/>
<path d="M268.229 400.037V413.569C268.229 420.875 272.86 426.797 278.574 426.797H350.401C356.115 426.797 360.746 420.875 360.746 413.569V400.771L268.228 400.037H268.229Z" fill="#42616A"/>
<path d="M350.4 427.031H278.573C272.859 427.031 268.228 421.108 268.228 413.802V413.647C268.262 420.916 272.881 426.796 278.573 426.796H350.4C356.114 426.796 360.745 420.873 360.745 413.567V408.217V413.801C360.745 421.107 356.114 427.03 350.4 427.03V427.031Z" fill="#273035"/>
<path d="M350.4 426.797H278.573C272.881 426.797 268.262 420.917 268.228 413.648V408.219C268.228 415.526 272.859 421.448 278.573 421.448H350.4C356.114 421.448 360.745 415.526 360.745 408.219V413.57C360.745 420.876 356.114 426.798 350.4 426.798V426.797Z" fill="#33484E"/>
<path d="M273.89 362.894C273.89 362.894 269.028 365.397 268.229 374.88C267.253 386.453 277.597 389.59 277.597 389.59H356.257C356.257 389.59 360.551 383.366 360.746 374.88C360.942 366.393 354.697 362.894 354.697 362.894H273.89H273.89Z" fill="#2C3C43"/>
<path d="M386.285 220.005C386.285 220.202 354.076 220.361 314.354 220.361C274.618 220.361 242.416 220.202 242.416 220.005C242.416 219.807 274.618 219.648 314.354 219.648C354.076 219.648 386.285 219.807 386.285 220.005Z" fill="#2C3C43"/>
<path d="M409.644 389.351C409.644 389.351 410.46 394.203 411.259 403.11C411.637 407.563 412.005 413.042 411.936 419.418C411.865 425.773 411.388 433.101 409.502 440.792C409.254 441.746 409.007 442.713 408.719 443.674C408.454 444.639 408.11 445.632 407.635 446.514C406.704 448.297 405.346 449.775 403.74 450.666C402.937 451.113 402.076 451.413 401.189 451.547C400.292 451.681 399.412 451.624 398.527 451.64C396.75 451.643 394.941 451.646 393.1 451.649C385.736 451.658 377.868 451.669 369.59 451.681C353.029 451.689 334.826 451.699 315.719 451.709C296.605 451.7 278.398 451.69 261.834 451.681C253.555 451.668 245.686 451.657 238.322 451.649C236.481 451.645 234.671 451.642 232.895 451.64C231.105 451.708 229.305 451.298 227.705 450.423C224.493 448.656 222.135 445.097 221.234 441.19C219.581 433.415 219.026 426.154 218.704 419.808C218.401 413.45 218.378 407.963 218.421 403.484C218.466 399.003 218.593 395.529 218.701 393.173C218.763 392.014 218.812 391.124 218.845 390.496C218.883 389.895 218.92 389.588 218.92 389.588C218.92 389.588 218.921 389.898 218.902 390.501C218.881 391.129 218.853 392.019 218.814 393.179C218.742 395.534 218.651 399.008 218.638 403.485C218.628 407.96 218.683 413.439 219.015 419.781C219.365 426.105 219.951 433.356 221.613 441.041C222.493 444.808 224.777 448.227 227.875 449.916C229.428 450.752 231.129 451.139 232.895 451.066C234.671 451.063 236.481 451.059 238.322 451.056C245.686 451.045 253.555 451.034 261.834 451.023C278.397 451.014 296.604 451.005 315.719 450.994C334.826 451.004 353.029 451.014 369.59 451.023C377.868 451.034 385.736 451.045 393.1 451.056C394.941 451.059 396.75 451.063 398.527 451.066C399.415 451.055 400.302 451.112 401.138 450.988C401.982 450.864 402.804 450.58 403.569 450.159C405.102 449.317 406.399 447.914 407.293 446.217C407.751 445.369 408.072 444.455 408.342 443.49C408.631 442.538 408.879 441.58 409.128 440.636C411.02 433.022 411.525 425.74 411.624 419.408C411.723 413.056 411.388 407.586 411.044 403.136C410.882 400.908 410.686 398.935 410.508 397.229C410.348 395.517 410.18 394.075 410.035 392.91C409.904 391.761 409.801 390.879 409.729 390.257C409.664 389.658 409.644 389.348 409.644 389.348V389.351Z" fill="#42616A"/>
<path d="M409.639 389.351C409.639 389.549 369.355 389.709 319.672 389.709C269.972 389.709 229.695 389.549 229.695 389.351C229.695 389.154 269.972 388.995 319.672 388.995C369.355 388.995 409.639 389.154 409.639 389.351Z" fill="#42616A"/>
<path d="M12.9959 345.83H-2.35881C-4.6999 345.83 -6.59668 343.402 -6.59668 340.41C-6.59668 335.81 -3.68017 332.079 -0.0825343 332.079H9.38825C11.3807 332.079 12.9959 334.145 12.9959 336.694V345.831V345.83Z" fill="#6CC56C"/>
<path d="M153.413 345.83H168.767C171.108 345.83 173.005 343.402 173.005 340.41C173.005 335.81 170.089 332.079 166.492 332.079H157.02C155.028 332.079 153.413 334.145 153.413 336.694V345.831L153.413 345.83Z" fill="#6CC56C"/>
<path d="M-5.41748 480.763H25.3074V428.125H-5.41748V480.763Z" fill="#2C3C43"/>
<path d="M143.005 480.763H173.731V428.125H143.005V480.763Z" fill="#2C3C43"/>
<path d="M-2.28487 358.172L6.64673 349.002L20.7812 299.378C22.8854 293.203 26.949 285.247 36.3071 284.04L133.673 285.143C139.194 285.205 144.106 289.639 145.999 296.271L158.654 340.576L162.126 350.644L170.372 358.021C173.535 360.852 175.419 365.477 175.419 370.414V441.492C175.419 441.492 175.01 454.565 164.379 454.565C153.748 454.565 5.32075 454.565 5.32075 454.565C5.32075 454.565 -4.9021 455.087 -6.53739 439.924C-7.83482 427.892 -7.07349 386.228 -6.70324 369.535C-6.6045 365.102 -4.99081 360.95 -2.28487 358.173V358.172Z" fill="#6CC56C"/>
<path d="M143.004 454.566H25.3077V454.565C55.3275 454.565 111.857 454.565 143.004 454.565V454.566ZM173.73 448.47V448.372C174.81 446.061 175.202 443.693 175.343 442.426C175.149 444.652 174.589 446.706 173.73 448.469V448.47ZM-5.41796 446.053C-6.53643 443.486 -7.15275 440.46 -7.12498 437.155L-7.45898 409C-7.43893 409.006 -7.37104 409.013 -7.25765 409.018C-7.30239 422.085 -7.14735 434.273 -6.53797 439.924C-6.31196 442.019 -5.92243 443.813 -5.41873 445.352V446.053H-5.41796Z" fill="#ABAEAF"/>
<path d="M25.3074 454.568H6.34424C6.2671 454.568 6.18997 454.568 6.1136 454.567C8.38681 454.567 15.4077 454.567 25.3074 454.567V454.568ZM-3.66649 449.156C-4.33912 448.22 -4.92612 447.181 -5.41748 446.055V445.354C-4.92689 446.851 -4.32832 448.106 -3.66649 449.157V449.156Z" fill="#273035"/>
<path d="M165.073 454.565H143.005V454.564C154.265 454.564 162.205 454.564 164.379 454.564C169.509 454.564 172.258 451.521 173.731 448.372V448.469C171.935 452.157 168.839 454.565 165.073 454.565Z" fill="#273035"/>
<path d="M164.377 454.566C162.203 454.566 154.263 454.566 143.004 454.566C111.855 454.566 55.3267 454.566 25.3068 454.566C15.4072 454.566 8.38625 454.566 6.11305 454.566C2.14902 454.489 -1.28894 452.467 -3.66705 449.156C-4.32888 448.105 -4.92745 446.849 -5.41804 445.352C-5.92251 443.813 -6.31127 442.018 -6.53728 439.924C-7.14666 434.273 -7.30171 422.085 -7.25697 409.018C-5.03545 409.134 14.7315 409.173 40.4973 409.173C94.6831 409.173 175.418 409 175.418 409V440.674C175.418 441.268 175.393 441.853 175.343 442.427C175.202 443.693 174.81 446.062 173.73 448.373C172.257 451.523 169.507 454.566 164.378 454.566H164.377Z" fill="#6CC56C" fill-opacity="0.09"/>
<path d="M-1.16731 363.367L34.077 368.813V395.239C34.077 395.239 -4.93079 393.832 -7.26416 387.203L-6.74117 369.45C-6.63164 365.728 -4.05838 362.92 -1.16731 363.367Z" fill="white"/>
<path d="M-1.16659 363.367C-1.16736 363.422 -1.70809 363.278 -2.69466 363.515C-3.63573 363.779 -5.15299 364.592 -6.04314 366.755C-6.51521 367.819 -6.63401 369.137 -6.62784 370.637C-6.66409 372.127 -6.70342 373.741 -6.74585 375.471C-6.83533 378.944 -6.93715 382.88 -7.049 387.212L-7.06751 387.09C-6.47047 388.337 -5.13293 389.017 -3.8841 389.577C-2.59592 390.13 -1.22136 390.557 0.20103 390.944C3.0543 391.678 6.1058 392.244 9.3031 392.709C15.6969 393.642 22.6654 394.251 29.9393 394.678C31.3347 394.748 32.7193 394.816 34.0854 394.883L33.7992 395.238C33.8077 385.839 33.8162 376.919 33.8239 368.813L34.0484 369.135C23.672 367.478 14.8777 366.074 8.63202 365.078C5.56277 364.565 3.1214 364.155 1.40435 363.868C0.597508 363.722 -0.0380888 363.607 -0.509391 363.522C-0.942896 363.437 -1.16659 363.385 -1.16505 363.367C-1.16351 363.348 -0.935953 363.366 -0.499362 363.416C-0.0265179 363.477 0.612936 363.558 1.42441 363.662C3.14532 363.906 5.59285 364.254 8.66981 364.69C14.9209 365.624 23.7245 366.939 34.1101 368.49L34.333 368.523V368.813C34.3407 376.919 34.3492 385.839 34.3577 395.238V395.608L34.0715 395.594C32.7016 395.527 31.3139 395.46 29.9154 395.391C22.6315 394.964 15.6537 394.337 9.2437 393.375C6.03792 392.895 2.97639 392.31 0.103066 391.55C-1.3309 391.149 -2.7178 390.708 -4.03375 390.132C-4.6894 389.837 -5.32732 389.506 -5.92898 389.091C-6.51598 388.653 -7.1107 388.159 -7.45936 387.315L-7.48096 387.264L-7.47864 387.191C-7.33517 382.858 -7.20404 378.926 -7.08911 375.455C-7.02971 373.725 -6.9734 372.114 -6.92172 370.622C-6.91478 369.159 -6.76745 367.689 -6.25526 366.608C-5.28566 364.361 -3.68971 363.578 -2.7178 363.357C-1.69806 363.166 -1.16582 363.366 -1.16582 363.366L-1.16659 363.367Z" fill="#2C3C43"/>
<path d="M169.322 363.367L134.078 368.813V395.239C134.078 395.239 172.326 393.507 174.658 386.878L174.897 369.45C174.786 365.728 172.214 362.92 169.322 363.367Z" fill="white"/>
<path d="M169.321 363.367C169.321 363.367 169.846 363.169 170.854 363.353C171.817 363.564 173.39 364.33 174.373 366.527C174.871 367.577 175.114 369.039 175.028 370.488C175.015 371.961 175.003 373.557 174.987 375.268C174.953 378.702 174.915 382.596 174.872 386.882L174.871 386.946L174.853 386.989C174.509 387.825 173.925 388.327 173.344 388.768C172.75 389.188 172.12 389.526 171.47 389.828C170.168 390.419 168.792 390.872 167.371 391.286C164.521 392.073 161.481 392.685 158.297 393.193C151.929 394.212 144.994 394.899 137.752 395.383C136.52 395.454 135.297 395.525 134.085 395.594L133.796 395.61V395.238C133.805 385.85 133.813 376.932 133.82 368.813L133.822 368.523L134.046 368.49C144.42 366.94 153.222 365.624 159.477 364.69C162.555 364.254 165.003 363.907 166.727 363.662C167.539 363.559 168.179 363.476 168.653 363.416C169.091 363.366 169.318 363.348 169.32 363.367C169.321 363.385 169.097 363.437 168.663 363.522C168.191 363.606 167.555 363.723 166.747 363.87C165.027 364.158 162.584 364.566 159.513 365.079C153.265 366.076 144.47 367.481 134.106 369.136L134.33 368.813C134.338 376.932 134.346 385.85 134.354 395.238L134.066 394.882C135.274 394.812 136.494 394.741 137.723 394.67C144.955 394.188 151.883 393.518 158.232 392.53C161.407 392.037 164.436 391.445 167.267 390.683C168.677 390.283 170.04 389.844 171.316 389.278C172.553 388.705 173.871 388.01 174.46 386.766L174.442 386.873C174.516 382.592 174.583 378.702 174.642 375.269C174.674 373.56 174.704 371.966 174.732 370.492C174.831 369.01 174.621 367.723 174.162 366.677C173.256 364.56 171.762 363.766 170.829 363.512C169.854 363.28 169.319 363.422 169.319 363.368L169.321 363.367Z" fill="#2C3C43"/>
<path d="M47.619 368.813C42.1454 368.813 37.3823 373.851 36.5739 380.774C36.3425 382.752 36.246 385.041 36.3494 387.686C36.9665 403.483 39.4372 422.833 45.3049 427.572H85.7582V368.812H47.619V368.813Z" fill="#2C3C43"/>
<path d="M119.282 368.813C124.755 368.813 129.518 373.851 130.328 380.774C130.558 382.752 130.655 385.041 130.551 387.686C129.934 403.483 127.463 422.833 121.596 427.572H81.1426V368.812H119.282V368.813Z" fill="#2C3C43"/>
<path d="M129.464 389.66H37.831C36.4657 389.66 35.3604 388.247 35.3604 386.501C35.3604 384.757 36.4657 383.341 37.831 383.341H129.464C130.828 383.341 131.935 384.757 131.935 386.501C131.935 388.246 130.828 389.66 129.464 389.66Z" fill="#42616A"/>
<path d="M124.667 377.187H41.0698C39.706 377.187 38.5991 375.771 38.5991 374.027C38.5991 372.282 39.706 370.868 41.0698 370.868H124.667C126.031 370.868 127.138 372.281 127.138 374.027C127.138 375.771 126.032 377.187 124.667 377.187Z" fill="#42616A"/>
<path d="M129.466 403.727H38.7788C37.4135 403.727 36.3081 402.314 36.3081 400.568C36.3081 398.824 37.4135 397.408 38.7788 397.408H129.466C130.83 397.408 131.937 398.824 131.937 400.568C131.937 402.314 130.83 403.727 129.466 403.727Z" fill="#42616A"/>
<path d="M126.299 417.788H40.8247C39.4594 417.788 38.354 416.374 38.354 414.628C38.354 412.884 39.4594 411.469 40.8247 411.469H126.299C127.663 411.469 128.77 412.884 128.77 414.628C128.77 416.374 127.663 417.788 126.299 417.788Z" fill="#42616A"/>
<path d="M13.4082 341.366C13.4082 341.366 23.6241 297.748 28.4968 292.208H140.297C140.297 292.208 149.896 319.21 153.416 341.366H13.4082Z" fill="#42616A"/>
<path d="M41.9434 435.249V439.045C41.9434 443.661 44.8691 447.402 48.4783 447.402H119.837C123.445 447.402 126.371 443.661 126.371 439.045V435.249H41.9434Z" fill="#2C3C43"/>
<path d="M140.682 424.707V441.324C140.682 441.324 166.803 446.034 170.62 424.707H140.682Z" fill="#2C3C43"/>
<path d="M31.1444 424.707V441.324C31.1444 441.324 5.02304 446.034 1.20557 424.707H31.1444Z" fill="#2C3C43"/>
<path d="M162.126 350.645C162.12 350.649 162.085 350.559 162.024 350.378C161.957 350.172 161.871 349.909 161.762 349.576C161.529 348.829 161.202 347.781 160.783 346.434C159.93 343.64 158.702 339.615 157.15 334.534C154.057 324.266 149.679 309.738 144.496 292.539L144.73 292.745C133.855 292.736 121.545 292.726 108.553 292.715C85.1122 292.633 63.8944 292.557 48.5011 292.504C40.8399 292.443 34.6305 292.394 30.3031 292.359C28.1788 292.327 26.5173 292.3 25.3556 292.282C24.811 292.267 24.3853 292.254 24.069 292.246C23.7797 292.233 23.6309 292.22 23.6309 292.207C23.6309 292.194 23.7797 292.183 24.069 292.172C24.3853 292.164 24.8118 292.153 25.3556 292.139C26.5173 292.125 28.1788 292.107 30.3031 292.081C34.6305 292.062 40.8399 292.035 48.5019 292C63.8936 292 85.113 292.002 108.555 292.002C121.547 292.037 133.856 292.072 144.732 292.101H144.905L144.966 292.309C150.072 309.546 154.384 324.107 157.432 334.397C158.925 339.505 160.109 343.553 160.93 346.36C161.319 347.723 161.622 348.783 161.837 349.538C161.931 349.879 162.003 350.148 162.061 350.36C162.11 350.544 162.131 350.641 162.124 350.643L162.126 350.645Z" fill="#2C3C43"/>
<path d="M153.416 341.365C153.416 341.562 122.071 341.746 83.4162 341.779C44.7463 341.81 13.4082 341.676 13.4082 341.479C13.4082 341.282 44.7455 341.097 83.4147 341.066C122.071 341.034 153.416 341.168 153.416 341.366V341.365Z" fill="#2C3C43"/>
<path d="M152.454 341.111C152.546 340.953 157.063 345.093 162.541 350.358C168.02 355.624 172.386 360.019 172.293 360.177C172.2 360.333 167.685 356.193 162.205 350.929C156.727 345.666 152.362 341.269 152.454 341.111H152.454Z" fill="#2C3C43"/>
<path d="M13.405 341.364C13.5045 341.514 9.71253 345.846 4.93626 351.041C0.158447 356.236 -3.79478 360.324 -3.89506 360.175C-3.99456 360.024 -0.203326 355.692 4.57449 350.497C9.35076 345.304 13.3048 341.214 13.405 341.365V341.364Z" fill="#2C3C43"/>
<path d="M14.706 320.715C14.8502 320.782 13.164 327.17 10.9394 334.981C8.71405 342.794 6.79336 349.07 6.64834 349.003C6.50333 348.936 8.18952 342.549 10.4149 334.736C12.6395 326.926 14.5602 320.648 14.7052 320.715H14.706Z" fill="#2C3C43"/>
<path d="M137.999 368.207C138 368.22 137.909 368.236 137.732 368.257C137.523 368.277 137.264 368.302 136.947 368.332C136.21 368.385 135.201 368.459 133.923 368.551C131.295 368.729 127.493 368.927 122.791 369.1C113.389 369.467 100.395 369.657 86.0457 369.596C71.6922 369.534 58.701 369.319 49.2973 369.174C44.6306 369.09 40.8393 369.022 38.1619 368.974C36.883 368.938 35.871 368.911 35.1343 368.89C34.8157 368.873 34.5581 368.86 34.3483 368.848C34.1701 368.837 34.0791 368.824 34.0791 368.812C34.0791 368.799 34.1701 368.787 34.3483 368.776C34.5581 368.769 34.8165 368.759 35.1359 368.747C35.8733 368.734 36.8845 368.718 38.1635 368.696C40.8409 368.69 44.6329 368.681 49.3012 368.67C58.7449 368.725 71.7154 368.799 86.048 368.882C100.394 368.944 113.382 368.835 122.782 368.596C127.448 368.461 131.238 368.35 133.914 368.274C135.194 368.237 136.205 368.208 136.942 368.189C137.261 368.187 137.519 368.186 137.73 368.185C137.908 368.188 137.999 368.195 137.999 368.208V368.207Z" fill="#2C3C43"/>
<path d="M92.8592 300.489H72.4166C69.7793 300.489 67.6411 297.755 67.6411 294.382V292.208H97.6355V294.382C97.6355 297.754 95.4973 300.489 92.8592 300.489Z" fill="#2C3C43"/>
<path d="M140.776 340.606H139.705C139.705 330.32 133.161 321.952 125.118 321.952C117.076 321.952 110.532 330.32 110.532 340.606H109.46C109.46 329.565 116.484 320.582 125.118 320.582C133.752 320.582 140.775 329.565 140.775 340.606H140.776Z" fill="#2C3C43"/>
<path d="M104.722 339.831C104.722 339.831 106.888 334.688 113.177 334.472C119.017 334.27 133.833 334.48 133.833 334.48C133.833 334.48 141.067 334.885 143.159 338.696V341.112H104.722V339.831Z" fill="#2C3C43"/>
<path d="M30.1509 341.872C29.4844 342.774 30.4702 328.607 31.9852 322.388C32.3339 320.953 33.5395 319.957 34.9225 319.957H61.9865C63.4807 319.957 64.7557 321.12 64.984 322.702C65.6034 326.983 67.2642 335.195 67.6406 341.912L30.1501 341.871L30.1509 341.872Z" fill="#2C3C43"/>
<path d="M57.2028 318.081H40.3701C38.4309 318.081 36.8589 316.071 36.8589 313.591V308.949C36.8589 306.468 38.4302 304.458 40.3701 304.458H57.2028C59.142 304.458 60.714 306.468 60.714 308.949V313.591C60.714 316.07 59.142 318.081 57.2028 318.081Z" fill="#2C3C43"/>
<path d="M95.4416 341.366C94.7752 342.267 95.9731 327.394 97.4865 321.176C97.8359 319.742 99.0423 318.746 100.425 318.746H127.489C128.984 318.746 130.258 319.909 130.487 321.49C131.106 325.771 132.767 334.649 133.143 341.366H95.4416Z" fill="#2C3C43"/>
<path d="M122.71 318.081H105.877C103.938 318.081 102.367 316.071 102.367 313.591V308.949C102.367 306.468 103.938 304.458 105.877 304.458H122.71C124.649 304.458 126.22 306.468 126.22 308.949V313.591C126.22 316.07 124.649 318.081 122.71 318.081Z" fill="#2C3C43"/>
<path d="M475.29 451.779C475.24 451.775 475.141 452.679 475.034 454.146C474.981 454.879 474.924 455.753 474.873 456.726C474.852 457.219 474.829 457.729 474.806 458.254C474.796 458.805 474.752 459.289 474.803 459.959C475.111 461.166 475.825 461.863 476.354 462.541C476.932 463.221 477.522 463.693 478.011 464.083C479.003 464.842 479.603 465.309 479.632 465.265C479.668 465.208 479.105 464.628 478.155 463.804C477.687 463.381 477.124 462.885 476.592 462.226C476.069 461.544 475.401 460.812 475.163 459.842C475.135 459.396 475.16 458.778 475.17 458.273C475.187 457.75 475.201 457.242 475.216 456.75C475.245 455.823 475.271 454.958 475.296 454.169C475.337 452.697 475.342 451.785 475.291 451.78L475.29 451.779Z" fill="#F69576"/>
<path d="M472.295 451.999C472.243 451.988 472.092 452.823 471.896 454.182C471.799 454.862 471.69 455.673 471.581 456.575C471.529 457.036 471.475 457.508 471.42 457.995C471.376 458.51 471.302 458.953 471.308 459.592C471.521 460.76 472.145 461.483 472.597 462.172C473.096 462.866 473.616 463.368 474.05 463.783C474.929 464.592 475.463 465.088 475.494 465.046C475.534 464.994 475.046 464.39 474.211 463.518C473.802 463.075 473.307 462.553 472.854 461.883C472.41 461.192 471.833 460.436 471.674 459.514C471.676 459.1 471.74 458.522 471.781 458.053C471.828 457.566 471.875 457.095 471.919 456.636C472.003 455.776 472.083 454.973 472.155 454.232C472.285 452.861 472.345 452.009 472.295 451.999Z" fill="#F69576"/>
</g>
<defs>
<clipPath id="clip0_5289_412">
<rect width="592.061" height="592.061" rx="296.03" fill="white"/>
</clipPath>
</defs>
</svg>
