<svg width="1025" height="828" viewBox="0 0 1025 828" fill="none" xmlns="http://www.w3.org/2000/svg">
<circle cx="553.5" cy="359.5" r="352.5" fill="white"/>
<g filter="url(#filter0_d_4878_29319)">
<g clip-path="url(#clip0_4878_29319)">
<rect x="258" y="64" width="592.061" height="592.061" rx="296.03" fill="white"/>
<path d="M404.767 542.567H490.789V529.64H404.767V542.567Z" fill="white"/>
<path d="M654.097 542.576H747.991V530.255H654.097V542.576Z" fill="white"/>
<path d="M862.009 132.326C862.009 149.311 851.241 163.08 837.959 163.08C824.677 163.08 813.909 149.311 813.909 132.326C813.909 115.341 824.677 101.572 837.959 101.572C851.241 101.572 862.009 115.34 862.009 132.326Z" fill="#E5E6E5"/>
<path d="M834.531 201.094C834.393 201.094 834.278 195.415 834.278 188.408C834.278 181.402 834.392 175.723 834.531 175.723C834.672 175.723 834.785 181.402 834.785 188.408C834.785 195.415 834.672 201.094 834.531 201.094Z" fill="white"/>
<path d="M820.676 168.572C820.796 168.662 818.534 173.961 815.623 180.406C812.711 186.854 810.254 192.007 810.133 191.918C810.011 191.829 812.273 186.531 815.185 180.084C818.096 173.638 820.554 168.483 820.676 168.572Z" fill="white"/>
<path d="M806.453 157.246C806.541 157.387 804.026 160.127 800.838 163.368C797.647 166.61 794.992 169.125 794.905 168.984C794.817 168.845 797.332 166.105 800.522 162.861C803.711 159.62 806.367 157.106 806.453 157.246Z" fill="white"/>
<path d="M838.148 64.001C838.219 64.0069 838.211 65.6187 838.182 68.2228C838.153 70.8279 838.113 74.4234 838.115 78.3937C838.12 82.3669 838.165 85.9633 838.199 88.5674C838.233 91.1706 838.244 92.7843 838.172 92.7883C838.104 92.7942 837.967 91.1883 837.841 88.5832C837.716 85.9801 837.613 82.3768 837.608 78.3946C837.605 74.4135 837.702 70.8102 837.823 68.206C837.944 65.6019 838.079 63.9961 838.146 64L838.148 64.001Z" fill="white"/>
<path d="M817.719 96.5294C817.601 96.6221 815.067 91.5983 812.061 85.31C809.055 79.0187 806.715 73.8459 806.835 73.7522C806.954 73.6595 809.487 78.6813 812.493 84.9726C815.499 91.261 817.838 96.4356 817.719 96.5284V96.5294Z" fill="white"/>
<path d="M805.52 109.788C805.507 109.872 804.527 109.69 802.963 109.269C801.399 108.85 799.255 108.178 796.914 107.297C794.575 106.415 792.488 105.488 790.996 104.756C789.504 104.024 788.604 103.498 788.628 103.417C788.654 103.331 789.598 103.705 791.115 104.324C792.633 104.945 794.729 105.797 797.059 106.677C799.388 107.555 801.511 108.292 803.048 108.825C804.586 109.358 805.537 109.699 805.522 109.79L805.52 109.788Z" fill="white"/>
<path d="M800.191 133.417C800.204 133.595 796.767 134.163 792.516 134.685C788.263 135.209 784.805 135.488 784.792 135.31C784.778 135.131 788.214 134.564 792.467 134.041C796.718 133.517 800.176 133.238 800.191 133.417Z" fill="white"/>
<path d="M845.682 264.263C846.147 259.937 841.374 256.38 837.787 256.01C836.077 255.834 834.302 256.168 832.68 255.445C829.17 253.881 827.768 248.082 824.343 246.233C821.782 244.852 818.833 246.082 816.35 247.68C813.868 249.277 811.415 251.289 808.642 251.517C806.229 251.714 803.608 250.57 801.498 252.077C799.925 253.2 799.101 255.516 797.651 256.886C796.233 258.223 794.384 258.506 792.623 258.629C790.863 258.752 789.041 258.774 787.439 259.713C785.836 260.651 784.511 262.818 784.843 265.031L845.684 264.264L845.682 264.263Z" fill="#E5E6E5"/>
<path d="M936.674 545.515C936.674 545.713 765.211 545.873 553.749 545.873C342.214 545.873 170.787 545.714 170.787 545.515C170.787 545.32 342.214 545.159 553.749 545.159C765.211 545.159 936.674 545.32 936.674 545.515Z" fill="#E5E6E5"/>
<path d="M468.529 534.944H443.629L441.399 545.514H470.76L468.529 534.944Z" fill="white"/>
#E5E6E5"/>
<path d="M701.113 534.944H676.213L673.982 545.514H703.343L701.113 534.944Z" fill="white"/>
<path d="M701.11 534.946C701.121 534.928 701.183 535.157 701.295 535.613C701.417 536.142 701.575 536.817 701.771 537.652C702.196 539.552 702.783 542.183 703.515 545.455L703.579 545.744L703.341 545.746C696.915 545.824 687.136 545.874 676.212 545.874C675.462 545.874 674.717 545.874 673.98 545.873H673.617L673.712 545.424C674.494 541.734 675.249 538.181 675.954 534.859L676.007 534.605L676.211 534.607C683.418 534.66 689.632 534.706 694.12 534.738C696.285 534.786 698.029 534.822 699.302 534.85C699.853 534.87 700.302 534.886 700.662 534.899C700.968 534.916 701.12 534.932 701.111 534.947C701.103 534.962 700.93 534.978 700.608 534.995C700.239 535.006 699.778 535.023 699.21 535.044C697.944 535.072 696.208 535.109 694.056 535.155C689.584 535.188 683.392 535.233 676.211 535.287L676.467 535.036C675.77 538.36 675.024 541.917 674.249 545.609L673.98 545.16C674.717 545.16 675.462 545.16 676.212 545.16C687.136 545.16 696.915 545.21 703.341 545.286L703.167 545.576C702.522 542.323 702.003 539.71 701.629 537.822C701.466 536.958 701.334 536.26 701.23 535.712C701.144 535.225 701.101 534.963 701.111 534.946H701.11Z" fill="#E5E6E5"/>
<path d="M706.688 545.512H734.712V492.246H706.688V545.512Z" fill="#E5E6E5"/>
<path d="M724.492 398.081C724.492 398.081 714.137 408.302 713.34 411.871C713.34 411.871 712.18 413.409 712.056 416.716C711.933 420.023 711.072 424.43 711.072 424.43C711.072 424.43 706.392 435.925 705.901 441.592C705.408 447.26 705.901 499.69 705.901 499.69H889.425V437.127L884.334 421.256C884.334 421.256 883.06 411.489 881.469 408.641C879.878 405.791 868.103 396.839 868.103 396.839L860.482 371.095C857.844 363.408 851.001 353.569 841.083 353.616L753.861 353.57C746.446 353.57 738.17 361.753 735.733 367.844L724.493 398.083L724.492 398.081Z" fill="white"/>
<path d="M889.424 494.158L885.713 480.031L770.317 480.36C768.703 474.603 766.363 468.868 764.498 464.718C775.127 464.724 786.348 464.731 797.948 464.737C820.804 464.715 842.19 464.693 860.418 464.676C862.707 464.629 864.889 463.356 866.409 461.36H889.424V494.158ZM705.845 489.741L705.683 461.36H724.108C724.398 464.941 725.562 465.77 726.286 465.929C726.256 466.42 726.091 469.294 726.091 473.561C726.091 475.59 726.128 477.933 726.234 480.484L711.779 480.525L709.077 484.721L705.845 489.741ZM860.408 464.063C842.184 464.05 820.801 464.038 797.948 464.023C786.885 464.03 776.166 464.036 765.977 464.042C766.402 463.884 766.785 463.609 767.098 463.184C767.346 462.849 767.542 462.225 767.693 461.359H865.746C864.326 463.005 862.41 464.029 860.408 464.063Z" fill="#949899"/>
<path d="M733.808 396.633H861.369C861.369 396.633 859.775 359.249 840.641 359.249C821.507 359.249 754.396 359.97 754.396 359.97C754.396 359.97 746.04 357.92 738.96 373.145C736.258 378.951 734.706 385.511 734.163 392.231L733.808 396.634V396.633Z" fill="#42616A"/>
<path d="M786.2 396.455L764.487 362.11C768.197 362.071 772.76 362.025 777.816 361.976L800.817 396.449C800.473 396.449 800.129 396.449 799.784 396.449C795.131 396.449 790.589 396.452 786.2 396.456V396.455ZM763.079 359.881L763.077 359.877C763.08 359.877 763.084 359.877 763.087 359.877H763.438C763.317 359.879 763.199 359.88 763.08 359.881H763.079Z" fill="#748B93"/>
<path d="M757.024 359.941V359.905L758.128 359.877L758.158 359.929C757.75 359.935 757.372 359.937 757.024 359.942V359.941Z" fill="#E2E3E3"/>
<path d="M776.321 396.47L756.991 364.289L757.009 362.186C757.698 362.178 758.533 362.169 759.496 362.16L779.975 396.463C778.742 396.466 777.524 396.467 776.322 396.47H776.321ZM757.029 359.944V359.94C757.376 359.936 757.755 359.933 758.163 359.927L758.166 359.931C757.753 359.935 757.374 359.94 757.03 359.944H757.029Z" fill="#748B93"/>
<path d="M861.369 396.633C861.369 396.633 861.551 397.017 861.878 397.791C862.209 398.591 862.688 399.743 863.311 401.245C864.57 404.32 866.413 408.827 868.797 414.656L868.812 414.693V414.736C868.828 421.26 868.848 429.327 868.871 438.673C868.877 443.351 868.885 448.35 868.893 453.634C868.895 456.343 868.069 459.132 866.527 461.205C865.003 463.292 862.766 464.63 860.418 464.679C842.19 464.696 820.804 464.718 797.949 464.74C781.12 464.731 765.091 464.721 750.508 464.712C746.863 464.706 743.309 464.701 739.854 464.697C739.24 464.685 738.635 464.689 738.033 464.693C736.932 464.702 735.841 464.708 734.728 464.625C733.871 464.495 733.041 464.213 732.255 463.805C731.479 463.364 730.761 462.798 730.112 462.128C729.48 461.434 728.923 460.646 728.458 459.785C728.018 458.906 727.647 457.975 727.405 456.995C726.879 455.023 727.003 452.966 727 451.074C727.017 447.225 727.034 443.534 727.048 440.007C727.067 432.961 727.082 426.585 727.098 420.98C727.093 418.18 727.098 415.571 727.052 413.181C726.952 411.966 727.268 410.775 727.581 409.775C727.923 408.762 728.282 407.824 728.65 406.954C730.125 403.48 731.47 400.94 732.371 399.214C732.826 398.376 733.176 397.732 733.424 397.272C733.667 396.841 733.807 396.633 733.807 396.633C733.807 396.633 733.7 396.869 733.471 397.314C733.234 397.782 732.899 398.44 732.464 399.293C731.595 401.043 730.279 403.607 728.841 407.083C728.483 407.954 728.135 408.89 727.805 409.892C727.501 410.918 727.215 411.963 727.317 413.167C727.38 415.573 727.39 418.176 727.408 420.978C727.418 426.583 727.43 432.96 727.442 440.008C727.439 443.534 727.434 447.227 727.429 451.074C727.437 453.007 727.326 454.963 727.83 456.819C728.062 457.747 728.415 458.626 728.835 459.459C729.279 460.271 729.807 461.015 730.408 461.671C731.024 462.301 731.705 462.835 732.438 463.249C733.182 463.633 733.967 463.896 734.777 464.017C735.824 464.092 736.92 464.081 738.027 464.072C738.634 464.066 739.247 464.06 739.854 464.069C743.308 464.063 746.862 464.06 750.507 464.054C765.09 464.045 781.119 464.036 797.948 464.025C820.8 464.039 842.183 464.052 860.408 464.065C862.628 464.029 864.744 462.772 866.193 460.802C867.659 458.841 868.45 456.205 868.456 453.63C868.464 448.347 868.473 443.35 868.481 438.672C868.504 429.326 868.523 421.259 868.539 414.735L868.554 414.815C866.22 408.954 864.415 404.422 863.184 401.329C862.587 399.81 862.129 398.644 861.812 397.834C861.507 397.046 861.368 396.633 861.368 396.633H861.369Z" fill="#2C3C43"/>
<path d="M845.09 447.375L826.14 430.506H770.221L767.191 433.277C767.047 431.241 766.893 429.201 766.732 427.19C767.718 425.877 768.713 424.554 769.715 423.218C778.69 423.222 788.139 423.225 797.882 423.229C807.939 423.225 817.686 423.221 826.766 423.216C831.734 429.895 836.515 436.279 841.092 442.256C842.252 443.747 843.395 445.218 844.521 446.664C844.712 446.903 844.901 447.14 845.091 447.375H845.09Z" fill="#949899"/>
<path d="M885.858 430.506C885.858 430.506 885.882 430.92 885.894 431.727C885.902 432.563 885.915 433.753 885.93 435.296C885.944 438.456 885.966 443.053 885.994 448.917L885.996 449.093H885.858C878.682 449.12 869.049 449.156 857.586 449.198C854.717 449.205 851.733 449.212 848.646 449.219L847.483 449.222L846.898 449.223L846.497 449.018L846.255 448.765C845.654 448.089 845.093 447.38 844.52 446.665C843.394 445.218 842.25 443.749 841.09 442.257C836.489 436.249 831.68 429.828 826.684 423.111L826.879 423.217C817.766 423.221 807.981 423.225 797.881 423.23C788.096 423.226 778.608 423.223 769.6 423.219L769.795 423.112C762.822 432.397 756.26 441.135 750.255 449.129L750.184 449.225L750.082 449.224C731.95 449.161 717.273 449.111 707.901 449.079L707.775 449.077L707.776 448.917C707.801 443.821 707.822 439.9 707.836 437.22C707.85 435.918 707.861 434.92 707.868 434.219C707.879 433.545 707.901 433.203 707.901 433.203C707.901 433.203 707.924 433.545 707.935 434.219C707.943 434.92 707.954 435.919 707.968 437.22C707.981 439.901 708.001 443.821 708.028 448.917L707.901 448.756C717.273 448.724 731.951 448.673 750.082 448.61L749.908 448.704C755.899 440.694 762.447 431.936 769.404 422.634L769.484 422.528H769.6C778.608 422.524 788.096 422.519 797.881 422.517C807.981 422.521 817.767 422.526 826.879 422.53H826.996L827.075 422.636C832.064 429.361 836.861 435.793 841.446 441.811C842.601 443.304 843.74 444.774 844.86 446.222C845.427 446.935 845.992 447.649 846.568 448.301L846.78 448.527L846.838 448.589L846.83 448.597L846.821 448.688C846.819 448.667 846.819 448.718 846.819 448.769C846.819 448.864 846.82 448.958 846.825 448.612H846.898L847.482 448.614L848.646 448.616C851.733 448.624 854.716 448.63 857.585 448.636C869.048 448.679 878.682 448.716 885.857 448.742L885.72 448.917C885.747 443.054 885.77 438.457 885.785 435.296C885.801 433.753 885.812 432.564 885.821 431.727C885.832 430.92 885.857 430.506 885.857 430.506H885.858Z" fill="#2C3C43"/>
<path d="M771.812 446.401H823.719V430.506H771.812V446.401Z" fill="#42616A"/>
<path d="M705.286 490.611L711.78 480.526L885.713 480.031L889.424 494.159V507.423L874.158 519.203H724.041C724.041 519.203 706.106 510.298 705.286 500.31V490.61V490.611Z" fill="#2C3C43"/>
<path d="M872.845 518.977C855.306 518.947 828.316 518.899 798.108 518.846C786.843 518.863 776.026 518.879 765.962 518.893C765.989 518.375 766.004 518.094 766.004 518.094C766.405 517.49 766.774 516.906 767.117 516.335C767.166 517.738 767.228 518.58 767.296 518.58C767.373 518.58 767.442 517.478 767.493 515.699C770.558 510.386 771.301 506.079 771.896 497.785H864.377C869.063 497.785 872.863 502.643 872.863 508.637V518.971C872.856 518.974 872.851 518.975 872.844 518.977H872.845Z" fill="#273035"/>
<path d="M738.155 510.762C738.155 514.383 735.86 517.318 733.029 517.318C730.197 517.318 727.901 514.383 727.901 510.762C727.901 507.141 730.197 504.206 733.029 504.206C735.86 504.206 738.155 507.141 738.155 510.762Z" fill="#42616A"/>
<path d="M749.123 510.762C749.123 514.383 746.828 517.318 743.997 517.318C741.165 517.318 738.87 514.383 738.87 510.762C738.87 507.141 741.165 504.206 743.997 504.206C746.827 504.206 749.123 507.141 749.123 510.762Z" fill="#42616A"/>
<path d="M753.36 518.583C753.208 518.583 753.082 514.186 753.082 508.766C753.082 503.343 753.208 498.947 753.36 498.947C753.515 498.947 753.641 503.343 753.641 508.766C753.641 514.185 753.515 518.583 753.36 518.583Z" fill="#2C3C43"/>
<path d="M767.296 518.583C767.142 518.583 767.018 514.186 767.018 508.766C767.018 503.343 767.142 498.947 767.296 498.947C767.45 498.947 767.574 503.343 767.574 508.766C767.574 514.185 767.45 518.583 767.296 518.583Z" fill="#2C3C43"/>
<path d="M781.234 518.582C781.08 518.582 780.954 514.185 780.954 508.765C780.954 503.342 781.08 498.947 781.234 498.947C781.387 498.947 781.513 503.341 781.513 508.765C781.513 514.184 781.387 518.582 781.234 518.582Z" fill="#2C3C43"/>
<path d="M795.168 518.582C795.014 518.582 794.89 514.185 794.89 508.765C794.89 503.342 795.014 498.947 795.168 498.947C795.322 498.947 795.448 503.341 795.448 508.765C795.448 514.184 795.322 518.582 795.168 518.582Z" fill="#2C3C43"/>
<path d="M809.103 518.582C808.949 518.582 808.823 514.185 808.823 508.765C808.823 503.342 808.949 498.947 809.103 498.947C809.256 498.947 809.382 503.341 809.382 508.765C809.382 514.184 809.256 518.582 809.103 518.582Z" fill="#2C3C43"/>
<path d="M823.043 518.582C822.889 518.582 822.765 514.185 822.765 508.765C822.765 503.342 822.889 498.947 823.043 498.947C823.197 498.947 823.323 503.341 823.323 508.765C823.323 514.184 823.197 518.582 823.043 518.582Z" fill="#2C3C43"/>
<path d="M836.976 518.582C836.821 518.582 836.697 514.185 836.697 508.765C836.697 503.342 836.821 498.947 836.976 498.947C837.13 498.947 837.254 503.341 837.254 508.765C837.254 514.184 837.13 518.582 836.976 518.582Z" fill="#2C3C43"/>
<path d="M709.076 484.722L735.181 484.831V480.459L711.779 480.526L709.076 484.722Z" fill="#6CC56C"/>
<path d="M867.496 396.803C867.496 397.001 837.175 397.161 799.782 397.161C762.375 397.161 732.062 397.001 732.062 396.803C732.062 396.608 762.374 396.447 799.782 396.447C837.174 396.447 867.496 396.608 867.496 396.803Z" fill="#2C3C43"/>
<path d="M889.424 502.322C889.432 502.324 889.412 502.487 889.364 502.808C889.308 503.157 889.233 503.632 889.137 504.238C888.898 505.479 888.349 507.296 887.206 509.308C884.941 513.373 879.879 517.502 872.894 519.425L872.881 519.429H872.863C855.325 519.459 828.327 519.507 798.108 519.559C771.25 519.517 746.938 519.478 729.312 519.45C724.882 519.439 720.891 518.301 717.668 516.507C714.431 514.725 711.968 512.364 710.193 510.178C708.413 507.98 707.293 505.964 706.605 504.559C706.258 503.857 706.03 503.293 705.88 502.913C705.734 502.531 705.682 502.322 705.682 502.322C705.682 502.322 705.769 502.51 705.932 502.879C706.097 503.246 706.34 503.794 706.7 504.481C707.414 505.854 708.557 507.829 710.344 509.976C712.126 512.114 714.582 514.415 717.79 516.14C720.986 517.877 724.931 518.966 729.314 518.946C746.939 518.92 771.25 518.886 798.109 518.845C828.327 518.897 855.325 518.946 872.864 518.975L872.833 518.979C879.739 517.138 884.784 513.111 887.053 509.159C888.202 507.201 888.774 505.424 889.044 504.203C889.159 503.605 889.25 503.14 889.316 502.796C889.38 502.48 889.418 502.32 889.425 502.321L889.424 502.322Z" fill="#42616A"/>
<path d="M711.999 417.632C711.999 417.632 714.836 412.502 730.682 412.502C746.528 412.502 865.974 412.502 865.974 412.502C865.974 412.502 877.483 411.741 883.986 418.908L882.568 427.412H851.473L840.11 418.044H757.291L745.481 427.412H713.34L711.998 417.632H711.999Z" fill="#6CC56C"/>
<path d="M868.435 415.095C868.435 415.293 835.6 415.453 795.104 415.453C754.594 415.453 721.766 415.293 721.766 415.095C721.766 414.899 754.595 414.739 795.104 414.739C835.599 414.739 868.435 414.899 868.435 415.095Z" fill="#FEFEFE"/>
<path d="M861.696 396.633H861.537C861.401 395.074 861.157 392.805 860.735 390.155C859.294 379.462 854.713 359.28 840.67 359.249C840.771 359.249 840.87 359.249 840.968 359.249C860.102 359.249 861.696 396.633 861.696 396.633H861.696Z" fill="#949899"/>
<path d="M734.317 396.632H734.136L734.491 392.23C734.727 389.309 735.154 386.418 735.783 383.606C735.945 383.718 736.101 383.818 736.252 383.909C735.361 387.323 734.781 390.875 734.491 394.472L734.317 396.631V396.632ZM860.737 390.154C858.977 379.113 854.109 361.491 840.97 361.491C829.168 361.491 799.118 361.765 777.817 361.974L776.418 359.877H763.44C782.114 359.686 825.521 359.254 840.672 359.249C854.716 359.28 859.295 379.462 860.738 390.155L860.737 390.154ZM759.496 362.161L758.165 359.932C759.483 359.918 761.141 359.9 763.08 359.881L764.488 362.109C762.582 362.127 760.901 362.145 759.496 362.161Z" fill="#33484E"/>
<path d="M764.484 362.109L763.077 359.881C763.195 359.879 763.314 359.878 763.435 359.877H776.413L777.813 361.975C772.756 362.024 768.194 362.07 764.484 362.109Z" fill="#54656A"/>
<path d="M757.009 362.187L757.029 359.943C757.373 359.94 757.751 359.936 758.164 359.931L759.495 362.16C758.533 362.17 757.697 362.178 757.008 362.186L757.009 362.187Z" fill="#54656A"/>
<path d="M778.053 361.911C778.053 363.125 778.822 364.11 779.772 364.11H814.716C815.667 364.11 816.436 363.125 816.436 361.911V361.596C816.436 360.377 815.659 359.389 814.705 359.398L779.76 359.712C778.815 359.721 778.053 360.702 778.053 361.911Z" fill="#6CC56C"/>
<path d="M477.777 545.514H506.918V477.417H477.777V545.514Z" fill="#2C3C43"/>
<path d="M639.305 545.514H669.803V477.417H639.305V545.514Z" fill="#2C3C43"/>
<path d="M479.097 379.582H486.998V371.209H479.097V379.582Z" fill="#2C3C43"/>
<path d="M471.953 385.92C467.563 385.92 464.006 381.371 464.006 375.76V363.196C464.006 357.584 467.563 353.034 471.953 353.034C476.341 353.034 479.899 357.584 479.899 363.196V375.76C479.899 381.371 476.34 385.92 471.953 385.92Z" fill="#2C3C43"/>
<path d="M656.143 379.582H664.044V371.209H656.143V379.582Z" fill="#2C3C43"/>
<path d="M671.192 385.92C675.581 385.92 679.139 381.371 679.139 375.76V363.196C679.139 357.584 675.582 353.034 671.192 353.034C666.804 353.034 663.247 357.584 663.247 363.196V375.76C663.247 381.371 666.804 385.92 671.192 385.92Z" fill="#2C3C43"/>
<path d="M512.021 273.214C508.024 273.284 504.323 275.852 502.056 280.06C500.801 282.391 499.616 284.983 499.086 287.244C497.712 293.098 490.197 316.058 484.244 373.435C482.06 391.079 480.296 411.418 478.75 433.154L476.918 453.591L667.641 454.606C667.641 454.606 662.164 385.265 660.9 373.413C659.637 361.56 644.891 281.826 644.891 281.826C644.891 281.826 645.312 275.586 635.2 273.318C626.438 271.353 535.985 272.795 512.02 273.213L512.021 273.214Z" fill="#6CC56C"/>
<path d="M476.918 453.59L479.202 426.916C479.049 428.98 478.899 431.062 478.75 433.154L476.918 453.59ZM667.543 453.353C667.118 447.996 665.403 426.389 663.79 406.749L663.913 406.736L667.641 453.351L667.542 453.353H667.543Z" fill="#ABAEAF"/>
<path d="M617.987 453.59H476.918L478.75 433.154C478.899 431.062 479.049 428.98 479.202 426.916L479.205 426.894L480.817 406.736L521.155 410.705H624.541L663.789 406.749C665.403 426.389 667.118 447.997 667.542 453.353L617.987 453.59Z" fill="#6CC56C" fill-opacity="0.09"/>
<path d="M504.241 311.991C504.241 311.991 496.576 312.367 493.628 330.842C490.68 349.315 488.322 379.099 488.322 379.099H657.255L648.706 325.563C648.706 325.563 647.551 316.441 637.797 311.99C627.979 307.51 508.434 306.896 504.242 311.99L504.241 311.991Z" fill="#42616A"/>
<path d="M583.57 317.329H560.905C558.267 317.329 556.129 314.595 556.129 311.221V308.436H588.347V311.221C588.347 314.595 586.209 317.329 583.57 317.329Z" fill="#2C3C43"/>
<path d="M488.322 379.099L488.997 371.209H655.599L657.254 379.099H488.322Z" fill="#2C3C43"/>
<path d="M644.82 373.805H643.749C643.749 362.73 636.702 353.719 628.042 353.719C619.381 353.719 612.335 362.73 612.335 373.805H611.264C611.264 361.974 618.79 352.349 628.042 352.349C637.293 352.349 644.82 361.973 644.82 373.805Z" fill="#2C3C43"/>
<path d="M607.167 372.428C607.167 372.428 609.494 366.904 616.249 366.673C622.52 366.457 638.434 366.682 638.434 366.682C638.434 366.682 646.205 367.118 648.451 371.209V373.805H607.167V372.428Z" fill="#2C3C43"/>
<path d="M499.615 372.638C498.937 373.731 499.939 356.528 501.479 348.977C501.835 347.237 503.06 346.026 504.467 346.026H531.99C533.509 346.026 534.806 347.439 535.038 349.36C535.668 354.558 537.357 364.53 537.739 372.687L499.616 372.638H499.615Z" fill="#2C3C43"/>
<path d="M527.082 343.748H509.847C507.907 343.748 506.335 341.738 506.335 339.258V331.698C506.335 329.218 507.906 327.208 509.847 327.208H527.082C529.021 327.208 530.593 329.218 530.593 331.698V339.258C530.593 341.738 529.021 343.748 527.082 343.748Z" fill="#2C3C43"/>
<path d="M548.673 372.638C547.995 373.731 548.998 356.528 550.538 348.977C550.892 347.237 552.119 346.026 553.526 346.026H581.049C582.568 346.026 583.863 347.439 584.096 349.36C584.725 354.558 586.414 364.53 586.798 372.687L548.674 372.638H548.673Z" fill="#2C3C43"/>
<path d="M576.143 343.748H558.908C556.969 343.748 555.397 341.738 555.397 339.258V331.698C555.397 329.218 556.969 327.208 558.908 327.208H576.143C578.083 327.208 579.655 329.218 579.655 331.698V339.258C579.655 341.738 578.084 343.748 576.143 343.748Z" fill="#2C3C43"/>
<path d="M599.322 372.638C598.644 373.731 599.647 356.528 601.186 348.977C601.541 347.237 602.768 346.026 604.173 346.026H631.696C633.215 346.026 634.512 347.439 634.744 349.36C635.374 354.558 637.063 364.53 637.446 372.687L599.322 372.638Z" fill="#2C3C43"/>
<path d="M626.79 343.748H609.555C607.616 343.748 606.043 341.738 606.043 339.258V331.698C606.043 329.218 607.616 327.208 609.555 327.208H626.79C628.73 327.208 630.302 329.218 630.302 331.698V339.258C630.302 341.738 628.73 343.748 626.79 343.748Z" fill="#2C3C43"/>
<path d="M657.251 379.097C657.251 379.097 657.262 379.383 657.258 379.942C657.248 380.526 657.236 381.347 657.221 382.415C657.174 384.618 657.108 387.819 657.022 391.927C656.824 400.213 656.54 412.157 656.187 426.901L656.18 427.151H655.984C634.486 427.177 605.168 427.211 572.887 427.25C539.916 427.21 510.041 427.173 488.318 427.147H488.118L488.12 426.894C488.157 412.715 488.187 401.233 488.208 393.268C488.231 389.319 488.249 386.244 488.261 384.126C488.272 383.101 488.282 382.312 488.289 381.749C488.299 381.213 488.318 380.939 488.318 380.939C488.318 380.939 488.337 381.213 488.346 381.749C488.353 382.312 488.363 383.101 488.374 384.126C488.386 386.244 488.404 389.319 488.427 393.268C488.448 401.233 488.478 412.715 488.515 426.894L488.317 426.638C510.04 426.612 539.914 426.575 572.886 426.535C605.168 426.574 634.486 426.609 655.983 426.634L655.782 426.884C656.211 412.143 656.558 400.202 656.799 391.918C656.931 387.812 657.033 384.613 657.104 382.412C657.145 381.345 657.176 380.525 657.198 379.94C657.223 379.383 657.25 379.098 657.25 379.098L657.251 379.097Z" fill="#2C3C43"/>
<path d="M624.541 410.704C624.337 411.487 624.541 437.076 624.541 437.076C624.541 437.076 658.26 439.422 665.8 428.719L663.913 406.736L624.541 410.705L624.541 410.704Z" fill="white"/>
<path d="M624.544 410.704C624.535 410.69 624.781 410.649 625.263 410.585C625.789 410.521 626.501 410.433 627.406 410.322C629.332 410.105 632.074 409.797 635.513 409.409C642.529 408.665 652.378 407.621 663.894 406.401L664.147 406.375L664.176 406.699C664.765 413.509 665.409 420.939 666.079 428.681L666.093 428.846L666.008 428.957C665.277 429.924 664.395 430.827 663.418 431.521C660.037 433.934 656.332 434.934 652.803 435.774C649.25 436.546 645.779 436.966 642.454 437.236C635.801 437.737 629.734 437.666 624.531 437.344L624.334 437.331L624.333 437.078C624.297 428.954 624.299 422.359 624.336 417.796C624.355 415.514 624.379 413.74 624.417 412.537C624.44 411.346 624.524 410.677 624.543 410.704C624.548 411.656 624.555 413.658 624.571 417.796C624.614 422.411 624.677 428.988 624.753 437.073L624.555 436.809C629.734 437.075 635.797 437.101 642.422 436.57C645.733 436.288 649.187 435.858 652.711 435.082C656.204 434.248 659.879 433.236 663.139 430.904C664.083 430.234 664.913 429.377 665.596 428.48L665.526 428.759C664.867 421.016 664.234 413.585 663.655 406.773L663.936 407.07C652.466 408.166 642.657 409.104 635.668 409.773C632.207 410.082 629.446 410.329 627.506 410.5C626.581 410.574 625.853 410.631 625.318 410.674C625.089 410.688 624.902 410.698 624.747 410.708C624.618 410.714 624.549 410.712 624.544 410.704Z" fill="#2C3C43"/>
<path d="M520.532 410.704C520.736 411.487 520.532 437.076 520.532 437.076C520.532 437.076 486.813 439.422 479.272 428.719L481.16 406.736L520.532 410.705V410.704Z" fill="white"/>
<path d="M520.531 410.704C520.526 410.712 520.458 410.714 520.328 410.708C520.172 410.699 519.986 410.689 519.757 410.674C519.222 410.631 518.494 410.574 517.568 410.5C515.629 410.328 512.868 410.081 509.407 409.773C502.419 409.104 492.608 408.166 481.139 407.07L481.42 406.773C480.841 413.585 480.208 421.016 479.549 428.759L479.479 428.48C480.162 429.376 480.991 430.234 481.934 430.904C485.194 433.236 488.87 434.249 492.364 435.082C495.887 435.858 499.342 436.288 502.652 436.57C509.275 437.101 515.338 437.074 520.519 436.809L520.32 437.073C520.397 428.988 520.46 422.411 520.504 417.796C520.519 413.659 520.527 411.656 520.531 410.704C520.55 410.677 520.635 411.346 520.656 412.537C520.694 413.74 520.719 415.514 520.738 417.796C520.774 422.359 520.776 428.954 520.741 437.078L520.74 437.331L520.542 437.344C515.341 437.666 509.273 437.737 502.619 437.236C499.295 436.967 495.823 436.546 492.27 435.774C488.742 434.933 485.037 433.934 481.657 431.521C480.679 430.827 479.797 429.924 479.065 428.957L478.98 428.846L478.995 428.681C479.666 420.94 480.309 413.509 480.899 406.699L480.927 406.375L481.18 406.401C492.697 407.621 502.547 408.665 509.563 409.409C513.001 409.797 515.744 410.106 517.67 410.322C518.576 410.432 519.287 410.52 519.811 410.585C520.294 410.649 520.541 410.69 520.531 410.704Z" fill="#2C3C43"/>
<path d="M476.919 453.59C476.919 453.59 475.059 485.462 479.349 504.831C480.732 511.077 485.223 515.355 490.299 515.355H658.128C661.769 515.355 665.046 512.515 666.359 508.174C669.02 499.369 671.883 484.53 667.642 453.352L617.989 453.59H476.92H476.919Z" fill="#2C3C43"/>
<path d="M503.738 481.625C499.725 481.625 494.964 481.371 491.356 480.406C483.739 478.367 482.146 464.49 481.614 464.037H511.726V481.312C511.726 481.312 508.194 481.626 503.737 481.626L503.738 481.625Z" fill="#273035"/>
<path d="M505.314 472.642C505.314 476.99 502.559 480.513 499.16 480.513C495.76 480.513 493.005 476.99 493.005 472.642C493.005 468.296 495.76 464.772 499.16 464.772C502.559 464.772 505.314 468.297 505.314 472.642Z" fill="#FEFEFE"/>
<path d="M634.726 481.815C630.268 481.815 626.735 481.501 626.735 481.501V464.226H656.849C656.317 464.68 654.723 478.555 647.106 480.595C643.499 481.559 638.738 481.814 634.727 481.814L634.726 481.815Z" fill="#273035"/>
<path d="M633.149 472.831C633.149 477.178 635.906 480.701 639.304 480.701C642.704 480.701 645.459 477.178 645.459 472.831C645.459 468.483 642.704 464.96 639.304 464.96C635.905 464.96 633.149 468.483 633.149 472.831Z" fill="#FEFEFE"/>
<path d="M526.229 464.037V477.569C526.229 484.875 530.86 490.797 536.574 490.797H608.401C614.115 490.797 618.746 484.875 618.746 477.569V464.771L526.228 464.037H526.229Z" fill="#42616A"/>
<path d="M608.4 491.031H536.573C530.859 491.031 526.228 485.108 526.228 477.802V477.647C526.262 484.916 530.881 490.796 536.573 490.796H608.4C614.114 490.796 618.745 484.873 618.745 477.567V472.217V477.801C618.745 485.107 614.114 491.03 608.4 491.03V491.031Z" fill="#273035"/>
<path d="M608.4 490.797H536.573C530.881 490.797 526.262 484.917 526.228 477.648V472.219C526.228 479.526 530.859 485.448 536.573 485.448H608.4C614.114 485.448 618.745 479.526 618.745 472.219V477.57C618.745 484.876 614.114 490.798 608.4 490.798V490.797Z" fill="#33484E"/>
<path d="M531.89 426.894C531.89 426.894 527.028 429.397 526.229 438.88C525.253 450.453 535.597 453.59 535.597 453.59H614.257C614.257 453.59 618.551 447.366 618.746 438.88C618.942 430.393 612.697 426.894 612.697 426.894H531.89H531.89Z" fill="#2C3C43"/>
<path d="M644.285 284.005C644.285 284.202 612.076 284.361 572.354 284.361C532.618 284.361 500.416 284.202 500.416 284.005C500.416 283.807 532.618 283.648 572.354 283.648C612.076 283.648 644.285 283.807 644.285 284.005Z" fill="#2C3C43"/>
<path d="M667.644 453.351C667.644 453.351 668.46 458.203 669.259 467.11C669.637 471.563 670.005 477.042 669.936 483.418C669.865 489.773 669.388 497.101 667.502 504.792C667.254 505.746 667.007 506.713 666.719 507.674C666.454 508.639 666.11 509.632 665.635 510.514C664.704 512.297 663.346 513.775 661.74 514.666C660.937 515.113 660.076 515.413 659.189 515.547C658.292 515.681 657.412 515.624 656.527 515.64C654.75 515.643 652.941 515.646 651.1 515.649C643.736 515.658 635.868 515.669 627.59 515.681C611.029 515.689 592.826 515.699 573.719 515.709C554.605 515.7 536.398 515.69 519.834 515.681C511.555 515.668 503.686 515.657 496.322 515.649C494.481 515.645 492.671 515.642 490.895 515.64C489.105 515.708 487.305 515.298 485.705 514.423C482.493 512.656 480.135 509.097 479.234 505.19C477.581 497.415 477.026 490.154 476.704 483.808C476.401 477.45 476.378 471.963 476.421 467.484C476.466 463.003 476.593 459.529 476.701 457.173C476.763 456.014 476.812 455.124 476.845 454.496C476.883 453.895 476.92 453.588 476.92 453.588C476.92 453.588 476.921 453.898 476.902 454.501C476.881 455.129 476.853 456.019 476.814 457.179C476.742 459.534 476.651 463.008 476.638 467.485C476.628 471.96 476.683 477.439 477.015 483.781C477.365 490.105 477.951 497.356 479.613 505.041C480.493 508.808 482.777 512.227 485.875 513.916C487.428 514.752 489.129 515.139 490.895 515.066C492.671 515.063 494.481 515.059 496.322 515.056C503.686 515.045 511.555 515.034 519.834 515.023C536.397 515.014 554.604 515.005 573.719 514.994C592.826 515.004 611.029 515.014 627.59 515.023C635.868 515.034 643.736 515.045 651.1 515.056C652.941 515.059 654.75 515.063 656.527 515.066C657.415 515.055 658.302 515.112 659.138 514.988C659.982 514.864 660.804 514.58 661.569 514.159C663.102 513.317 664.399 511.914 665.293 510.217C665.751 509.369 666.072 508.455 666.342 507.49C666.631 506.538 666.879 505.58 667.128 504.636C669.02 497.022 669.525 489.74 669.624 483.408C669.723 477.056 669.388 471.586 669.044 467.136C668.882 464.908 668.686 462.935 668.508 461.229C668.348 459.517 668.18 458.075 668.035 456.91C667.904 455.761 667.801 454.879 667.729 454.257C667.664 453.658 667.644 453.348 667.644 453.348V453.351Z" fill="#42616A"/>
<path d="M667.639 453.351C667.639 453.549 627.355 453.709 577.672 453.709C527.972 453.709 487.695 453.549 487.695 453.351C487.695 453.154 527.972 452.995 577.672 452.995C627.355 452.995 667.639 453.154 667.639 453.351Z" fill="#42616A"/>
<path d="M270.996 409.83H255.641C253.3 409.83 251.403 407.402 251.403 404.41C251.403 399.81 254.32 396.079 257.917 396.079H267.388C269.381 396.079 270.996 398.145 270.996 400.694V409.831V409.83Z" fill="#6CC56C"/>
<path d="M411.413 409.83H426.767C429.108 409.83 431.005 407.402 431.005 404.41C431.005 399.81 428.089 396.079 424.492 396.079H415.02C413.028 396.079 411.413 398.145 411.413 400.694V409.831L411.413 409.83Z" fill="#6CC56C"/>
<path d="M252.583 544.763H283.307V492.125H252.583V544.763Z" fill="#2C3C43"/>
<path d="M401.005 544.763H431.731V492.125H401.005V544.763Z" fill="#2C3C43"/>
<path d="M255.715 422.172L264.647 413.002L278.781 363.378C280.885 357.203 284.949 349.247 294.307 348.04L391.673 349.143C397.194 349.205 402.106 353.639 403.999 360.271L416.654 404.576L420.126 414.644L428.372 422.021C431.535 424.852 433.419 429.477 433.419 434.414V505.492C433.419 505.492 433.01 518.565 422.379 518.565C411.748 518.565 263.321 518.565 263.321 518.565C263.321 518.565 253.098 519.087 251.463 503.924C250.165 491.892 250.927 450.228 251.297 433.535C251.395 429.102 253.009 424.95 255.715 422.173V422.172Z" fill="#6CC56C"/>
<path d="M401.004 518.566H283.308V518.565C313.328 518.565 369.857 518.565 401.004 518.565V518.566ZM431.73 512.47V512.372C432.81 510.061 433.202 507.693 433.343 506.426C433.149 508.652 432.589 510.706 431.73 512.469V512.47ZM252.582 510.053C251.464 507.486 250.847 504.46 250.875 501.155L250.541 473C250.561 473.006 250.629 473.013 250.742 473.018C250.698 486.085 250.853 498.273 251.462 503.924C251.688 506.019 252.078 507.813 252.581 509.352V510.053H252.582Z" fill="#ABAEAF"/>
<path d="M283.307 518.568H264.344C264.267 518.568 264.19 518.568 264.114 518.567C266.387 518.567 273.408 518.567 283.307 518.567V518.568ZM254.334 513.156C253.661 512.22 253.074 511.181 252.583 510.055V509.354C253.073 510.851 253.672 512.106 254.334 513.157V513.156Z" fill="#273035"/>
<path d="M423.073 518.565H401.005V518.564C412.265 518.564 420.205 518.564 422.379 518.564C427.509 518.564 430.258 515.521 431.731 512.372V512.469C429.935 516.157 426.839 518.565 423.073 518.565Z" fill="#273035"/>
<path d="M422.377 518.566C420.203 518.566 412.263 518.566 401.004 518.566C369.855 518.566 313.327 518.566 283.307 518.566C273.407 518.566 266.386 518.566 264.113 518.566C260.149 518.489 256.711 516.467 254.333 513.156C253.671 512.105 253.073 510.849 252.582 509.352C252.077 507.813 251.689 506.018 251.463 503.924C250.853 498.273 250.698 486.085 250.743 473.018C252.965 473.134 272.731 473.173 298.497 473.173C352.683 473.173 433.418 473 433.418 473V504.674C433.418 505.268 433.393 505.853 433.343 506.427C433.202 507.693 432.81 510.062 431.73 512.373C430.257 515.523 427.507 518.566 422.378 518.566H422.377Z" fill="#6CC56C" fill-opacity="0.09"/>
<path d="M256.833 427.367L292.077 432.813V459.239C292.077 459.239 253.069 457.832 250.736 451.203L251.259 433.45C251.368 429.728 253.942 426.92 256.833 427.367Z" fill="white"/>
<path d="M256.833 427.367C256.833 427.422 256.292 427.278 255.305 427.515C254.364 427.779 252.847 428.592 251.957 430.755C251.485 431.819 251.366 433.137 251.372 434.637C251.336 436.127 251.297 437.741 251.254 439.471C251.165 442.944 251.063 446.88 250.951 451.212L250.932 451.09C251.53 452.337 252.867 453.017 254.116 453.577C255.404 454.13 256.779 454.557 258.201 454.944C261.054 455.678 264.106 456.244 267.303 456.709C273.697 457.642 280.665 458.251 287.939 458.678C289.335 458.748 290.719 458.816 292.085 458.883L291.799 459.238C291.808 449.839 291.816 440.919 291.824 432.813L292.048 433.135C281.672 431.478 272.878 430.074 266.632 429.078C263.563 428.565 261.121 428.155 259.404 427.868C258.598 427.722 257.962 427.607 257.491 427.522C257.057 427.437 256.833 427.385 256.835 427.367C256.836 427.348 257.064 427.366 257.501 427.416C257.973 427.477 258.613 427.558 259.424 427.662C261.145 427.906 263.593 428.254 266.67 428.69C272.921 429.624 281.724 430.939 292.11 432.49L292.333 432.523V432.813C292.341 440.919 292.349 449.839 292.358 459.238V459.608L292.072 459.594C290.702 459.527 289.314 459.46 287.915 459.391C280.631 458.964 273.654 458.337 267.244 457.375C264.038 456.895 260.976 456.31 258.103 455.55C256.669 455.149 255.282 454.708 253.966 454.132C253.311 453.837 252.673 453.506 252.071 453.091C251.484 452.653 250.889 452.159 250.541 451.315L250.519 451.264L250.521 451.191C250.665 446.858 250.796 442.926 250.911 439.455C250.97 437.725 251.027 436.114 251.078 434.622C251.085 433.159 251.233 431.689 251.745 430.608C252.714 428.361 254.31 427.578 255.282 427.357C256.302 427.166 256.834 427.366 256.834 427.366L256.833 427.367Z" fill="#2C3C43"/>
<path d="M427.322 427.367L392.078 432.813V459.239C392.078 459.239 430.326 457.507 432.658 450.878L432.897 433.45C432.786 429.728 430.214 426.92 427.322 427.367Z" fill="white"/>
<path d="M427.321 427.367C427.321 427.367 427.846 427.169 428.854 427.353C429.817 427.564 431.39 428.33 432.373 430.527C432.871 431.577 433.114 433.039 433.028 434.488C433.015 435.961 433.003 437.557 432.987 439.268C432.953 442.702 432.915 446.596 432.872 450.882L432.871 450.946L432.853 450.989C432.509 451.825 431.925 452.327 431.344 452.768C430.75 453.188 430.12 453.526 429.47 453.828C428.168 454.419 426.792 454.872 425.371 455.286C422.521 456.073 419.481 456.685 416.297 457.193C409.929 458.212 402.994 458.899 395.752 459.383C394.52 459.454 393.297 459.525 392.085 459.594L391.796 459.61V459.238C391.805 449.85 391.813 440.932 391.82 432.813L391.822 432.523L392.046 432.49C402.42 430.94 411.222 429.624 417.477 428.69C420.555 428.254 423.003 427.907 424.727 427.662C425.539 427.559 426.179 427.476 426.653 427.416C427.091 427.366 427.318 427.348 427.32 427.367C427.321 427.385 427.097 427.437 426.663 427.522C426.191 427.606 425.555 427.723 424.747 427.87C423.027 428.158 420.584 428.566 417.513 429.079C411.265 430.076 402.47 431.481 392.106 433.136L392.33 432.813C392.338 440.932 392.346 449.85 392.354 459.238L392.066 458.882C393.274 458.812 394.494 458.741 395.723 458.67C402.955 458.188 409.883 457.518 416.232 456.53C419.407 456.037 422.436 455.445 425.267 454.683C426.677 454.283 428.04 453.844 429.316 453.278C430.553 452.705 431.871 452.01 432.46 450.766L432.442 450.873C432.516 446.592 432.583 442.702 432.642 439.269C432.674 437.56 432.704 435.966 432.732 434.492C432.831 433.01 432.621 431.723 432.162 430.677C431.256 428.56 429.762 427.766 428.829 427.512C427.854 427.28 427.319 427.422 427.319 427.368L427.321 427.367Z" fill="#2C3C43"/>
<path d="M305.619 432.813C300.145 432.813 295.382 437.851 294.574 444.774C294.342 446.752 294.246 449.041 294.349 451.686C294.967 467.483 297.437 486.833 303.305 491.572H343.758V432.812H305.619V432.813Z" fill="#2C3C43"/>
<path d="M377.282 432.813C382.755 432.813 387.518 437.851 388.328 444.774C388.558 446.752 388.655 449.041 388.551 451.686C387.934 467.483 385.463 486.833 379.596 491.572H339.143V432.812H377.282V432.813Z" fill="#2C3C43"/>
<path d="M387.464 453.66H295.831C294.466 453.66 293.36 452.247 293.36 450.501C293.36 448.757 294.466 447.341 295.831 447.341H387.464C388.828 447.341 389.935 448.757 389.935 450.501C389.935 452.246 388.828 453.66 387.464 453.66Z" fill="#42616A"/>
<path d="M382.667 441.187H299.07C297.706 441.187 296.599 439.771 296.599 438.027C296.599 436.282 297.706 434.868 299.07 434.868H382.667C384.031 434.868 385.138 436.281 385.138 438.027C385.138 439.771 384.032 441.187 382.667 441.187Z" fill="#42616A"/>
<path d="M387.466 467.727H296.779C295.413 467.727 294.308 466.314 294.308 464.568C294.308 462.824 295.413 461.408 296.779 461.408H387.466C388.83 461.408 389.937 462.824 389.937 464.568C389.937 466.314 388.83 467.727 387.466 467.727Z" fill="#42616A"/>
<path d="M384.299 481.788H298.825C297.459 481.788 296.354 480.374 296.354 478.628C296.354 476.884 297.459 475.469 298.825 475.469H384.299C385.663 475.469 386.77 476.884 386.77 478.628C386.77 480.374 385.663 481.788 384.299 481.788Z" fill="#42616A"/>
<path d="M271.408 405.366C271.408 405.366 281.624 361.748 286.497 356.208H398.297C398.297 356.208 407.896 383.21 411.416 405.366H271.408Z" fill="#42616A"/>
<path d="M299.943 499.249V503.045C299.943 507.661 302.869 511.402 306.478 511.402H377.837C381.445 511.402 384.371 507.661 384.371 503.045V499.249H299.943Z" fill="#2C3C43"/>
<path d="M398.682 488.707V505.324C398.682 505.324 424.803 510.034 428.62 488.707H398.682Z" fill="#2C3C43"/>
<path d="M289.144 488.707V505.324C289.144 505.324 263.023 510.034 259.206 488.707H289.144Z" fill="#2C3C43"/>
<path d="M420.126 414.645C420.12 414.649 420.085 414.559 420.024 414.378C419.957 414.172 419.871 413.909 419.762 413.576C419.529 412.829 419.202 411.781 418.783 410.434C417.93 407.64 416.702 403.615 415.15 398.534C412.057 388.266 407.679 373.738 402.496 356.539L402.73 356.745C391.855 356.736 379.545 356.726 366.553 356.715C343.112 356.633 321.894 356.557 306.501 356.504C298.84 356.443 292.63 356.394 288.303 356.359C286.179 356.327 284.517 356.3 283.356 356.282C282.811 356.267 282.385 356.254 282.069 356.246C281.78 356.233 281.631 356.22 281.631 356.207C281.631 356.194 281.78 356.183 282.069 356.172C282.385 356.164 282.812 356.153 283.356 356.139C284.517 356.125 286.179 356.107 288.303 356.081C292.63 356.062 298.84 356.035 306.502 356C321.894 356 343.113 356.002 366.555 356.002C379.547 356.037 391.856 356.072 402.732 356.101H402.905L402.966 356.309C408.072 373.546 412.384 388.107 415.432 398.397C416.925 403.505 418.109 407.553 418.93 410.36C419.319 411.723 419.622 412.783 419.837 413.538C419.931 413.879 420.003 414.148 420.061 414.36C420.11 414.544 420.131 414.641 420.124 414.643L420.126 414.645Z" fill="#2C3C43"/>
<path d="M411.416 405.365C411.416 405.562 380.071 405.746 341.416 405.779C302.746 405.81 271.408 405.676 271.408 405.479C271.408 405.282 302.746 405.097 341.415 405.066C380.071 405.034 411.416 405.168 411.416 405.366V405.365Z" fill="#2C3C43"/>
<path d="M410.454 405.111C410.546 404.953 415.063 409.093 420.541 414.358C426.02 419.624 430.386 424.019 430.293 424.177C430.2 424.333 425.685 420.193 420.205 414.929C414.727 409.666 410.362 405.269 410.454 405.111H410.454Z" fill="#2C3C43"/>
<path d="M271.405 405.364C271.505 405.514 267.713 409.846 262.936 415.041C258.158 420.236 254.205 424.324 254.105 424.175C254.005 424.024 257.797 419.692 262.574 414.497C267.351 409.304 271.305 405.214 271.405 405.365V405.364Z" fill="#2C3C43"/>
<path d="M272.706 384.715C272.85 384.782 271.164 391.17 268.939 398.981C266.714 406.794 264.793 413.07 264.648 413.003C264.503 412.936 266.19 406.549 268.415 398.736C270.64 390.926 272.56 384.648 272.705 384.715H272.706Z" fill="#2C3C43"/>
<path d="M395.999 432.207C396 432.22 395.909 432.236 395.732 432.257C395.523 432.277 395.264 432.302 394.947 432.332C394.21 432.385 393.201 432.459 391.923 432.551C389.295 432.729 385.493 432.927 380.791 433.1C371.389 433.467 358.395 433.657 344.046 433.596C329.692 433.534 316.701 433.319 307.297 433.174C302.631 433.09 298.839 433.022 296.162 432.974C294.883 432.938 293.871 432.911 293.134 432.89C292.816 432.873 292.558 432.86 292.348 432.848C292.17 432.837 292.079 432.824 292.079 432.812C292.079 432.799 292.17 432.787 292.348 432.776C292.558 432.769 292.817 432.759 293.136 432.747C293.873 432.734 294.885 432.718 296.163 432.696C298.841 432.69 302.633 432.681 307.301 432.67C316.745 432.725 329.715 432.799 344.048 432.882C358.394 432.944 371.382 432.835 380.782 432.596C385.448 432.461 389.238 432.35 391.914 432.274C393.194 432.237 394.205 432.208 394.942 432.189C395.261 432.187 395.519 432.186 395.73 432.185C395.908 432.188 395.999 432.195 395.999 432.208V432.207Z" fill="#2C3C43"/>
<path d="M350.859 364.489H330.417C327.779 364.489 325.641 361.755 325.641 358.382V356.208H355.636V358.382C355.636 361.754 353.497 364.489 350.859 364.489Z" fill="#2C3C43"/>
<path d="M398.776 404.606H397.705C397.705 394.32 391.161 385.952 383.118 385.952C375.076 385.952 368.532 394.32 368.532 404.606H367.46C367.46 393.565 374.484 384.582 383.118 384.582C391.752 384.582 398.775 393.565 398.775 404.606H398.776Z" fill="#2C3C43"/>
<path d="M362.722 403.831C362.722 403.831 364.888 398.688 371.177 398.472C377.017 398.27 391.833 398.48 391.833 398.48C391.833 398.48 399.067 398.885 401.159 402.696V405.112H362.722V403.831Z" fill="#2C3C43"/>
<path d="M288.151 405.872C287.484 406.774 288.47 392.607 289.985 386.388C290.334 384.953 291.539 383.957 292.923 383.957H319.987C321.481 383.957 322.756 385.12 322.984 386.702C323.603 390.983 325.264 399.195 325.641 405.912L288.15 405.871L288.151 405.872Z" fill="#2C3C43"/>
<path d="M315.203 382.081H298.37C296.431 382.081 294.859 380.071 294.859 377.591V372.949C294.859 370.468 296.43 368.458 298.37 368.458H315.203C317.142 368.458 318.714 370.468 318.714 372.949V377.591C318.714 380.07 317.142 382.081 315.203 382.081Z" fill="#2C3C43"/>
<path d="M353.442 405.366C352.775 406.267 353.973 391.394 355.486 385.176C355.836 383.742 357.042 382.746 358.425 382.746H385.489C386.984 382.746 388.258 383.909 388.487 385.49C389.106 389.771 390.767 398.649 391.143 405.366H353.442Z" fill="#2C3C43"/>
<path d="M380.71 382.081H363.877C361.938 382.081 360.367 380.071 360.367 377.591V372.949C360.367 370.468 361.938 368.458 363.877 368.458H380.71C382.649 368.458 384.22 370.468 384.22 372.949V377.591C384.22 380.07 382.649 382.081 380.71 382.081Z" fill="#2C3C43"/>
<path d="M733.29 515.779C733.24 515.775 733.141 516.679 733.034 518.146C732.981 518.879 732.924 519.753 732.873 520.726C732.852 521.219 732.829 521.729 732.806 522.254C732.796 522.805 732.752 523.289 732.803 523.959C733.111 525.166 733.825 525.863 734.354 526.541C734.932 527.221 735.522 527.693 736.011 528.083C737.003 528.842 737.603 529.309 737.632 529.265C737.668 529.208 737.105 528.628 736.155 527.804C735.687 527.381 735.124 526.885 734.592 526.226C734.069 525.544 733.401 524.812 733.163 523.842C733.135 523.396 733.16 522.778 733.17 522.273C733.187 521.75 733.201 521.242 733.216 520.75C733.245 519.823 733.271 518.958 733.296 518.169C733.337 516.697 733.342 515.785 733.291 515.78L733.29 515.779Z" fill="#F69576"/>
<path d="M730.295 515.999C730.243 515.988 730.092 516.823 729.896 518.182C729.799 518.862 729.69 519.673 729.581 520.575C729.529 521.036 729.475 521.508 729.42 521.995C729.376 522.51 729.302 522.953 729.308 523.592C729.521 524.76 730.145 525.483 730.597 526.172C731.096 526.866 731.616 527.368 732.05 527.783C732.929 528.592 733.463 529.088 733.494 529.046C733.534 528.994 733.046 528.39 732.211 527.518C731.802 527.075 731.307 526.553 730.854 525.883C730.41 525.192 729.833 524.436 729.674 523.514C729.676 523.1 729.74 522.522 729.781 522.053C729.828 521.566 729.875 521.095 729.919 520.636C730.003 519.776 730.083 518.973 730.155 518.232C730.285 516.861 730.345 516.009 730.295 515.999Z" fill="#F69576"/>
</g>
</g>
<defs>
<filter id="filter0_d_4878_29319" x="-123.306" y="0.651948" width="1147.57" height="1147.57" filterUnits="userSpaceOnUse" color-interpolation-filters="sRGB">
<feFlood flood-opacity="0" result="BackgroundImageFix"/>
<feColorMatrix in="SourceAlpha" type="matrix" values="0 0 0 0 0 0 0 0 0 0 0 0 0 0 0 0 0 0 127 0" result="hardAlpha"/>
<feMorphology radius="6.09116" operator="erode" in="SourceAlpha" result="effect1_dropShadow_4878_29319"/>
<feOffset dx="-103.55" dy="214.409"/>
<feGaussianBlur stdDeviation="141.924"/>
<feComposite in2="hardAlpha" operator="out"/>
<feColorMatrix type="matrix" values="0 0 0 0 0 0 0 0 0 0 0 0 0 0 0 0 0 0 0.25 0"/>
<feBlend mode="normal" in2="BackgroundImageFix" result="effect1_dropShadow_4878_29319"/>
<feBlend mode="normal" in="SourceGraphic" in2="effect1_dropShadow_4878_29319" result="shape"/>
</filter>
<clipPath id="clip0_4878_29319">
<rect x="258" y="64" width="592.061" height="592.061" rx="296.03" fill="white"/>
</clipPath>
</defs>
</svg>
