<svg width="24" height="24" viewBox="0 0 24 24" fill="none" xmlns="http://www.w3.org/2000/svg">
<g clip-path="url(#clip0_8535_51909)">
<path d="M23.956 21.3193C23.917 21.1938 23.8537 21.0773 23.7697 20.9764C23.6857 20.8754 23.5826 20.792 23.4663 20.7309C23.3501 20.6698 23.2229 20.6322 23.0921 20.6203C22.9613 20.6083 22.8294 20.6222 22.704 20.6613L21.404 21.0613L20.473 18.3243C21.4509 17.7755 22.2136 16.9113 22.6365 15.8728C23.0594 14.8343 23.1174 13.683 22.801 12.6073L20.958 7.13225C20.7261 6.38481 20.2133 5.75645 19.5275 5.37934C18.8417 5.00223 18.0364 4.90578 17.281 5.11025L13.429 6.18425C12.8766 6.33796 12.3806 6.64849 12.001 7.07825C11.6214 6.64849 11.1254 6.33796 10.573 6.18425L6.72001 5.11025C5.97008 4.90339 5.16917 4.99512 4.48543 5.36617C3.80168 5.73722 3.28828 6.35874 3.05301 7.10025L1.18601 12.6573C0.882031 13.7322 0.950113 14.8783 1.37922 15.9096C1.80832 16.941 2.57328 17.7972 3.55001 18.3393L2.60601 21.0673L1.30101 20.6613C1.1756 20.6219 1.04366 20.6075 0.912713 20.6191C0.781771 20.6307 0.654395 20.668 0.537857 20.7288C0.42132 20.7897 0.317903 20.8728 0.233512 20.9736C0.149121 21.0744 0.0854086 21.1908 0.0460121 21.3163C0.00661549 21.4417 -0.0076935 21.5736 0.00390207 21.7046C0.0154976 21.8355 0.0527707 21.9629 0.113593 22.0794C0.174415 22.1959 0.257596 22.2994 0.358386 22.3838C0.459175 22.4681 0.5756 22.5319 0.701012 22.5713L2.86101 23.2423C2.87601 23.2423 2.88501 23.2593 2.90001 23.2653C2.91501 23.2713 2.95201 23.2713 2.97801 23.2783L5.15901 23.9553C5.41229 24.034 5.68649 24.009 5.92129 23.8856C6.15608 23.7622 6.33224 23.5505 6.41101 23.2973C6.48978 23.044 6.46471 22.7698 6.34131 22.535C6.21791 22.3002 6.00629 22.124 5.75301 22.0453L4.51701 21.6603L5.45201 18.9603C5.63745 18.9841 5.82408 18.9974 6.01101 19.0003C7.09218 18.9976 8.14335 18.6445 9.00695 17.9941C9.87054 17.3436 10.5 16.4307 10.801 15.3923L12.001 11.8363L13.184 15.3363C13.4756 16.3879 14.1033 17.3153 14.9712 17.9768C15.8391 18.6384 16.8997 18.9978 17.991 19.0003C18.1853 18.9984 18.3793 18.9851 18.572 18.9603L19.49 21.6603L18.246 22.0463C17.9927 22.125 17.7811 22.3012 17.6577 22.536C17.5343 22.7708 17.5092 23.045 17.588 23.2983C17.6668 23.5515 17.8429 23.7632 18.0777 23.8866C18.3125 24.01 18.5867 24.035 18.84 23.9563L21.015 23.2813C21.041 23.2743 21.068 23.2813 21.094 23.2683C21.12 23.2553 21.12 23.2493 21.136 23.2433L23.298 22.5723C23.4235 22.5333 23.5402 22.4699 23.6412 22.3858C23.7422 22.3017 23.8257 22.1985 23.8868 22.0822C23.9479 21.9658 23.9855 21.8385 23.9974 21.7076C24.0092 21.5767 23.9952 21.4447 23.956 21.3193ZM13.358 8.59225C13.4216 8.47508 13.5083 8.37197 13.6128 8.28914C13.7173 8.20631 13.8374 8.14546 13.966 8.11025L17.817 7.03725C17.903 7.01319 17.9918 7.00075 18.081 7.00025C18.3009 7.00258 18.5143 7.07572 18.6894 7.20884C18.8644 7.34195 18.992 7.52795 19.053 7.73925L19.814 10.0003H13.491L13.276 9.36325C13.2377 9.23575 13.2252 9.10188 13.2392 8.96948C13.2533 8.83709 13.2937 8.70884 13.358 8.59225ZM5.91901 7.00025C6.00855 7.00042 6.09767 7.01252 6.18401 7.03625L10.036 8.11025C10.2905 8.18044 10.5069 8.3484 10.638 8.57751C10.7692 8.80662 10.8044 9.07828 10.736 9.33325L10.511 10.0003H4.18801L4.95801 7.71025C5.02156 7.50491 5.14909 7.32525 5.32198 7.19752C5.49486 7.06979 5.70406 7.00067 5.91901 7.00025ZM8.89301 14.8003C8.73328 15.3711 8.40805 15.8818 7.95834 16.2679C7.50864 16.654 6.95463 16.8983 6.36623 16.9699C5.77783 17.0414 5.18142 16.9371 4.65226 16.67C4.1231 16.403 3.68492 15.9851 3.39301 15.4693C3.00653 14.7953 2.9016 13.9961 3.10101 13.2453L3.51501 12.0003H9.83701L8.89301 14.8003ZM16.525 16.6083C16.1746 16.4094 15.8675 16.1425 15.6218 15.8233C15.376 15.504 15.1966 15.1389 15.094 14.7493L14.165 12.0003H20.488L20.888 13.1943C21.0476 13.7661 21.0339 14.3724 20.8488 14.9365C20.6636 15.5005 20.3152 15.997 19.8477 16.3629C19.3803 16.7289 18.8147 16.9479 18.2227 16.9923C17.6307 17.0367 17.0388 16.9044 16.522 16.6123L16.525 16.6083Z" fill="#036E03"/>
<path d="M15.5516 3.89944C15.6696 3.9588 15.7983 3.99418 15.9301 4.00352C16.0619 4.01285 16.1943 3.99597 16.3196 3.95385C16.4448 3.91173 16.5605 3.8452 16.6599 3.7581C16.7592 3.67101 16.8404 3.56508 16.8986 3.44644L17.8986 1.44644C18.0171 1.20907 18.0365 0.934331 17.9525 0.682657C17.8685 0.430984 17.688 0.222993 17.4506 0.104441C17.2132 -0.0141105 16.9385 -0.0335124 16.6868 0.0505039C16.4351 0.13452 16.2271 0.315072 16.1086 0.552441L15.1086 2.55244C15.0489 2.6699 15.013 2.79801 15.0029 2.9294C14.9929 3.06078 15.0089 3.19286 15.0501 3.31804C15.0912 3.44321 15.1567 3.55901 15.2428 3.65879C15.3289 3.75857 15.4338 3.84035 15.5516 3.89944Z" fill="#036E03"/>
<path d="M7.10432 3.44644C7.22288 3.68447 7.43113 3.86566 7.68327 3.95015C7.80812 3.99198 7.93999 4.00881 8.07134 3.99968C8.20269 3.99055 8.33096 3.95564 8.44882 3.89694C8.56669 3.83824 8.67183 3.7569 8.75826 3.65756C8.84468 3.55823 8.9107 3.44284 8.95253 3.31799C8.99436 3.19314 9.01119 3.06128 9.00207 2.92993C8.99294 2.79857 8.95802 2.6703 8.89932 2.55244L7.89932 0.552441C7.84062 0.434908 7.75935 0.330088 7.66014 0.243965C7.56093 0.157843 7.44572 0.0921046 7.32111 0.0505039C7.06943 -0.0335124 6.79469 -0.0141105 6.55732 0.104441C6.31996 0.222993 6.1394 0.430984 6.05539 0.682657C5.97137 0.934331 5.99077 1.20907 6.10932 1.44644L7.10432 3.44644Z" fill="#036E03"/>
<path d="M12 4C12.2652 4 12.5196 3.89464 12.7071 3.70711C12.8947 3.51957 13 3.26522 13 3V1C13 0.734784 12.8947 0.48043 12.7071 0.292893C12.5196 0.105357 12.2652 0 12 0C11.7348 0 11.4804 0.105357 11.2929 0.292893C11.1054 0.48043 11 0.734784 11 1V3C11 3.26522 11.1054 3.51957 11.2929 3.70711C11.4804 3.89464 11.7348 4 12 4Z" fill="#036E03"/>
</g>
<defs>
<clipPath id="clip0_8535_51909">
<rect width="24" height="24" fill="white"/>
</clipPath>
</defs>
</svg>
