<svg width="21" height="165" viewBox="0 0 21 165" fill="none" xmlns="http://www.w3.org/2000/svg">
<circle cx="10.6951" cy="9.89625" r="9.69508" fill="#1A1A1A"/>
<circle cx="10.695" cy="9.89572" r="5.22043" fill="white"/>
<path fill-rule="evenodd" clip-rule="evenodd" d="M9.95812 164.736C11.5088 163.953 19.3902 159.608 19.3902 152.116C19.3902 146.64 15.0495 142.201 9.69508 142.201C4.34064 142.201 0 146.64 0 152.116C0 159.608 7.88134 163.953 9.43205 164.736C9.59981 164.82 9.79035 164.82 9.95812 164.736ZM9.69562 156.365C11.9904 156.365 13.8507 154.463 13.8507 152.116C13.8507 149.769 11.9904 147.867 9.69562 147.867C7.40086 147.867 5.54059 149.769 5.54059 152.116C5.54059 154.463 7.40086 156.365 9.69562 156.365Z" fill="#036E03"/>
<line x1="10.6463" y1="23.8475" x2="10.6463" y2="135.555" stroke="#036E03" stroke-width="1.29268" stroke-linecap="round" stroke-dasharray="3.88 3.88"/>
</svg>
