<svg width="53" height="74" viewBox="0 0 53 74" fill="none" xmlns="http://www.w3.org/2000/svg">
<path fill-rule="evenodd" clip-rule="evenodd" d="M52.1908 38.5843C52.1337 38.3763 52.1759 37.878 52.2315 37.6436C52.3888 36.9805 52.3197 36.9986 52.3463 36.2686C52.3756 35.4699 52.3841 34.6741 52.3903 33.8751L52.656 0.091363L37.7191 0.217967L37.4224 35.5335L37.3038 35.5411C37.3103 35.8199 37.337 36.2045 37.2569 36.4564L37.1671 37.0501C37.1088 37.9689 37.0218 37.606 36.9961 38.081C36.9913 38.171 36.9861 38.3711 36.9686 38.4507C36.9037 38.7459 36.9131 38.3574 36.8475 38.7435C36.8346 38.8197 36.8471 38.8537 36.8175 38.9309L36.6772 39.3716C36.6383 39.5408 36.455 39.8148 36.4211 39.9161C36.3966 39.9899 36.4068 40.0351 36.3892 40.1052C36.3373 40.3126 36.3869 40.1411 36.3368 40.2224L36.1969 40.4603C36.192 40.4675 36.1833 40.4767 36.1784 40.4837L36.0833 40.7658C36.0094 41.0185 36.0906 40.7696 36.006 40.9039C35.9629 40.9725 35.9274 41.1195 35.8425 41.2123C35.6353 41.4385 35.7488 41.2933 35.6232 41.5373C35.5696 41.6416 35.6309 41.5397 35.5682 41.6169L34.5442 42.8653C34.5385 42.8726 34.5306 42.8823 34.5253 42.89L34.3399 43.1308C34.3337 43.1366 34.324 43.145 34.3179 43.1509L34.1493 43.3237C34.0847 43.3725 34.169 43.3189 34.0666 43.3733C34.0548 43.3796 34.0168 43.3946 34.0048 43.4009C33.9187 43.4459 33.9605 43.4212 33.8943 43.4689C33.8868 43.4744 33.877 43.4826 33.8698 43.4881L33.6954 43.645C33.6892 43.6511 33.6802 43.6604 33.6739 43.6665L33.2868 44.0087C33.1515 44.1019 33.1195 44.0554 32.9694 44.1707C32.9619 44.1763 32.9529 44.1851 32.9455 44.1911C32.9382 44.1971 32.9292 44.2061 32.922 44.2122C32.9146 44.2183 32.9057 44.2273 32.8983 44.2334L32.8498 44.2743C32.7683 44.3335 32.8697 44.2735 32.7677 44.3247L32.0045 44.6891C31.9963 44.6934 31.9866 44.7011 31.9784 44.7055L31.1072 45.0999C30.921 45.1904 30.7987 45.1773 30.668 45.2356L30.562 45.2985C30.5512 45.3029 30.5401 45.3076 30.5285 45.3114C30.2036 45.4146 30.2735 45.3168 30.0498 45.4302C29.9298 45.4909 29.579 45.5063 29.4977 45.547C29.3392 45.6264 29.1467 45.5863 28.9664 45.6461L28.8632 45.7034C28.8548 45.7071 28.8443 45.7136 28.8353 45.7169C28.56 45.8182 28.1776 45.7762 27.8842 45.7897C27.5945 45.803 27.451 45.8789 27.1367 45.8902C26.8751 45.8995 26.6161 45.9087 26.3416 45.9112C25.9349 45.9151 25.5094 45.9362 25.105 45.9003C24.7935 45.8728 25.0548 45.8673 24.7934 45.8244C24.498 45.7757 24.0621 45.879 23.7718 45.7502C23.7634 45.7465 23.7539 45.7389 23.746 45.735C23.7385 45.7312 23.7294 45.7231 23.7219 45.7195C23.7146 45.7159 23.7051 45.7083 23.6974 45.7052C23.6898 45.7019 23.6791 45.6959 23.6708 45.6931C23.5655 45.6583 23.4119 45.6753 23.2966 45.6703C23.0053 45.6576 23.0494 45.5605 22.5923 45.5378C22.2603 45.5213 22.2592 45.4063 21.8905 45.3941C21.7556 45.2241 21.9503 45.3102 21.628 45.2639C21.448 45.238 21.2956 45.1525 21.1259 45.0669L20.22 44.6464C20.2112 44.6421 20.2005 44.6359 20.1913 44.6318C20.0588 44.5736 20.0221 44.5844 19.9195 44.4884L19.8515 44.4248C19.8445 44.419 19.8351 44.4106 19.8278 44.4053C19.7211 44.3265 19.576 44.3079 19.4858 44.2307C19.4788 44.2248 19.4704 44.2156 19.4636 44.2096L19.1756 43.9541C18.8367 43.7863 18.9614 43.8419 18.657 43.5837L18.3503 43.288C18.3448 43.2826 18.3361 43.2736 18.3305 43.2682L16.9832 41.6156C16.9177 41.5468 16.9551 41.6033 16.9141 41.4942L16.7745 41.2073C16.7552 41.1591 16.7673 41.1665 16.7406 41.112L16.6902 41.0349C16.5675 40.8331 16.5449 40.7199 16.4665 40.503C16.3854 40.2788 16.451 40.4789 16.39 40.3813C16.2848 40.2126 16.3266 40.0979 16.2512 39.9721C16.2469 39.9646 16.2388 39.9556 16.2346 39.9479L16.1656 39.7665C15.9126 39.2372 16.0915 39.2613 15.967 39.0038C15.9631 38.9957 15.9564 38.986 15.9525 38.9777C15.9485 38.9695 15.9426 38.9593 15.9386 38.9507L15.9038 38.8593C15.6699 38.2842 15.8126 38.3618 15.7538 37.7946C15.7301 37.5647 15.7491 37.7203 15.7051 37.657L15.6227 37.347C15.6219 37.2016 15.6263 37.1236 15.5845 36.9938C15.4357 36.5327 15.4973 35.9692 15.4992 35.4889C15.5382 25.8886 15.6488 16.2872 15.7243 6.68647C15.7409 4.57141 15.8079 2.40253 15.7691 0.294127L0.564499 0.433073C0.491743 4.20056 0.503036 7.98986 0.473396 11.7594L0.294947 34.4548C0.292807 34.7268 0.220257 36.1698 0.325357 36.3763C0.537403 36.7931 0.278703 37.8866 0.480988 38.4823C0.586465 38.7926 0.437905 39.2566 0.598357 39.5569C0.601883 39.5637 0.610339 39.5724 0.614036 39.5793C0.754635 39.8459 0.604125 40.3844 0.733026 40.6211C0.817391 40.7761 0.783616 41.0387 0.838249 41.2239L0.93424 41.4614C1.04287 41.9557 1.01415 41.6628 1.06622 41.8485C1.12095 42.0437 1.05609 42.2474 1.16308 42.4312C1.22565 42.5388 1.21378 42.596 1.2292 42.7384L1.29671 42.9554C1.38963 43.1491 1.33963 43.4153 1.43859 43.601C1.44245 43.6081 1.45057 43.617 1.4546 43.624L1.50071 43.7008C1.52626 43.7693 1.51847 43.7842 1.52868 43.8519L1.58585 44.0391C1.58989 44.0461 1.59869 44.0545 1.6029 44.0616C1.66985 44.1758 1.66838 44.2978 1.67604 44.429C1.84211 44.5356 1.77855 44.4447 1.81749 44.6745L2.0758 45.2571C2.09247 45.326 2.08419 45.3817 2.10465 45.4476C2.14937 45.5927 2.31538 45.7713 2.36311 45.923C2.36827 45.9392 2.37308 45.9776 2.37603 45.9937L3.1333 47.557C3.40446 47.9587 3.44413 48.2253 3.72612 48.5489L4.38588 49.5706C4.62699 49.8031 4.50149 49.784 4.66327 49.9588L5.01015 50.4217C5.04896 50.4726 5.01521 50.4287 5.07191 50.4816L5.22245 50.6327C5.24256 50.656 5.2716 50.692 5.29862 50.724L5.73652 51.2539C6.01501 51.5032 5.95912 51.5649 6.1596 51.7607C6.16637 51.7672 6.17551 51.7757 6.18211 51.7824L7.6668 53.1782C7.67307 53.1832 7.68324 53.1908 7.68916 53.196L7.87815 53.38C7.88509 53.3863 7.89457 53.3944 7.90168 53.4007C7.90879 53.407 7.91827 53.4151 7.92539 53.4214L8.11013 53.5813C8.18178 53.6402 8.49945 53.8069 8.78347 54.0899C8.78956 54.0959 8.79818 54.105 8.80427 54.111L9.26569 54.425C9.46974 54.5362 9.57954 54.7082 9.80902 54.8163C9.95425 54.8847 9.82408 54.809 9.94733 54.8967L10.0617 54.9895C10.1442 55.0582 10.0805 55.0232 10.1834 55.0721L10.5842 55.3155C10.6182 55.3347 10.6659 55.3518 10.698 55.3696L10.7748 55.4198C10.7825 55.4247 10.7916 55.4331 10.7996 55.4378L10.9869 55.5124C11.0958 55.5551 11.032 55.5224 11.1196 55.5917L11.5981 55.8746C11.6076 55.8792 11.6197 55.8832 11.6296 55.8876C11.6396 55.892 11.6522 55.8952 11.6622 55.8995L11.8079 55.972C11.8159 55.9769 11.8257 55.9844 11.8333 55.9896L12.8411 56.4822C12.8496 56.4866 12.8589 56.4942 12.8672 56.4986C12.8756 56.503 12.8852 56.5102 12.8937 56.5145C12.9024 56.5189 12.9131 56.525 12.9221 56.5292L13.87 56.9108C13.8777 56.9152 13.8872 56.9232 13.8948 56.9275L14.6103 57.1899C14.6188 57.1941 14.629 57.2009 14.638 57.2049C14.6475 57.2093 14.6587 57.2147 14.6686 57.2189C14.6791 57.2234 14.6912 57.227 14.702 57.2314C14.7153 57.2367 14.7592 57.2486 14.7723 57.2538C14.7828 57.258 14.7949 57.2617 14.8051 57.266L15.3206 57.4395C15.4508 57.5147 15.5693 57.497 15.7077 57.5594L16.3501 57.7756C16.7237 57.8578 16.3153 57.8476 16.6379 57.9007L16.9395 57.9653C17.0878 58.0407 17.202 58.0122 17.3809 58.0455C17.7396 58.1125 17.3075 58.1092 17.6878 58.1619C17.8501 58.1843 17.9174 58.1632 18.0617 58.2233L18.387 58.299C18.7223 58.326 18.8111 58.4038 19.0986 58.4393C19.515 58.4906 19.0993 58.4908 19.4101 58.5444C19.5098 58.5616 19.7373 58.5606 19.8491 58.5645C20.0354 58.5712 20.1016 58.6017 20.1966 58.6432C20.3893 58.727 20.6961 58.6893 20.951 58.7103C21.06 58.7193 21.0537 58.7193 21.1387 58.7461L21.6949 58.8241C22.5095 58.8449 22.2066 58.9013 22.4474 58.9359C22.8846 58.9986 23.4932 58.8653 23.9199 58.9964C24.2225 59.0896 27.1626 59.0813 27.5058 59.0138L27.6656 58.9597C27.8551 58.9094 28.0676 58.9202 28.2664 58.9146C28.5619 58.9062 28.8578 58.895 29.1531 58.8873C29.2017 58.8859 29.3281 58.8851 29.3689 58.8785C29.5793 58.8453 29.423 58.8634 29.5103 58.8221L29.6769 58.7711C29.7273 58.765 29.8451 58.7637 29.9012 58.762C30.2204 58.7524 30.2331 58.7456 30.4572 58.6702C30.7391 58.575 31.1692 58.6422 31.4432 58.5853C31.7648 58.5188 31.372 58.5186 31.7529 58.4753C31.8756 58.4614 32.0751 58.4764 32.19 58.4462C32.4463 58.3784 32.0876 58.4814 32.3251 58.3781C32.4349 58.3302 32.6019 58.3472 32.7297 58.3253C33.0005 58.2788 32.7873 58.3126 32.8828 58.2659C33.1234 58.1483 33.4386 58.2332 33.8189 58.0777L34.0524 57.9889C34.0605 57.9849 34.0699 57.977 34.0778 57.9731L34.5994 57.869C34.7748 57.7944 34.5196 57.85 34.7668 57.79C34.815 57.7783 34.9142 57.7717 34.9613 57.7661C35.1141 57.748 35.2156 57.6872 35.2837 57.6568C35.409 57.6011 35.5428 57.6253 35.6832 57.5937C35.9008 57.5446 35.6915 57.5959 35.8207 57.5296L36.8865 57.11C37.0145 57.0493 37.1287 57.0771 37.2762 57.0436C37.4938 56.994 37.2903 57.0345 37.4438 56.9591C37.4534 56.9544 37.4645 56.9484 37.4748 56.9441L38.4422 56.5209C38.6959 56.4341 38.5267 56.5785 38.6546 56.3754C38.7302 56.3692 38.8444 56.3648 38.9153 56.3452L39.944 55.8538C40.3275 55.586 40.339 55.6593 40.6742 55.4576L40.7272 55.4232C40.7953 55.3862 40.852 55.3717 40.9118 55.3393L41.2871 55.1481C41.3831 55.0652 41.4029 55.016 41.5344 54.9656L41.7804 54.8214C41.7879 54.815 41.7969 54.8062 41.8046 54.7999C41.8123 54.7936 41.8214 54.7849 41.8295 54.7789L41.9459 54.7123C41.9724 54.7014 42.0927 54.6676 42.2035 54.5597L42.2992 54.4738C42.3506 54.4386 42.2944 54.4663 42.3884 54.4268C42.6663 54.3096 42.6402 54.2695 42.8369 54.1032L43.0676 53.9854C43.1761 53.9378 43.1119 53.9752 43.1997 53.8987L43.3956 53.7085C43.4021 53.7026 43.4117 53.6939 43.4184 53.6881L43.878 53.3733C43.8812 53.3709 44.0178 53.2615 44.0188 53.2605C44.0513 53.2333 44.054 53.2303 44.0894 53.1997L44.402 52.9084C44.4219 52.8918 44.4405 52.8803 44.4733 52.8545L44.6153 52.7298C44.7964 52.5687 44.7713 52.6838 45.0356 52.4208L45.8633 51.6587C45.9748 51.5325 46.0134 51.4118 46.1519 51.2924L46.7309 50.7251C46.7367 50.7187 46.7448 50.7088 46.7507 50.7022C46.7567 50.6954 46.7651 50.6858 46.7715 50.679C46.7801 50.6697 46.8064 50.6427 46.8155 50.6337C46.8179 50.6313 46.8806 50.574 46.8852 50.5695C47.0289 50.4252 47.0143 50.3216 47.1299 50.2147C47.1365 50.2087 47.1462 50.2005 47.1528 50.1945L47.4609 49.8153C47.5187 49.7016 47.6577 49.6099 47.7453 49.507L47.8055 49.4379C47.8112 49.4307 47.8196 49.4214 47.8253 49.4138C47.9087 49.2998 47.9385 49.1959 48.0392 49.1039C48.1855 48.9702 48.2473 48.7994 48.3771 48.639L48.5054 48.4189C48.5931 48.2754 48.4433 48.4801 48.5586 48.3532L48.8226 47.9719C48.824 47.97 48.926 47.8696 48.9281 47.8679C49.107 47.7008 49.0935 47.5787 49.271 47.2695L49.6141 46.6817C49.7803 46.4773 49.7479 46.5524 49.8226 46.2805C49.8635 46.1316 49.9934 45.9797 50.0772 45.8288C50.1157 45.7593 50.1222 45.7158 50.1616 45.6468C50.2147 45.5537 50.1661 45.6565 50.2132 45.5716L50.6268 44.6303C50.7557 44.4106 50.658 44.4343 50.8228 44.1497C50.8608 44.0838 50.8527 44.0706 50.8918 44.003C50.8964 43.995 50.9037 43.9849 50.9085 43.9774C50.9132 43.9702 50.9216 43.9608 50.9262 43.9538C50.9872 43.8603 50.9618 43.8082 51.0207 43.6285C51.0754 43.4614 51.1063 43.5339 51.1515 43.2923C51.2202 42.9243 51.2157 43.2855 51.2926 42.9398C51.3219 42.8085 51.2921 42.8468 51.3549 42.7346C51.4567 42.5526 51.4212 42.6468 51.4494 42.3801C51.4822 42.072 51.5701 42.3128 51.6067 41.8046C51.6126 41.7235 51.6147 41.6304 51.6225 41.5517C51.6479 41.2915 51.7567 41.4321 51.7685 40.9748C51.7792 40.5635 51.7927 40.7662 51.8768 40.6183C51.9377 40.5113 51.9007 40.408 51.9466 40.2888L51.977 40.2366C52.0298 40.1403 52.0095 40.3345 52.0433 40.0692C52.0675 39.8794 52.0228 39.6426 52.0915 39.4614L52.1206 39.4097C52.168 39.3216 52.1518 39.5009 52.1875 39.2428C52.2166 39.034 52.2454 38.7784 52.1913 38.5843L52.1908 38.5843Z" fill="white"/>
<path fill-rule="evenodd" clip-rule="evenodd" d="M14.0481 70.6718C13.9466 71.9042 15.8992 73.645 17.257 73.7511C17.53 73.7725 17.8978 73.755 18.1797 73.7531L35.0045 73.6427C36.4553 73.6276 38.9233 72.3167 38.8284 70.6378L38.8626 64.95L14.1279 65.112L14.0801 65.1123L14.0481 70.6717L14.0481 70.6718Z" fill="white"/>
</svg>
