<svg width="81" height="81" viewBox="0 0 81 81" fill="none" xmlns="http://www.w3.org/2000/svg">
<circle cx="40.5" cy="40.5" r="40.5" fill="white"/>
<path fill-rule="evenodd" clip-rule="evenodd" d="M56.5968 45.0997C56.5603 44.9654 56.5841 44.6447 56.6175 44.494C56.7121 44.0677 56.6692 44.079 56.6822 43.609C56.6965 43.0947 56.6979 42.5821 56.6979 42.0675V20.3089L47.411 20.3137L47.3992 43.0588L47.3255 43.0631C47.3309 43.2427 47.3494 43.4905 47.3008 43.6524L47.2479 44.0343C47.2161 44.6259 47.1602 44.3917 47.1466 44.6975C47.144 44.7554 47.1418 44.8843 47.1313 44.9354C47.0924 45.1253 47.0963 44.8751 47.0574 45.1234C47.0498 45.1724 47.0577 45.1944 47.0397 45.244L46.9546 45.5271C46.9313 45.6359 46.8186 45.8114 46.798 45.8765C46.7832 45.9239 46.7898 45.9531 46.7792 45.9981C46.7479 46.1315 46.7779 46.0213 46.7471 46.0733L46.6613 46.2259C46.6583 46.2305 46.6529 46.2363 46.6499 46.2409L46.5922 46.4221C46.5474 46.5845 46.5967 46.4245 46.5448 46.5106C46.5183 46.5546 46.497 46.6491 46.4446 46.7084C46.3169 46.8531 46.3867 46.7601 46.3099 46.9166C46.277 46.9835 46.3146 46.9182 46.2761 46.9676L45.6454 47.7664C45.6419 47.7711 45.6371 47.7773 45.6338 47.7822L45.5197 47.9364C45.5159 47.9401 45.5099 47.9454 45.5062 47.9492L45.4022 48.0597C45.3622 48.0908 45.4144 48.0567 45.351 48.0912C45.3436 48.0952 45.3201 48.1046 45.3127 48.1087C45.2594 48.1372 45.2852 48.1215 45.2443 48.1519C45.2397 48.1554 45.2336 48.1606 45.2292 48.1641L45.1215 48.2643C45.1176 48.2682 45.1121 48.2741 45.1082 48.278L44.8692 48.4964C44.7855 48.5558 44.7654 48.5257 44.6726 48.5991C44.668 48.6027 44.6625 48.6084 44.6579 48.6122C44.6534 48.616 44.6478 48.6217 44.6434 48.6256C44.6388 48.6295 44.6333 48.6353 44.6288 48.6392L44.5988 48.6653C44.5484 48.703 44.6112 48.6649 44.548 48.6973L44.0752 48.9281C44.0701 48.9308 44.0642 48.9357 44.0591 48.9385L43.5193 49.1881C43.404 49.2454 43.3279 49.2364 43.2469 49.2733L43.1813 49.3132C43.1746 49.316 43.1677 49.319 43.1605 49.3213C42.959 49.3861 43.002 49.3235 42.8635 49.3954C42.7892 49.4339 42.5711 49.442 42.5208 49.4678C42.4226 49.5181 42.3027 49.4913 42.1909 49.5289L42.127 49.5653C42.1218 49.5676 42.1153 49.5717 42.1097 49.5738C41.939 49.6377 41.701 49.6086 41.5187 49.6158C41.3386 49.6229 41.2498 49.6711 41.0544 49.6767C40.8918 49.6813 40.7308 49.686 40.5601 49.6862C40.3073 49.6866 40.0428 49.698 39.7912 49.6728C39.5974 49.6535 39.7598 49.6512 39.5971 49.6223C39.4131 49.5894 39.1426 49.6537 38.9615 49.5693C38.9563 49.5668 38.9503 49.5619 38.9453 49.5593C38.9407 49.5568 38.935 49.5516 38.9303 49.5492C38.9257 49.5469 38.9198 49.542 38.915 49.5399C38.9103 49.5377 38.9036 49.5338 38.8984 49.532C38.8328 49.509 38.7374 49.5192 38.6656 49.5154C38.4844 49.5057 38.5114 49.4433 38.2271 49.4264C38.0206 49.4141 38.0193 49.34 37.79 49.3303C37.7053 49.22 37.8268 49.2765 37.6261 49.245C37.5141 49.2274 37.4189 49.1716 37.313 49.1156L36.7477 48.8401C36.7422 48.8372 36.7355 48.8332 36.7298 48.8305C36.6471 48.7923 36.6243 48.7991 36.56 48.7368L36.5174 48.6955C36.5131 48.6917 36.5072 48.6862 36.5026 48.6827C36.4359 48.6315 36.3456 48.6187 36.2891 48.5685C36.2848 48.5647 36.2795 48.5588 36.2752 48.5549L36.0949 48.3888C35.8833 48.279 35.9611 48.3154 35.7706 48.1476L35.5784 47.9555C35.5751 47.952 35.5695 47.9462 35.566 47.9427L34.7202 46.8713C34.6792 46.8267 34.7027 46.8632 34.6767 46.7928L34.5885 46.6073C34.5763 46.5761 34.5838 46.581 34.567 46.5457L34.5353 46.4958C34.458 46.3652 34.4434 46.2921 34.3935 46.152C34.342 46.0072 34.3838 46.1364 34.3454 46.0732C34.2792 45.964 34.3046 45.8904 34.2571 45.8089C34.2544 45.8041 34.2493 45.7983 34.2466 45.7933L34.2028 45.6761C34.043 45.3339 34.1543 45.3503 34.0756 45.1838C34.0732 45.1786 34.069 45.1723 34.0665 45.167C34.064 45.1616 34.0603 45.1551 34.0577 45.1495L34.0357 45.0904C33.8874 44.7188 33.9765 44.7696 33.9372 44.4039C33.9213 44.2557 33.9339 44.356 33.9062 44.315L33.8534 44.115C33.8523 44.0213 33.8546 43.971 33.828 43.8872C33.7332 43.5895 33.7687 43.2269 33.7676 42.9175C33.7449 36.7342 33.7667 30.5505 33.7667 24.3671C33.7667 23.0048 33.7978 21.6082 33.7633 20.25L24.3101 20.2614C24.2833 22.6877 24.3088 25.1284 24.3088 27.5562V42.1733C24.3088 42.3485 24.2708 43.2776 24.3371 43.4111C24.471 43.6807 24.3155 44.3837 24.4442 44.7684C24.5113 44.9688 24.4212 45.2669 24.5224 45.4611C24.5247 45.4656 24.53 45.4712 24.5323 45.4756C24.621 45.6481 24.5301 45.9941 24.6114 46.1473C24.6646 46.2475 24.6449 46.4165 24.6797 46.5361L24.7406 46.6895C24.8106 47.0085 24.7913 46.8197 24.8245 46.9395C24.8595 47.0656 24.8202 47.1964 24.8876 47.3154C24.9271 47.385 24.92 47.4218 24.9302 47.5136L24.9733 47.6537C25.032 47.7789 25.0022 47.9502 25.0646 48.0702C25.0671 48.0749 25.0722 48.0806 25.0747 48.0851L25.1038 48.1348C25.12 48.1791 25.1152 48.1887 25.1219 48.2323L25.1584 48.3532C25.1609 48.3577 25.1664 48.3632 25.1691 48.3678C25.2113 48.4417 25.2109 48.5202 25.2163 48.6048C25.3201 48.6743 25.2802 48.6155 25.3055 48.7637L25.4689 49.1402C25.4797 49.1847 25.4748 49.2206 25.4878 49.2631C25.5163 49.3568 25.6204 49.4726 25.6508 49.5706C25.6541 49.5811 25.6573 49.6058 25.6592 49.6162L26.1377 50.627C26.3083 50.8871 26.3343 51.0591 26.5112 51.2689L26.9264 51.9304C27.0775 52.0814 26.9993 52.0685 27.1008 52.1819L27.3187 52.4818C27.3431 52.5148 27.3219 52.4863 27.3574 52.5207L27.4518 52.6188C27.4644 52.6339 27.4826 52.6572 27.4996 52.678L27.7744 53.0216C27.9488 53.1835 27.9144 53.223 28.04 53.3502C28.0442 53.3544 28.0499 53.3599 28.0541 53.3642L28.984 54.2709C28.988 54.2742 28.9943 54.2791 28.998 54.2825L29.1164 54.402C29.1208 54.4061 29.1267 54.4113 29.1312 54.4154C29.1356 54.4195 29.1416 54.4248 29.146 54.4289L29.2617 54.5328C29.3065 54.5711 29.5048 54.6801 29.6828 54.8639C29.6866 54.8678 29.692 54.8736 29.6959 54.8775L29.9843 55.0822C30.1117 55.1549 30.1808 55.2662 30.324 55.337C30.4147 55.3818 30.3334 55.3324 30.4104 55.3895L30.482 55.4499C30.5336 55.4946 30.4939 55.4717 30.5581 55.5037L30.8085 55.6625C30.8297 55.675 30.8595 55.6863 30.8795 55.6979L30.9275 55.7307C30.9323 55.7339 30.938 55.7393 30.943 55.7424L31.0598 55.7914C31.1278 55.8195 31.0879 55.7981 31.1427 55.8432L31.4416 56.0279C31.4476 56.0308 31.4551 56.0335 31.4613 56.0364C31.4675 56.0393 31.4753 56.0414 31.4816 56.0442L31.5726 56.0916C31.5775 56.0948 31.5837 56.0998 31.5885 56.1031L32.2175 56.4256C32.2228 56.4285 32.2286 56.4334 32.2338 56.4363C32.239 56.4391 32.245 56.4439 32.2503 56.4466C32.2558 56.4495 32.2624 56.4535 32.268 56.4563L32.8593 56.7069C32.8641 56.7098 32.87 56.715 32.8748 56.7178L33.321 56.8905C33.3263 56.8932 33.3326 56.8977 33.3383 56.9003C33.3442 56.9032 33.3512 56.9067 33.3573 56.9095C33.3639 56.9124 33.3714 56.9148 33.3782 56.9177C33.3865 56.9212 33.4138 56.9291 33.422 56.9325C33.4286 56.9353 33.4361 56.9377 33.4425 56.9405L33.7639 57.0549C33.8452 57.104 33.9187 57.0932 34.0051 57.1341L34.4056 57.2767C34.6383 57.3315 34.3843 57.3229 34.5852 57.3588L34.773 57.4019C34.8656 57.4512 34.9365 57.4334 35.0479 57.4558C35.2712 57.5008 35.0025 57.4965 35.2392 57.5323C35.3403 57.5476 35.382 57.5344 35.472 57.5738L35.6747 57.6243C35.8833 57.6434 35.9389 57.6939 36.1178 57.7183C36.377 57.7535 36.1185 57.7514 36.312 57.7876C36.3741 57.7992 36.5155 57.7997 36.5851 57.8028C36.7009 57.808 36.7423 57.8281 36.8015 57.8553C36.9217 57.9102 37.1123 57.8875 37.2709 57.9023C37.3388 57.9087 37.3348 57.9087 37.3878 57.9264L37.734 57.9795C38.2406 57.997 38.0526 58.0318 38.2025 58.0554C38.4746 58.098 38.8524 58.0152 39.1183 58.1019C39.3069 58.1634 41.135 58.1732 41.348 58.1315L41.4472 58.0975C41.5647 58.0661 41.6969 58.0741 41.8205 58.0715C42.0042 58.0676 42.1881 58.0619 42.3717 58.0585C42.4019 58.0578 42.4805 58.0579 42.5058 58.0539C42.6365 58.0336 42.5394 58.0445 42.5935 58.0183L42.6968 57.9863C42.7281 57.9827 42.8014 57.9824 42.8362 57.9816C43.0347 57.9771 43.0425 57.9728 43.1815 57.9253C43.3563 57.8655 43.6241 57.911 43.7942 57.8757C43.9938 57.8345 43.7496 57.8324 43.9862 57.8065C44.0624 57.7982 44.1865 57.8089 44.2578 57.79C44.4169 57.7476 44.1944 57.8121 44.3415 57.7468C44.4095 57.7165 44.5134 57.7283 44.5928 57.7149C44.7609 57.6863 44.6285 57.707 44.6877 57.6774C44.8367 57.6029 45.0332 57.6592 45.2688 57.561L45.4136 57.505C45.4186 57.5025 45.4244 57.4974 45.4293 57.495L45.7531 57.4305C45.8618 57.3834 45.7034 57.4179 45.8568 57.3805C45.8867 57.3732 45.9484 57.3695 45.9777 57.3661C46.0725 57.3553 46.1354 57.3166 46.1776 57.2974C46.2552 57.2622 46.3385 57.2784 46.4256 57.2588C46.5607 57.2283 46.4308 57.2602 46.5109 57.2182L47.1715 56.9534C47.2508 56.915 47.3219 56.9335 47.4135 56.9127C47.5485 56.8818 47.4222 56.9069 47.5173 56.8591C47.5232 56.8562 47.5301 56.8524 47.5365 56.8496L48.1359 56.582C48.2932 56.5274 48.1887 56.6195 48.2672 56.4894C48.3142 56.4858 48.3852 56.4835 48.4292 56.4713L49.0664 56.1601C49.3035 55.9895 49.3111 56.0368 49.5185 55.9086L49.5513 55.8867C49.5935 55.8632 49.6287 55.8542 49.6656 55.8336L49.8981 55.7124C49.9574 55.6595 49.9695 55.6279 50.051 55.5961L50.2032 55.5045C50.2079 55.5004 50.2134 55.4948 50.2181 55.4908C50.2229 55.4868 50.2285 55.4812 50.2335 55.4774L50.3056 55.4351C50.322 55.4282 50.3967 55.407 50.465 55.3381L50.5241 55.2833C50.5559 55.2609 50.5211 55.2784 50.5793 55.2535C50.7516 55.1794 50.7351 55.1534 50.8566 55.0473L50.9995 54.9727C51.0667 54.9426 51.027 54.9663 51.0812 54.9175L51.2021 54.796C51.2061 54.7922 51.212 54.7866 51.2162 54.7829L51.5004 54.5825C51.5024 54.581 51.5868 54.5113 51.5874 54.5106C51.6074 54.4933 51.6091 54.4913 51.631 54.4718L51.8239 54.2858C51.8362 54.2752 51.8477 54.2679 51.868 54.2515L51.9557 54.1719C52.0675 54.0691 52.0524 54.143 52.2155 53.975L52.7264 53.4884C52.7951 53.4077 52.8185 53.3301 52.9041 53.2539L53.2613 52.8915C53.2649 52.8874 53.2699 52.8811 53.2735 52.8768C53.2772 52.8725 53.2824 52.8664 53.2863 52.862C53.2916 52.8561 53.3078 52.8388 53.3135 52.8331C53.3149 52.8315 53.3536 52.795 53.3565 52.7921C53.4451 52.6999 53.4356 52.6331 53.5069 52.5648C53.5109 52.561 53.517 52.5557 53.521 52.5519L53.7108 52.3092C53.7462 52.2363 53.8321 52.178 53.8861 52.1121L53.9232 52.068C53.9267 52.0633 53.9319 52.0574 53.9354 52.0525C53.9867 51.9795 54.0047 51.9127 54.0668 51.854C54.1571 51.7686 54.1948 51.6589 54.2747 51.5563L54.3534 51.4152C54.4072 51.3233 54.3151 51.4543 54.3861 51.3732L54.5484 51.1289C54.5493 51.1277 54.6122 51.0636 54.6135 51.0625C54.7239 50.9557 54.7149 50.8771 54.8238 50.6788L55.0342 50.302C55.1366 50.1712 55.1168 50.2194 55.162 50.0446C55.1867 49.9489 55.2667 49.8517 55.318 49.755C55.3416 49.7104 55.3455 49.6825 55.3696 49.6382C55.4022 49.5785 55.3725 49.6445 55.4013 49.59L55.6539 48.9859C55.733 48.845 55.6724 48.8598 55.7734 48.6773C55.7967 48.6351 55.7916 48.6266 55.8156 48.5832C55.8184 48.5781 55.8229 48.5716 55.8259 48.5668C55.8287 48.5621 55.8339 48.5562 55.8368 48.5517C55.8742 48.4918 55.8582 48.4581 55.8939 48.3426C55.9271 48.2353 55.9467 48.2821 55.9736 48.1267C56.0145 47.8901 56.0135 48.1227 56.0596 47.9004C56.0772 47.816 56.0589 47.8406 56.0973 47.7686C56.1598 47.6519 56.1382 47.7124 56.1544 47.5407C56.1732 47.3425 56.2291 47.498 56.2493 47.1709C56.2526 47.1187 56.2535 47.0587 56.2579 47.0081C56.2725 46.8406 56.3408 46.9317 56.3459 46.6372C56.3506 46.3723 56.3599 46.503 56.4115 46.4082C56.4488 46.3396 56.4253 46.2728 56.4533 46.1963L56.472 46.1628C56.5043 46.1011 56.4926 46.2261 56.5123 46.0554C56.5264 45.9332 56.4975 45.7805 56.5394 45.6641L56.5572 45.6309C56.5862 45.5744 56.577 45.6899 56.598 45.5238C56.6151 45.3895 56.6317 45.225 56.5971 45.0997H56.5968Z" fill="#036E03"/>
<path fill-rule="evenodd" clip-rule="evenodd" d="M32.7691 65.2235C32.7104 66.0273 33.943 67.1718 34.7957 67.2469C34.9671 67.262 35.1979 67.2521 35.3748 67.2521L45.9343 67.2519C46.8449 67.2483 48.3885 66.4033 48.3222 65.3072L48.3205 61.5952H32.7966H32.7666L32.7691 65.2234V65.2235Z" fill="#036E03"/>
</svg>
