<svg width="15" height="15" viewBox="0 0 15 15" fill="none" xmlns="http://www.w3.org/2000/svg">
<circle cx="7.5" cy="7.5" r="7.5" fill="#036E03"/>
<path fill-rule="evenodd" clip-rule="evenodd" d="M10.4813 8.35179C10.4745 8.32693 10.4789 8.26753 10.4851 8.23962C10.5026 8.16069 10.4947 8.16278 10.4971 8.07574C10.4997 7.98049 10.5 7.88558 10.5 7.79028V3.7609L8.78022 3.76179L8.77802 7.97386L8.76438 7.97466C8.76538 8.0079 8.7688 8.0538 8.75981 8.08378L8.75001 8.1545C8.74412 8.26405 8.73378 8.22068 8.73124 8.27731C8.73077 8.28803 8.73036 8.31191 8.72842 8.32138C8.72121 8.35653 8.72194 8.31019 8.71474 8.35619C8.71332 8.36526 8.71479 8.36933 8.71146 8.37852L8.69569 8.43094C8.69137 8.45109 8.67051 8.48359 8.6667 8.49565C8.66395 8.50442 8.66517 8.50982 8.66321 8.51818C8.65741 8.54287 8.66297 8.52246 8.65728 8.5321L8.64138 8.56035C8.64083 8.5612 8.63982 8.56229 8.63928 8.56312L8.62858 8.59668C8.62029 8.62675 8.62942 8.59713 8.6198 8.61307C8.61489 8.62121 8.61095 8.63871 8.60125 8.64971C8.5776 8.67649 8.59053 8.65928 8.5763 8.68827C8.57022 8.70065 8.57718 8.68855 8.57004 8.6977L8.45326 8.84563C8.45261 8.84651 8.45171 8.84765 8.4511 8.84856L8.42998 8.87711C8.42927 8.8778 8.42815 8.87878 8.42746 8.87949L8.40821 8.89994C8.4008 8.9057 8.41046 8.89939 8.39872 8.90578C8.39737 8.90652 8.39301 8.90827 8.39164 8.90901C8.38176 8.9143 8.38655 8.91139 8.37898 8.91702C8.37811 8.91767 8.37699 8.91864 8.37617 8.91928L8.35622 8.93783C8.35552 8.93855 8.3545 8.93965 8.35377 8.94038L8.3095 8.98082C8.29402 8.99181 8.29029 8.98624 8.27311 8.99984C8.27225 9.0005 8.27122 9.00155 8.27038 9.00225C8.26954 9.00296 8.26852 9.00402 8.26769 9.00475C8.26685 9.00547 8.26583 9.00653 8.26498 9.00726L8.25943 9.01209C8.2501 9.01907 8.26172 9.01201 8.25002 9.01802L8.16247 9.06076C8.16153 9.06126 8.16043 9.06217 8.15949 9.06269L8.05953 9.10891C8.03817 9.11952 8.02408 9.11785 8.00908 9.12468L7.99693 9.13207C7.99569 9.13259 7.99442 9.13314 7.99308 9.13358C7.95576 9.14558 7.96373 9.13398 7.93808 9.14729C7.92432 9.15443 7.88394 9.15593 7.87461 9.1607C7.85644 9.17002 7.83423 9.16506 7.81352 9.17202L7.80169 9.17875C7.80072 9.17919 7.79953 9.17995 7.79849 9.18033C7.76688 9.19216 7.72281 9.18678 7.68905 9.18811C7.65569 9.18942 7.63924 9.19835 7.60307 9.19939C7.57295 9.20025 7.54313 9.2011 7.51153 9.20114C7.46471 9.20122 7.41573 9.20333 7.36913 9.19867C7.33325 9.19509 7.36332 9.19467 7.33319 9.18931C7.29913 9.18322 7.24903 9.19513 7.21548 9.1795C7.21452 9.17904 7.21342 9.17813 7.2125 9.17765C7.21164 9.17719 7.21058 9.17622 7.20971 9.17579C7.20887 9.17535 7.20777 9.17444 7.20689 9.17406C7.206 9.17366 7.20477 9.17293 7.2038 9.17259C7.19165 9.16833 7.17398 9.17021 7.1607 9.16951C7.12715 9.16772 7.13213 9.15618 7.07948 9.15304C7.04124 9.15075 7.04101 9.13704 6.99855 9.13523C6.98286 9.11482 7.00536 9.12528 6.9682 9.11944C6.94745 9.11619 6.92982 9.10584 6.91021 9.09548L6.80552 9.04446C6.8045 9.04393 6.80326 9.04319 6.8022 9.04269C6.78689 9.03562 6.78267 9.03687 6.77078 9.02533L6.76289 9.01768C6.76208 9.01698 6.76098 9.01597 6.76014 9.01532C6.74779 9.00583 6.73106 9.00347 6.7206 8.99417C6.7198 8.99347 6.71882 8.99236 6.71803 8.99164L6.68464 8.96088C6.64546 8.94055 6.65986 8.9473 6.62459 8.91622L6.589 8.88065C6.58837 8.88 6.58735 8.87892 6.5867 8.87827L6.43007 8.67988C6.42247 8.6716 6.42683 8.67837 6.422 8.66533L6.40567 8.63097C6.40341 8.62521 6.40481 8.6261 6.40169 8.61958L6.39582 8.61033C6.38151 8.58614 6.3788 8.57261 6.36957 8.54667C6.36003 8.51985 6.36776 8.54378 6.36066 8.53208C6.34839 8.51186 6.3531 8.49822 6.34431 8.48314C6.3438 8.48224 6.34285 8.48116 6.34236 8.48025L6.33426 8.45854C6.30465 8.39516 6.32527 8.39821 6.3107 8.36737C6.31025 8.3664 6.30946 8.36524 6.30901 8.36425C6.30854 8.36326 6.30785 8.36205 6.30738 8.36102L6.3033 8.35008C6.27584 8.28126 6.29235 8.29066 6.28506 8.22294C6.28212 8.1955 6.28445 8.21408 6.27933 8.20649L6.26955 8.16944C6.26934 8.15209 6.26977 8.14279 6.26484 8.12726C6.24729 8.07212 6.25387 8.00498 6.25365 7.94768C6.24945 6.80263 6.2535 5.65749 6.2535 4.51242C6.2535 4.26016 6.25925 4.00152 6.25287 3.75L4.50227 3.75211C4.4973 4.20142 4.50203 4.65341 4.50203 5.103V7.80987C4.50203 7.84232 4.49499 8.01437 4.50728 8.0391C4.53207 8.08901 4.50327 8.2192 4.5271 8.29045C4.53953 8.32756 4.52284 8.38276 4.54159 8.41873C4.542 8.41955 4.54298 8.4206 4.54342 8.42141C4.55985 8.45335 4.543 8.51743 4.55806 8.54579C4.56791 8.56436 4.56426 8.59565 4.57072 8.61779L4.58199 8.64621C4.59495 8.70527 4.59137 8.67031 4.59754 8.69251C4.60401 8.71585 4.59673 8.74008 4.60922 8.76211C4.61652 8.775 4.6152 8.78181 4.61711 8.79882L4.62508 8.82476C4.63595 8.84795 4.63044 8.87966 4.642 8.9019C4.64245 8.90275 4.64339 8.90382 4.64386 8.90465L4.64924 8.91386C4.65225 8.92206 4.65136 8.92383 4.6526 8.93191L4.65935 8.9543C4.65982 8.95514 4.66084 8.95615 4.66134 8.957C4.66915 8.97068 4.66909 8.98523 4.67009 9.00088C4.68931 9.01376 4.68191 9.00286 4.6866 9.03031L4.71687 9.10004C4.71885 9.10828 4.71795 9.11492 4.72036 9.12279C4.72564 9.14014 4.74492 9.1616 4.75056 9.17974C4.75116 9.18168 4.75175 9.18627 4.75211 9.18819L4.84072 9.37538C4.8723 9.42354 4.87711 9.45538 4.90988 9.49424L4.98677 9.61674C5.01474 9.6447 5.00027 9.64231 5.01906 9.66331L5.05942 9.71885C5.06393 9.72496 5.06001 9.71969 5.06658 9.72606L5.08406 9.74423C5.08639 9.74702 5.08977 9.75134 5.09291 9.75518L5.14381 9.81881C5.1761 9.8488 5.16972 9.85611 5.19298 9.87966C5.19377 9.88044 5.19483 9.88147 5.1956 9.88226L5.36781 10.0502C5.36854 10.0508 5.36972 10.0517 5.3704 10.0523L5.39233 10.0744C5.39314 10.0752 5.39424 10.0762 5.39506 10.0769C5.39588 10.0777 5.39698 10.0787 5.39781 10.0794L5.41922 10.0987C5.42753 10.1058 5.46426 10.1259 5.49722 10.16C5.49792 10.1607 5.49892 10.1618 5.49963 10.1625L5.55305 10.2004C5.57664 10.2139 5.58944 10.2345 5.61596 10.2476C5.63274 10.2559 5.61769 10.2467 5.63196 10.2573L5.64521 10.2685C5.65477 10.2768 5.64741 10.2725 5.6593 10.2785L5.70567 10.3079C5.7096 10.3102 5.71511 10.3123 5.71882 10.3144L5.72772 10.3205C5.7286 10.3211 5.72966 10.3221 5.73058 10.3227L5.75222 10.3317C5.7648 10.3369 5.75742 10.333 5.76757 10.3413L5.82292 10.3755C5.82402 10.3761 5.82542 10.3766 5.82656 10.3771C5.82771 10.3776 5.82917 10.378 5.83032 10.3786L5.84717 10.3873C5.84809 10.3879 5.84923 10.3888 5.85011 10.3895L5.9666 10.4492C5.96758 10.4497 5.96866 10.4506 5.96962 10.4512C5.97058 10.4517 5.9717 10.4526 5.97268 10.4531C5.97369 10.4536 5.97492 10.4544 5.97596 10.4549L6.08546 10.5013C6.08634 10.5018 6.08744 10.5028 6.08833 10.5033L6.17095 10.5353C6.17193 10.5358 6.17311 10.5366 6.17415 10.5371C6.17525 10.5376 6.17655 10.5383 6.17768 10.5388C6.1789 10.5393 6.18029 10.5398 6.18155 10.5403C6.18308 10.541 6.18815 10.5424 6.18966 10.5431C6.19088 10.5436 6.19227 10.544 6.19345 10.5445L6.25297 10.5657C6.26802 10.5748 6.28165 10.5728 6.29765 10.5804L6.37181 10.6068C6.4149 10.617 6.36786 10.6154 6.40506 10.622L6.43985 10.63C6.45698 10.6391 6.47012 10.6358 6.49075 10.64C6.53211 10.6483 6.48235 10.6475 6.52618 10.6541C6.54489 10.657 6.55262 10.6545 6.56929 10.6618L6.60682 10.6712C6.64546 10.6747 6.65574 10.6841 6.68888 10.6886C6.73688 10.6951 6.68902 10.6947 6.72484 10.7014C6.73635 10.7036 6.76253 10.7037 6.77541 10.7042C6.79687 10.7052 6.80452 10.7089 6.81549 10.7139C6.83776 10.7241 6.87305 10.7199 6.90242 10.7227C6.91498 10.7238 6.91426 10.7238 6.92407 10.7271L6.98818 10.7369C7.082 10.7402 7.04717 10.7466 7.07493 10.751C7.12532 10.7589 7.19528 10.7436 7.24454 10.7596C7.27946 10.771 7.61798 10.7728 7.65744 10.7651L7.6758 10.7588C7.69757 10.753 7.72205 10.7545 7.74493 10.754C7.77895 10.7533 7.81301 10.7522 7.84701 10.7516C7.85261 10.7515 7.86715 10.7515 7.87185 10.7507C7.89605 10.747 7.87807 10.749 7.88808 10.7441L7.90722 10.7382C7.91301 10.7375 7.92657 10.7375 7.93303 10.7373C7.96978 10.7365 7.97123 10.7357 7.99697 10.7269C8.02934 10.7158 8.07893 10.7243 8.11043 10.7177C8.1474 10.7101 8.10217 10.7097 8.14598 10.7049C8.1601 10.7034 8.18308 10.7053 8.1963 10.7018C8.22574 10.694 8.18454 10.706 8.21178 10.6939C8.22439 10.6882 8.24362 10.6904 8.25833 10.6879C8.28946 10.6827 8.26494 10.6865 8.2759 10.681C8.3035 10.6672 8.33987 10.6776 8.38351 10.6594L8.41033 10.6491C8.41125 10.6486 8.41233 10.6477 8.41323 10.6472L8.4732 10.6353C8.49332 10.6266 8.464 10.6329 8.4924 10.626C8.49794 10.6247 8.50936 10.624 8.51478 10.6234C8.53235 10.6213 8.54399 10.6142 8.5518 10.6106C8.56617 10.6041 8.5816 10.6071 8.59774 10.6035C8.62275 10.5978 8.5987 10.6037 8.61352 10.596L8.73586 10.5469C8.75054 10.5398 8.76371 10.5432 8.78067 10.5394C8.80568 10.5337 8.78228 10.5383 8.79989 10.5295C8.80099 10.5289 8.80227 10.5282 8.80344 10.5277L8.91445 10.4782C8.94359 10.468 8.92423 10.4851 8.93878 10.461C8.94747 10.4603 8.96062 10.4599 8.96877 10.4576L9.08677 10.4C9.13068 10.3684 9.13208 10.3772 9.17049 10.3534L9.17656 10.3494C9.18437 10.345 9.19089 10.3434 9.19774 10.3396L9.24079 10.3171C9.25176 10.3073 9.254 10.3015 9.2691 10.2956L9.29729 10.2786C9.29815 10.2779 9.29917 10.2768 9.30005 10.2761C9.30094 10.2753 9.30198 10.2743 9.3029 10.2736L9.31625 10.2658C9.31929 10.2645 9.33311 10.2606 9.34577 10.2478L9.35671 10.2376C9.3626 10.2335 9.35616 10.2367 9.36693 10.2321C9.39883 10.2184 9.39579 10.2136 9.41829 10.1939L9.44475 10.1801C9.45719 10.1745 9.44983 10.1789 9.45988 10.1699L9.48226 10.1474C9.48301 10.1467 9.48411 10.1457 9.48487 10.145L9.5375 10.1079C9.53788 10.1076 9.5535 10.0947 9.55362 10.0946C9.55733 10.0913 9.55764 10.091 9.56169 10.0874L9.59741 10.0529C9.59969 10.051 9.60183 10.0496 9.60558 10.0466L9.62182 10.0318C9.64253 10.0128 9.63974 10.0265 9.66993 9.99537L9.76455 9.90526C9.77727 9.89031 9.78161 9.87595 9.79745 9.86184L9.8636 9.79473C9.86427 9.79397 9.86519 9.79279 9.86586 9.79201C9.86655 9.79121 9.86751 9.79007 9.86824 9.78927C9.86922 9.78816 9.87222 9.78497 9.87326 9.7839C9.87354 9.78362 9.8807 9.77685 9.88123 9.77631C9.89764 9.75923 9.89587 9.74687 9.90909 9.73422C9.90983 9.73352 9.91095 9.73255 9.9117 9.73184L9.94684 9.68689C9.95339 9.67339 9.96931 9.66258 9.9793 9.65039L9.98617 9.64221C9.98682 9.64136 9.98778 9.64025 9.98843 9.63936C9.99793 9.62584 10.0013 9.61347 10.0128 9.60259C10.0295 9.58678 10.0365 9.56647 10.0513 9.54747L10.0658 9.52133C10.0758 9.50431 10.0587 9.52858 10.0719 9.51355L10.102 9.46832C10.1021 9.46809 10.1138 9.45622 10.114 9.45601C10.1345 9.43625 10.1328 9.42168 10.153 9.38497L10.1919 9.31518C10.2109 9.29096 10.2072 9.29988 10.2156 9.26753C10.2201 9.2498 10.235 9.23181 10.2445 9.21389C10.2488 9.20563 10.2496 9.20046 10.254 9.19226C10.2601 9.18121 10.2546 9.19342 10.2599 9.18334L10.3067 9.07145C10.3213 9.04538 10.3101 9.04811 10.3288 9.01431C10.3331 9.0065 10.3322 9.00492 10.3366 8.99689C10.3371 8.99594 10.338 8.99474 10.3385 8.99385C10.3391 8.99299 10.34 8.99189 10.3405 8.99105C10.3475 8.97996 10.3445 8.97372 10.3511 8.95234C10.3573 8.93246 10.3609 8.94114 10.3659 8.91236C10.3735 8.86853 10.3733 8.91162 10.3818 8.87045C10.3851 8.85482 10.3817 8.85936 10.3888 8.84603C10.4004 8.82442 10.3964 8.83563 10.3994 8.80384C10.4028 8.76713 10.4132 8.79593 10.4169 8.73534C10.4176 8.72568 10.4177 8.71457 10.4185 8.70519C10.4212 8.67419 10.4339 8.69106 10.4348 8.63653C10.4357 8.58747 10.4374 8.61167 10.447 8.59411C10.4539 8.5814 10.4495 8.56904 10.4547 8.55487L10.4582 8.54867C10.4642 8.53724 10.462 8.56038 10.4656 8.52877C10.4683 8.50615 10.4629 8.47787 10.4707 8.45632L10.474 8.45017C10.4793 8.43971 10.4776 8.46109 10.4815 8.43033C10.4847 8.40545 10.4877 8.375 10.4813 8.35179Z" fill="white"/>
<path fill-rule="evenodd" clip-rule="evenodd" d="M6.07078 12.0781C6.05991 12.227 6.28817 12.4389 6.44608 12.4529C6.47782 12.4556 6.52055 12.4538 6.55332 12.4538L8.50878 12.4538C8.6774 12.4531 8.96326 12.2966 8.95097 12.0936L8.95066 11.4062H6.07587H6.07031L6.07078 12.0781V12.0781Z" fill="white"/>
</svg>
