<svg width="46" height="65" viewBox="0 0 46 65" fill="none" xmlns="http://www.w3.org/2000/svg">
<path fill-rule="evenodd" clip-rule="evenodd" d="M45.5937 33.7077C45.5437 33.526 45.5807 33.0906 45.6292 32.8859C45.7666 32.3066 45.7063 32.3224 45.7295 31.6847C45.7551 30.987 45.7625 30.2917 45.768 29.5937L46 0.0800898L32.9511 0.190692L32.6919 31.0425L32.5883 31.0492C32.594 31.2927 32.6173 31.6287 32.5473 31.8488L32.4689 32.3674C32.4179 33.1701 32.3419 32.8531 32.3195 33.268C32.3153 33.3466 32.3108 33.5215 32.2955 33.591C32.2388 33.8489 32.247 33.5094 32.1897 33.8468C32.1784 33.9133 32.1893 33.943 32.1635 34.0105L32.0409 34.3955C32.0069 34.5433 31.8467 34.7826 31.8172 34.8712C31.7958 34.9356 31.8047 34.9751 31.7894 35.0364C31.744 35.2176 31.7873 35.0677 31.7436 35.1387L31.6213 35.3466C31.6171 35.3529 31.6094 35.3609 31.6052 35.3671L31.5221 35.6135C31.4575 35.8342 31.5285 35.6168 31.4546 35.7341C31.4169 35.794 31.3859 35.9224 31.3117 36.0036C31.1307 36.2012 31.2298 36.0743 31.1202 36.2875C31.0733 36.3786 31.1269 36.2895 31.0721 36.357L30.1775 37.4476C30.1725 37.454 30.1656 37.4624 30.161 37.4691L29.9991 37.6796C29.9937 37.6846 29.9851 37.6919 29.9798 37.6971L29.8326 37.8481C29.7761 37.8907 29.8497 37.8439 29.7603 37.8914C29.75 37.8969 29.7168 37.91 29.7063 37.9155C29.6311 37.9548 29.6676 37.9332 29.6098 37.9749C29.6032 37.9797 29.5947 37.9869 29.5884 37.9917L29.436 38.1287C29.4306 38.1341 29.4228 38.1422 29.4172 38.1476L29.079 38.4464C28.9608 38.5279 28.9329 38.4873 28.8018 38.588C28.7952 38.5929 28.7874 38.6006 28.7809 38.6058C28.7745 38.611 28.7667 38.6189 28.7604 38.6242C28.7539 38.6296 28.7461 38.6375 28.7397 38.6428L28.6972 38.6785C28.6261 38.7302 28.7147 38.6778 28.6255 38.7226L27.9588 39.0409C27.9516 39.0446 27.9432 39.0513 27.936 39.0552L27.1749 39.3998C27.0123 39.4788 26.9054 39.4674 26.7912 39.5183L26.6986 39.5733C26.6892 39.5771 26.6795 39.5812 26.6693 39.5845C26.3855 39.6747 26.4466 39.5892 26.2512 39.6883C26.1464 39.7414 25.8399 39.7548 25.7689 39.7903C25.6304 39.8597 25.4623 39.8247 25.3047 39.8769L25.2145 39.927C25.2072 39.9302 25.1981 39.9359 25.1902 39.9387C24.9497 40.0273 24.6156 39.9905 24.3593 40.0023C24.1062 40.014 23.9809 40.0803 23.7063 40.0902C23.4778 40.0983 23.2515 40.1063 23.0117 40.1085C22.6564 40.1119 22.2847 40.1303 21.9314 40.099C21.6593 40.075 21.8875 40.0701 21.6592 40.0327C21.4011 39.9901 21.0203 40.0804 20.7667 39.9679C20.7594 39.9646 20.7511 39.958 20.7441 39.9545C20.7376 39.9513 20.7296 39.9442 20.7231 39.9411C20.7167 39.9379 20.7084 39.9313 20.7017 39.9286C20.6951 39.9257 20.6857 39.9205 20.6784 39.918C20.5865 39.8875 20.4523 39.9024 20.3515 39.8981C20.0971 39.887 20.1356 39.8021 19.7363 39.7823C19.4463 39.7679 19.4453 39.6675 19.1232 39.6568C19.0054 39.5083 19.1755 39.5835 18.8938 39.543C18.7366 39.5204 18.6034 39.4457 18.4552 39.371L17.6639 39.0036C17.6561 38.9998 17.6468 38.9944 17.6388 38.9909C17.523 38.94 17.4909 38.9494 17.4013 38.8656L17.3419 38.81C17.3358 38.8049 17.3275 38.7976 17.3212 38.7929C17.228 38.7241 17.1013 38.7079 17.0224 38.6404C17.0163 38.6353 17.009 38.6273 17.003 38.622L16.7515 38.3987C16.4553 38.2522 16.5643 38.3008 16.2984 38.0752L16.0304 37.8169C16.0257 37.8122 16.018 37.8043 16.0131 37.7996L14.8361 36.3559C14.7789 36.2957 14.8116 36.3451 14.7757 36.2498L14.6538 35.9992C14.637 35.9571 14.6475 35.9635 14.6242 35.916L14.5802 35.8486C14.473 35.6722 14.4532 35.5733 14.3847 35.3839C14.3139 35.188 14.3712 35.3628 14.318 35.2775C14.226 35.1302 14.2626 35.03 14.1967 34.92C14.1929 34.9135 14.1858 34.9056 14.1821 34.899L14.1219 34.7405C13.9009 34.2781 14.0571 34.2991 13.9484 34.0741C13.945 34.0671 13.9391 34.0586 13.9357 34.0514C13.9322 34.0442 13.9271 34.0353 13.9236 34.0278L13.8932 33.9479C13.6888 33.4455 13.8135 33.5134 13.7622 33.0178C13.7414 32.8169 13.7581 32.9529 13.7196 32.8976L13.6476 32.6268C13.6469 32.4998 13.6508 32.4316 13.6143 32.3182C13.4843 31.9154 13.538 31.4232 13.5397 31.0035C13.5738 22.6167 13.6704 14.2288 13.7364 5.84161C13.7509 3.99388 13.8094 2.09913 13.7755 0.257226L0.492689 0.378609C0.429129 3.6699 0.438994 6.98025 0.413101 10.2733L0.257206 30.1001C0.255338 30.3378 0.191957 31.5984 0.283773 31.7788C0.469017 32.1429 0.243016 33.0982 0.419733 33.6186C0.511878 33.8897 0.382095 34.295 0.522267 34.5574C0.525348 34.5633 0.532735 34.5709 0.535964 34.5769C0.658793 34.8098 0.527306 35.2802 0.639914 35.4871C0.713616 35.6224 0.68411 35.8519 0.731838 36.0136L0.815696 36.2211C0.910599 36.6529 0.885504 36.3971 0.930995 36.5593C0.978803 36.7298 0.922148 36.9078 1.01561 37.0684C1.07027 37.1624 1.0599 37.2123 1.07337 37.3368L1.13235 37.5263C1.21353 37.6955 1.16985 37.9281 1.2563 38.0903C1.25967 38.0965 1.26676 38.1043 1.27029 38.1104L1.31057 38.1775C1.33289 38.2373 1.32608 38.2504 1.335 38.3095L1.38495 38.4731C1.38847 38.4792 1.39616 38.4865 1.39984 38.4927C1.45833 38.5924 1.45704 38.699 1.46374 38.8136C1.60881 38.9068 1.55329 38.8274 1.58731 39.0282L1.81297 39.5371C1.82753 39.5973 1.8203 39.646 1.83817 39.7035C1.87724 39.8303 2.02226 39.9863 2.06397 40.1188C2.06847 40.133 2.07268 40.1665 2.07525 40.1806L2.73681 41.5463C2.97369 41.8972 3.00835 42.1301 3.2547 42.4128L3.83106 43.3054C4.0417 43.5085 3.93207 43.4918 4.0734 43.6445L4.37643 44.0489C4.41034 44.0933 4.38085 44.055 4.43038 44.1013L4.5619 44.2333C4.57946 44.2536 4.60483 44.285 4.62844 44.313L5.01099 44.7759C5.25428 44.9937 5.20545 45.0476 5.3806 45.2187C5.38651 45.2243 5.39449 45.2318 5.40026 45.2376L6.69729 46.457C6.70276 46.4614 6.71165 46.468 6.71683 46.4726L6.88192 46.6333C6.88799 46.6388 6.89627 46.6458 6.90248 46.6514C6.9087 46.6569 6.91698 46.6639 6.92319 46.6695L7.08458 46.8092C7.14718 46.8606 7.4247 47.0062 7.67282 47.2535C7.67814 47.2587 7.68567 47.2666 7.69099 47.2719L8.09409 47.5462C8.27235 47.6434 8.36827 47.7936 8.56874 47.888C8.69561 47.9478 8.5819 47.8817 8.68957 47.9583L8.78947 48.0394C8.86153 48.0994 8.80592 48.0688 8.89584 48.1115L9.24595 48.3241C9.27561 48.3409 9.31734 48.3559 9.34537 48.3714L9.41249 48.4153C9.41916 48.4196 9.42714 48.4269 9.43411 48.431L9.59773 48.4962C9.6929 48.5334 9.63713 48.5049 9.71365 48.5655L10.1317 48.8126C10.14 48.8166 10.1506 48.8201 10.1592 48.824C10.1679 48.8278 10.1789 48.8306 10.1877 48.8343L10.315 48.8977C10.3219 48.9019 10.3305 48.9085 10.3372 48.9131L11.2176 49.3434C11.225 49.3472 11.2332 49.3538 11.2404 49.3577C11.2477 49.3615 11.2561 49.3679 11.2636 49.3716C11.2711 49.3754 11.2805 49.3808 11.2883 49.3845L12.1165 49.7178C12.1231 49.7216 12.1314 49.7287 12.1381 49.7324L12.7632 49.9616C12.7706 49.9653 12.7795 49.9712 12.7873 49.9748C12.7957 49.9786 12.8054 49.9833 12.8141 49.987C12.8233 49.9909 12.8338 49.9941 12.8433 49.9979C12.8549 50.0025 12.8932 50.0129 12.9047 50.0175C12.9139 50.0211 12.9244 50.0244 12.9333 50.0281L13.3837 50.1797C13.4974 50.2454 13.6009 50.2299 13.7219 50.2844L14.2831 50.4733C14.6094 50.5451 14.2526 50.5362 14.5345 50.5826L14.798 50.639C14.9275 50.7049 15.0273 50.68 15.1836 50.7091C15.497 50.7676 15.1194 50.7648 15.4516 50.8107C15.5934 50.8304 15.6523 50.8119 15.7783 50.8644L16.0625 50.9306C16.3555 50.9541 16.433 51.0221 16.6841 51.0531C17.0479 51.098 16.6848 51.0981 16.9563 51.1449C17.0434 51.16 17.2421 51.1591 17.3398 51.1625C17.5025 51.1683 17.5604 51.195 17.6434 51.2313C17.8117 51.3045 18.0797 51.2715 18.3024 51.2898C18.3977 51.2977 18.3921 51.2978 18.4664 51.3211L18.9523 51.3893C19.6639 51.4074 19.3993 51.4568 19.6097 51.487C19.9916 51.5418 20.5233 51.4252 20.8961 51.5398C21.1604 51.6212 23.7289 51.6139 24.0287 51.555L24.1683 51.5078C24.3338 51.4638 24.5195 51.4732 24.6932 51.4683C24.9514 51.461 25.2098 51.4512 25.4679 51.4445C25.5103 51.4433 25.6207 51.4425 25.6563 51.4368C25.8402 51.4078 25.7036 51.4236 25.7799 51.3875L25.9254 51.343C25.9694 51.3376 26.0723 51.3365 26.1214 51.335C26.4002 51.3267 26.4113 51.3207 26.6071 51.2548C26.8533 51.1716 27.2291 51.2304 27.4685 51.1807C27.7494 51.1226 27.4063 51.1224 27.739 51.0846C27.8462 51.0725 28.0205 51.0856 28.1209 51.0591C28.3448 50.9999 28.0315 51.0899 28.2389 50.9997C28.3348 50.9578 28.4807 50.9727 28.5924 50.9535C28.8289 50.9129 28.6427 50.9424 28.7261 50.9016C28.9363 50.7989 29.2117 50.8731 29.5438 50.7372L29.7479 50.6597C29.7549 50.6561 29.7632 50.6493 29.7701 50.6459L30.2258 50.5549C30.3789 50.4897 30.1561 50.5383 30.372 50.4859C30.4141 50.4756 30.5008 50.4699 30.5419 50.465C30.6753 50.4492 30.7641 50.3961 30.8236 50.3696C30.933 50.3209 31.0499 50.342 31.1725 50.3144C31.3626 50.2715 31.1798 50.3163 31.2927 50.2584L32.2238 49.8918C32.3356 49.8388 32.4353 49.8631 32.5642 49.8338C32.7543 49.7905 32.5765 49.8259 32.7106 49.76C32.719 49.7559 32.7287 49.7507 32.7377 49.7469L33.5828 49.3772C33.8044 49.3013 33.6566 49.4275 33.7684 49.2501C33.8344 49.2447 33.9342 49.2408 33.9961 49.2237L34.8948 48.7944C35.2298 48.5605 35.2399 48.6245 35.5327 48.4483L35.579 48.4183C35.6385 48.3859 35.688 48.3732 35.7402 48.345L36.0682 48.1779C36.152 48.1055 36.1693 48.0625 36.2842 48.0185L36.4991 47.8925C36.5057 47.8869 36.5135 47.8792 36.5202 47.8737C36.527 47.8682 36.5349 47.8606 36.5419 47.8554L36.6437 47.7972C36.6668 47.7877 36.7719 47.7581 36.8687 47.6639L36.9523 47.5888C36.9972 47.5581 36.9482 47.5823 37.0302 47.5478C37.273 47.4454 37.2502 47.4104 37.422 47.2651L37.6236 47.1622C37.7184 47.1206 37.6623 47.1532 37.739 47.0865L37.9101 46.9203C37.9158 46.9151 37.9242 46.9075 37.9301 46.9024L38.3315 46.6274C38.3344 46.6253 38.4537 46.5298 38.4546 46.5289C38.4829 46.5051 38.4853 46.5025 38.5162 46.4758L38.7893 46.2213C38.8067 46.2068 38.823 46.1968 38.8516 46.1743L38.9756 46.0653C39.1339 45.9246 39.1119 46.0251 39.3428 45.7953L40.0659 45.1296C40.1633 45.0193 40.197 44.9139 40.3181 44.8095L40.8239 44.314C40.829 44.3084 40.836 44.2997 40.8412 44.2939C40.8464 44.288 40.8538 44.2796 40.8593 44.2737C40.8668 44.2656 40.8898 44.242 40.8978 44.2341C40.8999 44.232 40.9546 44.182 40.9587 44.1781C41.0842 44.0519 41.0715 43.9615 41.1725 43.868C41.1782 43.8628 41.1867 43.8557 41.1924 43.8505L41.4616 43.5191C41.5121 43.4198 41.6336 43.3397 41.7101 43.2498L41.7627 43.1895C41.7676 43.1832 41.775 43.175 41.78 43.1684C41.8528 43.0688 41.8789 42.978 41.9668 42.8976C42.0946 42.7808 42.1486 42.6316 42.262 42.4915L42.3741 42.2992C42.4507 42.1739 42.3199 42.3527 42.4205 42.2419L42.6512 41.9087C42.6524 41.9071 42.7415 41.8194 42.7433 41.8179C42.8997 41.6719 42.8878 41.5653 43.0429 41.2951L43.3426 40.7816C43.4879 40.6031 43.4595 40.6687 43.5248 40.4312C43.5605 40.301 43.674 40.1683 43.7472 40.0365C43.7809 39.9758 43.7865 39.9378 43.8209 39.8775C43.8673 39.7962 43.8249 39.886 43.866 39.8118L44.2274 38.9895C44.34 38.7976 44.2546 38.8183 44.3985 38.5696C44.4317 38.5121 44.4247 38.5006 44.4588 38.4415C44.4629 38.4345 44.4692 38.4257 44.4734 38.4191C44.4775 38.4128 44.4849 38.4047 44.4889 38.3985C44.5422 38.3169 44.52 38.2713 44.5715 38.1143C44.6192 37.9684 44.6463 38.0317 44.6858 37.8206C44.7458 37.4991 44.7418 37.8147 44.809 37.5127C44.8346 37.398 44.8086 37.4315 44.8634 37.3334C44.9524 37.1744 44.9213 37.2567 44.946 37.0237C44.9746 36.7546 45.0514 36.9649 45.0834 36.5209C45.0885 36.4501 45.0904 36.3688 45.0972 36.3C45.1194 36.0728 45.2145 36.1956 45.2247 35.7961C45.2341 35.4367 45.2458 35.6138 45.3194 35.4846C45.3725 35.3912 45.3402 35.3009 45.3803 35.1967L45.4069 35.1511C45.453 35.067 45.4353 35.2367 45.4648 35.0049C45.4859 34.8391 45.4469 34.6323 45.5069 34.4739L45.5323 34.4287C45.5737 34.3518 45.5595 34.5085 45.5908 34.283C45.6162 34.1005 45.6414 33.8773 45.5941 33.7077L45.5937 33.7077Z" fill="white"/>
<path fill-rule="evenodd" clip-rule="evenodd" d="M12.2738 61.7396C12.1851 62.8162 13.8909 64.337 15.0772 64.4297C15.3156 64.4484 15.6369 64.4331 15.8832 64.4315L30.5814 64.335C31.8489 64.3219 34.0049 63.1766 33.922 61.7099L33.9519 56.7411L12.3435 56.8825L12.3018 56.8828L12.2738 61.7395L12.2738 61.7396Z" fill="white"/>
</svg>
