<svg width="98" height="98" viewBox="0 0 98 98" fill="none" xmlns="http://www.w3.org/2000/svg">
<rect width="98" height="98" rx="49" fill="#6CC56C"/>
<path d="M52.6667 56.3333H59.6333C61.6869 56.3333 62.7136 56.3333 63.498 55.9337C64.1879 55.5822 64.7488 55.0212 65.1004 54.3313C65.5 53.547 65.5 52.5202 65.5 50.4667V38.3667C65.5 36.3131 65.5 35.2864 65.1004 34.502C64.7488 33.8121 64.1879 33.2512 63.498 32.8996C62.7136 32.5 61.6869 32.5 59.6333 32.5H43.8667C41.8131 32.5 40.7864 32.5 40.002 32.8996C39.3121 33.2512 38.7512 33.8121 38.3996 34.502C38.0245 35.2382 38.0015 36.188 38.0001 38M60 38L50.8333 47.1667L45.3333 41.6667M60 38V43.5M60 38H54.5M43.5 49C43.5 51.025 41.8584 52.6667 39.8333 52.6667C37.8083 52.6667 36.1667 51.025 36.1667 49C36.1667 46.975 37.8083 45.3333 39.8333 45.3333C41.8584 45.3333 43.5 46.975 43.5 49ZM39.8333 58.1667C41.5383 58.1667 42.3908 58.1667 43.0902 58.3541C44.9882 58.8626 46.4707 60.3452 46.9793 62.2432C47.1667 62.9426 47.1667 63.7951 47.1667 65.5H32.5C32.5 63.7951 32.5 62.9426 32.6874 62.2432C33.196 60.3452 34.6785 58.8626 36.5765 58.3541C37.2759 58.1667 38.1284 58.1667 39.8333 58.1667Z" stroke="white" stroke-width="3" stroke-linecap="round" stroke-linejoin="round"/>
</svg>
