<svg width="100" height="99" viewBox="0 0 100 99" fill="none" xmlns="http://www.w3.org/2000/svg">
<rect x="0.5" width="99" height="99" rx="49.5" fill="#036E03"/>
<path d="M47.2507 66.5H35.334C35.334 60.0348 40.1148 54.6862 46.334 53.7966M58.2463 57.7219C56.9633 56.2935 54.824 55.9092 53.2166 57.2172C51.6092 58.5252 51.3829 60.7122 52.6452 62.2591C53.3578 63.1325 55.0511 64.6636 56.3905 65.8314C57.0258 66.3852 57.3434 66.6622 57.7276 66.7755C58.0552 66.8721 58.4373 66.8721 58.7649 66.7755C59.1491 66.6622 59.4667 66.3852 60.102 65.8314C61.4415 64.6636 63.1347 63.1325 63.8473 62.2591C65.1096 60.7122 64.911 58.5115 63.2759 57.2172C61.6409 55.923 59.5292 56.2935 58.2463 57.7219ZM55.5007 40.8333C55.5007 44.8834 52.2174 48.1667 48.1673 48.1667C44.1172 48.1667 40.834 44.8834 40.834 40.8333C40.834 36.7832 44.1172 33.5 48.1673 33.5C52.2174 33.5 55.5007 36.7832 55.5007 40.8333Z" stroke="white" stroke-width="3" stroke-linecap="round" stroke-linejoin="round"/>
</svg>
