<svg width="99" height="99" viewBox="0 0 99 99" fill="none" xmlns="http://www.w3.org/2000/svg">
<rect width="99" height="99" rx="49.5" fill="#6CC56C"/>
<path d="M39 60.4651C35.6244 57.4438 33.5 53.0533 33.5 48.1665C33.5 39.0538 40.8873 31.6665 50 31.6665C59.1127 31.6665 66.5 39.0538 66.5 48.1665C66.5 53.0533 64.3756 57.4438 61 60.4651M42.3044 53.149C41.3738 51.7146 40.8333 50.0037 40.8333 48.1665C40.8333 43.1039 44.9374 38.9998 50 38.9998C55.0626 38.9998 59.1667 43.1039 59.1667 48.1665C59.1667 50.0013 58.6276 51.7102 57.6992 53.1435M50 68.3332C47.975 68.3332 46.3333 66.6915 46.3333 64.6665V60.9998C46.3333 58.9748 47.975 57.3332 50 57.3332C52.025 57.3332 53.6667 58.9748 53.6667 60.9998V64.6665C53.6667 66.6915 52.025 68.3332 50 68.3332ZM51.8333 48.1665C51.8333 49.179 51.0125 49.9998 50 49.9998C48.9875 49.9998 48.1667 49.179 48.1667 48.1665C48.1667 47.154 48.9875 46.3332 50 46.3332C51.0125 46.3332 51.8333 47.154 51.8333 48.1665Z" stroke="white" stroke-width="3" stroke-linecap="round" stroke-linejoin="round"/>
</svg>
