<svg width="100" height="99" viewBox="0 0 100 99" fill="none" xmlns="http://www.w3.org/2000/svg">
<rect x="0.5" width="99" height="99" rx="49.5" fill="#036E03"/>
<path fill-rule="evenodd" clip-rule="evenodd" d="M40.9399 33H59.0604C60.0592 33 60.8985 33 61.5853 33.0561C62.3034 33.1147 62.9858 33.2422 63.6336 33.5722C64.6215 34.0756 65.4246 34.8787 65.9279 35.8666C66.258 36.5143 66.3854 37.1968 66.4441 37.9149C66.5002 38.6017 66.5002 39.4409 66.5002 40.4397V58.5603C66.5002 59.5591 66.5002 60.3983 66.4441 61.0851C66.3854 61.8032 66.258 62.4857 65.9279 63.1335C65.4246 64.1213 64.6215 64.9245 63.6336 65.4278C62.9858 65.7579 62.3034 65.8853 61.5853 65.9439C60.8985 66 60.0592 66 59.0604 66H47.1877C46.3592 66 45.6877 65.3284 45.6877 64.5C45.6877 63.6716 46.3592 63 47.1877 63H59.0002C60.075 63 60.7909 62.9988 61.341 62.9539C61.8736 62.9104 62.1173 62.8334 62.2716 62.7548C62.695 62.5391 63.0392 62.1948 63.2549 61.7715C63.3336 61.6171 63.4105 61.3734 63.4541 60.8408C63.499 60.2908 63.5002 59.5749 63.5002 58.5V40.5C63.5002 39.4252 63.499 38.7092 63.4541 38.1592C63.4105 37.6266 63.3336 37.3829 63.2549 37.2285C63.0392 36.8052 62.695 36.461 62.2716 36.2452C62.1173 36.1666 61.8736 36.0896 61.341 36.0461C60.7909 36.0012 60.075 36 59.0002 36H41.0002C39.9253 36 39.2094 36.0012 38.6593 36.0461C38.1268 36.0896 37.8831 36.1666 37.7287 36.2452C37.3053 36.461 36.9611 36.8052 36.7454 37.2285C36.6667 37.3829 36.5898 37.6266 36.5463 38.1592C36.5013 38.7092 36.5002 39.4252 36.5002 40.5V43.875C36.5002 44.7034 35.8286 45.375 35.0002 45.375C34.1717 45.375 33.5002 44.7034 33.5002 43.875L33.5002 40.4398C33.5001 39.441 33.5001 38.6017 33.5562 37.9149C33.6149 37.1968 33.7423 36.5143 34.0724 35.8666C34.5757 34.8787 35.3789 34.0756 36.3667 33.5722C37.0145 33.2422 37.6969 33.1147 38.415 33.0561C39.1018 33 39.9411 33 40.9399 33ZM52.2502 40.125C52.2502 39.2966 52.9217 38.625 53.7502 38.625H59.3752C60.2036 38.625 60.8752 39.2966 60.8752 40.125V45.75C60.8752 46.5784 60.2036 47.25 59.3752 47.25C58.5467 47.25 57.8752 46.5784 57.8752 45.75V43.3276L49.0854 50.6523C48.6383 51.0249 48.016 51.1053 47.4889 50.8584C46.9618 50.6115 46.6252 50.082 46.6252 49.5V46.6778L43.3322 48.8731C42.6429 49.3326 41.7116 49.1463 41.2521 48.4571C40.7926 47.7678 40.9788 46.8365 41.6681 46.3769L47.2931 42.6269C47.7534 42.3201 48.3452 42.2915 48.8329 42.5525C49.3207 42.8135 49.6252 43.3218 49.6252 43.875V46.2974L55.2321 41.625H53.7502C52.9217 41.625 52.2502 40.9534 52.2502 40.125ZM36.8752 49.875C37.7036 49.875 38.3752 50.5466 38.3752 51.375V52.4626C39.2925 52.4844 40.2548 52.5503 40.9863 52.7317C41.7903 52.9311 42.2805 53.7446 42.081 54.5487C41.8816 55.3527 41.0681 55.8429 40.2641 55.6434C39.5488 55.466 38.2331 55.446 36.8852 55.455C36.7691 55.4558 36.6884 55.4552 36.6228 55.4537C36.5892 55.4529 36.5623 55.4519 36.5401 55.4509L36.5008 55.4493C36.4905 55.4489 36.4456 55.4471 36.1685 55.4544C35.5695 55.4736 35.1432 55.6081 34.9096 55.769C34.8065 55.8401 34.7479 55.9105 34.7101 55.9822C34.6725 56.0538 34.6256 56.1841 34.6252 56.4167C34.6248 56.6322 34.674 56.7359 34.7089 56.7904C34.7491 56.8531 34.8302 56.9411 35.0055 57.0353C35.3931 57.2434 36.0436 57.3751 36.8752 57.3751C37.8746 57.3751 39.1089 57.4811 40.1396 58.0115C40.6806 58.2898 41.1973 58.7014 41.5723 59.297C41.9496 59.8964 42.1252 60.5899 42.1252 61.336C42.1252 62.7096 41.3936 63.6971 40.4287 64.3017C39.8156 64.6858 39.0993 64.9277 38.3752 65.0806V66.375C38.3752 67.2034 37.7036 67.875 36.8752 67.875C36.0467 67.875 35.3752 67.2034 35.3752 66.375V65.2454C34.7088 65.2295 33.9853 65.1818 32.9391 65.051C32.1171 64.9482 31.534 64.1985 31.6367 63.3765C31.7395 62.5545 32.4892 61.9714 33.3112 62.0741C34.7971 62.2599 35.4747 62.2563 36.5617 62.2505C36.7394 62.2496 36.928 62.2486 37.1328 62.2483C37.9424 62.1461 38.508 61.9649 38.8358 61.7595C38.9905 61.6625 39.0537 61.5841 39.0794 61.542C39.0993 61.5094 39.1252 61.4553 39.1252 61.336C39.1252 61.0684 39.0663 60.9474 39.0335 60.8953C38.9983 60.8394 38.9291 60.7624 38.767 60.679C38.3914 60.4857 37.7507 60.3751 36.8752 60.3751C35.8317 60.3751 34.6056 60.2257 33.5861 59.6782C32.4622 59.0746 31.6224 57.9867 31.6252 56.4115C31.6276 55.0295 32.2402 53.965 33.2076 53.2985C33.8744 52.8392 34.6454 52.6102 35.3752 52.5128V51.375C35.3752 50.5466 36.0467 49.875 36.8752 49.875ZM46.6252 57C46.6252 56.1716 47.2967 55.5 48.1252 55.5H59.3752C60.2036 55.5 60.8752 56.1716 60.8752 57C60.8752 57.8284 60.2036 58.5 59.3752 58.5H48.1252C47.2967 58.5 46.6252 57.8284 46.6252 57Z" fill="white"/>
</svg>
