<svg width="98" height="98" viewBox="0 0 98 98" fill="none" xmlns="http://www.w3.org/2000/svg">
<rect width="98" height="98" rx="49" fill="#6CC56C"/>
<path d="M61.8333 32.5V39.8333M58.1667 36.1667H65.5M61.8333 58.1667V65.5M58.1667 61.8333H65.5M45.3333 36.1667L42.6383 42.9999C42.2938 43.8734 42.1216 44.3102 41.8578 44.6784C41.624 45.0049 41.3382 45.2907 41.0118 45.5245C40.6435 45.7883 40.2067 45.9605 39.3332 46.305L32.5 49L39.3332 51.695C40.2067 52.0395 40.6435 52.2117 41.0118 52.4755C41.3382 52.7093 41.624 52.9951 41.8578 53.3216C42.1216 53.6898 42.2938 54.1266 42.6383 55.0001L45.3333 61.8333L48.0283 55.0001C48.3728 54.1266 48.5451 53.6898 48.8088 53.3216C49.0426 52.9951 49.3285 52.7093 49.6549 52.4755C50.0232 52.2117 50.4599 52.0395 51.3334 51.695L58.1667 49L51.3334 46.305C50.4599 45.9605 50.0232 45.7883 49.6549 45.5245C49.3285 45.2907 49.0426 45.0049 48.8088 44.6784C48.5451 44.3102 48.3728 43.8734 48.0283 42.9999L45.3333 36.1667Z" stroke="white" stroke-width="3" stroke-linecap="round" stroke-linejoin="round"/>
</svg>
