<svg width="98" height="98" viewBox="0 0 98 98" fill="none" xmlns="http://www.w3.org/2000/svg">
<rect width="98" height="98" rx="49" fill="#036E03"/>
<path d="M63.6672 45.3335V40.2002C63.6672 38.1466 63.6672 37.1199 63.312 36.3355C62.9995 35.6456 62.5009 35.0847 61.8876 34.7331C61.1904 34.3335 60.2777 34.3335 58.4524 34.3335H39.5487C37.7233 34.3335 36.8106 34.3335 36.1134 34.7331C35.5002 35.0847 35.0016 35.6456 34.6891 36.3355C34.3339 37.1199 34.3339 38.1466 34.3339 40.2002V45.3335M38.6222 52.6668H38.6406M33.4355 63.6668C34.1906 61.5306 36.2279 60.0002 38.6226 60.0002C41.0173 60.0002 43.0546 61.5306 43.8096 63.6668M48.999 52.6668H49.0173M43.8123 63.6668C44.5673 61.5306 46.6046 60.0002 48.9993 60.0002C51.3941 60.0002 53.4313 61.5306 54.1864 63.6668M59.3755 52.6668H59.3938M54.1888 63.6668C54.9438 61.5306 56.9811 60.0002 59.3758 60.0002C61.7706 60.0002 63.8078 61.5306 64.5629 63.6668M40.4556 52.6668C40.4556 53.6794 39.6348 54.5002 38.6222 54.5002C37.6097 54.5002 36.7889 53.6794 36.7889 52.6668C36.7889 51.6543 37.6097 50.8335 38.6222 50.8335C39.6348 50.8335 40.4556 51.6543 40.4556 52.6668ZM50.8323 52.6668C50.8323 53.6794 50.0115 54.5002 48.999 54.5002C47.9864 54.5002 47.1656 53.6794 47.1656 52.6668C47.1656 51.6543 47.9864 50.8335 48.999 50.8335C50.0115 50.8335 50.8323 51.6543 50.8323 52.6668ZM61.2088 52.6668C61.2088 53.6794 60.388 54.5002 59.3755 54.5002C58.3629 54.5002 57.5421 53.6794 57.5421 52.6668C57.5421 51.6543 58.3629 50.8335 59.3755 50.8335C60.388 50.8335 61.2088 51.6543 61.2088 52.6668Z" stroke="white" stroke-width="3" stroke-linecap="round" stroke-linejoin="round"/>
</svg>
