<svg width="35" height="35" viewBox="0 0 35 35" fill="none" xmlns="http://www.w3.org/2000/svg">
<circle cx="17.0923" cy="17.7017" r="17.0923" fill="#036E03"/>
<path d="M13.009 12.6233C12.936 12.6255 12.8641 12.6414 12.7978 12.6701C12.7314 12.6988 12.6719 12.7397 12.6227 12.7903C12.5735 12.841 12.5357 12.9003 12.5114 12.9649C12.4872 13.0295 12.477 13.098 12.4815 13.1663C12.5545 14.3383 12.8985 17.1979 14.5456 18.9813C16.518 21.1299 19.0867 21.8702 21.7221 21.7609C21.8633 21.753 21.9961 21.6951 22.0937 21.599C22.1912 21.503 22.2462 21.3758 22.2475 21.2432V19.3661C22.2458 19.191 22.1814 19.0214 22.0646 18.8847C21.9478 18.748 21.7853 18.652 21.6032 18.6121L20.2834 18.3387C20.1202 18.3061 19.9503 18.3201 19.7957 18.3789C19.641 18.4378 19.5088 18.5388 19.4161 18.6688L19.1242 19.0829C19.0974 19.1208 19.0573 19.1487 19.0109 19.1619C18.9645 19.1751 18.9146 19.1727 18.8698 19.1551C18.1985 18.8836 15.5235 17.7117 15.2295 15.7349C15.2237 15.6967 15.2302 15.6578 15.248 15.6231C15.2658 15.5883 15.2942 15.5592 15.3296 15.5396L15.8592 15.2368C16.0044 15.1525 16.1185 15.0284 16.186 14.8813C16.2535 14.7342 16.2711 14.5713 16.2365 14.4145L15.9467 13.1565C15.9044 12.9803 15.7981 12.8232 15.646 12.7121C15.494 12.601 15.3055 12.5427 15.1127 12.5471L13.009 12.6233Z" fill="white" stroke="white" stroke-width="0.542612"/>
</svg>
